<svg width="19" height="15" viewBox="0 0 19 15" fill="none" xmlns="http://www.w3.org/2000/svg">
<path d="M12.3422 14.0927C11.9605 14.0907 11.6169 13.7235 11.6188 13.2255L11.6653 1.00943C11.6672 0.511507 12.0134 0.148066 12.3949 0.150008C12.7766 0.151951 13.1202 0.51922 13.1183 1.01721L13.0718 13.2332C13.0699 13.7312 12.7236 14.0946 12.3422 14.0927Z" fill="white" stroke="#0841E2" stroke-width="0.3"/>
<path d="M4.23509 14.1495L3.24765 14.1445C3.14812 14.144 3.06323 14.061 3.04625 13.9476L2.42151 9.77734L3.91772 9.78496L4.51435 13.7677C4.54432 13.9677 4.41067 14.1504 4.23509 14.1495Z" fill="white"/>
<path d="M5.78047 4.40385L5.77024 7.08854L5.76001 9.77324C10.0236 9.97003 11.4691 13.085 11.4691 13.085L11.5146 1.15039C11.5146 1.15039 10.0454 4.25046 5.78047 4.40385Z" fill="white"/>
<path d="M2.35133 9.80051L4.90781 9.81352L4.92861 4.35289L2.37212 4.33987C1.06779 4.33323 0.00576615 5.55025 2.32894e-05 7.05816C-0.00570773 8.56608 1.047 9.79385 2.35133 9.80051Z" fill="white"/>
<path d="M4.18101 9.71349L4.18101 9.71349L4.20108 4.44424C4.20108 4.44424 4.20108 4.44424 4.20108 4.44424C4.20122 4.40797 4.21407 4.37891 4.22998 4.36068C4.24561 4.34277 4.26151 4.33744 4.27386 4.3375L4.27386 4.3375L6.11798 4.34689C6.11798 4.34689 6.11798 4.34689 6.11798 4.34689C6.13036 4.34696 6.14635 4.35249 6.16196 4.37069C6.17783 4.3892 6.19046 4.41848 6.19033 4.45475L6.17026 9.72401C6.17012 9.76026 6.15727 9.78931 6.14135 9.80755C6.12572 9.82546 6.10982 9.8308 6.09747 9.83074C6.09747 9.83074 6.09746 9.83074 6.09746 9.83074L4.25335 9.82135C4.24098 9.82129 4.22498 9.81576 4.20937 9.79755C4.1935 9.77904 4.18087 9.74976 4.18101 9.71349Z" fill="white" stroke="#0841E2" stroke-width="0.3"/>
<path d="M17.9714 7.49351H15.1341C14.983 7.49351 14.8605 7.35189 14.8605 7.1772V7.06239C14.8605 6.88771 14.983 6.74609 15.1341 6.74609H17.9714C18.1225 6.74609 18.245 6.88771 18.245 7.06239V7.1772C18.245 7.35189 18.1225 7.49351 17.9714 7.49351Z" fill="white"/>
<path d="M17.7067 1.66616L15.1767 4.02339C15.066 4.1266 14.9243 4.06535 14.8604 3.88661C14.7965 3.70787 14.8344 3.47932 14.9452 3.37612L17.4751 1.01888C17.5859 0.915681 17.7275 0.976926 17.7915 1.15566C17.8554 1.3344 17.8175 1.56296 17.7067 1.66616Z" fill="white"/>
<path d="M17.7067 12.5753L15.1767 10.2181C15.066 10.1149 14.9243 10.1761 14.8604 10.3549C14.7965 10.5336 14.8344 10.7622 14.9452 10.8654L17.4751 13.2226C17.5859 13.3258 17.7275 13.2646 17.7915 13.0858C17.8554 12.9071 17.8175 12.6785 17.7067 12.5753Z" fill="white"/>
</svg>
