<svg width="19" height="15" viewBox="0 0 19 15" fill="none" xmlns="http://www.w3.org/2000/svg">
<path d="M12.7721 0.900391C13.13 0.902212 13.4544 1.22493 13.4918 1.67578L13.4957 1.76758L13.4489 13.9834C13.4469 14.4812 13.1008 14.8447 12.7194 14.8428C12.3617 14.8407 12.0373 14.5179 11.9996 14.0674L11.9967 13.9756L12.0426 1.75977C12.0445 1.262 12.3908 0.898671 12.7721 0.900391Z" fill="black" stroke="black" stroke-width="0.3"/>
<path d="M4.28925 10.5391L4.88593 14.5176C4.9155 14.715 4.78341 14.8935 4.61249 14.8926L3.62518 14.8877C3.55313 14.8873 3.48811 14.842 3.45331 14.7725L3.42987 14.6953L2.80585 10.5322L4.28925 10.5391Z" fill="black" stroke="black" stroke-width="0.012"/>
<path d="M11.8407 13.8076C11.839 13.8042 11.837 13.8001 11.8348 13.7959C11.8232 13.773 11.805 13.7399 11.7811 13.6973C11.7332 13.6116 11.6606 13.4885 11.5594 13.3408C11.3571 13.0454 11.0422 12.6491 10.5946 12.2471C9.70013 11.4438 8.27336 10.6162 6.14343 10.5166L6.15417 7.83789L6.16296 5.1582C8.29437 5.08042 9.72813 4.26706 10.6288 3.47266C11.0791 3.07542 11.3959 2.68288 11.6005 2.38965C11.7027 2.24304 11.7775 2.12134 11.826 2.03613C11.8502 1.99381 11.8679 1.9603 11.8798 1.9375C11.8822 1.93279 11.8837 1.92762 11.8856 1.92383L11.8407 13.8076Z" fill="black" stroke="black" stroke-width="0.012"/>
<path d="M2.74963 5.0957L5.29944 5.1084L5.27893 10.5566L2.72913 10.5449C1.42901 10.5383 0.377896 9.31386 0.383423 7.80859L0.397095 7.5293C0.51474 6.24743 1.40005 5.23308 2.50842 5.1084L2.74963 5.0957Z" fill="black" stroke="black" stroke-width="0.012"/>
<path d="M4.65179 5.08887L6.49554 5.09766C6.50793 5.09772 6.52388 5.10386 6.53949 5.12207C6.54741 5.13135 6.5549 5.14305 6.56 5.15723L6.56781 5.20605L6.54828 10.4746C6.54814 10.5109 6.5349 10.5404 6.51898 10.5586C6.50335 10.5765 6.48737 10.5821 6.47504 10.582L4.63129 10.5723C4.61898 10.5722 4.60286 10.5668 4.58734 10.5488C4.57933 10.5395 4.57197 10.527 4.56683 10.5127L4.55902 10.4648L4.57855 5.19531C4.57869 5.15904 4.59194 5.12956 4.60785 5.11133C4.61539 5.10276 4.62309 5.09729 4.63031 5.09375L4.65179 5.08887Z" fill="black" stroke="black" stroke-width="0.3"/>
<path d="M15.5115 7.50391H18.3494C18.4962 7.50417 18.6169 7.6424 18.6169 7.81445V7.92871C18.6169 8.10076 18.4962 8.23899 18.3494 8.23926H15.5115C15.3645 8.23916 15.2439 8.10087 15.2439 7.92871V7.81445C15.2439 7.66387 15.3363 7.53964 15.4578 7.51074L15.5115 7.50391Z" fill="black" stroke="black" stroke-width="0.012"/>
<path d="M18.0262 1.73828C18.0813 1.76219 18.1314 1.82026 18.163 1.9082C18.1946 1.99651 18.2016 2.09797 18.1864 2.18945C18.175 2.25805 18.1509 2.3207 18.1171 2.36914L18.08 2.41309L15.5507 4.76953C15.4968 4.81968 15.4356 4.83035 15.3807 4.80664C15.3256 4.78278 15.2756 4.72396 15.244 4.63574C15.2125 4.54759 15.2055 4.44682 15.2206 4.35547C15.232 4.28672 15.256 4.22332 15.2899 4.1748L15.327 4.13184L17.8563 1.77441C17.9101 1.72426 17.9714 1.71457 18.0262 1.73828Z" fill="black" stroke="black" stroke-width="0.012"/>
<path d="M15.3807 10.9375C15.4218 10.9197 15.4664 10.9206 15.5087 10.9434L15.5507 10.9736L18.08 13.3311C18.134 13.3815 18.1712 13.4631 18.1864 13.5547C18.2015 13.646 18.1945 13.7468 18.163 13.835C18.1313 13.9232 18.0814 13.982 18.0262 14.0059C17.9851 14.0237 17.9407 14.0219 17.8983 13.999L17.8563 13.9688L15.327 11.6123C15.273 11.5619 15.2358 11.4802 15.2206 11.3887C15.2054 11.2972 15.2124 11.1957 15.244 11.1074C15.2756 11.0195 15.3257 10.9614 15.3807 10.9375Z" fill="black" stroke="black" stroke-width="0.012"/>
</svg>
