<svg width="500" height="373" viewBox="0 0 500 373" fill="none" xmlns="http://www.w3.org/2000/svg">
<path d="M500 327.445H0V327.695H500V327.445Z" fill="#EBEBEB"/>
<path d="M449.899 343.541H416.777V343.791H449.899V343.541Z" fill="#EBEBEB"/>
<path d="M331.22 346.256H322.527V346.506H331.22V346.256Z" fill="#EBEBEB"/>
<path d="M415.778 334.256H396.586V334.506H415.778V334.256Z" fill="#EBEBEB"/>
<path d="M95.6539 335.936H52.4609V336.186H95.6539V335.936Z" fill="#EBEBEB"/>
<path d="M110.888 335.936H104.555V336.186H110.888V335.936Z" fill="#EBEBEB"/>
<path d="M225.149 340.158H131.473V340.408H225.149V340.158Z" fill="#EBEBEB"/>
<path d="M237.014 282.848H43.915C40.768 282.848 38.207 280.287 38.207 277.14V5.708C38.207 2.561 40.768 0 43.915 0H237.014C240.16 0 242.721 2.561 242.721 5.708V277.14C242.721 280.287 240.16 282.848 237.014 282.848ZM43.915 0.250999C40.905 0.250999 38.457 2.699 38.457 5.709V277.141C38.457 280.151 40.905 282.599 43.915 282.599H237.014C240.023 282.599 242.471 280.151 242.471 277.141V5.708C242.471 2.699 240.023 0.25 237.014 0.25L43.915 0.250999Z" fill="#EBEBEB"/>
<path d="M453.309 282.848H260.211C257.064 282.848 254.504 280.287 254.504 277.14V5.708C254.504 2.561 257.065 0 260.211 0H453.309C456.457 0 459.017 2.561 459.017 5.708V277.14C459.018 280.287 456.457 282.848 453.309 282.848ZM260.211 0.250999C257.202 0.250999 254.754 2.699 254.754 5.709V277.141C254.754 280.151 257.202 282.599 260.211 282.599H453.309C456.319 282.599 458.767 280.151 458.767 277.141V5.708C458.767 2.699 456.319 0.25 453.309 0.25L260.211 0.250999Z" fill="#EBEBEB"/>
<path d="M289.692 119.105L427.473 119.105V28.8785L289.692 28.8785V119.105Z" fill="#E6E6E6"/>
<path d="M285.488 119.105L425.508 119.105V28.8785L285.488 28.8785V119.105Z" fill="#F0F0F0"/>
<path d="M289.692 136.812L427.473 136.812V119.105L289.692 119.105V136.812Z" fill="#E6E6E6"/>
<path d="M278.484 136.812L418.504 136.812V119.105L278.484 119.105V136.812Z" fill="#F0F0F0"/>
<path d="M419.625 113.222V34.7656L291.376 34.7656V113.222L419.625 113.222Z" fill="#FAFAFA"/>
<path d="M390.703 113.222L374.323 34.7656H348.762L365.142 113.222H390.703Z" fill="white"/>
<path d="M416.898 107.362C417.13 107.362 417.319 107.174 417.319 106.942V38.5938C417.319 38.3618 417.131 38.1738 416.898 38.1738C416.666 38.1738 416.477 38.3618 416.477 38.5938V106.942C416.477 107.174 416.666 107.362 416.898 107.362Z" fill="#F0F0F0"/>
<path d="M359.651 113.222L343.271 34.7656H333.305L349.686 113.222H359.651Z" fill="white"/>
<path d="M292.121 113.222V34.7656H291.374V113.222H292.121Z" fill="#E6E6E6"/>
<path opacity="0.6" d="M284.098 43.6387H421.879L422.42 37.0527H284.639L284.098 43.6387Z" fill="#EBEBEB"/>
<path opacity="0.6" d="M284.098 54.4415H421.879L422.42 47.8555H284.639L284.098 54.4415Z" fill="#EBEBEB"/>
<path opacity="0.6" d="M284.098 65.2422H421.879L422.42 58.6562H284.639L284.098 65.2422Z" fill="#EBEBEB"/>
<path opacity="0.6" d="M284.098 76.045H421.879L422.42 69.459H284.639L284.098 76.045Z" fill="#EBEBEB"/>
<path opacity="0.6" d="M284.098 86.8458H421.879L422.42 80.2598H284.639L284.098 86.8458Z" fill="#EBEBEB"/>
<path opacity="0.6" d="M284.098 97.6485H421.879L422.42 91.0625H284.639L284.098 97.6485Z" fill="#EBEBEB"/>
<path d="M407.69 261.828H378.801V267.524H407.69V261.828Z" fill="#E6E6E6"/>
<path d="M324.308 327.445H329.641V196.38H324.308V327.445Z" fill="#E6E6E6"/>
<path d="M305.834 267.525H378.797V261.829H305.834V267.525Z" fill="#F5F5F5"/>
<path d="M407.69 292.996H378.801V298.692H407.69V292.996Z" fill="#E6E6E6"/>
<path d="M305.834 298.691H378.797V292.995H305.834V298.691Z" fill="#F5F5F5"/>
<path d="M407.69 199.496H378.801V205.192H407.69V199.496Z" fill="#E6E6E6"/>
<path d="M305.834 205.191H378.797V199.495H305.834V205.191Z" fill="#F5F5F5"/>
<path d="M407.69 230.662H378.801V236.358H407.69V230.662Z" fill="#E6E6E6"/>
<path d="M305.834 236.357H378.797V230.661H305.834V236.357Z" fill="#F5F5F5"/>
<path d="M397.272 327.445H402.605V196.38H397.272V327.445Z" fill="#E6E6E6"/>
<path d="M373.468 327.445H378.801V196.38H373.468V327.445Z" fill="#F5F5F5"/>
<path d="M305.835 327.445H311.168V196.38H305.835V327.445Z" fill="#F5F5F5"/>
<path d="M65.3751 327.447H119.953L119.953 221.555H65.3751L65.3751 327.447Z" fill="#E6E6E6"/>
<path d="M79.949 327.448H65.375V312.83H95.229L79.949 327.448Z" fill="#FAFAFA"/>
<path d="M214.184 327.447H268.762V221.555H214.184V327.447Z" fill="#E6E6E6"/>
<path d="M65.3773 322.416H226.906V221.555H65.3773V322.416Z" fill="#FAFAFA"/>
<path d="M212.332 327.448H226.906V312.83H197.051L212.332 327.448Z" fill="#FAFAFA"/>
<path d="M76.6807 284.379H215.598V259.138H76.6807V284.379Z" fill="#F0F0F0"/>
<path d="M76.6807 315.016H215.598V289.775H76.6807V315.016Z" fill="#F0F0F0"/>
<path d="M103.084 261.838H189.192C191.719 261.838 193.768 259.789 193.768 257.261V256.953H98.5078V257.261C98.5078 259.789 100.557 261.838 103.084 261.838Z" fill="#FAFAFA"/>
<path d="M76.6807 253.744L215.598 253.744V228.503L76.6807 228.503V253.744Z" fill="#F0F0F0"/>
<path d="M103.084 231.201H189.192C191.719 231.201 193.768 229.152 193.768 226.624V226.316H98.5078V226.624C98.5078 229.152 100.557 231.201 103.084 231.201Z" fill="#FAFAFA"/>
<path d="M103.084 292.474H189.192C191.719 292.474 193.768 290.425 193.768 287.898V287.59H98.5078V287.898C98.5078 290.425 100.557 292.474 103.084 292.474Z" fill="#FAFAFA"/>
<path d="M74.0667 119.105L211.848 119.105V28.8785L74.0667 28.8785V119.105Z" fill="#E6E6E6"/>
<path d="M69.8628 119.105L209.883 119.105V28.8785L69.8628 28.8785V119.105Z" fill="#F0F0F0"/>
<path d="M74.0667 136.812L211.848 136.812V119.105L74.0667 119.105V136.812Z" fill="#E6E6E6"/>
<path d="M62.8589 136.812L202.879 136.812V119.105L62.8589 119.105V136.812Z" fill="#F0F0F0"/>
<path d="M204 113.222L204 34.7656L75.751 34.7656L75.751 113.222L204 113.222Z" fill="#FAFAFA"/>
<path d="M175.079 113.222L158.698 34.7656H133.137L149.518 113.222H175.079Z" fill="white"/>
<path d="M201.273 107.362C201.505 107.362 201.693 107.174 201.693 106.942V38.5938C201.693 38.3618 201.505 38.1738 201.273 38.1738C201.041 38.1738 200.852 38.3618 200.852 38.5938V106.942C200.853 107.174 201.041 107.362 201.273 107.362Z" fill="#F0F0F0"/>
<path d="M144.026 113.222L127.645 34.7656H117.68L134.061 113.222H144.026Z" fill="white"/>
<path d="M76.4961 113.222L76.4961 34.7656H75.7491L75.7491 113.222H76.4961Z" fill="#E6E6E6"/>
<path opacity="0.6" d="M68.4727 43.6387H206.254L206.796 37.0527H69.0147L68.4727 43.6387Z" fill="#EBEBEB"/>
<path opacity="0.6" d="M68.4727 47.3546H206.254L206.796 40.7676H69.0147L68.4727 47.3546Z" fill="#EBEBEB"/>
<path opacity="0.6" d="M68.4727 51.0704H206.254L206.796 44.4844H69.0147L68.4727 51.0704Z" fill="#EBEBEB"/>
<path opacity="0.6" d="M68.4727 54.7862H206.254L206.796 48.1992H69.0147L68.4727 54.7862Z" fill="#EBEBEB"/>
<path opacity="0.6" d="M68.4727 58.5001H206.254L206.796 51.9141H69.0147L68.4727 58.5001Z" fill="#EBEBEB"/>
<path opacity="0.6" d="M68.4727 62.2149H206.254L206.796 55.6289H69.0147L68.4727 62.2149Z" fill="#EBEBEB"/>
<path d="M96.0143 218.32H100.777V165.228H96.0143V218.32Z" fill="#F5F5F5"/>
<path d="M96.6277 218.283H97.9727V165.191H96.6277V218.283Z" fill="#FAFAFA"/>
<path d="M98.5355 218.283H99.0625V165.191H98.5355V218.283Z" fill="#FAFAFA"/>
<path d="M80.7617 221.556H116.026C116.026 219.102 114.037 217.113 111.583 217.113H85.2047C82.7507 217.113 80.7617 219.102 80.7617 221.556Z" fill="#F0F0F0"/>
<path d="M89.8348 198.187C90.5888 198.187 91.2048 197.57 91.2048 196.817V162.007C91.2048 161.254 90.5878 160.637 89.8348 160.637C89.0808 160.637 88.4648 161.254 88.4648 162.007V196.817C88.4648 197.571 89.0808 198.187 89.8348 198.187Z" fill="#F0F0F0"/>
<path d="M77.0742 177.848H119.716L114.811 148.049H81.9792L77.0742 177.848Z" fill="#E0E0E0"/>
<path d="M249.998 372.609C357.08 372.609 443.887 367.539 443.887 361.286C443.887 355.032 357.08 349.963 249.998 349.963C142.916 349.963 56.1094 355.032 56.1094 361.286C56.1094 367.539 142.916 372.609 249.998 372.609Z" fill="#F5F5F5"/>
<path d="M104.107 147.411L103.109 147.482L104.437 165.923L105.434 165.852L104.107 147.411Z" fill="#407BFF"/>
<path d="M106.138 175.366L105.141 175.438L105.641 182.374L106.638 182.303L106.138 175.366Z" fill="#407BFF"/>
<path d="M337.711 260.211H123.553C118.709 260.211 114.461 256.248 114.112 251.404L103.589 105.274C103.24 100.43 106.918 96.4668 111.762 96.4668H325.92C330.764 96.4668 335.012 100.43 335.361 105.274L345.884 251.404C346.232 256.248 342.555 260.211 337.711 260.211Z" fill="#407BFF"/>
<path d="M338.532 260.211H124.374C119.53 260.211 115.282 256.248 114.933 251.404L104.41 105.274C104.061 100.43 107.739 96.4668 112.583 96.4668H326.741C331.585 96.4668 335.833 100.43 336.182 105.274L346.705 251.404C347.053 256.248 343.376 260.211 338.532 260.211Z" fill="#407BFF"/>
<path opacity="0.5" d="M338.532 260.211H124.374C119.53 260.211 115.282 256.248 114.933 251.404L104.41 105.274C104.061 100.43 107.739 96.4668 112.583 96.4668H326.741C331.585 96.4668 335.833 100.43 336.182 105.274L346.705 251.404C347.053 256.248 343.376 260.211 338.532 260.211Z" fill="white"/>
<path d="M327.057 100.871H112.899C112.657 100.871 112.418 100.881 112.182 100.9C106.708 101.351 107.826 109.678 113.351 109.678H327.874C333.399 109.678 333.318 101.351 327.779 100.9C327.54 100.881 327.299 100.871 327.057 100.871Z" fill="#407BFF"/>
<path d="M118.477 105.275C118.557 106.39 117.719 107.294 116.603 107.294C115.488 107.294 114.519 106.39 114.439 105.275C114.359 104.16 115.197 103.256 116.313 103.256C117.429 103.256 118.397 104.159 118.477 105.275Z" fill="#FAFAFA"/>
<path d="M125.344 105.275C125.424 106.39 124.586 107.294 123.47 107.294C122.355 107.294 121.386 106.39 121.306 105.275C121.226 104.16 122.064 103.256 123.18 103.256C124.295 103.256 125.264 104.159 125.344 105.275Z" fill="#FAFAFA"/>
<path d="M132.212 105.275C132.292 106.39 131.453 107.294 130.338 107.294C129.223 107.294 128.254 106.39 128.173 105.275C128.093 104.16 128.932 103.256 130.047 103.256C131.162 103.256 132.131 104.159 132.212 105.275Z" fill="#FAFAFA"/>
<path d="M332.852 245.627H127.949C126.186 245.627 124.653 244.197 124.526 242.434L115.872 122.261C115.745 120.498 117.072 119.068 118.835 119.068H323.738C325.501 119.068 327.034 120.497 327.161 122.261L335.815 242.434C335.942 244.197 334.615 245.627 332.852 245.627Z" fill="white"/>
<path d="M246.532 199.848L243.197 153.529L233.089 147.445H205.285L209.059 199.848H246.532Z" fill="white"/>
<path d="M246.532 200.333H209.059C208.805 200.333 208.594 200.137 208.576 199.883L204.802 147.48C204.792 147.346 204.839 147.213 204.931 147.115C205.023 147.016 205.151 146.961 205.286 146.961H233.09C233.178 146.961 233.265 146.985 233.34 147.031L243.447 153.114C243.582 153.195 243.669 153.337 243.68 153.494L247.015 199.813C247.025 199.947 246.978 200.08 246.886 200.178C246.795 200.277 246.666 200.333 246.532 200.333ZM209.51 199.364H246.011L242.731 153.815L232.955 147.93H205.806L209.51 199.364Z" fill="#407BFF"/>
<path d="M243.198 153.529L233.09 147.445L236.801 155.505L243.198 153.529Z" fill="#EBEBEB"/>
<path d="M236.801 155.989C236.616 155.989 236.442 155.882 236.361 155.707L232.65 147.648C232.561 147.455 232.608 147.226 232.767 147.084C232.925 146.942 233.158 146.921 233.34 147.03L243.447 153.114C243.611 153.212 243.701 153.398 243.678 153.588C243.655 153.778 243.523 153.936 243.34 153.992L236.944 155.968C236.897 155.982 236.849 155.989 236.801 155.989ZM234.189 148.672L237.064 154.916L242.02 153.385L234.189 148.672Z" fill="#407BFF"/>
<path d="M220.97 171.055C221.054 172.224 220.175 173.171 219.005 173.171C217.835 173.171 216.82 172.224 216.736 171.055C216.652 169.886 217.531 168.938 218.7 168.938C219.869 168.938 220.886 169.886 220.97 171.055Z" fill="#407BFF"/>
<path d="M234.705 171.055C234.789 172.224 233.91 173.171 232.74 173.171C231.571 173.171 230.555 172.224 230.47 171.055C230.386 169.886 231.265 168.938 232.435 168.938C233.605 168.939 234.621 169.886 234.705 171.055Z" fill="#407BFF"/>
<path d="M238.58 184.784C238.328 184.784 238.116 184.589 238.097 184.334C237.852 180.93 232.514 178.161 226.197 178.161C222.012 178.161 218.255 179.405 216.391 181.408C215.562 182.299 215.179 183.259 215.251 184.264C215.27 184.531 215.069 184.763 214.802 184.782C214.534 184.799 214.303 184.6 214.284 184.333C214.193 183.067 214.676 181.827 215.681 180.747C217.722 178.553 221.751 177.191 226.197 177.191C233.126 177.191 238.778 180.298 239.064 184.263C239.083 184.53 238.882 184.762 238.615 184.781C238.603 184.784 238.591 184.784 238.58 184.784Z" fill="#407BFF"/>
<path d="M213.169 166.767C213.051 166.767 212.933 166.724 212.839 166.638C212.643 166.456 212.631 166.149 212.813 165.953L214.937 163.665C215.119 163.468 215.426 163.458 215.622 163.639C215.818 163.821 215.829 164.128 215.648 164.324L213.525 166.612C213.429 166.715 213.299 166.767 213.169 166.767Z" fill="#407BFF"/>
<path d="M237.586 166.767C237.468 166.767 237.349 166.724 237.255 166.637L234.802 164.349C234.606 164.167 234.596 163.86 234.778 163.664C234.96 163.468 235.267 163.458 235.463 163.64L237.916 165.928C238.112 166.11 238.122 166.417 237.94 166.613C237.845 166.715 237.716 166.767 237.586 166.767Z" fill="#407BFF"/>
<path d="M202.258 210.203H204.518L207.779 214.537L207.467 210.203H209.748L210.312 218.036H208.03L204.787 213.735L205.097 218.036H202.821L202.258 210.203Z" fill="#407BFF"/>
<path d="M211.333 214.124C211.241 212.845 211.525 211.85 212.187 211.137C212.848 210.425 213.815 210.068 215.086 210.068C216.39 210.068 217.419 210.418 218.175 211.118C218.931 211.818 219.354 212.798 219.445 214.059C219.511 214.974 219.411 215.725 219.145 216.311C218.879 216.897 218.467 217.353 217.908 217.679C217.349 218.005 216.635 218.168 215.766 218.168C214.883 218.168 214.141 218.027 213.542 217.746C212.943 217.465 212.442 217.019 212.038 216.41C211.634 215.802 211.399 215.04 211.333 214.124ZM213.754 214.135C213.811 214.926 213.999 215.494 214.317 215.839C214.636 216.185 215.048 216.357 215.554 216.357C216.074 216.357 216.464 216.188 216.725 215.849C216.986 215.511 217.084 214.903 217.021 214.027C216.968 213.29 216.78 212.751 216.458 212.411C216.136 212.071 215.72 211.901 215.211 211.901C214.723 211.901 214.344 212.074 214.073 212.419C213.803 212.766 213.697 213.337 213.754 214.135Z" fill="#407BFF"/>
<path d="M224.152 210.203H227.748C228.457 210.203 229.036 210.299 229.487 210.491C229.937 210.683 230.318 210.959 230.629 211.319C230.94 211.679 231.177 212.097 231.339 212.575C231.502 213.052 231.602 213.558 231.641 214.092C231.701 214.929 231.653 215.578 231.495 216.04C231.338 216.501 231.101 216.888 230.785 217.199C230.469 217.511 230.121 217.718 229.74 217.821C229.22 217.964 228.744 218.035 228.313 218.035H224.717L224.152 210.203ZM226.7 211.977L227.008 216.257H227.601C228.107 216.257 228.462 216.201 228.668 216.089C228.874 215.977 229.027 215.781 229.128 215.501C229.229 215.221 229.257 214.768 229.212 214.141C229.152 213.311 228.976 212.743 228.683 212.437C228.39 212.131 227.93 211.978 227.303 211.978H226.7V211.977Z" fill="#407BFF"/>
<path d="M237.449 216.743H234.701L234.412 218.036H231.941L234.321 210.203H236.961L240.468 218.036H237.933L237.449 216.743ZM236.825 215.05L235.757 212.234L235.104 215.05H236.825Z" fill="#407BFF"/>
<path d="M239.371 210.203H246.728L246.867 212.137H244.399L244.824 218.036H242.404L241.979 212.137H239.511L239.371 210.203Z" fill="#407BFF"/>
<path d="M252.367 216.743H249.619L249.33 218.036H246.859L249.239 210.203H251.879L255.386 218.036H252.851L252.367 216.743ZM251.743 215.05L250.676 212.234L250.023 215.05H251.743Z" fill="#407BFF"/>
<path d="M353.688 118.13C354.581 117.682 355.647 117.103 356.632 116.562C357.635 116.011 358.633 115.436 359.615 114.838C361.574 113.632 363.549 112.44 365.423 111.116C369.205 108.511 372.748 105.62 375.936 102.463C376.354 102.081 376.709 101.657 377.095 101.253L377.665 100.641L377.951 100.335L378.094 100.182C378.132 100.142 378.123 100.15 378.105 100.174L378.073 100.223C377.931 100.49 378.049 100.409 378.104 100.151C378.171 99.9029 378.227 99.4979 378.245 99.0599C378.309 97.2439 377.951 94.9549 377.516 92.7419C376.626 88.2569 375.278 83.6439 373.946 79.1239L377.831 77.4199C380.265 81.7659 382.293 86.2049 383.944 91.0179C384.73 93.4559 385.452 95.9039 385.663 98.9109C385.702 99.6769 385.718 100.482 385.579 101.421C385.432 102.345 385.2 103.451 384.357 104.705L384.19 104.936L384.061 105.104L383.907 105.292L383.599 105.666L382.982 106.416C382.565 106.91 382.169 107.431 381.726 107.894C378.278 111.723 374.441 115.105 370.346 118.046C368.308 119.535 366.227 120.949 364.064 122.236C362.987 122.888 361.895 123.514 360.786 124.121C359.663 124.745 358.596 125.288 357.32 125.887L353.688 118.13Z" fill="#FFB573"/>
<path d="M344.794 353.226C345.568 353.226 346.414 353.066 347.005 352.926C347.082 352.908 347.141 352.846 347.155 352.767C347.169 352.689 347.135 352.61 347.069 352.567C346.782 352.378 344.239 350.737 343.264 351.178C343.11 351.248 342.917 351.401 342.869 351.736C342.806 352.18 342.917 352.534 343.198 352.79C343.555 353.116 344.15 353.226 344.794 353.226ZM346.444 352.643C344.986 352.934 343.889 352.884 343.465 352.497C343.285 352.333 343.218 352.102 343.262 351.791C343.285 351.624 343.363 351.569 343.427 351.54C343.94 351.308 345.407 352.016 346.444 352.643Z" fill="#407BFF"/>
<path d="M346.962 352.933C346.996 352.933 347.031 352.924 347.062 352.906C347.123 352.87 347.161 352.805 347.161 352.734C347.161 352.632 347.15 350.22 346.239 349.414C345.997 349.2 345.715 349.111 345.399 349.149C344.902 349.209 344.768 349.522 344.731 349.702C344.542 350.646 346.065 352.453 346.864 352.906C346.894 352.924 346.928 352.933 346.962 352.933ZM345.537 349.537C345.7 349.537 345.844 349.594 345.976 349.711C346.52 350.192 346.706 351.546 346.752 352.349C345.955 351.713 345.006 350.355 345.121 349.78C345.14 349.686 345.194 349.574 345.447 349.543C345.477 349.539 345.507 349.537 345.537 349.537Z" fill="#407BFF"/>
<path d="M346.224 93.1172C345.25 98.0872 343.196 108.154 346.674 111.471C346.674 111.471 345.315 116.513 336.08 116.513C325.925 116.513 331.227 111.472 331.227 111.472C336.77 110.148 336.627 106.036 335.661 102.174L346.224 93.1172Z" fill="#FFB573"/>
<path d="M329.286 113.473C327.692 113.689 329.048 109.56 329.696 109.132C331.192 108.143 350.547 106.743 350.421 109.092C350.341 110.103 349.866 112.076 349.02 112.746C348.173 113.416 343.201 111.391 329.286 113.473Z" fill="#263238"/>
<path d="M332.436 112.084C331.17 112.512 331.29 108.351 331.721 107.85C332.719 106.692 348.385 102.667 348.85 104.944C349.029 105.927 349.115 107.891 348.578 108.654C348.041 109.416 343.438 108.155 332.436 112.084Z" fill="#263238"/>
<path d="M326.61 84.1572C326.487 84.1642 326.363 84.1152 326.279 84.0122C325.159 82.6422 323.703 82.7822 323.689 82.7842C323.468 82.8072 323.275 82.6502 323.252 82.4322C323.228 82.2142 323.386 82.0182 323.604 81.9952C323.681 81.9872 325.504 81.8102 326.894 83.5092C327.033 83.6792 327.008 83.9292 326.838 84.0672C326.771 84.1232 326.691 84.1522 326.61 84.1572Z" fill="#263238"/>
<path d="M324.674 89.0508C324.674 89.0508 323.818 92.0578 322.699 93.5778C323.668 94.3188 325.14 93.7918 325.14 93.7918L324.674 89.0508Z" fill="#FF5652"/>
<path d="M325.16 87.8349C325.226 88.5069 324.923 89.0869 324.484 89.1309C324.044 89.1739 323.635 88.6639 323.568 87.9919C323.502 87.3199 323.805 86.7399 324.244 86.6959C324.684 86.6529 325.094 87.1629 325.16 87.8349Z" fill="#263238"/>
<path d="M324.442 86.7152L322.781 86.4082C322.781 86.4082 323.734 87.5892 324.442 86.7152Z" fill="#263238"/>
<path d="M356.7 352.735H348.324L348.981 333.338H357.357L356.7 352.735Z" fill="#FFB573"/>
<path d="M347.661 351.766H357.071C357.413 351.766 357.691 352.004 357.739 352.338L358.811 359.783C358.922 360.555 358.258 361.286 357.468 361.273C354.187 361.217 352.606 361.024 348.468 361.024C345.922 361.024 342.202 361.288 338.687 361.288C335.248 361.288 334.984 357.811 336.448 357.497C343.012 356.085 344.049 354.138 346.261 352.281C346.659 351.946 347.16 351.766 347.661 351.766Z" fill="#263238"/>
<g opacity="0.2">
<path d="M357.359 333.342H348.979L348.645 343.341H357.025L357.359 333.342Z" fill="black"/>
</g>
<path d="M323.375 123.094C318.192 121.065 313.248 118.858 308.325 116.34C303.41 113.825 298.571 111.146 293.921 107.567C292.763 106.656 291.618 105.66 290.499 104.497C290.22 104.197 289.941 103.919 289.667 103.575C289.379 103.213 289.162 103 288.788 102.444C288.112 101.472 287.589 100.167 287.45 98.835C287.319 97.502 287.558 96.229 287.941 95.214C288.323 94.181 288.824 93.338 289.348 92.607C290.399 91.143 291.564 90.061 292.737 89.087C295.08 87.148 297.558 85.738 300.04 84.42C301.28 83.762 302.544 83.169 303.824 82.623C305.11 82.068 306.365 81.552 307.73 81.082L309.505 84.935C305.143 87.684 300.625 90.706 297.303 94.094C296.496 94.933 295.79 95.811 295.346 96.584C294.87 97.371 294.876 97.96 294.957 97.915C294.998 97.915 294.982 97.897 295.098 98.013L295.496 98.44C295.646 98.619 295.857 98.802 296.046 98.986C296.831 99.719 297.752 100.455 298.745 101.155C300.73 102.568 302.917 103.89 305.179 105.125C307.433 106.377 309.752 107.575 312.114 108.712C316.826 110.969 321.712 113.141 326.506 115.125L323.375 123.094Z" fill="#FFB573"/>
<path d="M311.97 82.2037L313.355 79.1997L307.059 77.0137C307.059 77.0137 305.098 82.9167 307.435 85.6407C309.425 85.3217 311.126 84.0337 311.97 82.2037Z" fill="#FFB573"/>
<path d="M313.355 72.7049L308.322 71.2539L307.059 77.0119L313.355 79.1989V72.7049Z" fill="#FFB573"/>
<path d="M378.352 79.4907L379.086 72.4707L372.598 73.9957C372.598 73.9957 372.503 80.5757 375.935 81.6247L378.352 79.4907Z" fill="#FFB573"/>
<path d="M375.957 67.5566L371.73 69.5306L372.594 73.9956L379.082 72.4706L375.957 67.5566Z" fill="#FFB573"/>
<path d="M347.54 83.3034C347.845 91.6104 348.152 95.1204 344.398 99.7694C338.752 106.761 328.481 105.319 325.7 97.2704C323.197 90.0254 323.118 77.6574 330.878 73.5754C338.523 69.5554 347.235 74.9954 347.54 83.3034Z" fill="#FFB573"/>
<path d="M343.922 99.7546C352.077 96.2306 357.441 88.7995 355.177 77.1805C353.011 66.0645 345.506 64.9665 342.406 67.2725C339.306 69.5785 331.579 66.1416 326.942 70.0436C318.907 76.8046 326.503 84.0936 330.46 88.4126C332.824 93.2706 335.92 103.213 343.922 99.7546Z" fill="#263238"/>
<path d="M340.536 75.1871C343.288 79.1721 348.566 80.2971 352.326 77.7001C356.086 75.1041 356.903 69.7691 354.151 65.7841C351.399 61.7991 346.121 60.6741 342.361 63.2711C338.601 65.8671 337.784 71.2021 340.536 75.1871Z" fill="#407BFF"/>
<path d="M342.653 68.0513C341.476 61.3533 347.814 56.1883 356.289 58.6843C364.764 61.1803 360.281 68.6933 358.543 74.6933C356.805 80.6933 361.366 86.4083 363.272 81.8383C365.178 77.2693 361.974 75.8583 361.974 75.8583C361.974 75.8583 370.973 78.1913 362.613 88.3353C354.253 98.4803 346.685 87.2783 348.732 80.6673C350.386 75.3253 343.766 74.3823 342.653 68.0513Z" fill="#263238"/>
<path d="M334.184 70.5824C330.315 68.5644 323.763 66.9324 320.034 73.2054C318.271 76.1714 318.954 80.1944 318.954 80.1944L330.343 80.9524L334.184 70.5824Z" fill="#263238"/>
<path d="M317.614 78.2274C317.609 78.2274 317.604 78.2275 317.598 78.2265C317.46 78.2185 317.356 78.0995 317.364 77.9615C317.374 77.7915 317.65 73.7684 320.078 71.2445C325.947 65.1465 332.828 70.2044 334.797 71.9004C334.902 71.9904 334.914 72.1485 334.823 72.2535C334.732 72.3585 334.575 72.3695 334.47 72.2795C332.585 70.6565 326.003 65.8095 320.438 71.5915C318.139 73.9805 317.865 77.9524 317.862 77.9924C317.855 78.1244 317.745 78.2274 317.614 78.2274Z" fill="#263238"/>
<path d="M331.855 88.0825C331.843 89.7005 331.118 91.2845 330.2 92.3595C328.818 93.9755 327.234 93.1795 326.871 91.3875C326.544 89.7745 326.868 86.9905 328.615 86.0145C330.335 85.0535 331.869 86.2325 331.855 88.0825Z" fill="#FFB573"/>
<path d="M330.055 164.172C330.055 164.172 330.589 222.316 335.633 254.717C339.707 280.887 347.246 341.406 347.246 341.406H358.668C358.668 341.406 359.784 282.982 357.716 257.098C352.483 191.6 365.987 179.355 355.09 164.172H330.055Z" fill="#263238"/>
<path opacity="0.1" d="M330.055 164.172C330.055 164.172 330.589 222.316 335.633 254.717C339.707 280.887 347.246 341.406 347.246 341.406H358.668C358.668 341.406 359.784 282.982 357.716 257.098C352.483 191.6 365.987 179.355 355.09 164.172H330.055Z" fill="white"/>
<path opacity="0.3" d="M336.059 190.55C340.069 208.1 336.869 235.74 334.679 247.91C332.359 229.43 331.189 205.48 330.609 187.93C332.679 184.57 334.639 184.35 336.059 190.55Z" fill="black"/>
<path d="M345.681 341.631H360.23L360.994 336.527L345.598 336.006L345.681 341.631Z" fill="#407BFF"/>
<path d="M349.834 115.091C351.202 112.37 358.559 110.658 362.58 110.664L365.59 124.029C365.59 124.029 357.578 135.919 354.247 134.658C350.311 133.171 346.902 120.921 349.834 115.091Z" fill="#407BFF"/>
<path opacity="0.4" d="M349.834 115.091C351.202 112.37 358.559 110.658 362.58 110.664L365.59 124.029C365.59 124.029 357.578 135.919 354.247 134.658C350.311 133.171 346.902 120.921 349.834 115.091Z" fill="black"/>
<path d="M341.354 338.362C341.39 338.303 341.393 338.228 341.36 338.166C341.321 338.092 341.239 338.05 341.155 338.063C340.735 338.126 337.033 338.714 336.533 339.771C336.436 339.976 336.45 340.192 336.572 340.396C336.776 340.737 337.065 340.929 337.43 340.966C338.643 341.091 340.395 339.408 341.331 338.394C341.339 338.383 341.347 338.373 341.354 338.362ZM336.913 339.899C337.255 339.338 339.169 338.821 340.63 338.552C339.311 339.893 338.149 340.64 337.469 340.57C337.231 340.545 337.049 340.421 336.911 340.191C336.857 340.101 336.851 340.024 336.891 339.94C336.898 339.926 336.905 339.912 336.913 339.899Z" fill="#407BFF"/>
<path d="M341.354 338.362C341.362 338.35 341.368 338.336 341.372 338.322C341.395 338.256 341.38 338.182 341.335 338.129C341.272 338.056 339.789 336.347 338.422 336.258C338.003 336.231 337.637 336.355 337.332 336.628C336.921 336.996 336.956 337.316 337.059 337.519C337.492 338.377 340.152 338.676 341.225 338.453C341.279 338.441 341.325 338.408 341.354 338.362ZM337.439 337.102C337.47 337.051 337.52 336.992 337.597 336.923C337.822 336.721 338.084 336.633 338.396 336.654C339.294 336.713 340.315 337.642 340.779 338.115C339.594 338.215 337.673 337.854 337.413 337.339C337.398 337.308 337.359 337.232 337.439 337.102Z" fill="#407BFF"/>
<path d="M350.082 334.814L342.421 338.217L339.007 331.112L334.546 321.808L334.023 320.726L341.675 317.318L342.267 318.536L346.592 327.546L350.082 334.814Z" fill="#FFB573"/>
<path opacity="0.2" d="M346.593 327.547L339.008 331.113L334.547 321.809L342.268 318.537L346.593 327.547Z" fill="black"/>
<path d="M321.07 164.172C321.07 164.172 296.596 225.007 303.23 253.654C309.225 279.544 335.734 328.575 335.734 328.575L345.984 323.43C345.984 323.43 329.596 264.242 327.818 251.384C324.359 226.366 346.594 191.051 346.594 164.172H321.07Z" fill="#263238"/>
<path opacity="0.1" d="M321.07 164.172C321.07 164.172 296.596 225.007 303.23 253.654C309.225 279.544 335.734 328.575 335.734 328.575L345.984 323.43C345.984 323.43 329.596 264.242 327.818 251.384C324.359 226.366 346.594 191.051 346.594 164.172H321.07Z" fill="white"/>
<path d="M341.055 337.152L348.663 331.614C348.94 331.412 349.305 331.441 349.54 331.683L354.788 337.073C355.332 337.632 355.225 338.613 354.579 339.067C351.893 340.952 350.501 341.727 347.156 344.162C345.097 345.66 340.995 348.974 338.153 351.043C335.373 353.066 333.113 350.41 334.112 349.294C338.589 344.29 339.532 341.195 340.227 338.392C340.352 337.887 340.65 337.447 341.055 337.152Z" fill="#263238"/>
<path d="M335.073 330.744L348.303 324.692L346.605 319.301L332.438 325.763L335.073 330.744Z" fill="#407BFF"/>
<path d="M327.567 114.41C326.469 111.569 316.91 108.453 312.115 107.365L310.008 123.133C310.008 123.133 317.839 134.388 321.278 133.457C325.338 132.358 329.919 120.497 327.567 114.41Z" fill="#407BFF"/>
<path opacity="0.4" d="M327.567 114.41C326.469 111.569 316.91 108.453 312.115 107.365L310.008 123.133C310.008 123.133 317.839 134.388 321.278 133.457C325.338 132.358 329.919 120.497 327.567 114.41Z" fill="black"/>
<path d="M317.066 113.617C317.066 113.617 313.076 115.022 321.069 164.172C334.568 164.172 348.52 164.172 355.088 164.172C354.517 150.326 354.501 141.789 361.118 113.374C361.118 113.374 353.99 111.823 346.672 111.471C340.947 111.195 336.257 111.012 331.224 111.472C324.591 112.077 317.066 113.617 317.066 113.617Z" fill="#407BFF"/>
<path opacity="0.4" d="M317.066 113.617C317.066 113.617 313.076 115.022 321.069 164.172C334.568 164.172 348.52 164.172 355.088 164.172C354.517 150.326 354.501 141.789 361.118 113.374C361.118 113.374 353.99 111.823 346.672 111.471C340.947 111.195 336.257 111.012 331.224 111.472C324.591 112.077 317.066 113.617 317.066 113.617Z" fill="black"/>
<path d="M355.601 162.174L357.135 165.219C357.254 165.455 356.974 165.696 356.581 165.696H320.904C320.597 165.696 320.343 165.546 320.324 165.353L320.017 162.308C319.996 162.097 320.262 161.918 320.597 161.918H355.047C355.3 161.919 355.524 162.022 355.601 162.174Z" fill="#407BFF"/>
<path opacity="0.3" d="M355.601 162.174L357.135 165.219C357.254 165.455 356.974 165.696 356.581 165.696H320.904C320.597 165.696 320.343 165.546 320.324 165.353L320.017 162.308C319.996 162.097 320.262 161.918 320.597 161.918H355.047C355.3 161.919 355.524 162.022 355.601 162.174Z" fill="white"/>
<path d="M350.971 166.026H351.894C352.078 166.026 352.218 165.931 352.205 165.816L351.772 161.86C351.759 161.744 351.599 161.65 351.415 161.65H350.492C350.308 161.65 350.168 161.745 350.181 161.86L350.614 165.816C350.627 165.932 350.788 166.026 350.971 166.026Z" fill="#263238"/>
<path d="M328.607 166.026H329.53C329.714 166.026 329.854 165.931 329.841 165.816L329.408 161.86C329.395 161.744 329.235 161.65 329.051 161.65H328.128C327.944 161.65 327.804 161.745 327.817 161.86L328.25 165.816C328.262 165.932 328.423 166.026 328.607 166.026Z" fill="#263238"/>
</svg>
