<svg width="304" height="211" viewBox="0 0 304 211" fill="none" xmlns="http://www.w3.org/2000/svg">
<g clip-path="url(#clip0_651_10572)">
<path d="M303.978 199.276H0.290737V199.428H303.978V199.276Z" fill="#EBEBEB"/>
<path d="M273.549 209.052H253.432V209.204H273.549V209.052Z" fill="#EBEBEB"/>
<path d="M201.466 210.7H196.186V210.852H201.466V210.7Z" fill="#EBEBEB"/>
<path d="M252.824 203.411H241.167V203.563H252.824V203.411Z" fill="#EBEBEB"/>
<path d="M58.388 204.432H32.1536V204.583H58.388V204.432Z" fill="#EBEBEB"/>
<path d="M67.6424 204.432H63.7959V204.583H67.6424V204.432Z" fill="#EBEBEB"/>
<path d="M137.039 206.997H80.1428V207.149H137.039V206.997Z" fill="#EBEBEB"/>
<path d="M144.247 172.188H26.9636C25.0522 172.188 23.4967 170.633 23.4967 168.722V3.86045C23.4967 1.94904 25.0522 0.393555 26.9636 0.393555H144.247C146.158 0.393555 147.713 1.94904 147.713 3.86045V168.722C147.713 170.633 146.158 172.188 144.247 172.188ZM26.9636 0.546006C25.1354 0.546006 23.6486 2.03286 23.6486 3.86106V168.722C23.6486 170.55 25.1354 172.037 26.9636 172.037H144.247C146.075 172.037 147.562 170.55 147.562 168.722V3.86045C147.562 2.03286 146.075 0.545399 144.247 0.545399L26.9636 0.546006Z" fill="#EBEBEB"/>
<path d="M275.621 172.188H158.338C156.426 172.188 154.871 170.633 154.871 168.722V3.86045C154.871 1.94904 156.427 0.393555 158.338 0.393555H275.621C277.533 0.393555 279.087 1.94904 279.087 3.86045V168.722C279.088 170.633 277.533 172.188 275.621 172.188ZM158.338 0.546006C156.51 0.546006 155.023 2.03286 155.023 3.86106V168.722C155.023 170.55 156.51 172.037 158.338 172.037H275.621C277.449 172.037 278.936 170.55 278.936 168.722V3.86045C278.936 2.03286 277.449 0.545399 275.621 0.545399L158.338 0.546006Z" fill="#EBEBEB"/>
<path d="M239.033 13.2764H61.8089V96.194H239.033V13.2764Z" fill="#E6E6E6"/>
<path d="M241.703 13.2764H63.0569V96.194H241.703V13.2764Z" fill="#F0F0F0"/>
<path d="M239.033 96.1943H61.809V100.424H239.033V96.1943Z" fill="#E6E6E6"/>
<path d="M246.151 96.1943H67.5049V100.424H246.151V96.1943Z" fill="#F0F0F0"/>
<path d="M237.966 92.4558V17.0137L66.7951 17.0137V92.4558L237.966 92.4558Z" fill="#FAFAFA"/>
<path d="M85.1609 92.4558L95.564 17.0137H111.798L101.394 92.4558H85.1609Z" fill="white"/>
<path d="M68.5254 88.735C68.3778 88.735 68.2582 88.6153 68.2582 88.4677V19.445C68.2582 19.2974 68.3778 19.1777 68.5254 19.1777C68.673 19.1777 68.7926 19.2974 68.7926 19.445V88.4683C68.7926 88.6153 68.673 88.735 68.5254 88.735Z" fill="#F0F0F0"/>
<path d="M104.882 92.4558L115.285 17.0137H121.614L111.211 92.4558H104.882Z" fill="white"/>
<path d="M237.966 92.4558V17.0137H237.491V92.4558H237.966Z" fill="#E6E6E6"/>
<path opacity="0.6" d="M242.587 22.6498H65.3634L65.0196 18.4668H242.243L242.587 22.6498Z" fill="#EBEBEB"/>
<path opacity="0.6" d="M242.587 29.5092H65.3634L65.0196 25.3262H242.243L242.587 29.5092Z" fill="#EBEBEB"/>
<path opacity="0.6" d="M242.587 36.3695H65.3634L65.0196 32.1865H242.243L242.587 36.3695Z" fill="#EBEBEB"/>
<path opacity="0.6" d="M242.587 43.2289H65.3634L65.0196 39.0459H242.243L242.587 43.2289Z" fill="#EBEBEB"/>
<path opacity="0.6" d="M242.587 50.0912H65.3634L65.0196 45.9082H242.243L242.587 50.0912Z" fill="#EBEBEB"/>
<path opacity="0.6" d="M242.587 56.9506H65.3634L65.0196 52.7676H242.243L242.587 56.9506Z" fill="#EBEBEB"/>
<path d="M266.928 117.038H239.881V199.276H266.928V117.038Z" fill="#E6E6E6"/>
<path d="M259.706 199.276H266.929V187.924H252.134L259.706 199.276Z" fill="#FAFAFA"/>
<path d="M193.184 117.038H166.138V199.276H193.184V117.038Z" fill="#E6E6E6"/>
<path d="M266.928 117.038H186.881V195.369H266.928V117.038Z" fill="#FAFAFA"/>
<path d="M194.103 199.276H186.881V187.924H201.676L194.103 199.276Z" fill="#FAFAFA"/>
<path d="M261.325 146.227H192.483V165.829H261.325V146.227Z" fill="#F0F0F0"/>
<path d="M261.325 170.018H192.483V189.62H261.325V170.018Z" fill="#F0F0F0"/>
<path d="M247.669 148.323H206.14C204.572 148.323 203.301 147.052 203.301 145.484V144.529H250.509V145.484C250.508 147.052 249.237 148.323 247.669 148.323Z" fill="#FAFAFA"/>
<path d="M261.325 122.434H192.483V142.036H261.325V122.434Z" fill="#F0F0F0"/>
<path d="M247.669 124.53H206.14C204.572 124.53 203.301 123.259 203.301 121.691V120.736H250.509V121.691C250.508 123.259 249.237 124.53 247.669 124.53Z" fill="#FAFAFA"/>
<path d="M247.669 172.115H206.14C204.572 172.115 203.301 170.844 203.301 169.276V168.321H250.509V169.276C250.508 170.844 249.237 172.115 247.669 172.115Z" fill="#FAFAFA"/>
<path d="M32.7348 134.571C34.2417 130.245 46.1232 136.127 50.9445 143.296C54.1557 148.07 56.1176 153.166 57.0335 160.012C56.9235 152.201 56.799 143.809 56.6769 135.889C55.7021 133.915 53.4755 129.362 51.8738 125.754C46.5301 113.717 33.8238 109.235 29.4343 101.635C23.6825 91.6767 23.7159 76.7389 28.612 71.3485C32.8672 66.6644 46.9577 98.3378 48.5448 101.876C54.0039 114.048 55.591 123.08 56.6138 131.831C56.4972 124.392 56.386 117.563 56.2943 112.293C55.9961 95.106 55.6231 89.5776 55.4525 87.8764C54.8639 87.0455 54.1697 86.0773 53.7658 85.558C50.356 81.1679 42.7899 75.9421 39.009 69.5604C33.488 60.2426 34.3802 49.0906 38.2528 44.938C42.3016 40.5958 49.4595 50.8581 53.2599 61.0261C57.0602 71.1942 55.4361 80.9262 56.502 89.3705C56.7249 91.0268 56.9539 97.3174 57.1689 106.044C58.3217 96.6548 60.6182 90.3648 64.8741 84.5036C70.1084 77.2947 74.6273 68.5157 78.9403 69.6503C83.2533 70.7848 80.9319 82.4009 77.5196 90.5555C74.4809 97.8179 59.4909 105.061 57.2819 110.9C57.5418 122.728 57.7745 137.713 57.9391 151.664C59.121 144.458 58.3084 143.853 63.151 132.82C66.0299 126.261 77.833 118.172 79.2409 122.678C80.6221 127.101 78.5091 135.702 74.0533 141.668C70.4589 146.48 62.4835 146.475 60.6376 149.461C60.207 150.157 58.7833 152.828 57.97 154.363C58.1626 171.396 58.2488 186.431 58.1535 191.557L57.3797 191.609C57.4167 190.285 57.3232 181.621 57.1713 170.154C55.235 164.053 42.1971 160.492 38.1696 154.147C33.9562 147.508 30.9273 139.76 32.7348 134.571Z" fill="#E6E6E6"/>
<path d="M44.9947 199.275H70.0186C71.3858 199.275 72.5641 198.311 72.8356 196.972L74.6122 188.214H40.4011L42.1777 196.972C42.4492 198.312 43.6275 199.275 44.9947 199.275Z" fill="#F0F0F0"/>
<path d="M39.6853 191.609H75.3273C76.1812 191.609 76.8992 190.968 76.9945 190.119L77.7234 183.644C77.8351 182.649 77.0571 181.778 76.0561 181.778H38.9564C37.9555 181.778 37.1768 182.649 37.2892 183.644L38.018 190.119C38.1134 190.968 38.8313 191.609 39.6853 191.609Z" fill="#F0F0F0"/>
<path d="M108.306 159.93H86.9225V199.275H108.306V159.93Z" fill="#E0E0E0"/>
<path d="M162.812 199.274H91.2056L83.6839 145.888H155.29L162.812 199.274Z" fill="#E6E6E6"/>
<path d="M173.258 199.274H94.0516L86.5298 145.888H165.736L173.258 199.274Z" fill="#F0F0F0"/>
<path d="M101.805 190.929L95.4685 154.233H157.983L164.319 190.929H101.805Z" fill="white"/>
<path d="M128.666 190.929L107.417 154.233H114.084L135.333 190.929H128.666Z" fill="#FAFAFA"/>
<path d="M138.158 190.929L116.909 154.233H128.276L149.525 190.929H138.158Z" fill="#FAFAFA"/>
<path d="M244.678 77.6357L239.964 79.1669L243.756 83.6536C243.756 83.6536 245.542 82.1327 246.516 80.4272C246.923 79.7148 246.688 78.808 245.98 78.395L244.678 77.6357Z" fill="#7F3E3B"/>
<path d="M237.795 82.8489L240.622 86.2824L243.756 83.6537L239.965 79.167L237.795 82.8489Z" fill="#7F3E3B"/>
<path d="M246.199 40.9766C247.351 44.1337 248.407 47.2915 249.408 50.4941C250.395 53.7041 251.337 56.9086 252.139 60.2765L252.426 61.5678L252.56 62.2426L252.626 62.5797L252.642 62.6647L252.661 62.7935L252.697 63.0516C252.867 64.4267 252.723 65.5078 252.532 66.51C252.136 68.4943 251.491 70.1774 250.782 71.8112C249.338 75.0558 247.607 77.9718 245.581 80.7985L242.431 79.0566C243.547 76.03 244.649 72.913 245.475 69.9107C245.872 68.4154 246.213 66.9066 246.315 65.6014C246.36 64.963 246.329 64.366 246.241 64.0963L245.98 63.1464L245.642 62.0252C244.689 58.9834 243.602 55.8567 242.526 52.7499C241.456 49.6377 240.377 46.5019 239.341 43.3836L246.199 40.9766Z" fill="#7F3E3B"/>
<path d="M219.967 22.1874C220.047 22.566 219.914 22.9234 219.669 22.9853C219.423 23.0473 219.16 22.7903 219.079 22.4117C218.999 22.0331 219.133 21.6757 219.378 21.6137C219.624 21.5517 219.887 21.8082 219.967 22.1874Z" fill="#263238"/>
<path d="M219.947 22.9131C219.947 22.9131 219.557 25.3122 218.843 26.6029C219.638 27.0602 220.705 26.4899 220.705 26.4899L219.947 22.9131Z" fill="#630F0F"/>
<path d="M218.965 19.8877C218.893 19.8877 218.823 19.8537 218.778 19.7911C218.707 19.6885 218.732 19.547 218.834 19.4747C218.871 19.4492 219.747 18.8497 220.891 19.3204C221.007 19.3684 221.062 19.5008 221.015 19.6168C220.967 19.7328 220.834 19.7887 220.718 19.7401C219.802 19.3623 219.102 19.8421 219.095 19.847C219.055 19.8743 219.01 19.8877 218.965 19.8877Z" fill="#263238"/>
<path d="M232.986 23.3906C233.409 27.7996 232.784 32.0688 233.771 35.9019C233.771 35.9019 232.675 39.4593 226.158 39.4593C218.992 39.4593 222.871 35.9019 222.871 35.9019C226.819 34.9678 226.829 32.0664 226.253 29.3411L232.986 23.3906Z" fill="#7F3E3B"/>
<path d="M235.16 37.1237C235.717 35.9977 236.087 34.4033 234.933 33.9994C233.663 33.5554 226.881 33.4078 224.42 34.2411C221.959 35.0751 222.56 37.3588 222.56 37.3588L235.16 37.1237Z" fill="#263238"/>
<path d="M249.802 197.081C250.274 196.97 250.759 196.752 251.093 196.583C251.137 196.56 251.164 196.513 251.16 196.463C251.157 196.413 251.124 196.37 251.077 196.354C250.863 196.282 248.98 195.661 248.485 196.084C248.408 196.15 248.324 196.27 248.359 196.475C248.405 196.749 248.54 196.943 248.76 197.053C249.036 197.192 249.414 197.173 249.802 197.081ZM250.703 196.496C249.878 196.874 249.205 197 248.871 196.832C248.724 196.758 248.637 196.627 248.603 196.433C248.587 196.337 248.618 196.297 248.646 196.273C248.903 196.053 249.943 196.267 250.703 196.496Z" fill="#407BFF"/>
<path d="M251.065 196.593C251.088 196.588 251.109 196.575 251.126 196.558C251.158 196.525 251.169 196.478 251.155 196.434C251.136 196.373 250.665 194.931 249.959 194.587C249.775 194.498 249.59 194.487 249.408 194.554C249.128 194.658 249.094 194.853 249.099 194.962C249.126 195.556 250.41 196.431 251.005 196.592C251.024 196.597 251.045 196.597 251.065 196.593ZM249.547 194.77C249.647 194.746 249.746 194.759 249.85 194.81C250.303 195.03 250.669 195.849 250.829 196.264C250.211 195.99 249.362 195.3 249.346 194.949C249.345 194.917 249.341 194.843 249.494 194.786C249.511 194.779 249.53 194.774 249.547 194.77Z" fill="#407BFF"/>
<path d="M216.625 200.788C217.109 200.788 217.632 200.688 217.996 200.6C218.044 200.588 218.081 200.548 218.089 200.499C218.097 200.45 218.074 200.401 218.033 200.374C217.842 200.254 216.152 199.217 215.573 199.514C215.483 199.561 215.373 199.659 215.36 199.865C215.342 200.143 215.429 200.363 215.616 200.521C215.853 200.72 216.226 200.788 216.625 200.788ZM217.636 200.425C216.747 200.604 216.063 200.571 215.776 200.331C215.65 200.225 215.595 200.078 215.608 199.881C215.614 199.784 215.653 199.752 215.686 199.735C215.987 199.581 216.949 200.028 217.636 200.425Z" fill="#407BFF"/>
<path d="M217.966 200.602C217.99 200.602 218.014 200.596 218.034 200.582C218.072 200.557 218.093 200.514 218.089 200.469C218.085 200.404 217.959 198.893 217.351 198.396C217.192 198.266 217.014 198.212 216.822 198.236C216.526 198.272 216.448 198.455 216.428 198.561C216.317 199.145 217.365 200.292 217.907 200.586C217.925 200.597 217.946 200.602 217.966 200.602ZM216.909 198.479C217.011 198.479 217.104 198.515 217.194 198.588C217.584 198.906 217.751 199.787 217.812 200.229C217.273 199.819 216.606 198.953 216.671 198.608C216.677 198.576 216.691 198.503 216.852 198.482C216.872 198.48 216.891 198.479 216.909 198.479Z" fill="#407BFF"/>
<path d="M223.605 200.414H218.811L218.762 189.312H223.557L223.605 200.414Z" fill="#7F3E3B"/>
<path d="M257.009 196.306L252.393 197.152L249.083 186.227L253.698 185.381L257.009 196.306Z" fill="#7F3E3B"/>
<path d="M251.515 195.923L256.756 194.683C256.946 194.638 257.138 194.733 257.216 194.911L258.958 198.878C259.138 199.289 258.881 199.779 258.439 199.876C256.603 200.277 255.693 200.379 253.388 200.924C251.97 201.259 249.078 202.098 247.12 202.562C245.205 203.015 244.523 201.131 245.29 200.765C248.729 199.121 249.868 197.706 250.814 196.39C250.984 196.153 251.236 195.988 251.515 195.923Z" fill="#263238"/>
<path d="M218.864 199.858H224.1C224.296 199.858 224.46 199.994 224.495 200.186L225.278 204.447C225.358 204.889 225.007 205.308 224.555 205.3C222.668 205.268 219.943 205.157 217.569 205.157C214.793 205.157 213.804 205.308 210.549 205.308C208.582 205.308 208.112 203.319 208.943 203.138C212.725 202.318 214.376 202.23 217.695 200.231C218.055 200.014 218.45 199.858 218.864 199.858Z" fill="#263238"/>
<path d="M244.459 37.1395C248.933 40.2882 250.281 48.4033 250.281 48.4033L240.14 53.5447C240.14 53.5447 237.564 48.5533 236.437 43.4805C235.369 38.6798 241.279 34.9013 244.459 37.1395Z" fill="#407BFF"/>
<path opacity="0.2" d="M239.386 42.3154L243.382 51.8889L240.141 53.5464C240.141 53.5464 238.727 50.7938 237.517 47.2753L239.386 42.3154Z" fill="black"/>
<path d="M214.63 58.1986C214.664 63.5496 214.988 70.2058 215.786 78.4673H241.432C241.746 74.701 240.173 56.9438 243.99 39.1659C244.274 37.8436 243.39 36.556 242.053 36.3483C240.419 36.0944 238.184 35.8028 235.997 35.6972C232.726 35.5405 227.986 35.436 225.098 35.6972C223.528 35.8399 221.99 36.0908 220.726 36.3367C218.538 36.7625 216.797 38.397 216.219 40.5495C215.665 42.6073 215.1 45.7705 214.815 50.5432C214.684 52.7432 214.612 55.2747 214.63 58.1986Z" fill="#407BFF"/>
<path opacity="0.2" d="M222.723 48.134C221.028 49.3791 217.785 49.95 214.833 50.2051C214.882 49.4216 214.942 48.6806 215.009 47.9821C215.804 47.5631 216.57 47.1804 217.293 46.8281L222.723 48.134Z" fill="black"/>
<g opacity="0.2">
<path d="M218.763 189.315L218.787 195.485H223.583L223.559 189.315H218.763Z" fill="black"/>
<path d="M253.7 185.384L249.083 186.23L250.791 191.861L255.409 191.014L253.7 185.384Z" fill="black"/>
</g>
<path d="M232.302 18.2268C233.004 22.9474 233.652 25.666 231.833 28.6397C229.095 33.1124 222.961 32.4188 220.879 28.0554C219.005 24.1281 218.171 17.068 222.286 14.0791C226.34 11.1345 231.599 13.5063 232.302 18.2268Z" fill="#7F3E3B"/>
<path d="M222.494 21.6728C220.717 20.8924 220.886 18.0918 221.426 16.911C219.368 17.6198 216.392 18.0243 215.855 15.9325C215.319 13.8407 217.141 13.1659 216.027 11.3772C214.914 9.58911 218.457 7.63154 220.11 10.1291C221.763 12.6266 225.841 11.5285 228.478 9.11657C230.397 7.36187 233.203 9.62252 232.089 11.9172C232.089 11.9172 237.859 11.5461 236.711 15.46C235.564 19.3739 233.944 19.5154 234.315 22.2991C234.567 24.1837 234.788 28.012 232.527 28.552C229.796 29.2043 222.978 26.7845 222.494 21.6728Z" fill="#263238"/>
<path opacity="0.2" d="M222.462 26.7837C221.939 27.1602 221.399 27.5611 220.846 27.9863C220.858 28.0106 220.864 28.0288 220.877 28.0531C221.447 29.2496 222.328 30.1728 223.361 30.7923C223.704 30.4589 223.896 29.3371 224.543 29.3541C226.467 29.4045 230.192 28.6003 230.809 26.4277L222.462 26.7837Z" fill="black"/>
<path d="M223.957 21.6057C224.091 22.8162 223.866 23.9502 223.5 24.6888C222.95 25.7997 222.09 25.0915 221.753 23.7249C221.45 22.4943 221.37 20.4335 222.159 19.8279C222.934 19.2303 223.803 20.2215 223.957 21.6057Z" fill="#7F3E3B"/>
<path d="M224.882 78.4668C224.882 78.4668 228.909 115.104 231.366 128.83C234.056 143.86 247.989 191.04 247.989 191.04L256.578 189.211C256.578 189.211 246.987 145.074 245.695 130.193C244.294 114.041 241.429 78.4674 241.429 78.4674L224.882 78.4668Z" fill="#407BFF"/>
<path opacity="0.3" d="M224.882 78.4668C224.882 78.4668 228.909 115.104 231.366 128.83C234.056 143.86 247.989 191.04 247.989 191.04L256.578 189.211C256.578 189.211 246.987 145.074 245.695 130.193C244.363 114.838 244.36 114.87 241.429 78.4674L224.882 78.4668Z" fill="black"/>
<path d="M246.065 188.142C246.029 188.15 247.527 191.278 247.527 191.278L257.189 189.22L256.499 186.291L246.065 188.142Z" fill="#263238"/>
<path opacity="0.2" d="M227.818 91.5206C234.061 92.7542 232.49 116.214 231.267 128.28C229.782 119.751 227.76 103.339 226.395 91.6901C226.821 91.4818 227.294 91.4162 227.818 91.5206Z" fill="black"/>
<path d="M215.787 78.4668C215.787 78.4668 213.743 114.311 213.7 128.931C213.655 144.137 217.044 193.928 217.044 193.928H225.165C225.165 193.928 227.351 145.025 228.29 130.091C229.312 113.81 232.643 78.4668 232.643 78.4668H215.787Z" fill="#407BFF"/>
<path opacity="0.3" d="M215.787 78.4668C215.787 78.4668 213.743 114.311 213.7 128.931C213.655 144.137 217.044 193.928 217.044 193.928H225.165C225.165 193.928 227.351 145.025 228.29 130.091C229.312 113.81 232.643 78.4668 232.643 78.4668H215.787Z" fill="black"/>
<path d="M215.606 190.694C215.568 190.694 215.933 194.066 215.933 194.066H225.812L226.196 191.057L215.606 190.694Z" fill="#263238"/>
<path d="M225.945 44.6572C224.975 44.7519 224.152 44.8011 223.263 44.8272C222.39 44.8558 221.519 44.8673 220.646 44.8643C218.902 44.8448 217.151 44.7568 215.391 44.5594C213.631 44.3705 211.861 44.0856 210.08 43.6477C208.299 43.2195 206.505 42.6231 204.722 41.746L204.52 41.6464C202.95 40.8738 202.303 38.9746 203.076 37.4045C203.159 37.2338 203.268 37.0601 203.377 36.9119C204.207 35.7968 205.011 35.0193 205.834 34.2838C206.654 33.558 207.475 32.905 208.301 32.2843C209.951 31.0386 211.641 29.9386 213.336 28.8696C215.04 27.8152 216.76 26.8143 218.504 25.8619C220.262 24.9241 222.001 24.0027 223.824 23.1561C224.73 22.7352 225.806 23.1287 226.227 24.0349C226.591 24.8185 226.346 25.7289 225.687 26.233L225.666 26.2482C224.139 27.418 222.568 28.5811 221.044 29.7716C219.509 30.9511 217.982 32.1313 216.492 33.3345C214.995 34.5255 213.539 35.7536 212.163 36.9872C211.476 37.6043 210.818 38.2336 210.226 38.861C209.643 39.4811 209.089 40.1243 208.794 40.612L207.448 35.7779C208.685 36.259 210.08 36.604 211.532 36.8664C212.987 37.1184 214.499 37.283 216.033 37.3899C217.568 37.4871 219.125 37.5381 220.687 37.5387C221.468 37.5436 222.251 37.5351 223.032 37.512C223.796 37.4834 224.625 37.4561 225.304 37.4185L225.387 37.4136C227.39 37.3012 229.105 38.8336 229.218 40.8368C229.329 42.7883 227.871 44.4664 225.945 44.6572Z" fill="#7F3E3B"/>
<path d="M229.346 22.1743L226.295 22.8479C226.295 22.8479 222.233 22.3431 221.303 25.4055L223.71 27.4603L227.426 28.0476C228.015 28.1405 228.619 28.0427 229.148 27.7682L230.097 27.2762C230.533 27.0503 230.824 26.6178 230.87 26.1289L231.094 23.7182C231.185 22.744 230.301 21.9635 229.346 22.1743Z" fill="#7F3E3B"/>
<path d="M223.417 48.2074C218.308 49.6244 212.484 47.8533 212.484 47.8533L214.627 36.4146C214.627 36.4146 219.702 35.97 222.871 35.9026C231.027 35.7301 232.626 45.6528 223.417 48.2074Z" fill="#407BFF"/>
<path d="M47.2199 79.8503C47.0863 79.8503 46.9739 79.7483 46.9624 79.6129L45.6128 63.3947C45.6006 63.2526 45.7063 63.1281 45.8491 63.1159C45.9827 63.1056 46.1157 63.2095 46.1278 63.3522L47.4774 79.5704C47.4896 79.7125 47.3839 79.837 47.2412 79.8491C47.2339 79.8497 47.2272 79.8503 47.2199 79.8503Z" fill="#DC1010"/>
<path d="M48.0206 89.4842C47.8869 89.4842 47.7746 89.3821 47.763 89.2467L47.3543 84.3373C47.3421 84.1951 47.4478 84.0706 47.5905 84.0585C47.7272 84.0409 47.8578 84.1514 47.8693 84.2948L48.2781 89.2042C48.2902 89.3463 48.1846 89.4708 48.0418 89.483C48.0351 89.4836 48.0279 89.4842 48.0206 89.4842Z" fill="#DC1010"/>
<path d="M184.662 135.633H59.2549C56.0553 135.633 53.2194 133.016 52.9528 129.815L45.8902 44.9206C45.6242 41.7209 48.0239 39.1025 51.2242 39.1025H176.631C179.831 39.1025 182.667 41.7203 182.934 44.9206L189.997 129.815C190.263 133.015 187.862 135.633 184.662 135.633Z" fill="white"/>
<path d="M184.662 135.875H59.2551C55.9242 135.875 52.9888 133.165 52.7118 129.835L45.6493 44.9404C45.5138 43.3205 46.0246 41.793 47.0857 40.6396C48.1419 39.4917 49.6118 38.8594 51.2244 38.8594H176.632C179.962 38.8594 182.898 41.5695 183.175 44.8997L190.238 129.794C190.373 131.414 189.863 132.941 188.802 134.093C187.745 135.242 186.275 135.875 184.662 135.875ZM51.2244 39.3447C49.7491 39.3447 48.4062 39.9211 47.4429 40.9682C46.4741 42.0202 46.0088 43.4165 46.1321 44.9003L53.1947 129.794C53.4516 132.88 56.1702 135.39 59.2557 135.39H184.663C186.139 135.39 187.482 134.813 188.446 133.766C189.414 132.713 189.879 131.318 189.756 129.834L182.693 44.9404C182.436 41.8549 179.718 39.3447 176.633 39.3447H51.2244Z" fill="#DC1010"/>
<path d="M176.631 39.1025H51.2241C48.0244 39.1025 45.6241 41.7203 45.8901 44.9206H182.933C182.667 41.7203 179.831 39.1025 176.631 39.1025Z" fill="#DC1010"/>
<path d="M54.1588 42.0117C54.2165 42.7047 53.7014 43.2665 53.0084 43.2665C52.3154 43.2665 51.7068 42.7047 51.6491 42.0117C51.5914 41.3187 52.1065 40.7568 52.7995 40.7568C53.4925 40.7568 54.1011 41.3187 54.1588 42.0117Z" fill="white"/>
<path d="M59.2598 42.0117C59.3175 42.7047 58.8025 43.2665 58.1094 43.2665C57.4164 43.2665 56.8084 42.7047 56.7507 42.0117C56.693 41.3187 57.2081 40.7568 57.9011 40.7568C58.5941 40.7568 59.2021 41.3187 59.2598 42.0117Z" fill="white"/>
<path d="M64.3625 42.0117C64.4202 42.7047 63.9052 43.2665 63.2122 43.2665C62.5192 43.2665 61.9106 42.7047 61.8535 42.0117C61.7958 41.3187 62.3108 40.7568 63.0038 40.7568C63.6969 40.7568 64.3048 41.3187 64.3625 42.0117Z" fill="white"/>
<path d="M173.779 124.507H68.2874C65.7437 124.507 63.4897 122.427 63.2777 119.883L58.3513 60.6705C58.1399 58.1268 60.0477 56.0459 62.5914 56.0459H168.083C170.626 56.0459 172.88 58.1268 173.092 60.6705L178.019 119.883C178.231 122.427 176.323 124.507 173.779 124.507Z" fill="#F0F0F0"/>
<path opacity="0.1" d="M141.155 66.4135L108.473 105.761C103.99 111.159 106.83 119.387 113.688 120.87L166.695 132.334C174.015 133.918 180.132 126.68 177.351 119.726L157.025 68.914C154.393 62.3343 145.683 60.9623 141.155 66.4135Z" fill="#263238"/>
<path opacity="0.1" d="M68.4135 71.9311L57.0307 102.583C55.5116 106.673 58.8006 110.942 63.1427 110.516L96.3838 107.256C101.045 106.799 103.344 101.357 100.423 97.696L78.5658 70.3034C75.7002 66.7132 70.0127 67.6249 68.4135 71.9311Z" fill="#263238"/>
<path d="M152.428 56.5072L121.877 100.868C117.715 106.911 121.402 115.217 128.675 116.185L184.836 123.659C192.631 124.697 198.427 116.614 194.943 109.563L169.334 57.7281C166.012 51.0032 156.684 50.329 152.428 56.5072Z" fill="#DC1010"/>
<path d="M130.009 112.209C127.966 111.938 126.191 110.65 125.26 108.765C124.328 106.88 124.435 104.791 125.546 103.178L156.175 58.705C157.286 57.0925 159.169 56.2913 161.211 56.5628C163.253 56.8349 165.029 58.1226 165.96 60.0072L191.634 111.973C192.565 113.858 192.458 115.947 191.346 117.56C190.235 119.173 188.353 119.974 186.311 119.703L130.009 112.209Z" fill="white"/>
<path d="M158.601 72.2817L162.178 72.7579C164.478 73.064 166.249 75.1565 166.132 77.4311L165.892 82.0969C165.883 82.2682 165.863 82.4377 165.833 82.6041L163.289 96.6648C162.922 98.691 161.07 100.002 158.97 99.7224C156.865 99.4424 155.171 97.653 155.022 95.5527L153.99 81.0219C153.977 80.8536 153.976 80.6854 153.985 80.5184L154.225 75.847C154.342 73.5718 156.301 71.9756 158.601 72.2817ZM158.316 103.598L159.291 103.728C161.349 104.002 162.932 105.873 162.828 107.908C162.723 109.943 160.97 111.37 158.912 111.097L157.937 110.967C155.879 110.693 154.296 108.821 154.401 106.787C154.506 104.752 156.259 103.324 158.316 103.598Z" fill="#DC1010"/>
<path d="M80.1631 63.2871L71.7746 95.0977C70.6637 99.3099 74.3402 103.234 78.6155 102.399L111.154 96.0501C115.726 95.1579 117.513 89.5706 114.307 86.1906L90.1581 60.7288C86.9742 57.3724 81.3426 58.8137 80.1631 63.2871Z" fill="#DC1010"/>
<path d="M78.5536 99.8233C77.3705 100.054 76.1393 99.6392 75.2616 98.7136C74.3834 97.7873 74.0408 96.544 74.3463 95.387L82.7561 63.4961C83.061 62.3397 83.9495 61.5112 85.1333 61.2804C86.3165 61.0496 87.5476 61.4645 88.4253 62.3901L112.636 87.9163C113.514 88.8425 113.857 90.0858 113.551 91.2429C113.246 92.3993 112.358 93.2278 111.175 93.4586L78.5536 99.8233Z" fill="white"/>
<path d="M86.7104 70.9829L88.7827 70.5784C90.1153 70.3185 91.4983 71.2058 91.8706 72.5597L92.6353 75.3372C92.6632 75.4392 92.6851 75.5419 92.7003 75.6451L93.9946 84.3646C94.1811 85.6213 93.4079 86.7419 92.1913 86.9794C90.9717 87.2175 89.6895 86.4929 89.203 85.2921L85.8369 76.9802C85.7981 76.8836 85.7647 76.7858 85.7373 76.6862L84.972 73.905C84.5997 72.5518 85.3778 71.2429 86.7104 70.9829ZM92.5746 89.3755L93.14 89.2649C94.3323 89.0323 95.5689 89.8261 95.9024 91.0372C96.2358 92.249 95.5398 93.4194 94.3475 93.652L93.7826 93.7625C92.5904 93.9952 91.3537 93.2013 91.0203 91.9902C90.6862 90.7785 91.3823 89.6081 92.5746 89.3755Z" fill="#DC1010"/>
</g>
<defs>
<clipPath id="clip0_651_10572">
<rect width="303.688" height="210.459" fill="white" transform="translate(0.29071 0.393555)"/>
</clipPath>
</defs>
</svg>
