<svg width="305" height="227" viewBox="0 0 305 227" fill="none" xmlns="http://www.w3.org/2000/svg">
<g clip-path="url(#clip0_651_1698)">
<path d="M159.625 226.707C224.664 226.707 277.388 223.628 277.388 219.829C277.388 216.031 224.664 212.952 159.625 212.952C94.5857 212.952 41.8613 216.031 41.8613 219.829C41.8613 223.628 94.5857 226.707 159.625 226.707Z" fill="#F5F5F5"/>
<path d="M304.247 199.276H0.559814V199.428H304.247V199.276Z" fill="#EBEBEB"/>
<path d="M273.819 205.061H218.608V205.212H273.819V205.061Z" fill="#EBEBEB"/>
<path d="M201.735 203.412H186.619V203.564H201.735V203.412Z" fill="#EBEBEB"/>
<path d="M236.289 210.701H212.852V210.853H236.289V210.701Z" fill="#EBEBEB"/>
<path d="M46.1719 209.681H32.4221V209.833H46.1719V209.681Z" fill="#EBEBEB"/>
<path d="M67.9111 209.681H51.5793V209.833H67.9111V209.681Z" fill="#EBEBEB"/>
<path d="M137.309 207.116H108.86V207.268H137.309V207.116Z" fill="#EBEBEB"/>
<path d="M144.516 172.188H27.2327C25.3213 172.188 23.7658 170.633 23.7658 168.722V3.86045C23.7658 1.94904 25.3213 0.393555 27.2327 0.393555H144.516C146.427 0.393555 147.983 1.94904 147.983 3.86045V168.722C147.983 170.633 146.427 172.188 144.516 172.188ZM27.2327 0.546006C25.4045 0.546006 23.9177 2.03286 23.9177 3.86106V168.722C23.9177 170.55 25.4045 172.037 27.2327 172.037H144.516C146.344 172.037 147.831 170.55 147.831 168.722V3.86045C147.831 2.03286 146.344 0.545399 144.516 0.545399L27.2327 0.546006Z" fill="#EBEBEB"/>
<path d="M275.889 172.188H158.606C156.695 172.188 155.14 170.633 155.14 168.722V3.86045C155.14 1.94904 156.695 0.393555 158.606 0.393555H275.889C277.801 0.393555 279.356 1.94904 279.356 3.86045V168.722C279.357 170.633 277.801 172.188 275.889 172.188ZM158.606 0.546006C156.779 0.546006 155.292 2.03286 155.292 3.86106V168.722C155.292 170.55 156.779 172.037 158.606 172.037H275.889C277.717 172.037 279.204 170.55 279.204 168.722V3.86045C279.204 2.03286 277.717 0.545399 275.889 0.545399L158.606 0.546006Z" fill="#EBEBEB"/>
<path d="M259.427 195.822H270.813V132.643H259.427V195.822Z" fill="#F0F0F0"/>
<path d="M143.185 199.276L268.627 199.276V195.823L143.185 195.823V199.276Z" fill="#F0F0F0"/>
<path d="M259.428 132.644H140.999V195.823H259.428V132.644Z" fill="#F5F5F5"/>
<path d="M260.608 132.644H272.246V129.63H260.608V132.644Z" fill="#F0F0F0"/>
<path d="M260.608 129.63H139.566V132.644H260.608V129.63Z" fill="#FAFAFA"/>
<path d="M255.334 155.442H145.093V138.97H255.334V155.442ZM145.858 154.676H254.569V139.734H145.858V154.676Z" fill="#E0E0E0"/>
<path d="M255.334 189.497H145.093V160.012H255.334V189.497ZM145.858 188.732H254.569V160.777H145.858V188.732Z" fill="#E0E0E0"/>
<path d="M160.955 141.803H239.47C240.026 141.803 240.48 141.349 240.48 140.793V140.362C240.48 139.806 240.026 139.352 239.47 139.352H160.955C160.4 139.352 159.945 139.806 159.945 140.362V140.793C159.946 141.349 160.4 141.803 160.955 141.803Z" fill="#E0E0E0"/>
<path d="M160.955 162.845H239.47C240.026 162.845 240.48 162.391 240.48 161.836V161.404C240.48 160.849 240.026 160.395 239.47 160.395H160.955C160.4 160.395 159.945 160.849 159.945 161.404V161.836C159.946 162.391 160.4 162.845 160.955 162.845Z" fill="#E0E0E0"/>
<path d="M35.2443 199.275H39.9763L39.9763 118.861H35.2443L35.2443 199.275Z" fill="#E6E6E6"/>
<path d="M33.7512 199.275H37.0377L37.0377 118.861H33.7512L33.7512 199.275Z" fill="#F0F0F0"/>
<path d="M89.026 118.86H32.7332V124.675H89.026V118.86Z" fill="#F0F0F0"/>
<path d="M91.1448 199.274H95.8768L95.8768 124.674H91.1448L91.1448 199.274Z" fill="#E6E6E6"/>
<path d="M89.6511 199.274H92.9376L92.9376 124.674H89.6511L89.6511 199.274Z" fill="#F0F0F0"/>
<path d="M121.09 199.274H125.822L125.822 124.674H121.09L121.09 199.274Z" fill="#E6E6E6"/>
<path d="M119.597 199.274H122.883L122.883 124.674H119.597L119.597 199.274Z" fill="#F0F0F0"/>
<path d="M65.1902 199.274H69.9222L69.9222 124.674H65.1902L65.1902 199.274Z" fill="#E6E6E6"/>
<path d="M63.6964 199.274H66.9829L66.9829 124.674H63.6964L63.6964 199.274Z" fill="#F0F0F0"/>
<path d="M89.0267 124.675H125.823V118.86H89.0267V124.675Z" fill="#E6E6E6"/>
<path d="M84.2575 73.8967H38.7693L42.7992 38.6865H80.2281L84.2575 73.8967Z" fill="#EBEBEB"/>
<path d="M63.9887 73.8965H59.0386V118.86H63.9887V73.8965Z" fill="#F5F5F5"/>
<path d="M71.6033 118.86H51.4233C51.4233 117.673 52.386 116.71 53.5734 116.71H69.4538C70.6406 116.71 71.6033 117.673 71.6033 118.86Z" fill="#F0F0F0"/>
<path d="M63.9887 77.791L59.0386 75.4277V73.8965H63.9887V77.791Z" fill="#E0E0E0"/>
<path d="M82.7947 118.736H104.153L106.794 89.7207H85.4356L82.7947 118.736Z" fill="#E6E6E6"/>
<path d="M81.6884 118.736H103.047L105.688 89.7207H84.3292L81.6884 118.736Z" fill="#F0F0F0"/>
<path d="M100.127 115.523L102.183 92.9326H87.2493L85.1927 115.523H100.127Z" fill="white"/>
<path d="M258.57 97.9258H215.205L206.768 127.969H250.133L258.57 97.9258Z" fill="#E6E6E6"/>
<path d="M250.133 127.969L249.958 129.629H206.591L206.767 127.969H250.133Z" fill="#E6E6E6"/>
<path d="M257.235 97.9258H213.871L205.434 127.969H248.798L257.235 97.9258Z" fill="#F0F0F0"/>
<path d="M248.31 126.012L255.286 99.987C255.386 99.6165 255.199 99.2988 254.882 99.2988H215.015C214.733 99.2988 214.447 99.5533 214.359 99.8831L207.382 125.908C207.282 126.278 207.469 126.596 207.786 126.596H247.653C247.936 126.596 248.222 126.342 248.31 126.012Z" fill="white"/>
<path d="M237.499 127.969L237.324 129.629H189.571L189.746 127.969H237.499Z" fill="#F0F0F0"/>
<path d="M267.549 19.5205H162.341V84.4574H267.549V19.5205Z" fill="#F0F0F0"/>
<path d="M264.562 22.5059H165.327V81.4699H264.562V22.5059Z" fill="white"/>
<path d="M267.549 84.4561H268.627V19.5191H267.549V84.4561Z" fill="#E6E6E6"/>
<path d="M156.921 5.73788C159.742 3.21241 163.411 1.55913 167.927 0.779868C172.444 -0.00121637 177.208 0.496222 182.218 2.26854C187.228 4.04208 191.807 7.24416 195.954 11.8766C199.808 16.1817 202.416 20.6951 203.778 25.4126C205.139 30.1313 205.257 34.6113 204.135 38.8532C203.01 43.0957 200.845 46.6519 197.638 49.5223C195.113 51.7824 192.443 53.2504 189.625 53.9264C186.808 54.6037 184.077 54.8533 181.434 54.6796C178.79 54.5053 174.2 54.054 167.665 53.3245C165.84 53.1393 164.306 53.0542 163.065 53.07C161.821 53.0864 160.777 53.2043 159.933 53.426C159.088 53.6476 158.303 53.9355 157.578 54.2909C156.852 54.6462 155.615 55.3118 153.868 56.2867C150.274 58.4872 147.148 58.1021 144.491 55.1333C143.109 53.5887 142.45 51.8383 142.517 49.8801C142.582 47.9225 143.61 46.053 145.6 44.2722C148.095 42.0389 150.6 40.4913 153.118 39.6294C155.635 38.7663 158.155 38.3558 160.679 38.3964C163.203 38.4365 166.385 38.691 170.226 39.1575C173.59 39.5693 176.074 39.8201 177.679 39.9082C179.282 39.9975 180.863 39.8669 182.421 39.5146C183.978 39.1642 185.366 38.4432 186.584 37.353C188.959 35.2272 190.172 32.5486 190.225 29.3204C190.276 26.0916 189.052 23.0815 186.554 20.2906C183.629 17.0235 180.652 15.3563 177.622 15.2876C174.593 15.2178 170.996 16.0845 166.831 17.8866C162.571 19.8812 159.179 19.467 156.654 16.6463C155.166 14.9827 154.495 13.0549 154.646 10.8617C154.797 8.66846 155.556 6.96052 156.921 5.73788ZM127.559 71.1741C125.938 69.3623 125.109 67.2559 125.073 64.8549C125.036 62.4534 126.072 60.3106 128.181 58.4228C130.051 56.7483 132.209 55.9927 134.657 56.1561C137.103 56.3195 139.177 57.3514 140.878 59.2525C142.553 61.1232 143.322 63.2685 143.189 65.6883C143.055 68.108 142.053 70.1555 140.182 71.83C138.103 73.691 135.872 74.4849 133.488 74.2116C131.105 73.9376 129.128 72.9257 127.559 71.1741Z" fill="#BF8D17"/>
<g opacity="0.5">
<path d="M211.228 46.4927C211.972 44.6056 213.331 42.9329 215.307 41.474C217.282 40.0151 219.682 39.1083 222.507 38.7536C225.332 38.3989 228.294 38.8319 231.393 40.054C234.273 41.1897 236.606 42.724 238.391 44.6554C240.177 46.5875 241.31 48.7042 241.791 51.0049C242.272 53.3069 242.09 55.5299 241.244 57.6745C240.578 59.3636 239.652 60.7084 238.465 61.7087C237.279 62.7097 236.032 63.4859 234.724 64.0374C233.416 64.5889 231.11 65.4756 227.806 66.6971C226.888 67.0469 226.133 67.3749 225.542 67.6804C224.95 67.9871 224.479 68.2945 224.128 68.603C223.776 68.9122 223.469 69.2389 223.208 69.5827C222.945 69.9271 222.513 70.5436 221.911 71.4297C220.719 73.3472 219.13 73.9133 217.144 73.1304C216.111 72.7229 215.375 72.0432 214.937 71.089C214.498 70.136 214.541 68.9942 215.066 67.6628C215.723 65.9943 216.551 64.6514 217.55 63.6335C218.548 62.6155 219.656 61.8132 220.875 61.2265C222.092 60.6391 223.678 59.9965 225.629 59.2974C227.338 58.6864 228.588 58.2096 229.377 57.8665C230.166 57.5239 230.891 57.0817 231.554 56.5387C232.215 55.9969 232.706 55.3185 233.028 54.5034C233.654 52.9145 233.591 51.3408 232.841 49.7823C232.09 48.2244 230.781 47.0764 228.914 46.3403C226.729 45.4784 224.903 45.3952 223.435 46.0907C221.968 46.7849 220.454 48.0646 218.893 49.9274C217.332 51.9063 215.609 52.5228 213.722 51.7787C212.609 51.3402 211.825 50.5779 211.371 49.4914C210.915 48.406 210.868 47.4062 211.228 46.4927ZM212.891 84.8789C211.68 84.4009 210.776 83.5912 210.182 82.4506C209.588 81.3093 209.569 80.0344 210.125 78.6241C210.618 77.3729 211.47 76.4922 212.681 75.9826C213.892 75.473 215.133 75.4688 216.404 75.9705C217.655 76.4637 218.539 77.3061 219.057 78.4972C219.574 79.6882 219.586 80.9091 219.093 82.1609C218.544 83.5511 217.666 84.4677 216.46 84.9098C215.253 85.3508 214.063 85.3411 212.891 84.8789Z" fill="#BF8D17"/>
</g>
<g opacity="0.1">
<path d="M252.084 42.9146C251.557 42.1304 251.276 41.1677 251.239 40.0253C251.202 38.8828 251.489 37.7233 252.1 36.5468C252.711 35.3704 253.659 34.35 254.947 33.4857C256.143 32.6821 257.347 32.1938 258.56 32.0201C259.772 31.8464 260.883 31.9715 261.892 32.3954C262.901 32.8194 263.705 33.4772 264.303 34.3676C264.774 35.0691 265.045 35.7797 265.115 36.4982C265.184 37.2174 265.152 37.9007 265.018 38.5475C264.884 39.1944 264.614 40.3126 264.208 41.9015C264.1 42.3461 264.026 42.722 263.987 43.0288C263.948 43.3367 263.941 43.5985 263.967 43.8147C263.992 44.0309 264.036 44.235 264.099 44.4263C264.162 44.6176 264.284 44.9462 264.464 45.4115C264.884 46.3754 264.681 47.134 263.856 47.6879C263.427 47.9764 262.972 48.0785 262.491 47.9947C262.01 47.9114 261.583 47.5926 261.212 47.0399C260.746 46.3468 260.45 45.6745 260.324 45.0228C260.198 44.371 260.183 43.7345 260.28 43.1126C260.378 42.4906 260.55 41.7138 260.798 40.7809C261.015 39.9645 261.163 39.3596 261.24 38.966C261.317 38.573 261.34 38.1782 261.306 37.781C261.274 37.3844 261.144 37.0169 260.916 36.678C260.472 36.0184 259.853 35.6261 259.057 35.5015C258.262 35.3776 257.476 35.5763 256.701 36.0968C255.793 36.7066 255.278 37.3844 255.157 38.1303C255.035 38.8761 255.125 39.7945 255.426 40.8853C255.772 42.0065 255.553 42.8295 254.769 43.3561C254.307 43.6665 253.808 43.7655 253.271 43.6525C252.734 43.5402 252.339 43.2936 252.084 42.9146ZM267.234 52.4224C266.73 52.7607 266.181 52.8925 265.587 52.8184C264.992 52.7449 264.499 52.4151 264.106 51.829C263.756 51.3091 263.644 50.7503 263.769 50.1514C263.894 49.5532 264.221 49.0764 264.748 48.7217C265.268 48.3724 265.825 48.2564 266.417 48.373C267.01 48.4897 267.482 48.8079 267.831 49.3278C268.219 49.9054 268.338 50.4843 268.189 51.0631C268.038 51.6419 267.721 52.0956 267.234 52.4224Z" fill="#BF8D17"/>
</g>
<path d="M195.817 216.682L191.227 215.492L193.966 204.994L198.556 206.184L195.817 216.682Z" fill="#EEB99C"/>
<path d="M191.175 214.28L196.304 215.9C196.491 215.959 196.589 216.128 196.54 216.307L195.456 220.289C195.344 220.702 194.818 220.96 194.39 220.817C192.614 220.224 191.796 219.853 189.54 219.141C188.152 218.702 184.797 217.711 182.881 217.106C181.007 216.513 181.642 214.695 182.51 214.787C186.405 215.197 188.674 214.869 190.295 214.302C190.589 214.199 190.902 214.194 191.175 214.28Z" fill="#263238"/>
<path opacity="0.2" d="M198.556 206.187L193.964 204.997L192.555 210.409L197.147 211.599L198.556 206.187Z" fill="black"/>
<path d="M210.13 98.7998C210.13 98.7998 201.72 138.747 199.488 151.824C197.044 166.143 191.719 207.149 191.719 207.149L199.524 209.985C199.524 209.985 211.736 166.502 213.588 152.735C217.471 139.271 227.305 98.7998 227.305 98.7998H210.13Z" fill="#0841E2"/>
<path opacity="0.3" d="M220.92 111.839C218.193 118.386 217.203 130.309 217.677 137.439C219.839 129.021 222.238 119.406 224.097 111.875C223.495 109.804 222.669 107.629 220.92 111.839Z" fill="black"/>
<path d="M199.362 210.904L190.994 208.489L191.311 204.95L201.274 207.748L199.362 210.904Z" fill="#263238"/>
<path d="M189.296 214.533C189.717 214.666 190.213 214.73 190.566 214.76C190.61 214.765 190.652 214.743 190.674 214.706C190.695 214.668 190.692 214.623 190.665 214.589C190.553 214.445 189.55 213.187 188.921 213.221C188.775 213.229 188.655 213.302 188.574 213.433C188.44 213.648 188.422 213.849 188.518 214.03C188.64 214.261 188.942 214.422 189.296 214.533ZM190.324 214.519C189.453 214.418 188.861 214.204 188.717 213.933C188.657 213.82 188.673 213.693 188.766 213.543C188.809 213.474 188.862 213.44 188.932 213.436C189.272 213.418 189.905 214.028 190.324 214.519Z" fill="#0841E2"/>
<path d="M190.541 214.755C190.557 214.761 190.576 214.762 190.594 214.76C190.632 214.753 190.664 214.73 190.679 214.695C190.702 214.643 191.235 213.412 190.92 212.84C190.835 212.685 190.7 212.589 190.518 212.554C190.3 212.512 190.125 212.579 190.027 212.742C189.758 213.188 190.126 214.319 190.492 214.723C190.505 214.739 190.522 214.75 190.541 214.755ZM190.524 212.778C190.613 212.806 190.678 212.86 190.722 212.94C190.911 213.282 190.701 214.017 190.546 214.43C190.26 213.983 190.044 213.143 190.221 212.851C190.254 212.795 190.314 212.735 190.475 212.766C190.492 212.769 190.509 212.773 190.524 212.778Z" fill="#0841E2"/>
<path d="M216.635 64.5821C216.226 65.5655 215.835 66.4395 215.395 67.3408C214.966 68.2361 214.525 69.1217 214.069 70.0011C213.147 71.7558 212.172 73.4863 211.105 75.176C208.971 78.5542 206.574 81.8346 203.454 84.7555L203.339 84.8624C203.187 85.0051 203.009 85.1284 202.833 85.222C202.079 85.6167 201.587 85.6623 201.2 85.7121C200.815 85.7485 200.49 85.7467 200.215 85.7297C199.65 85.6987 199.197 85.6204 198.759 85.5305C197.894 85.3501 197.128 85.1248 196.378 84.8867C194.883 84.4117 193.489 83.8377 192.108 83.2547C190.735 82.6546 189.389 82.0235 188.066 81.3518C186.742 80.6739 185.443 79.9833 184.157 79.2035C183.463 78.7826 183.242 77.8788 183.663 77.1852C184.002 76.6258 184.655 76.3731 185.26 76.5171L185.275 76.5213C188.095 77.1967 190.904 77.9584 193.671 78.6307C195.049 78.9775 196.433 79.283 197.758 79.54C198.417 79.6645 199.072 79.7677 199.645 79.8115C199.927 79.8315 200.199 79.8418 200.361 79.8279C200.45 79.8242 200.489 79.8066 200.465 79.8023C200.439 79.8102 200.309 79.7732 199.876 79.9937L199.255 80.4601C200.409 79.2095 201.481 77.8029 202.519 76.3439C203.537 74.8632 204.5 73.3125 205.434 71.7364C206.352 70.1463 207.242 68.527 208.096 66.8853C208.958 65.2654 209.782 63.5441 210.539 61.957L210.576 61.8787C211.365 60.2248 213.345 59.5233 214.999 60.3123C216.6 61.0764 217.305 62.9629 216.635 64.5821Z" fill="#EEB99C"/>
<path d="M215.696 58.1581C211.784 58.2687 209.103 62.5118 206.54 67.8038C209.443 73.1749 214.705 76.0131 214.705 76.0131C214.705 76.0131 224.984 57.8951 215.696 58.1581Z" fill="#E0E0E0"/>
<path d="M184 79.2082L180.478 78.3141L183.228 74.7822C183.228 74.7822 186.276 75.2651 187.416 77.8355L186.164 78.7314C185.502 79.2057 184.694 79.3837 184 79.2082Z" fill="#EEB99C"/>
<path d="M179.625 74.7012L180.305 74.1012C180.873 73.5995 181.739 73.5806 182.329 74.0568L183.229 74.7814L180.479 78.3133L179.357 76.5641C178.97 75.9616 179.083 75.1799 179.625 74.7012Z" fill="#EEB99C"/>
<path d="M236.92 216.137H232.115L230.965 205.434H235.771L236.92 216.137Z" fill="#EEB99C"/>
<path d="M231.695 215.602H237.094C237.29 215.602 237.438 215.733 237.451 215.917L237.712 220.026C237.74 220.452 237.324 220.855 236.871 220.847C234.991 220.817 234.094 220.71 231.719 220.71C230.259 220.71 226.235 220.856 224.218 220.856C222.245 220.856 222.258 218.938 223.113 218.764C226.946 217.984 229.51 216.91 230.868 215.885C231.113 215.701 231.408 215.602 231.695 215.602Z" fill="#263238"/>
<path opacity="0.2" d="M235.772 205.437H230.964L231.56 210.953H236.367L235.772 205.437Z" fill="black"/>
<path d="M219.515 98.7998C219.515 98.7998 220.577 138.959 221.356 152.192C222.21 166.684 229.407 209.622 229.407 209.622H238.209C238.209 209.622 236.283 166.138 234.821 151.933C235.396 136.361 235.832 98.8004 235.832 98.8004L219.515 98.7998Z" fill="#0841E2"/>
<path d="M238.546 209.621H228.562L228.089 206.408L238.814 206.588L238.546 209.621Z" fill="#263238"/>
<path d="M229.992 216.407C230.436 216.407 230.927 216.319 231.273 216.242C231.316 216.233 231.35 216.2 231.357 216.158C231.366 216.116 231.348 216.073 231.311 216.049C231.158 215.946 229.797 215.052 229.21 215.273C229.074 215.324 228.984 215.43 228.95 215.578C228.893 215.823 228.94 216.02 229.09 216.163C229.281 216.345 229.62 216.407 229.992 216.407ZM230.964 216.086C230.105 216.25 229.472 216.225 229.247 216.01C229.155 215.922 229.128 215.796 229.168 215.626C229.186 215.547 229.226 215.499 229.292 215.474C229.608 215.355 230.407 215.744 230.964 216.086Z" fill="#0841E2"/>
<path d="M231.247 216.244C231.265 216.244 231.283 216.24 231.298 216.232C231.332 216.215 231.355 216.182 231.358 216.145C231.363 216.089 231.471 214.759 230.986 214.31C230.856 214.19 230.696 214.139 230.511 214.16C230.29 214.185 230.146 214.301 230.105 214.486C229.994 214.99 230.71 215.955 231.189 216.229C231.208 216.239 231.227 216.244 231.247 216.244ZM230.59 214.371C230.683 214.371 230.763 214.402 230.831 214.466C231.12 214.734 231.16 215.495 231.146 215.934C230.729 215.594 230.252 214.861 230.325 214.531C230.338 214.468 230.375 214.393 230.538 214.374C230.556 214.372 230.574 214.371 230.59 214.371Z" fill="#0841E2"/>
<path d="M212.15 61.2478C212.634 59.6777 214.028 58.4824 215.697 58.1568C217.006 57.9139 217.616 57.7122 219.295 57.5628C222.186 57.3138 226.938 57.4134 230.218 57.5628C232.124 57.6503 234.069 57.8744 235.618 58.0931L235.674 58.1009C237.382 58.3415 238.545 59.8915 238.242 61.5259C237.453 65.7836 236.163 73.2944 235.877 80.2635C235.501 89.4105 236.013 96.5922 235.832 98.7994H210.129C208.566 76.4759 210.583 66.3315 212.15 61.2478Z" fill="#E0E0E0"/>
<path d="M231.973 43.938C234.074 45.6083 233.492 48.4174 231.492 49.4044C232.53 51.1251 229.772 54.1632 226.987 52.2518C224.204 50.341 228.152 42.3188 231.973 43.938Z" fill="#263238"/>
<path d="M220.469 42.0951C218.616 42.0636 217.754 40.2803 218.434 38.8998C217.142 38.3938 217.376 35.5701 219.703 35.4462C222.031 35.3223 223.242 41.3754 220.469 42.0951Z" fill="#263238"/>
<path d="M219.71 59.9355C218.942 59.2565 219.216 58.0034 220.191 57.6463C222.538 56.7869 222.961 55.0838 222.77 53.2325C222.725 52.7272 222.634 52.2036 222.517 51.6861L226.497 48.5065L229.421 46.1748C228.693 49.2165 227.881 54.5025 229.449 57.1817C229.795 57.7726 229.698 58.507 229.168 58.954C228.113 59.8444 226.07 60.999 222.67 60.8229C221.106 60.7409 220.21 60.3783 219.71 59.9355Z" fill="#EEB99C"/>
<path d="M210.831 61.3576C211.481 59.5367 212.97 58.1677 214.727 57.8245C215.641 57.6563 217.145 57.5232 218.205 57.4576C218.725 57.4254 219.125 57.8889 218.994 58.3742C216.957 65.9269 214.058 81.0457 214.957 99.7692C214.98 100.251 214.582 100.658 214.08 100.658H208.976C208.511 100.658 208.124 100.305 208.095 99.8591C206.592 76.9908 209.321 65.5904 210.831 61.3576Z" fill="#263238"/>
<path d="M235.491 57.6234C233.858 57.3926 232.589 57.2632 230.579 57.1697L230.569 57.1691C229.943 57.1344 229.383 57.5365 229.249 58.1251C227.359 66.4461 225.678 84.9352 225.634 99.8111C225.632 100.279 226.028 100.656 226.516 100.656H235.654C236.133 100.656 236.525 100.292 236.535 99.8323C236.596 96.8361 236.186 89.8197 236.543 81.11C236.848 73.7595 237.97 67.1482 238.8 62.6591C239.117 60.933 237.293 57.8791 235.491 57.6234Z" fill="#263238"/>
<path d="M238.692 60.2678C240.641 63.2033 242.416 66.1485 244.092 69.2443C244.92 70.7931 245.729 72.3631 246.464 74.0158C246.833 74.8424 247.191 75.6855 247.522 76.5783C247.851 77.4809 248.156 78.395 248.376 79.5557C248.47 80.1564 248.589 80.7759 248.471 81.8036C248.352 82.516 248.192 83.0699 248.005 83.5856C247.638 84.6151 247.189 85.4739 246.734 86.3042C245.823 87.9544 244.799 89.4158 243.752 90.8468C241.631 93.6856 239.356 96.2889 236.877 98.7797C236.233 99.4266 235.187 99.429 234.54 98.7852C233.984 98.2318 233.904 97.3815 234.301 96.7432L234.322 96.711C236.095 93.8581 237.877 90.9573 239.493 88.079C240.297 86.6425 241.058 85.1854 241.674 83.78C242.273 82.4164 242.739 80.8245 242.418 80.7838C242.286 80.2718 242.01 79.5727 241.714 78.8882C241.414 78.1945 241.068 77.4803 240.703 76.766C239.964 75.3381 239.168 73.8919 238.332 72.4591C236.67 69.5959 234.894 66.7024 233.138 63.9012L233.116 63.8653C232.143 62.3123 232.613 60.2648 234.166 59.2918C235.692 58.3352 237.7 58.7773 238.692 60.2678Z" fill="#EEB99C"/>
<path d="M234.913 57.544C238.827 57.4748 240.896 60.7826 243.46 66.0746C240.556 71.445 235.018 73.7731 235.018 73.7731C235.018 73.7731 227.224 57.6801 234.913 57.544Z" fill="#E0E0E0"/>
<path d="M232.911 96.5877L230.656 97.3008L234.831 100.471C234.831 100.471 238.242 98.7014 237.171 97.093L236.479 96.7839C235.364 96.2852 234.089 96.2154 232.911 96.5877Z" fill="#EEB99C"/>
<path d="M229.393 100.087L231.928 102.633C232.266 102.972 232.841 102.939 233.144 102.563L234.83 100.471L230.656 97.3008L229.323 99.1029C229.098 99.4072 229.127 99.8202 229.393 100.087Z" fill="#EEB99C"/>
<path opacity="0.2" d="M222.517 51.6855C222.634 52.203 222.725 52.7271 222.77 53.2319C224.276 53.6169 226.409 51.8871 226.617 50.4282C226.694 49.8797 226.536 48.8861 226.497 48.5059L222.517 51.6855Z" fill="black"/>
<path d="M231.917 41.8596C230.891 46.3439 230.528 49.0145 227.768 51.0152C223.617 54.0241 218.133 51.1682 217.743 46.5018C217.392 42.3012 219.129 35.6741 224.037 34.4964C228.875 33.3357 232.943 37.3754 231.917 41.8596Z" fill="#EEB99C"/>
<path d="M229.839 45.7861C228.54 45.8535 227.156 41.2648 230.025 39.0545C229.569 39.3078 228.321 38.8523 228.54 37.9916C227.696 38.3457 224.005 38.1939 224.889 36.6925C223.008 37.1814 218.914 36.3633 218.476 34.5751C218.037 32.7864 220.156 32.719 220.48 32.9553C219.555 31.6561 219.572 29.7496 222.036 29.0578C224.499 28.3659 228.219 31.9343 228.219 31.9343C227.831 30.9898 229.198 30.2306 230.615 31.0402C232.032 31.8499 232.69 34.1445 232.69 34.1445C232.673 33.4527 235.997 34.3808 234.428 37.2828C236.048 37.9072 236.79 38.7533 236.689 40.2535C236.587 41.7537 235.558 41.8381 235.558 41.8381C235.558 41.8381 236.352 43.5758 234.664 44.9254C232.978 46.2756 231.527 44.6892 229.839 45.7861Z" fill="#263238"/>
<path d="M232.416 46.1317C231.797 47.044 230.863 47.638 230.032 47.8615C228.782 48.1974 228.354 47.0816 228.865 45.913C229.325 44.861 230.531 43.4185 231.705 43.5983C232.863 43.7763 233.123 45.0882 232.416 46.1317Z" fill="#EEB99C"/>
<path d="M224.46 41.6788C224.4 42.0471 224.148 42.3187 223.897 42.2847C223.646 42.2507 223.491 41.9249 223.551 41.556C223.611 41.1878 223.863 40.9161 224.114 40.9501C224.365 40.9842 224.52 41.3099 224.46 41.6788Z" fill="#263238"/>
<path d="M220.048 40.8751C219.988 41.2434 219.735 41.515 219.484 41.481C219.233 41.4469 219.078 41.1212 219.138 40.7523C219.198 40.3841 219.45 40.1124 219.701 40.1464C219.953 40.1805 220.108 40.5062 220.048 40.8751Z" fill="#263238"/>
<path d="M221.799 41.6963C221.799 41.6963 220.58 43.7031 219.452 44.5989C220.032 45.2986 221.232 45.1766 221.232 45.1766L221.799 41.6963Z" fill="#ED847E"/>
<path d="M222.018 47.0154C223.537 47.1563 224.46 46.3217 224.502 46.2822C224.547 46.2409 224.548 46.1717 224.504 46.1274C224.46 46.083 224.388 46.0812 224.344 46.1225C224.333 46.1316 223.283 47.084 221.615 46.7329C221.553 46.7196 221.494 46.7572 221.482 46.8167C221.469 46.8757 221.509 46.9346 221.571 46.9473C221.725 46.9801 221.874 47.002 222.018 47.0154Z" fill="#263238"/>
<path d="M224.676 39.1558C224.64 39.1637 224.605 39.1801 224.575 39.2056C224.48 39.2864 224.471 39.4249 224.554 39.5148C225.375 40.4082 226.419 40.2442 226.462 40.2363C226.58 40.2278 226.669 40.1027 226.649 39.9831C226.628 39.864 226.511 39.7845 226.387 39.8051C226.344 39.8118 225.54 39.9248 224.896 39.2232C224.839 39.1619 224.754 39.1388 224.676 39.1558Z" fill="#263238"/>
<path d="M218.788 38.0511C218.852 38.0857 218.931 38.0912 219.001 38.0584C219.921 37.6217 220.67 38.0153 220.677 38.0189C220.787 38.0791 220.925 38.0414 220.985 37.9357C221.044 37.8306 221.004 37.697 220.894 37.6375L220.893 37.6369C220.854 37.6156 219.926 37.1273 218.795 37.6636C218.683 37.7165 218.639 37.8483 218.695 37.957C218.716 37.9977 218.749 38.0299 218.788 38.0511Z" fill="#263238"/>
<path d="M69.4838 26.2502C76.5436 26.2502 82.2666 20.5272 82.2666 13.4674C82.2666 6.40764 76.5436 0.68457 69.4838 0.68457C62.424 0.68457 56.701 6.40764 56.701 13.4674C56.701 20.5272 62.424 26.2502 69.4838 26.2502Z" fill="#BF8D17"/>
<g opacity="0.7">
<path d="M69.4838 26.2502C76.5436 26.2502 82.2666 20.5272 82.2666 13.4674C82.2666 6.40764 76.5436 0.68457 69.4838 0.68457C62.424 0.68457 56.701 6.40764 56.701 13.4674C56.701 20.5272 62.424 26.2502 69.4838 26.2502Z" fill="white"/>
</g>
<path d="M69.4835 26.5135C62.2897 26.5135 56.4377 20.6614 56.4377 13.4677C56.4377 6.27394 62.2897 0.421875 69.4835 0.421875C76.6772 0.421875 82.5293 6.27394 82.5293 13.4677C82.5293 20.6614 76.6772 26.5135 69.4835 26.5135ZM69.4835 0.94786C62.5801 0.94786 56.9637 6.56426 56.9637 13.4677C56.9637 20.3711 62.5801 25.9875 69.4835 25.9875C76.3869 25.9875 82.0033 20.3711 82.0033 13.4677C82.0033 6.56426 76.3869 0.94786 69.4835 0.94786Z" fill="#BF8D17"/>
<path d="M69.5869 6.3623C72.3554 6.3623 74.2358 7.99493 74.2358 10.6807C74.2358 13.5937 72.1701 14.8753 69.4011 14.8753L69.3185 16.5079H67.2728L67.1696 13.2639H67.8511C70.1858 13.2639 71.9836 12.8509 71.9836 10.6814C71.9836 9.23519 71.0951 8.3466 69.6076 8.3466C68.1408 8.3466 67.2109 9.17263 67.2109 10.6194H65.0001C64.9794 8.11823 66.7772 6.3623 69.5869 6.3623ZM68.2647 21.0729C67.4174 21.0729 66.756 20.4115 66.756 19.5648C66.756 18.7175 67.4174 18.0561 68.2647 18.0561C69.0913 18.0561 69.7528 18.7175 69.7528 19.5648C69.7528 20.4121 69.0913 21.0729 68.2647 21.0729Z" fill="#BF8D17"/>
<path d="M77.4816 23.4394L81.65 25.5118C81.8687 25.6205 82.1068 25.4037 82.0187 25.1759L80.1948 20.4463C79.2667 21.7649 78.3599 22.7962 77.4816 23.4394Z" fill="#BF8D17"/>
<path d="M83.2268 47.0351C83.8111 49.9748 108.812 48.8068 107.642 45.0107C107.447 44.3778 107.061 43.7474 106.733 43.0416C105.108 39.5443 102.41 35.1585 93.6798 35.1876C88.4272 35.2047 81.5055 38.38 83.2268 47.0351Z" fill="#407BFF"/>
<path d="M114.192 212.152L115.471 218.626H118.894L119.35 212.152H114.192Z" fill="#EEB99C"/>
<path d="M118.443 217.804C118.443 217.804 119.091 217.002 119.915 217.276C120.738 217.55 121.815 218.897 121.815 218.897C121.815 218.897 126.28 220.329 127.485 220.404C128.691 220.48 129.746 221.158 130.198 223.493H115.579C115.579 223.493 115.004 218.219 114.915 217.315C114.826 216.41 116.257 217.541 116.257 217.541L118.443 217.804Z" fill="#407BFF"/>
<path d="M129.763 222.797C128.884 222.789 128.009 222.78 127.13 222.771C123.291 222.732 119.451 222.689 115.611 222.65C115.465 222.65 115.465 222.422 115.611 222.426C115.87 222.43 116.133 222.43 116.391 222.434C116.391 222.426 116.396 222.413 116.4 222.404C116.951 221.184 116.314 219.939 115.211 219.314C115.081 219.245 115.198 219.047 115.322 219.121C116.516 219.797 117.171 221.129 116.624 222.434C117.167 222.443 117.706 222.447 118.249 222.451C122.084 222.49 125.923 222.533 129.763 222.572C129.91 222.573 129.91 222.801 129.763 222.797Z" fill="black"/>
<path d="M121.297 219.816C121.805 219.102 122.664 218.899 123.385 219.438C123.502 219.525 123.615 219.329 123.5 219.243C122.672 218.625 121.678 218.893 121.102 219.703C121.017 219.821 121.213 219.934 121.297 219.816Z" fill="white"/>
<path d="M122.557 220.196C123.065 219.482 123.924 219.279 124.646 219.818C124.762 219.905 124.875 219.709 124.76 219.623C123.932 219.005 122.938 219.273 122.362 220.083C122.277 220.201 122.473 220.314 122.557 220.196Z" fill="white"/>
<path d="M123.857 220.576C124.365 219.862 125.224 219.659 125.945 220.198C126.062 220.285 126.175 220.088 126.059 220.003C125.232 219.384 124.237 219.653 123.661 220.463C123.578 220.58 123.773 220.693 123.857 220.576Z" fill="white"/>
<path d="M83.5725 212.198L84.2825 218.625H87.7051L88.7303 212.198H83.5725Z" fill="#EEB99C"/>
<path d="M87.2541 217.805C87.2541 217.805 87.9027 217.003 88.7263 217.277C89.5493 217.551 90.6268 218.898 90.6268 218.898C90.6268 218.898 95.091 220.33 96.2967 220.405C97.5023 220.481 98.5573 221.159 99.0092 223.494H84.3909C84.3909 223.494 83.8157 218.22 83.7264 217.316C83.6371 216.411 85.0687 217.542 85.0687 217.542L87.2541 217.805Z" fill="#407BFF"/>
<path d="M98.5742 222.798C97.6953 222.79 96.8201 222.781 95.9412 222.772C92.1014 222.733 88.2615 222.69 84.4223 222.651C84.2759 222.651 84.2759 222.423 84.4223 222.427C84.6811 222.431 84.9435 222.431 85.2022 222.435C85.2022 222.427 85.2064 222.414 85.2107 222.405C85.7622 221.185 85.1244 219.94 84.0215 219.315C83.8921 219.246 84.0087 219.048 84.1332 219.122C85.3267 219.798 85.9821 221.13 85.4348 222.435C85.9778 222.444 86.5166 222.448 87.0595 222.452C90.8951 222.491 94.7343 222.534 98.5742 222.573C98.7212 222.574 98.7212 222.802 98.5742 222.798Z" fill="black"/>
<path d="M90.1084 219.816C90.6168 219.102 91.4756 218.899 92.1972 219.438C92.3138 219.525 92.4268 219.329 92.3114 219.243C91.4835 218.625 90.4892 218.893 89.9134 219.703C89.8284 219.821 90.0246 219.934 90.1084 219.816Z" fill="white"/>
<path d="M91.3677 220.196C91.8761 219.482 92.7349 219.279 93.4565 219.818C93.5731 219.905 93.6861 219.709 93.5707 219.623C92.7428 219.005 91.7485 219.273 91.1727 220.083C91.0883 220.201 91.2839 220.314 91.3677 220.196Z" fill="white"/>
<path d="M92.6687 220.576C93.1771 219.862 94.0359 219.659 94.7569 220.198C94.8735 220.285 94.9865 220.088 94.8711 220.003C94.0432 219.384 93.049 219.653 92.4732 220.463C92.3887 220.58 92.5849 220.693 92.6687 220.576Z" fill="white"/>
<path d="M113.053 212.38H120.605C121.259 202.655 123.108 170.429 121.647 154.482C122.698 132.356 119.316 102.984 119.316 102.984H95.392C95.392 102.984 97.1449 122.639 105.015 154.163C104.959 179.139 111.056 204.108 113.053 212.38Z" fill="#263238"/>
<path opacity="0.2" d="M103.724 148.864C108.049 131.199 104.251 108.291 104.251 108.291L100.519 134.457L103.724 148.864Z" fill="black"/>
<path d="M112.153 212.191L112.708 215.06L121.368 215.023L121.373 212.152L112.153 212.191Z" fill="#263238"/>
<path d="M82.4948 212.659H90.0469C92.7376 202.654 98.1427 170.487 99.0082 154.54C103.287 132.414 105.333 102.984 105.333 102.984H81.4082C81.4082 102.984 79.1828 122.864 82.4541 154.388C81.8194 181.872 82.3236 204.108 82.4948 212.659Z" fill="#263238"/>
<path d="M81.8353 212.183L81.8195 215.028L90.5481 215.03L91.0054 212.184L81.8353 212.183Z" fill="#263238"/>
<path d="M122.444 106.594C105.851 112.971 78.8165 108.349 78.8165 108.349C79.1384 100.235 79.4178 84.1634 79.3085 70.8072C79.3024 70.4975 79.3024 70.1877 79.2963 69.878C79.2781 67.9829 79.2477 66.1487 79.2113 64.4116C79.2052 64.199 79.2052 63.9864 79.1991 63.7799C79.1202 60.3665 78.9987 57.3478 78.8408 54.9304C78.5371 50.3812 81.0091 46.1478 85.5098 45.3886C86.8764 45.1578 88.3523 44.9573 89.8889 44.7934C90.2534 44.7508 90.6239 44.7144 91.0004 44.678C95.2642 44.2589 99.941 44.0767 104.211 44.1981C104.423 44.1981 104.636 44.2042 104.849 44.2103C104.958 44.2164 105.079 44.2163 105.189 44.2224C105.371 44.2285 105.559 44.2346 105.741 44.2467C107.643 44.3257 109.446 44.4654 111.062 44.678C114.731 45.1517 117.992 48.0489 118.053 51.7539C118.108 55.1491 118.442 62.3161 118.921 70.4003C119.104 73.4615 119.31 76.6623 119.535 79.8328C120.403 92.3144 121.509 104.413 122.444 106.594Z" fill="#407BFF"/>
<path d="M80.1042 91.7435C80.1103 91.7496 80.1163 91.7617 80.1163 91.7678L80.0981 91.7556C80.0738 91.7435 80.0495 91.7435 80.0191 91.7435L77.6139 96.2563C77.456 96.1712 77.3042 96.0862 77.1523 95.9951L77.0369 95.9222L76.964 95.8736L76.8304 95.7765L76.551 95.5821L76.3263 95.412C76.0165 95.1812 75.7675 94.9747 75.5003 94.7561C74.9961 94.3248 74.5163 93.8997 74.0486 93.4684C73.1194 92.612 72.2265 91.7556 71.3397 90.8871C69.5905 89.1318 67.8959 87.3461 66.2499 85.5118C64.5918 83.6775 62.9944 81.8007 61.4152 79.7903C61.0204 79.2862 60.6196 78.7639 60.2309 78.2051C60.0304 77.9135 59.8361 77.6463 59.6295 77.3122C59.4291 77.0086 59.2165 76.6502 58.9797 76.2068L58.7914 75.8059L58.6942 75.6055C58.6517 75.4901 58.6031 75.3565 58.5606 75.235L58.4452 74.8463C58.4087 74.6823 58.3844 74.7127 58.3176 74.2025C58.269 73.8077 58.263 73.3947 58.3055 72.9938L58.3419 72.6962C58.3601 72.6051 58.3784 72.4897 58.3905 72.4532L58.4816 72.1313C58.5484 71.9127 58.6334 71.7001 58.7246 71.4875L58.8643 71.1838L58.9432 71.032L58.9736 70.9773L59.2348 70.5461C59.4413 70.2181 59.5384 70.0905 59.6721 69.9023C60.1883 69.1916 60.6013 68.6997 61.0326 68.1712C62.7272 66.173 64.4035 64.4055 66.0981 62.6138C67.8048 60.8524 69.5055 59.1031 71.2486 57.4086C74.7168 53.989 78.2395 50.6667 81.9142 47.4658L88.8625 55.1066C85.4066 58.4168 81.8413 61.6541 78.2881 64.8611L72.9797 69.6715C71.279 71.196 69.5662 72.7691 68.0295 74.2754C68.151 74.494 68.2786 74.7127 68.4122 74.9313C69.5905 76.8749 70.9267 78.8489 72.2387 80.8168C73.5749 82.7786 74.9233 84.7465 76.2959 86.6719C76.9762 87.6437 77.6625 88.6034 78.361 89.5326C78.7072 90.0003 79.0595 90.4437 79.3996 90.8749L79.8794 91.4702L80.0677 91.6949L80.1042 91.7435Z" fill="#407BFF"/>
<path d="M96.8531 49.4961C96.8531 49.4961 99.9963 62.5504 99.0955 75.2409" stroke="white" stroke-width="0.303688" stroke-miterlimit="10" stroke-linecap="round" stroke-linejoin="round"/>
<path d="M104.004 49.2139C104.004 49.2139 107.147 62.2682 106.246 74.9587" stroke="white" stroke-width="0.303688" stroke-miterlimit="10" stroke-linecap="round" stroke-linejoin="round"/>
<path opacity="0.2" d="M119.535 79.8332C113.4 70.8883 108.777 60.9523 105.825 49.9199L118.921 70.4006C119.104 73.4618 119.31 76.6627 119.535 79.8332Z" fill="black"/>
<path opacity="0.2" d="M87.6241 87.765C87.6241 87.765 88.8037 95.7332 88.3815 100.321C88.3815 100.321 101.468 102.372 115.235 99.3258C115.784 96.2318 115.753 91.5629 114.502 86.9596C106.403 86.5503 97.3106 86.9238 87.6241 87.765Z" fill="black"/>
<path d="M107.389 18.8177C104.795 17.8963 101.913 18.0123 99.4721 19.2835C97.8783 20.1138 96.4929 21.3851 96.5269 23.2922C96.6065 27.7419 97.8474 35.1852 97.8474 35.1852L112.868 28.3948C112.868 28.3948 113.962 24.6673 112.202 22.2901C110.896 20.5256 109.305 19.4986 107.389 18.8177Z" fill="#263238"/>
<path d="M96.5927 27.9528C96.5927 27.9528 96.9188 26.6597 95.4271 24.2575C93.9354 21.8554 95.5705 20.3606 96.7178 20.7068C96.7178 20.7068 96.1195 19.2273 97.1132 18.7207C98.1075 18.2142 98.6128 18.7924 98.6128 18.7924C98.6128 18.7924 102.357 15.7962 107.442 16.8002C111.539 17.6092 114.569 14.7527 116.089 15.8654C117.609 16.9781 114.844 18.0174 114.844 18.0174C114.844 18.0174 117.304 19.3718 116.921 20.6351C116.539 21.8985 114.287 21.9987 114.287 21.9987C114.287 21.9987 116.625 23.5512 115.672 24.5843C114.718 25.6181 111.744 24.3656 111.744 24.3656C111.744 24.3656 99.9484 24.3043 96.5927 27.9528Z" fill="#263238"/>
<path d="M104.411 40.7184L104.412 40.7245C104.401 40.7433 104.396 40.7561 104.385 40.7749L103.44 43.2366C103.329 43.748 103.266 44.2625 103.252 44.7672C103.238 45.193 103.26 45.6108 103.306 46.0141C103.78 46.8383 103.857 48.5997 101.876 48.3932C99.375 48.1369 95.1355 44.2139 95.0906 43.0939C96.6175 39.8037 98.0685 35.6887 98.2356 32.4053L100.753 35.7993L104.411 40.7184Z" fill="#EEB99C"/>
<g opacity="0.2">
<path d="M104.385 40.7749L103.44 43.2365C101.953 42.3534 100.484 40.637 100.29 38.9321C100.158 37.7027 100.821 36.638 101.312 36.6289L104.385 40.7749Z" fill="black"/>
</g>
<path d="M111.288 36.1527C111.08 36.6878 110.856 37.2132 110.621 37.7295C108.531 42.286 102.652 42.0813 99.4018 38.205C99.3969 38.1978 99.3981 38.1917 99.3921 38.1899C99.1042 37.8455 98.8351 37.4732 98.5928 37.0686C96.6164 33.7858 97.4485 31.5178 98.3711 26.2634C99.2925 21.0151 105.305 18.3256 109.809 21.5532C113.965 24.5318 113.374 30.8042 111.288 36.1527Z" fill="#EEB99C"/>
<path d="M106.597 35.6592C106.389 36.2198 105.875 36.5459 105.449 36.388C105.022 36.2301 104.845 35.6476 105.053 35.087C105.26 34.5264 105.774 34.2002 106.201 34.3582C106.627 34.5161 106.804 35.0985 106.597 35.6592Z" fill="white"/>
<path d="M102.77 25.449C104.14 25.257 103.207 23.7471 103.501 22.8992C104.456 20.1441 111.951 22.0282 112.813 26.2428C112.813 26.2428 112.605 23.0316 110.266 21.0643C107.927 19.097 102.897 18.2017 100.583 20.4739C98.2701 22.7461 98.2586 26.7512 98.2586 26.7512C98.2586 26.7512 98.196 27.4752 98.6437 27.9532C98.8933 28.1943 99.3324 29.3046 100.061 29.5991C100.681 29.8506 101.155 29.751 101.383 28.8515C101.612 27.9519 101.854 25.5771 102.77 25.449Z" fill="#263238"/>
<path d="M95.3215 29.1843C95.3804 30.6208 96.0971 31.8956 96.9784 32.6822C98.3043 33.8648 99.7468 32.8674 100.03 31.2075C100.286 29.7139 99.9041 27.2984 98.2593 26.7518C96.6389 26.2124 95.254 27.542 95.3215 29.1843Z" fill="#EEB99C"/>
<path d="M106.059 29.4827C105.961 29.8911 106.097 30.2734 106.364 30.3378C106.631 30.4016 106.926 30.1227 107.024 29.7149C107.122 29.3065 106.985 28.9243 106.719 28.8598C106.452 28.7954 106.156 29.0744 106.059 29.4827Z" fill="#263238"/>
<path d="M110.542 30.5013C110.445 30.9097 110.581 31.2919 110.848 31.3564C111.115 31.4202 111.41 31.1412 111.509 30.7334C111.607 30.3251 111.47 29.9428 111.203 29.8784C110.936 29.814 110.64 30.0929 110.542 30.5013Z" fill="#263238"/>
<path d="M112.141 29.2756C112.069 29.258 112.009 29.2039 111.987 29.128C111.891 28.7879 111.72 28.5498 111.481 28.4204C111.088 28.2078 110.619 28.3451 110.614 28.3469C110.505 28.3815 110.384 28.3202 110.349 28.2078C110.315 28.0961 110.377 27.9776 110.488 27.9424C110.513 27.9345 111.129 27.748 111.683 28.0481C112.026 28.2339 112.266 28.5583 112.394 29.012C112.426 29.1244 112.361 29.2416 112.248 29.2738C112.212 29.2841 112.175 29.2841 112.141 29.2756Z" fill="#263238"/>
<path d="M105.186 27.6193C105.153 27.6114 105.122 27.5956 105.094 27.5725C104.997 27.4918 104.983 27.3478 105.063 27.2506C105.082 27.2275 105.529 26.6943 106.209 26.6378C106.631 26.6026 107.041 26.7544 107.427 27.0903C107.523 27.1735 107.534 27.3187 107.45 27.414C107.367 27.51 107.222 27.5197 107.127 27.4365C106.838 27.1862 106.544 27.0708 106.251 27.0945C105.765 27.1334 105.421 27.5391 105.417 27.5434C105.359 27.6126 105.268 27.6387 105.186 27.6193Z" fill="#263238"/>
<path d="M108.854 29.7852C108.854 29.7852 109.066 31.6547 109.634 32.9502C110.205 34.2506 107.964 33.7641 107.964 33.7641L108.854 29.7852Z" fill="#ED847E"/>
<path opacity="0.2" d="M87.0951 56.9775L79.2964 69.8782C79.2782 67.9832 79.2478 66.1489 79.2114 64.4118C79.2053 64.1992 79.2053 63.9867 79.1992 63.7802L87.0951 56.9775Z" fill="black"/>
<path d="M124.764 76.2992C122.268 77.435 119.334 76.4632 117.956 74.1612C117.865 74.0094 117.78 73.8636 117.688 73.7118C117.512 73.4141 117.336 73.1104 117.16 72.8068C117.069 72.661 116.984 72.5092 116.899 72.3573C116.613 71.8714 116.334 71.3794 116.049 70.8875C115.739 70.3408 115.423 69.7942 115.107 69.2415C114.797 68.6948 114.488 68.1482 114.172 67.5955C113.856 67.0488 113.546 66.4961 113.242 65.9495C112.933 65.3968 112.623 64.8441 112.319 64.2914C112.283 64.2246 112.246 64.1577 112.21 64.0909C111.633 63.0523 111.056 62.0076 110.485 60.969C109.276 58.746 108.08 56.517 106.914 54.2697C105.747 52.0163 104.593 49.7629 103.506 47.461L108.286 44.333C109.957 46.2523 111.56 48.2202 113.151 50.1942C113.327 50.4128 113.504 50.6315 113.68 50.8562L117.33 48.9491C118.241 50.5525 119.104 52.1803 119.954 53.8202C120.798 55.454 121.636 57.1 122.45 58.7521C123.264 60.4042 124.078 62.0623 124.862 63.7326C125.657 65.3968 126.435 67.0731 127.2 68.7495L127.413 69.2232C128.633 71.9078 127.449 75.0783 124.764 76.2992Z" fill="#407BFF"/>
<path d="M115.107 69.2412C115.04 69.1319 114.979 69.0286 114.919 68.9193C114.348 67.9353 113.789 66.9453 113.242 65.9492C113.546 66.4959 113.856 67.0486 114.172 67.5952C114.487 68.1479 114.797 68.6946 115.107 69.2412Z" fill="#407BFF"/>
<path d="M108.292 45.5659C108.176 46.4867 107.509 47.9225 106.167 47.8739C104.909 47.8254 103.859 47.4002 103.731 47.3455C103.725 47.3394 103.719 47.3395 103.719 47.3395C102.692 47.0783 100.767 46.4284 100.105 45.159C99.1758 43.3854 100.627 40.6037 100.627 40.6037C99.1211 39.1763 97.3391 36.7207 98.5842 37.2795C99.8232 37.8383 104.715 41.2536 106.465 40.8667C108.093 40.5071 108.664 39.0937 109.269 39.3798C109.965 39.709 108.672 40.9729 108.022 42.2849C108.022 42.2849 108.469 44.1635 108.292 45.5659Z" fill="#EEB99C"/>
<g opacity="0.2">
<path d="M103.281 47.3698C103.259 47.3698 103.238 47.3656 103.217 47.3559C103.092 47.2975 100.143 45.9146 99.608 44.404C99.1312 43.0563 100.155 41.1218 100.433 40.6353C100.042 40.2915 98.5979 38.9893 98.211 38.1936C97.9978 37.7539 97.9499 37.4398 98.0653 37.2339C98.157 37.0693 98.3149 37.0487 98.3325 37.0469C98.9587 37.056 99.5959 37.5249 100.477 38.1736C101.354 38.8192 102.445 39.6221 103.923 40.2696C106.581 41.4339 107.058 40.7257 107.373 40.2569L107.493 40.0825C107.843 39.5778 108.43 38.7323 109.426 39.1375C109.504 39.169 109.542 39.2571 109.51 39.3349C109.478 39.4126 109.39 39.4503 109.313 39.4187C108.597 39.1302 108.179 39.6264 107.743 40.2556L107.625 40.4269C107.153 41.1278 106.466 41.7146 103.802 40.5478C102.293 39.887 101.187 39.0725 100.298 38.4183C99.495 37.8273 98.8609 37.3603 98.3495 37.35C98.3611 37.3512 98.3416 37.3591 98.3277 37.3882C98.3076 37.4289 98.2602 37.599 98.485 38.0612C98.8968 38.9085 100.709 40.4731 100.727 40.4889C100.783 40.5375 100.796 40.6195 100.757 40.6832C100.743 40.7057 99.4051 42.9208 99.8947 44.3032C100.387 45.6941 103.315 47.0674 103.345 47.0813C103.421 47.1165 103.454 47.207 103.419 47.283C103.393 47.3376 103.338 47.3698 103.281 47.3698Z" fill="black"/>
</g>
<path opacity="0.2" d="M110.444 46.7822L123.452 66.573C123.452 66.573 121.934 59.9422 110.444 46.7822Z" fill="black"/>
<path d="M79.2197 91.8448C79.2197 91.8448 84.4553 93.4567 84.8689 94.4777C85.2831 95.4987 83.5721 95.2345 83.5721 95.2345C83.5721 95.2345 85.4392 95.6275 85.3888 96.3466C85.328 97.2097 83.5369 96.9261 83.5369 96.9261C83.5369 96.9261 85.0487 97.3014 84.9551 97.9367C84.8579 98.5957 82.8159 98.402 82.8159 98.402C82.8159 98.402 83.8321 98.8429 83.4835 99.2426C83.1348 99.6423 79.3296 99.3635 78.1258 98.5077C76.922 97.6519 77.6982 92.8548 78.0517 91.8114C78.4052 90.7679 77.7857 89.6855 79.264 88.4902L79.2197 91.8448Z" fill="#EEB99C"/>
<path opacity="0.2" d="M83.56 95.3134C83.5575 95.3128 83.5551 95.3128 83.5521 95.3116L80.3287 94.4905C80.2856 94.4789 80.2595 94.4352 80.2704 94.3921C80.2814 94.3489 80.3275 94.3222 80.3688 94.3337L83.5922 95.1555C83.6353 95.1665 83.6614 95.2108 83.6505 95.2539C83.6401 95.2946 83.6007 95.3201 83.56 95.3134Z" fill="black"/>
<path opacity="0.2" d="M83.4312 96.991L83.4293 96.9904L80.2716 96.417C80.2279 96.4091 80.1987 96.3672 80.2066 96.3229C80.2145 96.2786 80.2491 96.2561 80.3008 96.2579L83.4585 96.8313C83.5022 96.8392 83.5314 96.8817 83.5235 96.9254C83.515 96.9692 83.4743 96.9977 83.4312 96.991Z" fill="black"/>
<path opacity="0.2" d="M82.695 98.4642L80.3372 98.0973C80.2928 98.0907 80.2631 98.0487 80.2697 98.005C80.2764 97.9607 80.3177 97.9303 80.3621 97.9376L82.7199 98.3045C82.7642 98.3111 82.794 98.353 82.7873 98.3968C82.7806 98.4411 82.7393 98.4715 82.695 98.4642Z" fill="black"/>
</g>
<defs>
<clipPath id="clip0_651_1698">
<rect width="303.688" height="226.314" fill="white" transform="translate(0.559753 0.393555)"/>
</clipPath>
</defs>
</svg>
