<svg width="268" height="268" viewBox="0 0 268 268" fill="none" xmlns="http://www.w3.org/2000/svg">
<path d="M68.0254 238.63C68.0227 238.628 68.0201 238.585 68.0174 238.505C68.0152 238.413 68.0126 238.296 68.0088 238.151C68.004 237.826 67.9975 237.374 67.989 236.794C67.9782 235.603 67.9632 233.891 67.9445 231.732L68.0254 231.812C62.071 231.824 52.6015 231.843 41.949 231.864C42.008 231.806 41.815 231.997 42.0803 231.732V231.733V231.737V231.744V231.758V231.786V231.841V231.952V232.174V232.616C42.0803 232.91 42.0803 233.204 42.0803 233.496C42.0803 234.081 42.0798 234.661 42.0798 235.237C42.0793 236.388 42.0782 237.521 42.0777 238.63L41.9479 238.501C49.3737 238.524 55.8716 238.545 60.5316 238.56C62.853 238.575 64.7156 238.588 66.017 238.597C66.65 238.604 67.1453 238.61 67.5001 238.614C67.6599 238.617 67.7874 238.62 67.8882 238.622C67.9761 238.625 68.0222 238.627 68.0254 238.63C68.0281 238.633 67.9874 238.636 67.9048 238.639C67.8083 238.641 67.6861 238.644 67.5328 238.648C67.185 238.652 66.6988 238.657 66.0776 238.665C64.7837 238.673 62.9307 238.686 60.6222 238.702C55.9392 238.717 49.4096 238.737 41.9479 238.761L41.8182 238.761V238.631C41.8177 237.521 41.8166 236.389 41.8161 235.238C41.8161 234.662 41.8156 234.081 41.8156 233.497C41.8156 233.204 41.8156 232.911 41.8156 232.616V232.174V231.952V231.841V231.786V231.758V231.744V231.737V231.734V231.732C42.0814 231.466 41.8901 231.658 41.9501 231.599C52.6026 231.621 62.0721 231.639 68.0265 231.651H68.108L68.1074 231.732C68.0881 233.911 68.0731 235.64 68.0629 236.842C68.0544 237.415 68.0479 237.862 68.0431 238.182C68.0394 238.321 68.0367 238.433 68.0345 238.522C68.0308 238.596 68.0281 238.633 68.0254 238.63Z" fill="#E0E0E0"/>
<path d="M71.5608 231.732C71.5576 231.728 71.5544 231.684 71.5507 231.6C71.548 231.501 71.5442 231.381 71.5405 231.235C71.5346 230.896 71.5265 230.434 71.5169 229.851C71.5046 228.642 71.4869 226.933 71.4654 224.833L71.5608 224.928C67.5017 224.938 61.9798 224.951 55.8936 224.966C55.774 225.084 56.0538 224.804 56.0254 224.833V224.835V224.839V224.846V224.86V224.888V224.945V225.058V225.284V225.735C56.0254 226.035 56.0254 226.333 56.0249 226.63C56.0243 227.222 56.0238 227.808 56.0238 228.385C56.0222 229.539 56.0206 230.659 56.019 231.731L55.8925 231.604C60.4158 231.628 64.3098 231.649 67.1008 231.664C68.4772 231.679 69.5803 231.69 70.3656 231.699C70.7322 231.705 71.0243 231.711 71.2462 231.715C71.4483 231.721 71.5555 231.726 71.5608 231.732C71.5662 231.737 71.4686 231.742 71.2762 231.747C71.0613 231.751 70.7777 231.756 70.4218 231.763C69.6436 231.772 68.5501 231.784 67.186 231.798C64.3736 231.813 60.4501 231.834 55.8925 231.858L55.766 231.859V231.732C55.7644 230.66 55.7628 229.541 55.7612 228.387C55.7606 227.809 55.7601 227.223 55.7601 226.631C55.7601 226.334 55.7601 226.036 55.7596 225.736V225.285V225.059V224.946V224.889V224.861V224.847V224.84V224.836V224.834C55.7306 224.862 56.0115 224.582 55.8936 224.701C61.9798 224.715 67.5017 224.729 71.5608 224.738H71.6573L71.6562 224.834C71.6348 226.959 71.6171 228.687 71.6048 229.911C71.5946 230.484 71.5866 230.938 71.5812 231.273C71.5742 231.58 71.5678 231.738 71.5608 231.732Z" fill="#E0E0E0"/>
<path d="M78.3289 20.9041H52.2509V27.8029H78.3289V20.9041Z" fill="#EBEBEB"/>
<path d="M67.3018 35.0689C67.2991 35.0662 67.2964 35.0239 67.2937 34.9435C67.2916 34.8513 67.2889 34.735 67.2852 34.5897C67.2803 34.2649 67.2739 33.8125 67.2659 33.232C67.2552 32.041 67.2401 30.3291 67.2214 28.17L67.3023 28.251C61.3479 28.2628 51.8784 28.2821 41.2259 28.303C41.2849 28.244 41.0919 28.4354 41.3572 28.1706V28.1722V28.1759V28.1829V28.1968V28.2247V28.2805V28.3914V28.6133V29.0555C41.3572 29.3498 41.3572 29.6435 41.3572 29.9356C41.3572 30.5204 41.3567 31.1009 41.3567 31.6766C41.3562 32.8279 41.3551 33.9605 41.3546 35.07L41.2248 34.9403C48.6506 34.9638 55.1485 34.9847 59.8085 34.9992C62.1299 35.0148 63.9925 35.0276 65.2939 35.0362C65.9269 35.0437 66.4222 35.0491 66.777 35.0534C66.9368 35.0571 67.0643 35.0598 67.1651 35.0619C67.253 35.0635 67.2991 35.0662 67.3018 35.0689C67.3045 35.0716 67.2637 35.0743 67.1812 35.0775C67.0847 35.0796 66.9625 35.0823 66.8092 35.0861C66.4613 35.0903 65.9746 35.0957 65.354 35.1032C64.0601 35.1118 62.2071 35.1246 59.8986 35.1402C55.2155 35.1552 48.686 35.1756 41.2243 35.1991L41.0946 35.1997V35.0694C41.0941 33.9599 41.093 32.8273 41.0925 31.676C41.0925 31.1004 41.0919 30.5199 41.0919 29.9351C41.0919 29.643 41.0919 29.3492 41.0919 29.055V28.6128V28.3909V28.2799V28.2242V28.1963V28.1824V28.1754V28.1722V28.1706C41.3578 27.9047 41.1664 28.0966 41.2265 28.0377C51.8789 28.0591 61.3484 28.0779 67.3029 28.0896H67.3843L67.3838 28.1706C67.3645 30.35 67.3495 32.078 67.3393 33.2808C67.3307 33.8533 67.3243 34.3003 67.3195 34.6203C67.3163 34.7596 67.313 34.8711 67.3109 34.9601C67.3071 35.0351 67.3045 35.0721 67.3018 35.0689Z" fill="#E0E0E0"/>
<path d="M241.135 40.1913C241.132 40.1887 241.129 40.1463 241.127 40.0659C241.124 39.9737 241.122 39.8574 241.118 39.7121C241.113 39.3873 241.107 38.9349 241.098 38.3545C241.087 37.1635 241.072 35.4515 241.054 33.2925L241.135 33.3734C235.18 33.3852 225.711 33.404 215.058 33.4254C215.117 33.3664 214.924 33.5578 215.19 33.2925V33.2941V33.2978V33.3048V33.3187V33.3466V33.4024V33.5133V33.7352V34.1774C215.19 34.4717 215.19 34.7654 215.19 35.0575C215.19 35.6423 215.189 36.2228 215.189 36.7985C215.189 37.9498 215.187 39.0823 215.187 40.1919L215.057 40.0622C222.483 40.0857 228.981 40.1066 233.641 40.1211C235.962 40.1367 237.825 40.1495 239.126 40.1581C239.759 40.1656 240.255 40.171 240.609 40.1753C240.769 40.1785 240.897 40.1811 240.997 40.1833C241.085 40.186 241.132 40.1887 241.135 40.1913C241.137 40.194 241.097 40.1967 241.014 40.1999C240.918 40.2021 240.795 40.2047 240.642 40.2085C240.294 40.2128 239.808 40.2181 239.187 40.2256C237.893 40.2342 236.04 40.2471 233.731 40.2626C229.048 40.2776 222.519 40.298 215.057 40.3216L214.927 40.3221V40.1919C214.927 39.0823 214.926 37.9498 214.925 36.7985C214.925 36.2228 214.925 35.6423 214.925 35.0575C214.925 34.7654 214.925 34.4717 214.925 34.1774V33.7352V33.5133V33.4024V33.3466V33.3187V33.3048V33.2978V33.2941V33.2925C215.191 33.0266 214.999 33.219 215.059 33.1595C225.712 33.181 235.181 33.1997 241.136 33.2115H241.217L241.217 33.2925C241.197 35.4719 241.182 37.2005 241.172 38.4027C241.164 38.9751 241.157 39.4222 241.152 39.7422C241.149 39.8815 241.146 39.993 241.144 40.082C241.14 40.157 241.137 40.194 241.135 40.1913Z" fill="#E0E0E0"/>
<path d="M244.671 33.2926C244.667 33.2893 244.664 33.2449 244.661 33.1612C244.658 33.0621 244.654 32.942 244.65 32.7957C244.644 32.4564 244.636 31.9949 244.627 31.4123C244.614 30.2025 244.597 28.4943 244.575 26.3937L244.671 26.4891C240.612 26.4988 235.09 26.5122 229.003 26.5266C228.884 26.6451 229.164 26.3648 229.135 26.3942V26.3958V26.3996V26.4066V26.421V26.4495V26.5063V26.6199V26.8461V27.2969C229.135 27.5965 229.135 27.895 229.135 28.1915C229.134 28.7843 229.134 29.3701 229.134 29.9474C229.132 31.1014 229.13 32.2206 229.129 33.2926L229.002 33.1661C233.526 33.1902 237.42 33.2111 240.211 33.2261C241.587 33.2411 242.69 33.2524 243.475 33.2609C243.842 33.2674 244.134 33.2727 244.356 33.277C244.558 33.2824 244.665 33.2877 244.671 33.2926C244.676 33.2979 244.579 33.3027 244.386 33.3081C244.171 33.3119 243.888 33.3172 243.532 33.3242C242.753 33.3328 241.66 33.3446 240.296 33.359C237.483 33.374 233.56 33.3949 229.002 33.4191L228.876 33.4196V33.2926C228.874 32.2206 228.873 31.1014 228.871 29.9474C228.87 29.3701 228.87 28.7843 228.87 28.1915C228.87 27.895 228.87 27.5965 228.869 27.2969V26.8461V26.6199V26.5063V26.4495V26.421V26.4066V26.3996V26.3958V26.3942C228.84 26.4221 229.121 26.1418 229.003 26.2608C235.09 26.2753 240.612 26.2887 244.671 26.2983H244.767L244.766 26.3937C244.745 28.5189 244.727 30.247 244.715 31.4707C244.704 32.0442 244.696 32.4982 244.691 32.8327C244.684 33.1409 244.677 33.2995 244.671 33.2926Z" fill="#E0E0E0"/>
<path d="M40.2815 104.796C40.2788 104.793 40.2762 104.751 40.2735 104.67C40.2713 104.578 40.2687 104.462 40.2649 104.316C40.2601 103.992 40.2536 103.539 40.2451 102.959C40.2344 101.768 40.2193 100.056 40.2006 97.8967L40.2815 97.9777C34.3271 97.9895 24.8576 98.0082 14.2051 98.0297C14.2641 97.9707 14.0711 98.162 14.3364 97.8967V97.8983V97.9021V97.909V97.923V97.9509V98.0066V98.1175V98.3395V98.7817C14.3364 99.0759 14.3364 99.3697 14.3364 99.6618C14.3364 100.247 14.3359 100.827 14.3359 101.403C14.3354 102.554 14.3343 103.687 14.3338 104.796L14.204 104.666C21.6298 104.69 28.1277 104.711 32.7877 104.725C35.1091 104.741 36.9717 104.754 38.2731 104.762C38.9061 104.77 39.4019 104.775 39.7562 104.779C39.916 104.783 40.0435 104.786 40.1443 104.788C40.2322 104.79 40.2788 104.793 40.2815 104.796C40.2842 104.798 40.2435 104.801 40.1609 104.804C40.0644 104.806 39.9422 104.809 39.7889 104.813C39.4411 104.817 38.9544 104.822 38.3337 104.83C37.0398 104.838 35.1868 104.851 32.8783 104.867C28.1953 104.882 21.6657 104.902 14.204 104.926L14.0743 104.926V104.796C14.0738 103.687 14.0727 102.554 14.0722 101.403C14.0722 100.827 14.0717 100.247 14.0717 99.6618C14.0717 99.3697 14.0717 99.0759 14.0717 98.7817V98.3395V98.1175V98.0066V97.9509V97.923V97.909V97.9021V97.8983V97.8967C14.3375 97.6309 14.1462 97.8233 14.2062 97.7638C24.8587 97.7852 34.3282 97.804 40.2826 97.8158H40.3641L40.3635 97.8967C40.3442 100.076 40.3292 101.804 40.319 103.007C40.3105 103.579 40.304 104.026 40.2992 104.346C40.2955 104.486 40.2928 104.597 40.2906 104.686C40.2869 104.761 40.2842 104.798 40.2815 104.796Z" fill="#E0E0E0"/>
<path d="M43.8175 97.8966C43.8143 97.8934 43.8111 97.8489 43.8074 97.7653C43.8047 97.6661 43.8009 97.5461 43.7972 97.3997C43.7913 97.0605 43.7832 96.599 43.7736 96.0163C43.7613 94.8066 43.7436 93.0983 43.7221 90.9978L43.8175 91.0932C39.7584 91.1028 34.2365 91.1162 28.1503 91.1307C28.0307 91.2491 28.3105 90.9688 28.2821 90.9983V90.9999V91.0037V91.0106V91.0251V91.0535V91.1103V91.224V91.4501V91.9015C28.2821 92.2011 28.2821 92.4996 28.2816 92.796C28.2811 93.3889 28.2811 93.9747 28.2805 94.552C28.2789 95.706 28.2773 96.8252 28.2757 97.8972L28.1492 97.7707C32.6725 97.7948 36.5665 97.8157 39.3575 97.8307C40.7339 97.8457 41.837 97.857 42.6223 97.8655C42.9889 97.872 43.281 97.8773 43.5029 97.8816C43.7045 97.8864 43.8122 97.8913 43.8175 97.8966C43.8229 97.902 43.7254 97.9068 43.5329 97.9122C43.318 97.9159 43.0345 97.9213 42.6785 97.9282C41.9003 97.9368 40.8068 97.9486 39.4427 97.9631C36.6303 97.9781 32.7068 97.999 28.1492 98.0231L28.0227 98.0237V97.8966C28.0211 96.8246 28.0195 95.7054 28.0179 94.5514C28.0173 93.9742 28.0173 93.3883 28.0168 92.7955C28.0168 92.4991 28.0168 92.2005 28.0163 91.9009V91.4496V91.2234V91.1098V91.053V91.0246V91.0101V91.0031V90.9994V90.9978C27.9873 91.0256 28.2682 90.7453 28.1503 90.8643C34.2365 90.8788 39.7584 90.8922 43.8175 90.9018L43.914 90.9023L43.913 90.9978C43.8915 93.123 43.8738 94.8511 43.8615 96.0748C43.8513 96.6483 43.8433 97.1023 43.8379 97.4367C43.8304 97.7449 43.824 97.9036 43.8175 97.8966Z" fill="#E0E0E0"/>
<path d="M214.224 205.268C212.151 203.966 209.776 203.148 207.341 202.899C206.216 202.783 204.987 202.816 204.085 203.497C203.894 203.642 203.707 203.856 203.75 204.092C203.782 204.265 203.928 204.391 204.069 204.499C206.868 206.635 211.105 206.905 214.224 205.268Z" fill="#E0E0E0"/>
<path d="M214.047 205.073C212.489 203.856 210.921 202.632 209.601 201.161C208.281 199.689 207.209 197.943 206.814 196.006C206.695 195.419 206.658 194.748 207.034 194.281C210.578 197.049 213.362 200.629 214.047 205.073Z" fill="#E0E0E0"/>
<path d="M214.187 205.241C213.92 203.302 213.824 201.309 214.27 199.404C214.715 197.498 215.752 195.674 217.379 194.587C217.992 196.019 217.728 197.668 217.297 199.164C216.63 201.476 215.585 203.677 214.214 205.655" fill="#E0E0E0"/>
<path d="M217.662 211.466C215.553 211.722 213.716 212.834 212.141 214.26C210.567 215.686 209.447 217.607 208.984 219.681C211.052 219.553 212.807 218.094 214.08 216.458C215.353 214.822 216.235 213.028 217.633 211.498" fill="#E0E0E0"/>
<path d="M218.416 212.461C216.717 208.277 217.333 203.236 219.988 199.583C221.19 203.856 220.749 208.684 218.416 212.461Z" fill="#E0E0E0"/>
<path d="M223.006 217.927C221.092 217.808 219.146 218.265 217.484 219.221C215.822 220.178 214.451 221.632 213.592 223.346C213.476 223.58 213.373 223.876 213.529 224.085C213.665 224.266 213.927 224.283 214.154 224.268C216.009 224.148 217.653 223.032 219.01 221.761C220.366 220.49 221.548 219.021 223.048 217.923" fill="#E0E0E0"/>
<path d="M222.86 217.629C221.872 214.47 221.811 211.028 222.684 207.836C223.03 206.575 223.609 205.248 224.774 204.657C224.874 204.606 224.99 204.561 225.094 204.6C225.193 204.638 225.251 204.739 225.296 204.835C225.711 205.701 225.832 206.685 225.789 207.644C225.746 208.604 225.547 209.549 225.349 210.489C224.982 212.227 224.787 214.096 223.833 215.595C223.607 215.951 223.408 216.335 223.227 216.716C223.046 217.097 223.045 217.231 222.88 217.535" fill="#E0E0E0"/>
<path d="M235.01 219.44C234.11 216.016 235.066 211.865 237.224 209.057C237.383 208.85 237.593 208.629 237.853 208.653C238.25 208.689 238.353 209.219 238.335 209.618C238.179 213.117 237.012 216.565 235.01 219.44Z" fill="#E0E0E0"/>
<path d="M236.106 220.189C240.266 221.272 245.039 220.219 248.499 217.668C246.448 216.629 244.031 216.332 241.79 216.845C239.549 217.357 237.501 218.362 236.106 220.189Z" fill="#E0E0E0"/>
<path d="M237.029 217.909C239.359 214.11 243.826 211.63 248.277 211.405C247.764 213.215 246.276 214.622 244.598 215.472C242.92 216.322 241.046 216.692 239.199 217.051C238.481 217.191 237.495 217.344 237.029 217.909Z" fill="#E0E0E0"/>
<path d="M235.242 206.845C235.873 204.683 236.507 202.503 236.681 200.258C236.854 198.013 236.534 195.669 235.368 193.742C233.192 197.954 232.972 202.874 235.177 207.071" fill="#E0E0E0"/>
<path d="M242.569 203.142C245.114 198.516 250.307 194.821 255.561 194.303C253.534 199.35 248.007 203.25 242.569 203.142Z" fill="#E0E0E0"/>
<path d="M240.968 204.048C244.764 204.627 247.998 207.051 251.545 208.521C252.303 208.835 253.122 209.085 253.936 208.978C254.75 208.872 255.554 208.325 255.736 207.525C255.888 206.86 255.585 206.154 255.108 205.667C254.631 205.18 254 204.875 253.371 204.613C249.508 203.005 245.364 202.964 241.294 203.94" fill="#E0E0E0"/>
<path d="M238.771 206.711C239.631 206.957 239.924 207.401 240.605 207.981C242.914 209.947 245.683 211.369 248.626 212.101C248.932 212.177 249.334 212.208 249.486 211.931C249.619 211.689 249.451 211.396 249.279 211.181C248.045 209.638 246.287 208.583 244.436 207.893C242.585 207.204 240.981 206.373 238.772 206.551" fill="#E0E0E0"/>
<path d="M236.293 190.632C239.38 193.513 243.727 194.992 247.93 194.591C248.121 194.573 248.33 194.542 248.46 194.401C248.752 194.082 248.401 193.59 248.06 193.324C244.638 190.656 240.494 189.55 236.293 190.632Z" fill="#E0E0E0"/>
<path d="M239.231 189.556C243.311 186.497 248.906 185.574 253.753 187.16C251.924 188.962 249.387 189.932 246.833 190.198C244.279 190.464 241.722 190.18 239.231 189.556Z" fill="#E0E0E0"/>
<path d="M238.063 182.167C237.727 178.752 237.945 176.056 237.709 172.625C237.69 172.351 237.631 172.021 237.374 171.923C237.017 171.785 236.72 172.224 236.602 172.588C235.585 175.751 236.141 179.378 238.059 182.092" fill="#E0E0E0"/>
<path d="M237.818 182.544C240.132 181.113 241.869 179.244 243.475 177.046C244.592 175.517 245.534 173.686 245.28 171.809C243.711 171.778 242.22 172.643 241.199 173.836C240.179 175.028 239.572 176.518 239.119 178.021C238.666 179.524 238.35 181.068 237.818 182.544Z" fill="#E0E0E0"/>
<path d="M243.376 181C248.455 179.122 253.195 176.327 257.297 172.791C255.634 172.121 253.73 172.522 252.068 173.193C248.269 174.727 245.166 177.315 243.303 180.963" fill="#E0E0E0"/>
<path d="M239.38 184.413C241.95 184.694 244.561 184.877 247.111 184.451C249.617 184.032 251.985 183.038 254.327 182.052C254.521 181.971 254.732 181.873 254.818 181.68C254.91 181.471 254.812 181.216 254.642 181.063C254.473 180.91 254.247 180.836 254.027 180.775C251.481 180.062 248.733 180.396 246.228 181.24C243.723 182.085 241.669 183.089 239.38 184.413Z" fill="#E0E0E0"/>
<path d="M224.706 190.748C222.953 187.209 223.067 183.078 224.581 179.431C225.647 181.056 225.778 183.124 225.583 185.058C225.388 186.991 224.799 188.981 224.761 190.924" fill="#E0E0E0"/>
<path d="M217.702 187.215C213.324 187.131 208.945 188.997 205.973 192.212C208.157 192.555 210.408 191.991 212.395 191.021C214.383 190.051 216.149 188.689 217.899 187.337" fill="#E0E0E0"/>
<path d="M212.993 185.64C210.851 185.467 208.79 185.201 206.732 185.833C204.672 186.464 202.798 187.896 201.959 189.879C203.962 190.105 205.993 189.602 207.829 188.771C209.665 187.939 211.334 186.786 212.993 185.64Z" fill="#E0E0E0"/>
<path d="M219.965 185.712C218.038 184.45 216.06 183.164 213.817 182.641C211.574 182.118 208.974 182.505 207.41 184.196C209.226 185.261 211.428 185.387 213.534 185.386C215.639 185.384 218.221 185.36 220.205 186.063" fill="#E0E0E0"/>
<path d="M219.977 185.814C216.683 182.58 215.435 176.77 216.76 172.348C219.348 176.282 220.508 181.135 219.977 185.814Z" fill="#E0E0E0"/>
<path d="M229.033 176.65C229.655 175.206 230.092 173.691 230.649 172.221C231.206 170.751 231.899 169.305 232.952 168.137C234.005 166.97 235.461 166.101 237.031 166.023C236.048 170.474 233.093 174.45 229.114 176.674" fill="#E0E0E0"/>
<path d="M227.394 178.56C226.366 177.145 225.179 175.224 223.785 174.168C222.391 173.113 220.576 172.473 218.875 172.879C220.604 175.972 223.874 178.152 227.394 178.56Z" fill="#E0E0E0"/>
<path d="M227.722 176.768C227.048 175.056 226.369 173.326 226.097 171.506C225.825 169.686 225.991 167.743 226.921 166.156C228.729 169.573 229.311 173.242 227.815 176.807" fill="#E0E0E0"/>
<path d="M229.05 166.156C230.074 162.768 233.176 160.273 236.526 159.129C236.948 158.985 237.395 158.864 237.836 158.932C238.277 159 238.71 159.302 238.802 159.738C238.924 160.314 238.448 160.831 238 161.214C235.392 163.444 232.327 165.137 229.05 166.156Z" fill="#E0E0E0"/>
<path d="M229.086 163.385C229.217 161.2 229.353 158.985 230.064 156.915C230.774 154.845 232.143 152.904 234.136 151.998C234.474 154.204 233.501 156.399 232.327 158.297C231.153 160.196 229.738 161.988 229.033 164.106" fill="#E0E0E0"/>
<path d="M229.033 164.889C228.187 162.419 228.1 159.283 226.621 157.132C225.587 155.629 223.932 154.604 223.042 153.011C222.45 154.499 222.631 156.213 223.25 157.689C223.869 159.165 224.892 160.436 225.986 161.605C227.079 162.774 228.016 163.653 229.033 164.889Z" fill="#E0E0E0"/>
<path d="M229.05 237.602C228.984 237.602 228.927 221.131 228.923 200.817C228.918 180.496 228.968 164.028 229.033 164.028C229.099 164.028 229.156 180.496 229.16 200.817C229.165 221.131 229.115 237.602 229.05 237.602Z" fill="#E0E0E0"/>
<path d="M243.444 188.262C243.449 188.279 243.228 188.36 242.825 188.495C242.38 188.645 241.807 188.838 241.12 189.07C239.683 189.56 237.709 190.269 235.566 191.147C233.445 192.057 231.444 192.795 230.305 193.783C229.736 194.27 229.409 194.797 229.247 195.182C229.084 195.568 229.055 195.805 229.033 195.801C229.025 195.8 229.028 195.741 229.04 195.628C229.059 195.517 229.088 195.351 229.161 195.148C229.3 194.742 229.618 194.178 230.193 193.657C230.765 193.135 231.563 192.666 232.476 192.239C233.389 191.812 234.401 191.368 235.476 190.926C237.624 190.045 239.614 189.359 241.068 188.909C241.794 188.683 242.387 188.516 242.797 188.406C243.21 188.299 243.439 188.247 243.444 188.262Z" fill="#E0E0E0"/>
<path d="M248.162 176.674C248.167 176.68 248.107 176.743 247.988 176.859C247.848 176.991 247.673 177.155 247.459 177.355C246.969 177.801 246.301 178.408 245.486 179.148C243.783 180.665 241.472 182.722 238.919 184.996C236.355 187.277 234.14 189.458 232.604 191.1C231.836 191.92 231.23 192.599 230.817 193.073C230.624 193.293 230.467 193.473 230.34 193.618C230.23 193.741 230.168 193.804 230.162 193.798C230.155 193.793 230.204 193.721 230.303 193.588C230.402 193.455 230.548 193.258 230.746 193.014C231.138 192.52 231.726 191.823 232.48 190.986C233.988 189.31 236.192 187.105 238.76 184.818C241.332 182.541 243.674 180.496 245.375 179.022C246.21 178.306 246.895 177.718 247.398 177.286C247.624 177.099 247.808 176.946 247.956 176.823C248.086 176.719 248.156 176.667 248.162 176.674Z" fill="#E0E0E0"/>
<path d="M236.151 187.316C236.084 187.286 236.62 186.049 237.153 184.486C237.692 182.922 237.945 181.603 238.014 181.613C238.076 181.62 237.924 182.978 237.379 184.562C237.11 185.352 236.814 186.048 236.581 186.541C236.348 187.035 236.181 187.329 236.151 187.316Z" fill="#E0E0E0"/>
<path d="M229.065 197.286C229.051 197.295 228.911 197.131 228.67 196.827C228.402 196.483 228.062 196.048 227.658 195.529C226.807 194.43 225.632 192.913 224.315 191.253C222.997 189.594 221.786 188.104 220.909 187.027C220.496 186.515 220.149 186.086 219.875 185.747C219.634 185.443 219.506 185.269 219.518 185.258C219.531 185.248 219.682 185.401 219.946 185.687C220.209 185.973 220.583 186.394 221.038 186.919C221.949 187.969 223.181 189.443 224.502 191.106C225.821 192.768 226.976 194.302 227.792 195.428C228.201 195.991 228.525 196.45 228.744 196.772C228.963 197.093 229.078 197.275 229.065 197.286Z" fill="#E0E0E0"/>
<path d="M225.909 193.233C225.87 193.275 225.027 192.276 224.586 190.758C224.261 189.688 224.246 188.71 224.287 188.262L224.392 188.271C224.344 188.462 224.31 188.562 224.291 188.559C224.273 188.556 224.272 188.45 224.287 188.254L224.392 188.263C224.431 188.707 224.498 189.651 224.815 190.691C225.241 192.161 225.972 193.193 225.909 193.233Z" fill="#E0E0E0"/>
<path d="M221.834 188.108C221.804 188.141 221.533 187.799 220.911 187.572C220.294 187.334 219.367 187.281 218.348 187.368C217.329 187.443 216.419 187.625 215.767 187.785C215.116 187.946 214.718 188.073 214.706 188.039C214.695 188.012 215.074 187.828 215.722 187.622C216.37 187.419 217.293 187.207 218.331 187.13C219.36 187.041 220.337 187.121 220.975 187.416C221.62 187.702 221.855 188.102 221.834 188.108Z" fill="#E0E0E0"/>
<path d="M220.869 186.866C220.85 186.903 220.331 186.651 219.454 186.351C218.579 186.05 217.333 185.734 215.926 185.625C214.518 185.52 213.238 185.643 212.327 185.808C211.415 185.971 210.863 186.142 210.851 186.103C210.845 186.087 210.979 186.031 211.226 185.943C211.471 185.851 211.836 185.747 212.294 185.643C213.208 185.433 214.51 185.28 215.944 185.387C217.377 185.499 218.641 185.847 219.512 186.193C219.948 186.365 220.293 186.524 220.522 186.651C220.752 186.776 220.876 186.851 220.869 186.866Z" fill="#E0E0E0"/>
<path d="M229.033 181.613C228.97 181.63 228.508 180.025 228.002 178.031C227.496 176.035 227.138 174.405 227.201 174.389C227.265 174.373 227.727 175.977 228.233 177.972C228.739 179.967 229.097 181.597 229.033 181.613Z" fill="#E0E0E0"/>
<path d="M229.099 181.613C229.028 181.636 228.731 180.564 227.956 179.468C227.201 178.349 226.238 177.787 226.273 177.732C226.285 177.706 226.551 177.804 226.923 178.067C227.295 178.325 227.755 178.764 228.151 179.332C228.955 180.472 229.157 181.609 229.099 181.613Z" fill="#E0E0E0"/>
<path d="M229.05 228.822C229.024 228.825 228.976 228.425 228.79 227.726C228.607 227.027 228.261 226.034 227.69 224.874C226.552 222.549 224.481 219.6 221.849 216.647C220.546 215.157 219.28 213.752 218.207 212.407C217.132 211.063 216.248 209.782 215.602 208.65C214.955 207.518 214.534 206.547 214.288 205.862C214.167 205.518 214.078 205.25 214.029 205.065C213.977 204.881 213.954 204.783 213.962 204.78C213.983 204.773 214.103 205.157 214.374 205.829C214.646 206.5 215.087 207.452 215.748 208.565C216.407 209.678 217.299 210.94 218.378 212.269C219.456 213.6 220.723 214.998 222.029 216.49C224.667 219.452 226.733 222.437 227.841 224.802C228.399 225.981 228.723 226.992 228.88 227.704C228.956 228.061 229.008 228.339 229.026 228.531C229.049 228.72 229.058 228.821 229.05 228.822Z" fill="#E0E0E0"/>
<path d="M242.057 214.13C242.065 214.148 241.815 214.274 241.375 214.513C240.937 214.759 240.317 215.137 239.607 215.682C238.896 216.226 238.101 216.941 237.285 217.8C236.469 218.661 235.63 219.661 234.773 220.733C233.06 222.882 231.458 224.784 230.498 226.303C230.011 227.056 229.657 227.691 229.425 228.137C229.191 228.581 229.067 228.831 229.05 228.823C229.043 228.819 229.065 228.753 229.113 228.629C229.164 228.506 229.233 228.323 229.342 228.095C229.55 227.635 229.884 226.984 230.356 226.213C231.288 224.658 232.878 222.73 234.588 220.584C235.447 219.51 236.296 218.508 237.126 217.649C237.958 216.79 238.774 216.08 239.506 215.547C240.238 215.014 240.878 214.653 241.332 214.432C241.558 214.318 241.742 214.249 241.865 214.196C241.987 214.145 242.053 214.123 242.057 214.13Z" fill="#E0E0E0"/>
<path d="M242.311 218.897C242.314 218.931 241.761 218.998 240.87 219.106C239.983 219.22 238.747 219.369 237.453 219.779C236.164 220.199 235.092 220.839 234.394 221.385C233.689 221.93 233.356 222.381 233.324 222.354C233.312 222.346 233.381 222.223 233.537 222.023C233.691 221.82 233.943 221.551 234.288 221.254C234.975 220.662 236.057 219.984 237.381 219.552C238.707 219.132 239.959 219.011 240.854 218.938C241.752 218.873 242.309 218.866 242.311 218.897Z" fill="#E0E0E0"/>
<path d="M233.744 221.83C233.669 221.788 234.318 220.796 234.822 219.462C235.294 218.115 235.405 216.935 235.49 216.949C235.521 216.952 235.52 217.248 235.466 217.722C235.41 218.194 235.296 218.851 235.046 219.543C234.794 220.234 234.464 220.811 234.21 221.213C233.953 221.615 233.77 221.847 233.744 221.83Z" fill="#E0E0E0"/>
<path d="M246.269 201.335C246.272 201.342 246.192 201.385 246.039 201.458C245.86 201.539 245.636 201.64 245.362 201.765C245.065 201.892 244.705 202.054 244.299 202.268C243.892 202.478 243.417 202.694 242.922 202.991C242.671 203.134 242.409 203.283 242.136 203.438C241.864 203.595 241.594 203.781 241.307 203.961C240.727 204.312 240.147 204.746 239.527 205.187C238.315 206.108 237.04 207.197 235.813 208.454C234.597 209.724 233.552 211.036 232.674 212.279C232.253 212.914 231.84 213.509 231.509 214.1C231.339 214.393 231.162 214.669 231.016 214.946C230.87 215.224 230.73 215.491 230.596 215.747C230.316 216.251 230.116 216.734 229.92 217.148C229.72 217.56 229.571 217.925 229.454 218.226C229.339 218.505 229.245 218.731 229.17 218.913C229.102 219.07 229.063 219.151 229.055 219.148C229.047 219.145 229.071 219.059 229.124 218.897C229.188 218.711 229.269 218.478 229.367 218.193C229.471 217.886 229.609 217.514 229.797 217.094C229.983 216.673 230.173 216.184 230.445 215.671C230.575 215.412 230.712 215.14 230.854 214.858C230.998 214.576 231.172 214.297 231.339 214C231.665 213.4 232.075 212.797 232.493 212.154C233.368 210.895 234.416 209.568 235.642 208.288C236.879 207.021 238.168 205.927 239.397 205.01C240.025 204.57 240.614 204.14 241.202 203.794C241.493 203.616 241.767 203.433 242.043 203.28C242.32 203.128 242.587 202.983 242.842 202.843C243.345 202.554 243.828 202.347 244.242 202.148C244.655 201.944 245.022 201.795 245.325 201.68C245.607 201.572 245.838 201.483 246.021 201.413C246.181 201.354 246.266 201.327 246.269 201.335Z" fill="#E0E0E0"/>
<path d="M235.975 208.232C235.954 208.229 236.069 207.829 236.541 207.389C237.002 206.95 237.843 206.543 238.822 206.514C239.798 206.488 240.644 206.761 241.222 206.983C241.803 207.211 242.141 207.396 242.13 207.424C242.116 207.457 241.754 207.326 241.167 207.142C240.582 206.963 239.755 206.726 238.83 206.751C237.909 206.78 237.113 207.135 236.652 207.516C236.179 207.897 236.013 208.255 235.975 208.232Z" fill="#E0E0E0"/>
<path d="M234.436 209.819C234.371 209.783 234.951 208.932 235.084 207.712C235.236 206.495 234.867 205.533 234.938 205.513C234.965 205.502 235.094 205.725 235.206 206.126C235.319 206.525 235.393 207.106 235.32 207.74C235.245 208.373 235.039 208.921 234.838 209.283C234.637 209.648 234.459 209.836 234.436 209.819Z" fill="#E0E0E0"/>
<path d="M217.673 231.182C218.028 237.476 219.925 243.878 222.843 250.351H235.53C238.313 243.942 240.079 237.55 240.392 231.182H217.673Z" fill="#E0E0E0"/>
<path d="M238.337 241.368C238.337 241.434 234.159 241.487 229.008 241.487C223.854 241.487 219.677 241.434 219.677 241.368C219.677 241.302 223.854 241.249 229.008 241.249C234.159 241.249 238.337 241.302 238.337 241.368Z" fill="#FAFAFA"/>
<path d="M238.053 243.648C238.053 243.714 234.137 243.767 229.307 243.767C224.475 243.767 220.56 243.714 220.56 243.648C220.56 243.582 224.475 243.529 229.307 243.529C234.137 243.529 238.053 243.582 238.053 243.648Z" fill="#FAFAFA"/>
<path d="M223.048 235.315C223.114 235.315 223.167 236.623 223.167 238.237C223.167 239.851 223.114 241.16 223.048 241.16C222.983 241.16 222.929 239.851 222.929 238.237C222.929 236.623 222.982 235.315 223.048 235.315Z" fill="#FAFAFA"/>
<path d="M229.845 235.315C229.911 235.315 229.964 236.67 229.964 238.341C229.964 240.013 229.911 241.368 229.845 241.368C229.78 241.368 229.726 240.013 229.726 238.341C229.726 236.67 229.78 235.315 229.845 235.315Z" fill="#FAFAFA"/>
<path d="M236.227 235.263C236.293 235.263 236.346 236.646 236.346 238.35C236.346 240.055 236.293 241.437 236.227 241.437C236.161 241.437 236.108 240.055 236.108 238.35C236.108 236.646 236.162 235.263 236.227 235.263Z" fill="#FAFAFA"/>
<path d="M239.99 235.315C239.99 235.381 235.09 235.434 229.048 235.434C223.003 235.434 218.105 235.38 218.105 235.315C218.105 235.249 223.003 235.196 229.048 235.196C235.09 235.196 239.99 235.249 239.99 235.315Z" fill="#FAFAFA"/>
<path d="M249.118 250.351C249.118 250.428 196.614 250.49 131.862 250.49C67.0874 250.49 14.5942 250.427 14.5942 250.351C14.5942 250.273 67.0874 250.211 131.862 250.211C196.614 250.211 249.118 250.273 249.118 250.351Z" fill="#263238"/>
<path d="M197.22 44.0391H94.946V250.351H197.22V44.0391Z" fill="#455A64"/>
<path d="M197.22 44.0389C197.22 45.2546 197.274 129.97 197.351 250.351V250.483H197.22C165.596 250.485 130.999 250.488 94.961 250.491H94.946H94.8066V250.351C94.8206 170.678 94.8334 98.0661 94.8426 44.0395V43.936H94.946C158.013 43.9993 196.398 44.0379 197.22 44.0389C196.4 44.04 158.013 44.0786 94.946 44.1424L95.0494 44.0389C95.0591 98.0656 95.0714 170.677 95.0854 250.351L94.946 250.211H94.961C131 250.214 165.596 250.217 197.22 250.219L197.088 250.351C197.164 129.97 197.219 45.2535 197.22 44.0389Z" fill="#263238"/>
<path d="M188.022 53.5112H104.536V250.351H188.022V53.5112Z" fill="#E0E0E0"/>
<path d="M104.536 250.351L170.491 238.653V53.5112H104.536V250.351Z" fill="#F5F5F5"/>
<path d="M105.484 250.351L163.973 238.653H188.022V250.351H105.484Z" fill="#F5F5F5"/>
<path d="M111.777 154.994C111.061 154.994 110.48 154.414 110.48 153.697V137.473C110.48 136.757 111.06 136.176 111.777 136.176C112.493 136.176 113.074 136.756 113.074 137.473V153.697C113.074 154.414 112.494 154.994 111.777 154.994Z" fill="#E0E0E0"/>
<path d="M166.957 154.994C166.24 154.994 165.659 154.414 165.659 153.697V137.473C165.659 136.757 166.24 136.176 166.957 136.176C167.673 136.176 168.254 136.756 168.254 137.473V153.697C168.254 154.414 167.673 154.994 166.957 154.994Z" fill="#E0E0E0"/>
<path d="M167.896 154.005H110.973V142.757H112.581V152.397H166.288V142.757H167.896V154.005Z" fill="white"/>
<path d="M170.49 53.5112C170.49 53.5112 170.5 53.731 170.505 54.1598C170.508 54.5945 170.512 55.2302 170.519 56.0631C170.525 57.7419 170.534 60.2075 170.545 63.3817C170.556 69.7429 170.571 78.9375 170.59 90.2985C170.6 113.031 170.614 144.426 170.63 179.102C170.624 200.778 170.618 221.169 170.614 238.654V238.757L170.512 238.775C151.088 242.249 134.835 245.156 123.432 247.195C117.735 248.206 113.251 249.001 110.185 249.545C108.657 249.811 107.485 250.016 106.687 250.155C106.295 250.222 105.996 250.272 105.789 250.307C105.587 250.34 105.484 250.352 105.484 250.352C105.484 250.352 105.585 250.327 105.786 250.288C105.991 250.248 106.289 250.191 106.681 250.117C107.477 249.969 108.647 249.752 110.172 249.469C113.235 248.91 117.715 248.092 123.407 247.053C134.806 244.989 151.052 242.048 170.469 238.533L170.369 238.654C170.364 221.17 170.358 200.778 170.352 179.102C170.368 144.426 170.383 113.032 170.393 90.2985C170.412 78.9375 170.427 69.7429 170.437 63.3817C170.449 60.2075 170.458 57.7419 170.464 56.0631C170.469 55.2302 170.474 54.594 170.478 54.1598C170.481 53.731 170.49 53.5112 170.49 53.5112Z" fill="#263238"/>
<path d="M188.022 250.351C188.021 249.101 187.967 167.791 187.889 53.5112L188.022 53.6442C162.048 53.6463 133.822 53.6485 104.549 53.6506H104.536L104.675 53.5112C104.659 130.284 104.645 199.838 104.635 250.351L104.536 250.252C156.094 250.313 187.245 250.35 188.022 250.351C187.246 250.352 156.094 250.389 104.536 250.45H104.437V250.35C104.427 199.837 104.412 130.284 104.397 53.5107V53.3713H104.537H104.55C133.823 53.3735 162.049 53.3756 188.023 53.3778H188.156V53.5112C188.078 167.791 188.023 249.101 188.022 250.351Z" fill="#263238"/>
<path d="M94.946 44.0389C95.0001 43.9842 97.1913 46.0602 99.8391 48.6753C102.488 51.2915 104.591 53.4559 104.537 53.5111C104.482 53.5658 102.292 51.4904 99.6435 48.8742C96.9946 46.2585 94.8918 44.0936 94.946 44.0389Z" fill="#263238"/>
<path d="M197.013 44.136C197.068 44.1896 195.101 46.3315 192.619 48.9198C190.135 51.5092 188.078 53.5643 188.022 53.5112C187.967 53.4576 189.934 51.3163 192.417 48.7269C194.899 46.138 196.957 44.0824 197.013 44.136Z" fill="#263238"/>
<path d="M166.143 37.6754H120.883C118.973 37.6754 117.424 36.1269 117.424 34.2166V14.9876C117.424 13.0773 118.973 11.5288 120.883 11.5288H166.143C168.054 11.5288 169.602 13.0773 169.602 14.9876V34.2161C169.602 36.1269 168.054 37.6754 166.143 37.6754Z" fill="white"/>
<path d="M166.143 37.6754C166.133 37.6395 166.699 37.7344 167.612 37.3136C168.06 37.1008 168.573 36.7245 168.981 36.121C169.18 35.8176 169.346 35.459 169.447 35.0549C169.554 34.6497 169.555 34.2053 169.549 33.7267C169.538 29.9045 169.523 24.3901 169.504 17.5775C169.502 16.7253 169.5 15.8532 169.498 14.9613C169.498 14.0946 169.133 13.214 168.481 12.5885C167.834 11.9533 166.916 11.6044 165.968 11.6408C165.001 11.6419 164.015 11.6435 163.013 11.6446C159.004 11.6488 154.721 11.6531 150.214 11.6574C141.198 11.6606 131.288 11.6644 120.886 11.6687C119.629 11.6569 118.424 12.4244 117.897 13.5447C117.612 14.1037 117.546 14.7126 117.563 15.351C117.563 15.9888 117.563 16.6245 117.562 17.2581C117.562 19.7918 117.561 22.2879 117.56 24.7412C117.559 27.1939 117.558 29.6038 117.557 31.9632C117.557 32.5534 117.557 33.1403 117.556 33.7235C117.554 34.0172 117.552 34.3072 117.576 34.5816C117.615 34.8571 117.666 35.1337 117.772 35.391C118.155 36.4383 119.095 37.2332 120.156 37.4647C120.679 37.5929 121.243 37.5334 121.801 37.5484C122.357 37.5489 122.91 37.5494 123.46 37.55C124.558 37.551 125.641 37.5521 126.709 37.5532C128.844 37.5559 130.917 37.558 132.922 37.5602C136.93 37.5661 140.665 37.5719 144.074 37.5773C150.887 37.5961 156.4 37.6111 160.222 37.6218C162.122 37.6331 163.599 37.6422 164.613 37.6481C165.108 37.654 165.488 37.6588 165.754 37.662C166.011 37.6657 166.143 37.6754 166.143 37.6754C166.143 37.6754 166.011 37.685 165.754 37.6899C165.488 37.6931 165.108 37.6979 164.613 37.7038C163.6 37.7097 162.122 37.7188 160.222 37.7301C156.4 37.7408 150.887 37.7558 144.074 37.7746C140.665 37.7799 136.93 37.7853 132.922 37.7917C130.917 37.7939 128.844 37.7965 126.709 37.7987C125.641 37.7997 124.558 37.8008 123.46 37.8019C122.911 37.8024 122.357 37.803 121.801 37.8035C121.251 37.7885 120.68 37.8533 120.1 37.7167C118.955 37.469 117.942 36.6147 117.527 35.4848C117.413 35.2071 117.357 34.9091 117.315 34.6116C117.288 34.3077 117.291 34.0151 117.292 33.7251C117.291 33.1414 117.291 32.5545 117.291 31.9649C117.29 29.6048 117.289 27.1955 117.287 24.7428C117.287 22.2901 117.286 19.7934 117.285 17.2597C117.285 16.6261 117.285 15.9904 117.285 15.3526C117.265 14.7217 117.337 14.018 117.646 13.4246C118.217 12.2106 119.524 11.3776 120.886 11.391C131.288 11.3948 141.198 11.3985 150.214 11.4023C154.721 11.4066 159.004 11.4114 163.013 11.4151C164.015 11.4168 165 11.4178 165.968 11.4189C166.955 11.3819 167.95 11.7587 168.631 12.4362C169.323 13.1035 169.707 14.0426 169.705 14.9619C169.703 15.8543 169.702 16.7269 169.701 17.5797C169.683 24.3922 169.668 29.9066 169.657 33.7288C169.66 34.2016 169.654 34.6663 169.539 35.0806C169.432 35.4955 169.257 35.8616 169.05 36.1698C168.624 36.7835 168.095 37.1592 167.636 37.3672C167.175 37.58 166.789 37.6406 166.534 37.669C166.275 37.6818 166.143 37.6754 166.143 37.6754Z" fill="#263238"/>
<path d="M166.042 35.3524H120.984C120.359 35.3524 119.853 34.8464 119.853 34.2219V14.9822C119.853 14.3578 120.359 13.8518 120.984 13.8518H166.042C166.666 13.8518 167.172 14.3578 167.172 14.9822V34.2219C167.172 34.8464 166.666 35.3524 166.042 35.3524Z" fill="#407BFF"/>
<path d="M131.594 27.7861V29.3035H125.406V21.1333H131.445V22.6507H127.244V24.4249H130.954V25.8957H127.244V27.7861H131.594Z" fill="white"/>
<path d="M138.02 29.303L136.09 26.467L134.196 29.303H132.071L135.029 25.1485L132.22 21.1333H134.321L136.158 23.7827L137.963 21.1333H139.961L137.175 25.0783L140.155 29.303H138.02Z" fill="white"/>
<path d="M140.883 21.1333H142.733V29.303H140.883V21.1333Z" fill="white"/>
<path d="M146.283 22.6743H143.726V21.1333H150.691V22.6743H148.133V29.303H146.283V22.6743Z" fill="white"/>
<path d="M154.184 25.7659V23.6064H160.122L157.152 20.6375H160.392L164.44 24.6859L160.324 28.8023H157.288L160.077 25.9004L154.184 25.7659Z" fill="white"/>
<path d="M76.12 94.2973C76.12 94.3745 69.5771 94.4367 61.5081 94.4367C53.4365 94.4367 46.8951 94.374 46.8951 94.2973C46.8951 94.2207 53.4365 94.158 61.5081 94.158C69.5771 94.1574 76.12 94.2201 76.12 94.2973Z" fill="#263238"/>
<path d="M61.5076 96.3427C61.5076 96.4199 56.7967 96.4826 50.987 96.4826C45.1752 96.4826 40.4653 96.4199 40.4653 96.3427C40.4653 96.2656 45.1752 96.2034 50.987 96.2034C56.7967 96.2034 61.5076 96.2661 61.5076 96.3427Z" fill="#263238"/>
<path d="M42.7074 185.836C42.7074 185.914 38.1927 185.976 32.6252 185.976C27.0556 185.976 22.542 185.913 22.542 185.836C22.542 185.76 27.0556 185.697 32.6252 185.697C38.1932 185.696 42.7074 185.759 42.7074 185.836Z" fill="#263238"/>
<path d="M43.2921 182.33C43.2921 182.407 40.2171 182.469 36.4243 182.469C32.6305 182.469 29.556 182.406 29.556 182.33C29.556 182.252 32.6305 182.19 36.4243 182.19C40.2171 182.19 43.2921 182.252 43.2921 182.33Z" fill="#263238"/>
<path d="M69.8296 77.3609L64.908 77.9542C63.2898 80.1513 61.0638 81.9426 58.3484 83.0392C50.5389 86.1936 41.6504 82.4202 38.4961 74.6106C35.3417 66.8011 39.1152 57.9126 46.9247 54.7583C54.7342 51.6039 63.6227 55.3774 66.777 63.1874C68.094 66.4484 68.1996 69.896 67.3114 73.0375L67.3157 73.03L69.8296 77.3609Z" fill="white"/>
<path d="M69.8295 77.3608C69.8295 77.3608 69.7856 77.2719 69.6832 77.088C69.5723 76.8897 69.419 76.6153 69.2212 76.2615C68.7951 75.5074 68.1765 74.4139 67.3747 72.9962C67.3564 72.964 67.3152 72.9522 67.283 72.9705C67.2723 72.9764 67.2637 72.986 67.2578 72.9957L67.2535 73.0032L67.3773 73.0557C67.9235 71.1577 68.2832 68.5152 67.6126 65.5099C67.2926 64.0118 66.6773 62.4536 65.7699 60.9458C64.8651 59.4381 63.6382 57.9871 62.0881 56.7774C60.5423 55.5665 58.677 54.5996 56.607 54.0432C54.5401 53.4847 52.2686 53.3427 50.0034 53.7275C47.7383 54.107 45.5032 55.0541 43.5473 56.4783C41.592 57.9008 39.9181 59.8261 38.8278 62.102C38.2377 63.2228 37.8829 64.4347 37.5806 65.6342C37.3501 66.851 37.1925 68.0768 37.2493 69.2908C37.312 71.7178 37.9531 74.0618 39.0208 76.0986C40.1046 78.1305 41.6113 79.8441 43.3238 81.1364C45.0363 82.433 46.9477 83.3126 48.8543 83.7928C52.6888 84.7555 56.4033 84.1262 59.1492 82.8018C61.9337 81.4875 63.806 79.5901 64.9632 77.9939L64.9171 78.0207C66.5154 77.8095 67.7482 77.6471 68.5983 77.535C68.9966 77.4804 69.3043 77.4386 69.5278 77.408C69.7325 77.3796 69.8295 77.3608 69.8295 77.3608C69.8295 77.3608 69.7116 77.3683 69.4956 77.3903C69.2667 77.4144 68.9516 77.4471 68.5437 77.49C67.7021 77.5817 66.4817 77.7146 64.8999 77.8872C64.8812 77.8893 64.864 77.9001 64.8538 77.914C63.6859 79.4807 61.8163 81.3369 59.0608 82.6136C56.3416 83.9011 52.684 84.4971 48.9196 83.5366C47.0479 83.0574 45.1735 82.1864 43.4969 80.9092C41.8203 79.6362 40.3469 77.9526 39.2877 75.9581C38.2447 73.9583 37.6202 71.6605 37.5607 69.2833C37.5055 68.0939 37.6615 66.8933 37.8872 65.7012C38.1846 64.5263 38.5314 63.3385 39.1103 62.2408C41.2559 57.7523 45.6324 54.7754 50.0554 54.0245C52.275 53.6434 54.5032 53.7768 56.533 54.3193C58.5666 54.859 60.4018 55.8024 61.9257 56.9859C63.4538 58.1688 64.6673 59.5898 65.5657 61.0691C66.4667 62.5485 67.0841 64.0804 67.4095 65.556C68.0918 68.5147 67.7627 71.1298 67.2466 73.0187C67.2364 73.0546 67.2567 73.0921 67.2926 73.1029C67.3227 73.1114 67.3548 73.0975 67.3704 73.0718L67.3747 73.0643L67.2578 73.0637C68.0806 74.4455 68.7152 75.5111 69.1526 76.2454C69.3659 76.6002 69.531 76.8752 69.6505 77.0741C69.7636 77.2611 69.8295 77.3608 69.8295 77.3608Z" fill="#263238"/>
<path d="M55.0928 62.1095L54.2904 69.9479C54.225 70.589 53.6917 71.0805 53.0474 71.0939C52.3678 71.1078 51.7969 70.5868 51.7481 69.9088L51.1827 61.9776C51.1398 61.3773 51.6329 60.8751 52.2343 60.9067L54.15 61.008C54.7213 61.038 55.1512 61.5402 55.0928 62.1095Z" fill="#407BFF"/>
<path d="M50.793 75.4324C51.0878 76.4508 52.1518 77.0372 53.1702 76.7424C54.1886 76.4476 54.775 75.3836 54.4802 74.3652C54.1854 73.3468 53.1214 72.7604 52.103 73.0552C51.0846 73.35 50.4982 74.4145 50.793 75.4324Z" fill="#407BFF"/>
<path d="M78.7791 226.912L70 240.266L90.8611 252.457C91.9036 250.393 83.4493 240.085 83.4493 240.085L88.083 232.771L78.7791 226.912Z" fill="#263238"/>
<path d="M77.5271 235.411C77.0586 235.286 76.5146 235.577 76.3699 236.039C76.2251 236.502 76.5162 237.058 76.9825 237.192C77.4483 237.325 78.1124 236.996 78.204 236.52C78.2962 236.044 77.9184 235.41 77.4343 235.392" fill="#E0E0E0"/>
<path d="M70 240.266L71.0098 238.494L90.6226 250.983C90.6226 250.983 91.3092 251.934 90.8177 252.524L70 240.266Z" fill="#E0E0E0"/>
<path d="M83.8498 240.176C83.787 240.276 83.2505 240.024 82.558 240.059C81.8644 240.076 81.3482 240.366 81.278 240.271C81.1955 240.197 81.7036 239.676 82.543 239.649C83.3818 239.614 83.9264 240.096 83.8498 240.176Z" fill="#E0E0E0"/>
<path d="M85.5091 242.36C85.4748 242.473 84.9324 242.388 84.3348 242.617C83.7301 242.828 83.3705 243.243 83.2719 243.179C83.1668 243.139 83.445 242.501 84.1932 242.231C84.9394 241.954 85.5633 242.262 85.5091 242.36Z" fill="#E0E0E0"/>
<path d="M85.2213 245.705C85.1162 245.673 85.2717 245.081 85.8591 244.676C86.4439 244.266 87.0528 244.328 87.0464 244.437C87.0549 244.555 86.5709 244.673 86.0934 245.013C85.6083 245.342 85.3285 245.754 85.2213 245.705Z" fill="#E0E0E0"/>
<path d="M85.1029 237.61C85.0059 237.679 84.6205 237.265 84.0224 236.967C83.4295 236.658 82.8689 236.589 82.8667 236.471C82.8507 236.363 83.5083 236.242 84.2089 236.601C84.911 236.956 85.1994 237.56 85.1029 237.61Z" fill="#E0E0E0"/>
<path d="M86.0526 234.845C86.029 234.888 85.59 234.715 85.0112 234.229C84.7233 233.987 84.4076 233.662 84.1144 233.255C83.9681 233.051 83.8277 232.828 83.7006 232.586C83.6406 232.468 83.5629 232.339 83.5291 232.156C83.4782 231.984 83.572 231.676 83.7993 231.587C83.9997 231.489 84.2291 231.53 84.3819 231.615C84.5384 231.699 84.6451 231.803 84.7421 231.898C84.9415 232.09 85.1141 232.294 85.2615 232.5C85.5541 232.914 85.7439 233.333 85.8554 233.695C86.0778 234.426 86.0205 234.904 85.9738 234.903C85.9079 234.909 85.8586 234.453 85.5825 233.795C85.4443 233.468 85.2416 233.094 84.9576 232.725C84.8145 232.542 84.651 232.361 84.4661 232.19C84.279 232.003 84.0919 231.891 83.9778 231.956C83.9354 231.982 83.9242 231.995 83.9322 232.086C83.9451 232.174 84.0003 232.285 84.0592 232.401C84.1734 232.63 84.2977 232.843 84.4269 233.039C84.6853 233.433 84.9613 233.759 85.2106 234.016C85.7096 234.533 86.0864 234.791 86.0526 234.845Z" fill="#E0E0E0"/>
<path d="M85.8345 234.913C85.7895 234.908 85.8007 234.425 86.1486 233.743C86.3223 233.406 86.5881 233.029 86.9596 232.683C87.1461 232.511 87.3589 232.347 87.5963 232.204C87.8391 232.069 88.1495 231.88 88.5708 232.066C88.782 232.179 88.8592 232.44 88.8372 232.612C88.8238 232.794 88.7664 232.922 88.7203 233.058C88.6163 233.324 88.4722 233.56 88.3098 233.762C87.9849 234.167 87.5872 234.43 87.2329 234.58C86.5093 234.882 86.013 234.756 86.0248 234.716C86.0205 234.645 86.4906 234.656 87.1064 234.318C87.4098 234.152 87.7437 233.894 88.0107 233.53C88.1441 233.349 88.2604 233.142 88.3441 232.915C88.4411 232.675 88.4625 232.447 88.366 232.421C88.2631 232.359 87.9898 232.423 87.8006 232.55C87.584 232.674 87.3873 232.815 87.211 232.964C86.8599 233.265 86.5919 233.593 86.3994 233.889C86.013 234.486 85.8988 234.931 85.8345 234.913Z" fill="#E0E0E0"/>
<path d="M24.9027 229.563L14.0375 241.282L32.5965 256.754C33.966 254.891 27.3319 243.327 27.3319 243.327L33.111 236.88L24.9027 229.563Z" fill="#263238"/>
<path d="M22.2627 237.739C21.8216 237.538 21.2368 237.734 21.0176 238.167C20.7984 238.6 20.9935 239.196 21.4309 239.405C21.8682 239.614 22.5779 239.399 22.7467 238.944C22.9161 238.49 22.6486 237.802 22.1738 237.704" fill="#E0E0E0"/>
<path d="M14.0367 241.282L15.3253 239.702L32.6038 255.26C32.6038 255.26 33.1237 256.312 32.5416 256.813L14.0367 241.282Z" fill="#E0E0E0"/>
<path d="M27.7112 243.483C27.6324 243.571 27.1451 243.235 26.4564 243.154C25.7698 243.056 25.2129 243.257 25.1593 243.151C25.0907 243.064 25.677 242.635 26.5094 242.747C27.3419 242.852 27.7996 243.417 27.7112 243.483Z" fill="#E0E0E0"/>
<path d="M28.9863 245.911C28.9338 246.016 28.4128 245.843 27.7857 245.97C27.1548 246.078 26.7313 246.428 26.6445 246.349C26.5475 246.292 26.9275 245.709 27.7101 245.566C28.4916 245.416 29.0565 245.823 28.9863 245.911Z" fill="#E0E0E0"/>
<path d="M28.1496 249.162C28.0515 249.113 28.3023 248.555 28.9488 248.253C29.5936 247.946 30.1837 248.106 30.159 248.214C30.1478 248.331 29.6509 248.368 29.124 248.624C28.5918 248.868 28.2471 249.229 28.1496 249.162Z" fill="#E0E0E0"/>
<path d="M29.3707 241.16C29.264 241.211 28.952 240.739 28.4112 240.347C27.8779 239.944 27.336 239.783 27.3537 239.666C27.3558 239.557 28.0248 239.546 28.6556 240.017C29.2897 240.482 29.4746 241.126 29.3707 241.16Z" fill="#E0E0E0"/>
<path d="M30.7642 238.589C30.7342 238.628 30.3295 238.385 29.8385 237.81C29.5947 237.523 29.3368 237.15 29.1149 236.7C29.0045 236.475 28.9027 236.232 28.8175 235.972C28.7778 235.845 28.7226 235.706 28.7194 235.52C28.6974 235.342 28.841 235.053 29.0796 235.003C29.2934 234.94 29.5127 235.018 29.6493 235.127C29.7898 235.236 29.8777 235.356 29.9575 235.465C30.1226 235.688 30.2593 235.918 30.3703 236.146C30.5905 236.603 30.7085 237.047 30.7583 237.423C30.8569 238.181 30.7213 238.642 30.6758 238.633C30.6098 238.629 30.6366 238.171 30.4732 237.476C30.3912 237.13 30.2529 236.728 30.0336 236.318C29.9227 236.113 29.7914 235.907 29.637 235.708C29.4837 235.493 29.3175 235.352 29.1943 235.397C29.1482 235.416 29.1348 235.427 29.1278 235.518C29.1262 235.607 29.1621 235.725 29.2012 235.85C29.2763 236.094 29.3636 236.325 29.4585 236.54C29.6483 236.971 29.8664 237.338 30.0701 237.634C30.478 238.225 30.8071 238.542 30.7642 238.589Z" fill="#E0E0E0"/>
<path d="M30.5381 238.621C30.4941 238.608 30.5853 238.134 31.0414 237.519C31.2687 237.215 31.5929 236.887 32.0164 236.607C32.2286 236.468 32.4656 236.342 32.7234 236.24C32.9849 236.147 33.3226 236.012 33.7075 236.265C33.8972 236.412 33.9299 236.682 33.8795 236.848C33.8361 237.025 33.7584 237.143 33.6908 237.268C33.5445 237.514 33.3628 237.722 33.1693 237.895C32.7818 238.241 32.346 238.435 31.9719 238.524C31.2081 238.702 30.7396 238.496 30.7579 238.459C30.7654 238.388 31.2274 238.476 31.8899 238.245C32.2163 238.132 32.5888 237.932 32.912 237.617C33.0734 237.46 33.2229 237.276 33.343 237.065C33.4781 236.844 33.537 236.623 33.4464 236.582C33.3553 236.504 33.0744 236.521 32.8676 236.616C32.6339 236.703 32.4157 236.81 32.2174 236.928C31.8213 237.166 31.5034 237.445 31.2638 237.705C30.7852 238.228 30.5992 238.648 30.5381 238.621Z" fill="#E0E0E0"/>
<path d="M92.3404 88.7031L89.758 109.977C89.244 113.601 88.5011 118.969 94.2679 119.521C99.3079 119.622 101.234 115.088 101.711 111.706C101.936 110.101 102.128 108.763 102.163 108.6C102.163 108.6 107.66 108.859 108.814 103.545C109.371 100.978 110.089 95.5944 110.682 90.7174C111.319 85.4791 107.819 80.632 102.649 79.5766L102.135 79.4716C96.5266 78.6633 92.9927 83.0735 92.3404 88.7031Z" fill="#FFCBB3"/>
<path d="M102.177 108.602C102.177 108.602 98.7783 108.113 95.6588 105.135C95.6588 105.135 96.5561 109.371 101.97 109.978L102.177 108.602Z" fill="#EB996E"/>
<path d="M101.368 92.5286C101.245 92.5447 100.764 92.0677 99.9221 91.7295C99.0844 91.3848 98.3565 91.3698 98.2916 91.2771C98.2584 91.2342 98.4042 91.1742 98.7231 91.1768C99.0377 91.1779 99.5373 91.2578 100.061 91.4706C100.584 91.6839 100.976 91.9664 101.179 92.1759C101.387 92.3877 101.427 92.5233 101.368 92.5286Z" fill="#263238"/>
<path d="M99.8197 93.4828C99.7554 93.8655 99.3786 94.1271 98.9777 94.067C98.5778 94.0075 98.3045 93.6495 98.3682 93.2668C98.4326 92.8841 98.8094 92.6225 99.2098 92.682C99.6107 92.741 99.8841 93.0996 99.8197 93.4828Z" fill="#263238"/>
<path d="M102.799 98.3041C102.804 98.257 103.331 98.2725 104.177 98.3357C104.391 98.3567 104.597 98.3556 104.661 98.2205C104.742 98.0795 104.7 97.8362 104.649 97.5725C104.555 97.0263 104.458 96.4538 104.355 95.8541C103.96 93.412 103.719 91.4219 103.817 91.4063C103.916 91.3913 104.316 93.3585 104.712 95.7999C104.805 96.4008 104.894 96.9743 104.977 97.5221C105.008 97.7756 105.089 98.0731 104.918 98.3647C104.83 98.5094 104.653 98.5914 104.512 98.6C104.369 98.6134 104.251 98.592 104.147 98.5769C103.308 98.4526 102.792 98.3518 102.799 98.3041Z" fill="#263238"/>
<path d="M97.2507 87.9614C97.3108 87.7502 98.051 87.8027 98.9075 87.6419C99.7673 87.4994 100.447 87.1949 100.573 87.3734C100.629 87.4592 100.52 87.6612 100.251 87.8789C99.9849 88.0959 99.5513 88.3136 99.0367 88.4052C98.5221 88.4958 98.0424 88.4401 97.7203 88.327C97.3949 88.2139 97.2256 88.0611 97.2507 87.9614Z" fill="#263238"/>
<path d="M106.576 90.0913C106.694 89.9423 107.369 90.2242 108.215 90.3737C109.058 90.5383 109.781 90.5163 109.846 90.6991C109.874 90.7859 109.713 90.9108 109.398 90.9971C109.086 91.0834 108.618 91.1166 108.111 91.0228C107.605 90.9285 107.174 90.7286 106.906 90.5345C106.637 90.3394 106.523 90.1631 106.576 90.0913Z" fill="#263238"/>
<path d="M91.9615 92.8122C91.8731 92.7537 88.3022 90.986 87.7442 94.85C87.1863 98.7141 91.1805 98.4771 91.2036 98.3673C91.2266 98.2574 91.9615 92.8122 91.9615 92.8122Z" fill="#FFCBB3"/>
<path d="M90.2351 96.7329C90.2196 96.7179 90.1611 96.7704 90.0395 96.8063C89.921 96.8411 89.7254 96.8487 89.5346 96.7441C89.1481 96.5356 88.8978 95.8378 88.9798 95.1388C89.0205 94.7861 89.1427 94.4613 89.3073 94.2024C89.4659 93.9366 89.6771 93.7656 89.8883 93.7591C90.0995 93.7415 90.2276 93.8851 90.2587 94.0009C90.2951 94.1161 90.2592 94.1901 90.2785 94.1997C90.2882 94.211 90.3707 94.1472 90.3627 93.9827C90.3578 93.9039 90.3257 93.8058 90.2458 93.7184C90.1638 93.63 90.033 93.5715 89.8878 93.5662C89.5865 93.5437 89.2789 93.779 89.0982 94.0636C88.901 94.3471 88.7552 94.7106 88.7091 95.1067C88.6217 95.8887 88.9149 96.675 89.4504 96.9173C89.712 97.0277 89.9505 96.9784 90.0807 96.9039C90.2147 96.8251 90.2474 96.742 90.2351 96.7329Z" fill="#EB996E"/>
<path d="M109.384 92.9139C109.287 92.9884 108.632 92.8432 107.736 92.9906C106.841 93.131 106.208 93.4837 106.106 93.4414C106.055 93.4231 106.149 93.302 106.424 93.1439C106.695 92.9874 107.165 92.8014 107.723 92.7113C108.281 92.6218 108.761 92.6545 109.042 92.7226C109.328 92.7907 109.432 92.8796 109.384 92.9139Z" fill="#263238"/>
<path d="M107.553 94.694C107.489 95.0767 107.112 95.3383 106.711 95.2782C106.311 95.2187 106.038 94.8607 106.102 94.478C106.166 94.0953 106.543 93.8337 106.943 93.8932C107.344 93.9527 107.618 94.3113 107.553 94.694Z" fill="#263238"/>
<path d="M118.584 86.8341C118.553 86.6101 118.419 86.4117 118.241 86.2729C117.852 85.9701 117.363 85.9406 116.896 85.8725C115.733 85.7032 114.615 85.2556 113.644 84.5942C114.03 84.4575 114.397 84.2779 114.722 84.0282C115.392 83.5125 115.85 82.6501 115.682 81.8214C115.65 81.666 115.584 81.4988 115.439 81.4334C115.21 81.3294 114.971 81.5363 114.78 81.7008C114.154 82.2411 113.615 82.4384 112.81 82.2502C112.31 82.1334 111.833 81.9565 111.467 81.6569C111.453 81.6381 111.441 81.6183 111.427 81.5995C111.262 81.3776 111.1 81.1654 110.94 80.9596C110.94 80.9596 110.939 80.9585 110.939 80.9574L110.939 80.9585C109.735 79.4094 108.669 78.3064 107.509 77.6557C105.81 76.7021 102.848 76.0219 100.915 76.2706C98.982 76.5199 97.1071 77.8191 96.5995 79.701C95.6658 78.6789 94.0905 78.4832 92.7473 78.8316L92.7173 78.8134C91.2299 79.1366 90.2275 80.5345 89.6202 81.9308C89.587 82.0069 89.5565 82.0852 89.5248 82.1618C88.9454 82.8618 88.2074 83.4305 87.3696 83.7837C87.2217 83.8459 87.0517 83.9236 87.0142 84.0796C86.9772 84.234 87.093 84.3814 87.2093 84.4897C87.5186 84.778 87.8954 84.9897 88.2985 85.1168C88.1237 85.4448 87.9281 85.76 87.6982 86.0553C87.5025 86.3062 87.2694 86.6074 87.3733 86.9081C87.4537 87.1407 87.7196 87.2667 87.9662 87.2629C88.2122 87.2586 88.4437 87.1525 88.6667 87.0491C88.4587 87.4082 88.2513 87.7678 88.0433 88.1269C88.5466 88.2829 89.0843 88.3108 89.6036 88.2234C89.7307 89.6192 89.8904 91.2143 90.1209 92.1786C90.7158 92.2536 91.2545 92.3667 91.5783 92.7435C92.0183 93.2559 92.1325 94.1275 93.0013 93.9141C93.4435 93.8059 93.9426 92.9719 94.1387 92.5607C95.4423 89.8336 96.1471 86.8229 96.1943 83.8009C96.8643 83.2488 97.642 82.8275 98.4701 82.5676L98.3994 82.6169C99.9683 82.2894 101.733 81.9956 103.067 82.8849C104.102 83.5747 104.604 84.8054 105.312 85.8275C106.653 87.7641 108.435 88.9422 110.757 89.3447C110.758 90.9935 110.318 93.0276 110.202 94.5509L111.916 92.2917L111.916 92.304C112.043 92.14 112.152 91.9722 112.259 91.8039L112.294 91.7535L112.295 91.7466C112.465 91.4759 112.628 91.2041 112.832 90.9409C112.836 90.9463 112.84 90.9506 112.845 90.956C113.571 91.7851 114.922 90.8354 114.389 89.8706C114.284 89.6792 114.15 89.5034 113.992 89.3522C114.321 89.7526 114.858 89.9933 115.369 89.9059C115.879 89.8186 116.325 89.3705 116.348 88.8527C116.365 88.4995 116.155 88.1543 115.857 87.9753C116.512 88.1119 117.208 88.0551 117.828 87.8005C118.233 87.6344 118.651 87.3267 118.584 86.8341Z" fill="#263238"/>
<path d="M98.2113 80.5383C98.2198 80.5533 97.9679 80.6514 97.6083 80.9618C97.2518 81.271 96.8246 81.8338 96.5523 82.64C96.4146 83.0404 96.302 83.4933 96.2382 83.9886C96.1723 84.4833 96.1434 85.0182 96.1091 85.5821C96.0732 86.1454 96.0367 86.7409 95.9215 87.3498C95.8641 87.6543 95.7869 87.9609 95.6803 88.2642C95.5731 88.5617 95.4498 88.8839 95.1845 89.117C94.9728 89.3078 94.6522 89.363 94.3928 89.2741C94.1302 89.1921 93.9099 89.0179 93.7603 88.8002C93.4666 88.3521 93.4462 87.829 93.4189 87.3664L93.5298 87.3948C93.2929 87.7765 93.0523 88.1527 92.7301 88.4363C92.4128 88.7225 92.0033 88.886 91.611 88.8704C91.4153 88.8629 91.2245 88.8067 91.0696 88.7016C90.9109 88.5971 90.8059 88.4411 90.741 88.2819C90.6799 88.1206 90.6596 87.9496 90.6885 87.7904C90.718 87.6323 90.8 87.4886 90.9152 87.3948L90.9656 87.4533C90.4902 87.8719 90.0196 88.0691 89.699 88.1704C89.5372 88.2208 89.4096 88.2471 89.3233 88.2632C89.2365 88.2771 89.1915 88.2819 89.1909 88.2782C89.1904 88.2744 89.2343 88.2626 89.319 88.2423C89.4032 88.2197 89.5281 88.1871 89.6862 88.1308C89.9992 88.0182 90.4564 87.8129 90.9142 87.3959L90.9645 87.4543C90.7593 87.6226 90.7051 87.9576 90.8257 88.2482C90.8868 88.3918 90.9838 88.5312 91.1237 88.6207C91.2626 88.7123 91.4368 88.7622 91.6158 88.7675C91.9765 88.7783 92.3587 88.6244 92.6562 88.3516C92.9601 88.0804 93.1938 87.7138 93.4285 87.3311L93.5282 87.1687L93.5395 87.3595C93.5674 87.821 93.5958 88.3248 93.8638 88.7289C93.9978 88.9241 94.2004 89.0816 94.4303 89.1529C94.6597 89.229 94.9186 89.1835 95.103 89.0205C95.3346 88.819 95.4578 88.5145 95.5624 88.2219C95.6669 87.9266 95.743 87.6259 95.8003 87.3268C95.9156 86.7281 95.9542 86.1369 95.9933 85.5746C96.0308 85.0118 96.0635 84.4747 96.1348 83.9741C96.2039 83.4735 96.3229 83.0152 96.4682 82.61C96.755 81.7953 97.2036 81.2271 97.5761 80.9248C97.9518 80.6198 98.2113 80.5383 98.2113 80.5383Z" fill="#455A64"/>
<path d="M114.164 87.9175C114.165 87.9191 114.149 87.9298 114.116 87.9486C114.076 87.9705 114.028 87.9968 113.969 88.029C113.905 88.0654 113.823 88.1072 113.723 88.1453C113.623 88.1866 113.509 88.2375 113.373 88.275C112.843 88.4476 112.012 88.58 111.019 88.3913C110.035 88.2075 108.89 87.7025 107.929 86.7742C106.956 85.863 106.16 84.6039 105.558 83.2018C105.251 82.5001 105.018 81.7921 104.747 81.1301C104.478 80.4687 104.166 79.8485 103.757 79.3383C103.354 78.8264 102.862 78.4228 102.33 78.1982C102.065 78.0808 101.791 78.0267 101.525 77.9988C101.258 77.9784 101.001 77.9999 100.759 78.046C100.275 78.1414 99.8686 78.3493 99.5507 78.5755C99.2318 78.8044 99.0045 79.0606 98.8427 79.2841C98.5345 79.7467 98.4798 80.0619 98.461 80.0544C98.4589 80.0538 98.4626 80.0351 98.4728 79.9986C98.4857 79.9552 98.5007 79.9021 98.5195 79.8373C98.5645 79.6968 98.6535 79.4959 98.8019 79.2568C98.9606 79.0247 99.1868 78.7583 99.5089 78.5187C99.83 78.2813 100.244 78.0626 100.741 77.9581C100.989 77.9077 101.255 77.883 101.532 77.9012C101.807 77.927 102.096 77.9822 102.37 78.1017C102.923 78.3306 103.434 78.7444 103.848 79.2659C104.269 79.7864 104.588 80.4172 104.861 81.0835C105.136 81.7497 105.369 82.4567 105.673 83.1519C106.271 84.5434 107.055 85.7885 108.009 86.6895C108.951 87.6082 110.068 88.1104 111.036 88.3039C112.011 88.5007 112.83 88.3843 113.358 88.2284C113.891 88.0692 114.156 87.9009 114.164 87.9175Z" fill="#455A64"/>
<path d="M114.958 85.6186C114.961 85.6266 114.887 85.6652 114.748 85.7279C114.61 85.7933 114.402 85.8689 114.14 85.9439C113.877 86.0211 113.557 86.0833 113.197 86.124C112.837 86.1578 112.438 86.1658 112.022 86.1278C111.606 86.0854 111.216 86.0007 110.869 85.8984C110.524 85.7896 110.221 85.6674 109.979 85.5409C109.736 85.4165 109.545 85.3023 109.423 85.2123C109.299 85.1239 109.233 85.0719 109.238 85.0649C109.251 85.0451 109.528 85.2359 110.017 85.4605C110.26 85.5746 110.561 85.6861 110.902 85.7869C111.244 85.8812 111.627 85.9605 112.034 86.0024C112.442 86.0393 112.833 86.0351 113.187 86.0083C113.54 85.975 113.856 85.923 114.117 85.8576C114.64 85.7311 114.949 85.5966 114.958 85.6186Z" fill="#455A64"/>
<path d="M108.502 191.39C107.404 189.769 105.927 187.755 103.98 185.387C100.646 181.333 95.8726 176.256 93.8407 174.121C91.6163 171.373 85.5911 162.844 83.5393 160.498C80.93 157.514 76.6672 154.688 76.6672 154.688L51.1349 157.515L49.5269 159.009C49.8704 161.07 50.944 167.596 53.2295 170.549C56.0221 174.156 63.3524 180.792 66.9608 181.836C69.1348 182.466 71.5431 183.397 73.7117 184.32C77.7558 187.117 91.226 196.491 92.2804 198.007C92.5065 198.332 92.2777 198.553 92.2777 198.553C92.2777 198.553 86.9391 204.102 84.2902 209.655C81.1825 216.17 73.9722 230.995 73.9722 230.995L86.7772 237.539C86.7772 237.539 103.121 211.139 105.286 207.836C106.139 206.536 107.784 203.306 109.138 200.566C110.597 197.615 110.348 194.114 108.502 191.39Z" fill="#263238"/>
<path d="M76.4844 166.15L57.659 159.652C57.659 159.652 58.1093 167.536 59.2365 169.53L47.3443 195.785C47.3443 195.785 35.6402 211.69 32.2945 216.031C27.9566 221.658 20.8492 233.362 20.8492 233.362L31.2562 240.941L57.0518 210.219C57.0518 210.219 59.9033 208.973 60.941 207.312L80.498 183.041L76.4844 166.15Z" fill="#263238"/>
<path d="M133.468 122.248L133.041 118.609L135.1 116.086C135.1 116.086 137.316 114.833 137.595 114.464C137.595 114.464 137.988 114.773 137.838 115.423C137.838 115.423 138.55 114.514 139.024 114.566C139.499 114.617 139.818 115.432 139.939 116.001C139.939 116.001 140.408 116.195 140.888 116.627C141.367 117.059 141.468 117.603 141.468 117.603L141.336 118.335C141.336 118.335 141.932 118.239 142.221 118.778C142.509 119.315 142.394 120.129 142.394 120.129C142.394 120.129 142.961 119.817 143.232 120.274C143.503 120.73 143.579 121.004 143.458 121.391C143.336 121.778 141.515 124.837 140.889 125.314C140.262 125.791 135.052 129.874 135.052 129.874L130.533 125.133L133.468 122.248Z" fill="#FFCBB3"/>
<path d="M142.789 121.566C142.81 121.583 142.546 121.954 142.005 122.449C141.734 122.696 141.394 122.97 140.987 123.235C140.789 123.362 140.54 123.524 140.227 123.507C139.929 123.493 139.625 123.308 139.49 123.015C139.348 122.728 139.392 122.375 139.552 122.134C139.707 121.888 139.918 121.724 140.11 121.578C140.496 121.287 140.86 121.048 141.173 120.861C141.8 120.487 142.217 120.314 142.231 120.34C142.247 120.371 141.858 120.596 141.261 121C140.963 121.202 140.614 121.452 140.241 121.747C140.057 121.894 139.868 122.052 139.746 122.253C139.622 122.449 139.596 122.698 139.701 122.915C139.799 123.129 140.02 123.265 140.242 123.279C140.461 123.297 140.673 123.178 140.872 123.054C141.275 122.804 141.619 122.55 141.898 122.324C142.455 121.87 142.762 121.542 142.789 121.566Z" fill="#EB996E"/>
<path d="M140.08 116.06C140.103 116.088 139.724 116.406 139.172 116.976C138.897 117.261 138.579 117.611 138.255 118.022C138.092 118.228 137.931 118.445 137.763 118.681C137.595 118.912 137.365 119.185 137.01 119.261C136.837 119.3 136.638 119.267 136.49 119.165C136.341 119.064 136.246 118.915 136.188 118.765C136.067 118.457 136.137 118.125 136.251 117.878C136.366 117.623 136.516 117.415 136.646 117.221C136.774 117.032 136.896 116.852 137.013 116.681C137.466 116.023 137.759 115.625 137.786 115.643C137.813 115.66 137.569 116.09 137.152 116.771C136.956 117.114 136.66 117.51 136.449 117.962C136.352 118.192 136.306 118.448 136.402 118.684C136.489 118.921 136.711 119.095 136.963 119.032C137.22 118.98 137.415 118.769 137.58 118.545C137.748 118.315 137.92 118.089 138.089 117.886C138.429 117.476 138.764 117.132 139.057 116.858C139.646 116.311 140.063 116.037 140.08 116.06Z" fill="#EB996E"/>
<path d="M141.142 118.154C141.162 118.182 140.877 118.416 140.467 118.85C140.05 119.267 139.516 119.941 138.726 120.438C138.531 120.57 138.37 120.71 138.151 120.817C138.042 120.868 137.905 120.902 137.77 120.871C137.639 120.836 137.552 120.78 137.461 120.72C137.375 120.658 137.288 120.595 137.223 120.491C137.17 120.403 137.127 120.312 137.1 120.221C137.041 120.039 137.03 119.86 137.043 119.702C137.07 119.383 137.197 119.149 137.304 119.013C137.414 118.877 137.5 118.829 137.509 118.839C137.546 118.861 137.224 119.129 137.207 119.71C137.205 119.851 137.225 120.006 137.282 120.158C137.309 120.235 137.348 120.309 137.395 120.38C137.43 120.437 137.504 120.491 137.579 120.541C137.654 120.589 137.746 120.637 137.817 120.654C137.887 120.668 137.967 120.651 138.053 120.61C138.222 120.526 138.405 120.373 138.589 120.248C139.36 119.765 139.893 119.13 140.35 118.732C140.798 118.322 141.126 118.129 141.142 118.154Z" fill="#EB996E"/>
<path d="M142.355 120.006C142.373 120.032 141.955 120.356 141.263 120.859C140.896 121.121 140.486 121.415 140.041 121.733C139.808 121.887 139.58 122.091 139.252 122.201C139.088 122.252 138.905 122.268 138.723 122.216C138.541 122.167 138.372 122.019 138.302 121.839C138.149 121.474 138.293 121.088 138.478 120.832C138.667 120.568 138.869 120.357 139.058 120.142C139.439 119.721 139.81 119.362 140.144 119.088C140.476 118.812 140.77 118.621 140.98 118.501C141.189 118.382 141.315 118.335 141.322 118.347C141.342 118.381 140.878 118.64 140.252 119.213C139.938 119.497 139.587 119.86 139.218 120.285C139.038 120.498 138.833 120.722 138.667 120.96C138.501 121.194 138.409 121.491 138.517 121.748C138.612 122.003 138.928 122.068 139.185 121.983C139.447 121.902 139.682 121.71 139.92 121.557C140.375 121.254 140.794 120.975 141.17 120.724C141.885 120.255 142.337 119.979 142.355 120.006Z" fill="#EB996E"/>
<path d="M137.887 115.364C137.967 115.396 137.527 116.352 136.677 117.299C136.569 117.417 136.463 117.53 136.35 117.633C136.299 117.685 136.226 117.737 136.184 117.777C136.166 117.795 136.147 117.812 136.127 117.827C136.119 117.839 136.112 117.856 136.109 117.88C136.108 118.114 136.1 118.401 136.058 118.597C135.978 119.014 135.846 119.243 135.82 119.232C135.786 119.22 135.86 118.976 135.895 118.575C135.916 118.365 135.904 118.161 135.896 117.852C135.901 117.808 135.913 117.758 135.942 117.711L136.035 117.612C136.095 117.554 136.141 117.521 136.194 117.466C136.298 117.368 136.4 117.257 136.504 117.143C136.914 116.68 137.256 116.23 137.495 115.9C137.734 115.571 137.856 115.352 137.887 115.364Z" fill="#EB996E"/>
<path d="M137.229 120.867C137.196 120.875 137.133 120.717 136.964 120.508C136.795 120.304 136.523 120.021 136.223 119.739C135.919 119.458 135.596 119.28 135.339 119.208C135.084 119.131 134.911 119.142 134.906 119.106C134.899 119.079 135.077 119.005 135.374 119.047C135.668 119.082 136.055 119.265 136.379 119.566C136.7 119.868 136.947 120.164 137.1 120.416C137.25 120.67 137.259 120.862 137.229 120.867Z" fill="#EB996E"/>
<path d="M35.8857 133.701C35.8857 133.701 36.2362 136.654 36.0856 137.519C35.9355 138.384 35.0039 141.06 35.1379 142.262C35.1379 142.262 34.2905 142.801 33.9887 141.775C33.687 140.749 33.6634 139.181 33.8269 138.463C33.9904 137.744 33.4377 137.69 33.0336 138.044C32.6295 138.399 30.3247 141.247 30.3247 141.247C30.3247 141.247 28.193 144.865 27.6538 144.957C27.1145 145.049 26.9253 144.399 26.816 144.161C26.7067 143.922 28.4149 140.642 28.4149 140.642L29.5131 139.133C29.5131 139.133 25.7692 143.636 25.1849 143.685C24.6007 143.735 24.4522 143.325 24.4437 142.981C24.4351 142.637 26.1074 140.665 26.1074 140.665L28.1721 137.858L23.5233 142.465C23.5233 142.465 23.0286 142.845 22.6754 142.509C22.3227 142.173 22.6138 141.443 22.6138 141.443L26.995 136.268C26.995 136.268 22.0638 137.292 21.8328 137.072C21.6018 136.853 21.3515 136.481 21.6232 136.336C21.895 136.191 27.077 134.062 27.077 134.062L31.5725 130.676L32.7554 129.785L36.5214 132.962L35.8857 133.701Z" fill="#FFCBB3"/>
<path d="M30.4897 129.305L42.4999 112.022C43.9739 109.992 46.2867 108.736 48.7925 108.605L70.8816 107.454C70.8816 107.454 74.0564 103.64 75.9431 104.034C77.8298 104.428 80.7558 106.34 79.9486 109.85C79.1414 113.359 74.3479 120.476 68.8212 121.142L50.2724 121.088L37.4556 134.348L30.4897 129.305Z" fill="#455A64"/>
<path d="M72.6907 157.087L83.5393 160.498C84.942 159.017 88.6399 150.67 88.6399 150.67L72.6907 157.087Z" fill="#E0E0E0"/>
<path d="M88.3563 105.902L76.0122 104.611L69.4012 119.698L64.0037 142.087C64.0037 142.087 45.9994 152.942 42.4886 157.605C40.7247 159.948 46.1334 165.993 46.1334 165.993C46.1334 165.993 51.7357 174.122 57.1086 173.12C62.4814 172.118 74.6851 163.107 80.7499 158.731C82.5375 157.441 85.7031 155.109 87.6542 152.243C90.7169 147.743 92.1169 142.32 92.1169 142.32L88.3563 105.902Z" fill="#455A64"/>
<path d="M101.664 111.882L107.372 118.345C107.645 118.809 103.152 134.819 101.038 138.801C100.215 140.351 94.3317 147.045 91.2293 152.718V170.555L83.5404 160.499L84.7159 158.778L92.1175 142.321L102.15 130.586L101.843 119.897L101.664 111.882Z" fill="#455A64"/>
<path d="M122.12 129.417L108.447 121L107.371 118.345L100.641 137.847C100.641 137.847 120.161 142.673 124.018 140.946C127.875 139.22 139.211 128.974 139.211 128.974L132.233 122.445L122.12 129.417Z" fill="#455A64"/>
<path d="M88.3563 105.902L89.6015 104.209C89.6015 104.209 93.0576 107.16 95.3795 110.164C96.9248 112.163 98.9563 115.838 98.9563 115.838L101.78 112.084L102.15 130.585L92.1174 142.32L88.4785 107.082L88.3563 105.902Z" fill="#E0E0E0"/>
<path d="M89.4884 140.503C89.4787 140.505 89.4402 140.385 89.3742 140.154C89.3024 139.895 89.2097 139.559 89.0939 139.142C88.8527 138.263 88.4748 136.998 87.9871 135.443C87.4848 133.88 86.8915 132.033 86.2343 129.987C85.5783 127.932 84.8568 125.67 84.2436 123.25C83.9488 122.038 83.6551 120.854 83.5291 119.669C83.3957 118.485 83.5484 117.318 83.8438 116.272C84.4629 114.172 85.4979 112.497 86.1882 111.029C86.9193 109.574 87.3288 108.318 87.4945 107.427C87.532 107.207 87.5658 107.009 87.5963 106.832C87.6097 106.665 87.6215 106.519 87.6317 106.392C87.6526 106.153 87.6681 106.027 87.6783 106.027C87.688 106.027 87.6912 106.153 87.688 106.394C87.6853 106.524 87.6826 106.672 87.6789 106.841C87.6558 107.021 87.6301 107.222 87.6017 107.445C87.4682 108.353 87.0796 109.64 86.3667 111.114C85.6935 112.601 84.6821 114.285 84.0919 116.341C83.8105 117.368 83.6685 118.488 83.8014 119.642C83.9269 120.794 84.2211 121.978 84.5143 123.183C85.1243 125.59 85.8372 127.852 86.4793 129.91C87.1257 131.967 87.7116 133.82 88.1757 135.385C88.6399 136.951 88.9894 138.226 89.199 139.115C89.311 139.558 89.3791 139.906 89.4289 140.141C89.4771 140.376 89.4975 140.501 89.4884 140.503Z" fill="#263238"/>
<path d="M68.5099 137.465C68.4911 137.46 68.5259 137.246 68.6047 136.862C68.6964 136.421 68.8084 135.878 68.9408 135.239C69.2217 133.869 69.577 131.97 69.8745 129.858C70.1704 127.745 70.351 125.822 70.4588 124.427C70.5081 123.776 70.5493 123.224 70.5836 122.775C70.6142 122.384 70.6399 122.168 70.6592 122.169C70.6785 122.169 70.6892 122.387 70.6925 122.779C70.6967 123.171 70.6855 123.739 70.656 124.439C70.5981 125.841 70.448 127.776 70.1511 129.898C69.8525 132.018 69.465 133.92 69.1338 135.283C68.9687 135.965 68.8234 136.513 68.7109 136.889C68.5988 137.265 68.5286 137.47 68.5099 137.465Z" fill="#455A64"/>
<path d="M72.7641 133.757C72.6934 133.798 72.0395 132.745 71.1132 131.538C70.1913 130.326 69.3445 129.422 69.4018 129.364C69.4511 129.31 70.3988 130.138 71.3352 131.368C72.2753 132.594 72.8279 133.723 72.7641 133.757Z" fill="#455A64"/>
<path d="M74.6852 129.305C74.6852 129.374 73.4084 129.329 71.9617 128.754C70.5113 128.189 69.5465 127.351 69.5937 127.301C69.643 127.231 70.6555 127.947 72.0641 128.495C73.4679 129.054 74.6964 129.221 74.6852 129.305Z" fill="#455A64"/>
<path d="M90.4312 144.276C90.436 144.284 90.3615 144.335 90.2146 144.424C90.0661 144.51 89.8528 144.649 89.5612 144.795C88.9866 145.105 88.1274 145.507 87.0222 145.892C84.8289 146.668 81.5459 147.272 77.9922 146.71C74.4369 146.161 71.4857 144.621 69.6001 143.259C68.6481 142.579 67.9342 141.956 67.4636 141.504C67.2245 141.282 67.0541 141.093 66.9345 140.97C66.8171 140.845 66.7587 140.776 66.7657 140.769C66.7812 140.753 67.0476 140.996 67.5365 141.424C68.0269 141.849 68.7553 142.445 69.7126 143.097C71.6106 144.405 74.5334 145.893 78.0346 146.434C81.5341 146.987 84.7715 146.425 86.9595 145.705C88.0615 145.347 88.9261 144.977 89.5125 144.698C90.0994 144.42 90.4199 144.255 90.4312 144.276Z" fill="#455A64"/>
<path d="M88.2508 148.137C88.2626 148.152 88.1248 148.277 87.8649 148.492C87.607 148.71 87.2147 149 86.7162 149.339C85.7187 150.016 84.2587 150.845 82.5317 151.497C80.8041 152.148 79.1581 152.489 77.9607 152.628C77.3619 152.699 76.8742 152.733 76.537 152.736C76.1999 152.742 76.0139 152.736 76.0128 152.717C76.0101 152.669 76.7525 152.622 77.9328 152.432C79.1125 152.245 80.728 151.878 82.433 151.235C84.1375 150.592 85.5933 149.801 86.6095 149.172C87.6258 148.544 88.2224 148.1 88.2508 148.137Z" fill="#263238"/>
<path d="M90.9431 153.793C90.8606 153.791 90.8558 152.587 90.6333 151.129C90.4195 149.669 90.0689 148.517 90.1472 148.491C90.2136 148.464 90.6901 149.597 90.9094 151.088C91.1356 152.577 91.0139 153.799 90.9431 153.793Z" fill="#455A64"/>
<path d="M72.9447 120.021C72.9126 119.974 73.7728 119.496 74.8925 118.407C76.009 117.332 77.341 115.56 78.0442 113.286C78.7464 111.01 78.6445 108.795 78.3278 107.278C78.0169 105.747 77.5758 104.868 77.6288 104.847C77.6438 104.84 77.765 105.052 77.9424 105.457C78.1209 105.861 78.3385 106.466 78.5207 107.236C78.8922 108.766 79.0305 111.034 78.3106 113.368C77.5902 115.7 76.1977 117.495 75.0281 118.55C74.4428 119.084 73.9224 119.46 73.5472 119.694C73.1731 119.928 72.9528 120.035 72.9447 120.021Z" fill="#263238"/>
<path d="M91.2282 152.717C91.2202 152.712 91.2824 152.596 91.4089 152.379C91.5364 152.163 91.7219 151.842 91.9765 151.439C92.483 150.632 93.235 149.475 94.1805 148.059C96.0549 145.216 98.7376 141.344 101.347 136.858C101.678 136.3 101.984 135.738 102.282 135.181C102.591 134.63 102.86 134.07 103.13 133.522C103.415 132.981 103.625 132.42 103.866 131.885C103.991 131.619 104.064 131.339 104.165 131.071C104.251 130.8 104.37 130.539 104.426 130.267C104.724 129.199 104.806 128.125 104.846 127.133C104.882 126.138 104.848 125.208 104.789 124.361C104.665 122.667 104.459 121.304 104.33 120.361C104.268 119.911 104.218 119.551 104.18 119.274C104.148 119.026 104.136 118.894 104.145 118.893C104.155 118.891 104.185 119.02 104.235 119.265C104.287 119.539 104.354 119.898 104.437 120.344C104.599 121.282 104.835 122.643 104.985 124.346C105.057 125.196 105.103 126.133 105.077 127.14C105.046 128.147 104.975 129.224 104.674 130.333C104.618 130.614 104.5 130.877 104.413 131.155C104.313 131.427 104.239 131.715 104.113 131.983C103.873 132.524 103.661 133.094 103.377 133.639C103.106 134.191 102.836 134.757 102.527 135.311C102.228 135.871 101.921 136.436 101.589 136.996C98.9702 141.498 96.2602 145.354 94.3445 148.168C93.3969 149.554 92.624 150.685 92.0681 151.497C91.8152 151.874 91.612 152.176 91.4571 152.407C91.3151 152.616 91.2368 152.722 91.2282 152.717Z" fill="#263238"/>
<path d="M107.883 123.821C107.918 123.835 107.729 124.398 107.381 125.289C107.033 126.182 106.521 127.403 105.914 128.732C105.306 130.062 104.718 131.248 104.271 132.095C103.825 132.942 103.523 133.453 103.489 133.436C103.454 133.417 103.694 132.876 104.094 132.007C104.532 131.057 105.068 129.898 105.66 128.616C106.242 127.33 106.767 126.166 107.198 125.213C107.593 124.341 107.846 123.806 107.883 123.821Z" fill="#263238"/>
<path d="M109.803 127.407C109.829 127.439 109.395 127.826 108.713 128.471C108.03 129.114 107.109 130.025 106.161 131.094C105.213 132.164 104.419 133.188 103.862 133.943C103.305 134.697 102.973 135.175 102.937 135.152C102.907 135.134 103.181 134.617 103.7 133.829C104.219 133.041 104.995 131.989 105.952 130.909C106.909 129.83 107.86 128.933 108.581 128.324C109.301 127.713 109.781 127.379 109.803 127.407Z" fill="#263238"/>
<path d="M123.48 135.456C123.404 135.471 123.108 134.319 122.817 132.884C122.527 131.448 122.353 130.272 122.429 130.257C122.504 130.241 122.801 131.392 123.091 132.828C123.381 134.264 123.555 135.441 123.48 135.456Z" fill="#263238"/>
<path d="M124.68 134.891C124.6 134.907 124.299 133.714 123.803 132.286C123.313 130.855 122.814 129.73 122.887 129.695C122.951 129.661 123.569 130.744 124.067 132.195C124.57 133.644 124.751 134.878 124.68 134.891Z" fill="#263238"/>
<path d="M47.3878 115.03C47.4424 114.985 48.449 116.168 49.3629 117.842C50.2838 119.512 50.7404 120.997 50.6729 121.019C50.5952 121.048 50.0276 119.624 49.118 117.976C48.217 116.324 47.3213 115.081 47.3878 115.03Z" fill="#263238"/>
<path d="M48.9561 113.36C49.0306 113.34 49.5033 114.818 50.0125 116.661C50.5217 118.505 50.8744 120.016 50.7999 120.036C50.7254 120.057 50.2527 118.579 49.7435 116.735C49.2348 114.892 48.8821 113.381 48.9561 113.36Z" fill="#263238"/>
<path d="M67.5703 149.252C67.5687 149.233 67.8619 149.191 68.3931 149.13C68.9736 149.065 69.7299 148.979 70.6405 148.877C72.5374 148.659 75.1531 148.322 78.0266 147.848C80.9006 147.371 83.4858 146.847 85.3516 146.442C86.2467 146.246 86.9901 146.083 87.561 145.959C88.083 145.845 88.3741 145.791 88.3789 145.81C88.3837 145.828 88.1018 145.918 87.5872 146.064C87.0732 146.212 86.3244 146.408 85.3955 146.635C83.5383 147.09 80.9526 147.646 78.0722 148.124C75.1922 148.6 72.5658 148.906 70.6609 149.073C69.7084 149.157 68.9366 149.213 68.4022 149.239C67.8678 149.266 67.5719 149.272 67.5703 149.252Z" fill="#263238"/>
<path d="M75.629 142.087C75.6446 142.049 76.2567 142.264 77.2493 142.596C78.242 142.928 79.6195 143.366 81.1611 143.778C82.7031 144.189 84.1155 144.497 85.1419 144.703C86.1678 144.91 86.8062 145.029 86.8003 145.07C86.7955 145.105 86.1469 145.056 85.1071 144.897C84.0678 144.74 82.6399 144.462 81.0887 144.048C79.5381 143.633 78.1616 143.162 77.1823 142.781C76.2025 142.401 75.6156 142.12 75.629 142.087Z" fill="#263238"/>
<path d="M66.7653 156.82L62.1594 159.163L53.5336 150.374L58.3635 148.994" fill="#455A64"/>
<path d="M58.3634 148.994C58.3667 149.006 58.2504 149.051 58.0279 149.126C57.7669 149.21 57.4464 149.312 57.0588 149.436C56.1707 149.703 54.9807 150.06 53.5646 150.486L53.6156 150.293C54.88 151.571 56.3808 153.089 57.9952 154.722C59.5577 156.325 61.0129 157.819 62.2425 159.08L62.1058 159.058C63.4699 158.386 64.617 157.822 65.4719 157.401C65.8508 157.223 66.1649 157.075 66.419 156.955C66.6393 156.856 66.7588 156.808 66.7647 156.82C66.7701 156.83 66.6613 156.9 66.4517 157.019C66.2051 157.154 65.9012 157.321 65.5335 157.522C64.6899 157.966 63.5584 158.56 62.2125 159.267L62.1369 159.307L62.0752 159.245C60.8365 157.992 59.3706 156.509 57.7964 154.917C56.1943 153.272 54.7047 151.743 53.4499 150.455L53.3116 150.313L53.5009 150.262C54.9277 149.875 56.1273 149.55 57.0218 149.307C57.4158 149.208 57.7428 149.125 58.0081 149.058C58.2375 149.005 58.3602 148.983 58.3634 148.994Z" fill="#263238"/>
<path d="M66.7652 156.82C66.7121 156.876 65.0902 155.425 63.1424 153.581C61.194 151.735 59.6584 150.194 59.7114 150.139C59.7645 150.083 61.3864 151.533 63.3342 153.378C65.2821 155.223 66.8182 156.764 66.7652 156.82Z" fill="#263238"/>
<path d="M90.5588 145.847L90.7014 145.869C90.2571 145.651 89.6594 145.936 89.5195 146.429C89.3796 146.921 89.727 147.5 90.211 147.585C90.695 147.67 91.201 147.246 91.2331 146.732C91.2594 146.309 90.9448 145.956 90.5588 145.847Z" fill="#263238"/>
<path d="M84.7153 155.463C84.6821 155.427 85.3258 154.835 86.1813 153.717C87.0475 152.609 88.1104 150.974 89.1314 149.085C90.1413 147.188 90.9115 145.396 91.3532 144.062C91.8088 142.73 91.9465 141.866 91.9953 141.874C92.0146 141.877 91.9915 142.094 91.9337 142.488C91.8688 142.879 91.7487 143.443 91.5408 144.121C91.1431 145.485 90.3943 147.306 89.3769 149.216C88.3484 151.12 87.249 152.752 86.3346 153.84C85.8838 154.388 85.4818 154.802 85.1924 155.073C84.897 155.338 84.7282 155.477 84.7153 155.463Z" fill="#263238"/>
<path d="M83.3346 211.652C83.3287 211.649 83.3694 211.552 83.4546 211.368C83.5495 211.168 83.6771 210.9 83.8389 210.56C84.1814 209.855 84.7164 208.838 85.4432 207.575C86.1829 206.32 87.1257 204.823 88.3087 203.185C88.9052 202.369 89.5543 201.513 90.2736 200.641C90.6349 200.206 91.0085 199.762 91.4046 199.321C91.6045 199.101 91.8071 198.88 92.0119 198.657C92.1121 198.544 92.2348 198.437 92.2858 198.337C92.3431 198.23 92.3158 198.17 92.2311 198.121L92.2005 198.103L92.1807 198.081C91.53 197.349 90.6542 196.706 89.8116 196.025C88.9492 195.356 88.0487 194.679 87.1203 193.992C85.2631 192.619 83.2917 191.208 81.2576 189.764C78.5931 187.874 76.0123 186.072 73.6367 184.429L73.6614 184.442C72.227 183.857 70.9798 183.041 69.7078 182.453C68.4434 181.839 67.1281 181.552 65.8947 181.215C63.4098 180.562 61.4025 179.378 60.0003 178.138C58.5735 176.92 57.5953 175.789 56.9516 175.001C56.6343 174.601 56.4006 174.286 56.2494 174.068C56.1819 173.967 56.1267 173.885 56.0816 173.818C56.0452 173.762 56.028 173.732 56.0313 173.729C56.0345 173.727 56.0575 173.753 56.1004 173.805C56.1503 173.869 56.2114 173.946 56.2859 174.041C56.4488 174.25 56.6932 174.556 57.0196 174.944C57.6821 175.712 58.6759 176.82 60.1065 178.011C60.822 178.603 61.6496 179.217 62.6316 179.723C63.6162 180.235 64.7246 180.68 65.9537 180.996C67.1758 181.322 68.5211 181.608 69.8118 182.228C71.1089 182.82 72.3541 183.628 73.7616 184.196L73.7745 184.202L73.7863 184.21C76.1688 185.847 78.7523 187.644 81.4184 189.536C83.4536 190.981 85.4244 192.394 87.2811 193.774C88.209 194.464 89.1094 195.144 89.9719 195.819C90.8236 196.515 91.6742 197.131 92.3796 197.932L92.3292 197.892C92.4326 197.943 92.5103 198.02 92.5484 198.138C92.5811 198.256 92.5468 198.37 92.5023 198.451C92.4064 198.62 92.2863 198.71 92.1882 198.823C91.984 199.045 91.7819 199.263 91.5815 199.48C91.1854 199.917 90.8107 200.355 90.4489 200.786C89.7274 201.65 89.0746 202.498 88.4732 203.305C87.2811 204.928 86.3249 206.409 85.5686 207.65C84.8252 208.899 84.271 209.902 83.907 210.595C83.7312 210.928 83.5924 211.19 83.4889 211.386C83.3941 211.565 83.341 211.655 83.3346 211.652Z" fill="#455A64"/>
<path d="M99.774 114.748L98.322 114.704L97.5518 115.955L98.0786 117.288L99.5055 117.472L100.314 115.765L99.774 114.748Z" fill="#407BFF"/>
<path d="M97.9186 116.322L95.3844 114.892C95.3844 114.892 96.2699 113.394 98.4074 114.892L97.9186 116.322Z" fill="#407BFF"/>
<path d="M98.4075 114.892C98.3978 114.904 98.2499 114.82 97.9883 114.655C97.7182 114.526 97.3087 114.268 96.7534 114.307C96.4822 114.334 96.1895 114.417 95.9097 114.594C95.6326 114.773 95.3544 115.003 95.0864 115.283C94.5392 115.829 93.9978 116.536 93.2061 117.104L93.0416 117.222L93.0008 117.02C92.8277 116.157 92.5549 115.234 92.2183 114.293C91.3419 111.882 90.2871 109.797 89.5426 108.286C89.1856 107.568 88.8865 106.967 88.6523 106.496C88.4459 106.072 88.3393 105.832 88.3564 105.823C88.3736 105.814 88.5124 106.036 88.7482 106.445C88.9835 106.855 89.3185 107.451 89.7178 108.195C90.5084 109.687 91.5955 111.764 92.4809 114.2C92.8208 115.149 93.093 116.087 93.2613 116.969L93.0561 116.884C93.8059 116.359 94.3569 115.669 94.9272 115.122C95.2065 114.842 95.505 114.605 95.8084 114.423C96.115 114.24 96.4463 114.156 96.747 114.141C97.3639 114.126 97.7723 114.423 98.0355 114.578C98.2874 114.772 98.4171 114.88 98.4075 114.892Z" fill="#263238"/>
<path d="M101.78 116.257C101.808 116.258 101.828 116.49 101.686 116.843C101.55 117.188 101.216 117.652 100.643 117.904L100.45 117.989L100.454 117.771C100.457 117.614 100.46 117.451 100.447 117.285C100.374 115.92 99.7137 114.961 99.7882 114.922C99.8161 114.902 100.019 115.11 100.241 115.521C100.461 115.929 100.684 116.551 100.726 117.268C100.739 117.444 100.734 117.618 100.727 117.785L100.538 117.652C101.035 117.448 101.361 117.062 101.527 116.765C101.697 116.465 101.741 116.25 101.78 116.257Z" fill="#263238"/>
<path d="M98.4074 116.995C98.417 116.997 98.4117 117.088 98.3929 117.26C98.3672 117.463 98.3356 117.712 98.2975 118.011C98.2091 118.662 98.0681 119.603 97.8789 120.763C97.501 123.083 96.9275 126.283 96.101 129.777C95.2712 133.272 94.307 136.383 93.4842 138.588C93.0758 139.691 92.7204 140.575 92.4503 141.175C92.3259 141.45 92.2225 141.678 92.1378 141.866C92.0633 142.022 92.0204 142.103 92.0113 142.099C92.0022 142.095 92.0284 142.007 92.0858 141.844C92.1571 141.652 92.2445 141.418 92.3495 141.135C92.588 140.524 92.9145 139.631 93.2982 138.523C94.0706 136.307 95.0011 133.199 95.8292 129.713C96.6536 126.228 97.2571 123.039 97.6843 120.73C97.8917 119.607 98.0627 118.682 98.1903 117.993C98.2487 117.698 98.2975 117.453 98.3377 117.251C98.3736 117.082 98.3977 116.993 98.4074 116.995Z" fill="#263238"/>
<g opacity="0.3">
<path d="M98.8212 117.238C97.9395 118.018 97.4201 119.135 96.5812 119.962C94.5841 121.93 91.3327 121.792 88.6334 121.032C85.9336 120.273 83.2745 119.018 80.476 119.195C77.2788 119.397 74.5281 121.424 71.9831 123.369C70.6764 124.368 69.1477 125.234 67.8409 126.233L66.5551 131.503C68.7226 132.027 71.1223 130.532 72.6692 128.926C74.2161 127.32 75.5046 125.386 77.4434 124.285C79.3338 123.212 81.6177 123.072 83.7821 123.277C85.9459 123.482 88.0728 124.005 90.2409 124.158C92.409 124.312 94.6993 124.059 96.5083 122.854C98.3173 121.648 99.4858 119.307 98.8212 117.238Z" fill="black"/>
</g>
<path d="M97.5751 116.181C97.8168 117.119 96.9437 117.606 96.1139 118.105C95.2842 118.603 93.993 118.529 93.0277 118.461C88.38 118.136 84.5948 114.481 79.9503 114.109C76.7193 113.851 73.2916 115.393 70.5328 117.096C67.7746 118.798 65.4028 121.057 62.7356 122.898C56.3594 127.301 54.9261 126.622 48.5702 127.857L46.527 132.614L51.8972 133.945C51.8972 133.945 64.7017 130.597 68.7538 126.461C72.8826 122.247 75.2121 118.518 78.196 117.771C84.5733 116.175 91.4427 121.586 95.2531 120.808C98.8915 120.065 99.8617 116.994 99.8617 116.994L97.5751 116.181Z" fill="#407BFF"/>
<g opacity="0.3">
<path d="M55.0477 151.917L52.6421 152.717L60.1493 160.512L66.0062 157.206L62.2649 158.855L55.0477 151.917Z" fill="black"/>
</g>
<g opacity="0.3">
<path d="M86.7361 147.64C81.3214 150.393 75.1038 150.987 69.0551 151.535C74.2023 152.717 81.5112 151.707 86.7361 147.64Z" fill="black"/>
</g>
<path d="M102.172 100.25C101.92 100.082 101.664 99.9125 101.376 99.8193C101.088 99.726 100.759 99.7174 100.495 99.8643C100.131 100.067 99.7876 100.603 99.7876 101.13C100.384 101.96 100.927 101.99 101.84 101.956C101.962 101.482 102.26 100.822 102.258 100.334" fill="#EB996E"/>
<path d="M101.901 102.044C101.91 102.072 101.578 102.192 101.037 102.083C100.771 102.026 100.459 101.906 100.164 101.69C100.02 101.582 99.8643 101.461 99.749 101.267C99.6247 101.076 99.6225 100.793 99.712 100.589C99.8846 100.184 100.176 99.8696 100.532 99.7115C100.894 99.5555 101.261 99.6128 101.514 99.7163C102.031 99.9398 102.204 100.259 102.18 100.272C102.149 100.309 101.922 100.052 101.449 99.9028C101.216 99.8337 100.916 99.8117 100.639 99.9457C100.365 100.076 100.111 100.362 99.9725 100.69C99.8198 101.015 100.053 101.281 100.319 101.485C100.575 101.689 100.848 101.815 101.086 101.891C101.569 102.04 101.898 101.998 101.901 102.044Z" fill="#263238"/>
<path d="M102.15 138.206C102.151 138.202 102.22 138.21 102.354 138.232C102.501 138.257 102.698 138.29 102.948 138.333C103.484 138.43 104.249 138.568 105.226 138.745C107.221 139.102 110.08 139.615 113.607 140.247C115.378 140.545 117.319 140.894 119.412 141.137C120.456 141.241 121.554 141.366 122.644 141.195C123.74 141.03 124.728 140.395 125.739 139.783C126.756 139.176 127.716 138.44 128.696 137.675C129.675 136.91 130.653 136.101 131.649 135.278C133.635 133.623 135.668 131.882 137.735 130.081C138.2 129.674 138.661 129.27 139.119 128.869L139.116 129.076C136.697 126.81 134.358 124.618 132.142 122.542L132.309 122.555C128.594 125.106 125.176 127.453 122.183 129.509L122.123 129.55L122.061 129.511C117.916 126.937 114.51 124.82 112.126 123.339C110.955 122.602 110.035 122.025 109.394 121.622C109.093 121.428 108.857 121.276 108.684 121.165C108.524 121.06 108.447 120.999 108.447 120.999C108.447 120.999 108.536 121.041 108.701 121.136C108.878 121.24 109.12 121.383 109.429 121.565C110.078 121.956 111.008 122.517 112.193 123.231C114.589 124.693 118.012 126.781 122.178 129.322L122.056 129.325C125.042 127.259 128.451 124.899 132.157 122.335L132.245 122.274L132.324 122.347C134.542 124.421 136.884 126.609 139.305 128.872L139.418 128.977L139.302 129.078C138.844 129.48 138.382 129.885 137.918 130.291C135.849 132.093 133.813 133.834 131.823 135.488C130.824 136.311 129.843 137.119 128.859 137.884C127.878 138.647 126.898 139.393 125.871 140.003C124.862 140.608 123.842 141.265 122.682 141.437C121.539 141.611 120.435 141.475 119.384 141.367C117.278 141.112 115.342 140.751 113.571 140.442C110.032 139.803 107.176 139.244 105.204 138.852C104.231 138.653 103.469 138.498 102.935 138.389C102.687 138.335 102.492 138.292 102.347 138.26C102.216 138.23 102.149 138.211 102.15 138.206Z" fill="#263238"/>
</svg>
