<svg width="233" height="225" viewBox="0 0 233 225" fill="none" xmlns="http://www.w3.org/2000/svg">
<g clip-path="url(#clip0_778_6142)">
<path d="M266.038 188.169H-34.9619V188.319H266.038V188.169Z" fill="#EBEBEB"/>
<path d="M235.878 197.833H215.939V197.983H235.878V197.833Z" fill="#EBEBEB"/>
<path d="M164.432 199.463H159.199V199.613H164.432V199.463Z" fill="#EBEBEB"/>
<path d="M215.336 192.258H203.783V192.408H215.336V192.258Z" fill="#EBEBEB"/>
<path d="M22.6206 193.267H-3.38159V193.417H22.6206V193.267Z" fill="#EBEBEB"/>
<path d="M31.7932 193.267H27.9807V193.417H31.7932V193.267Z" fill="#EBEBEB"/>
<path d="M100.577 195.802H44.1836V195.952H100.577V195.802Z" fill="#EBEBEB"/>
<path d="M107.721 161.392H-8.52497C-10.4195 161.392 -11.9612 159.854 -11.9612 157.965V-5.00453C-11.9612 -6.894 -10.4195 -8.43164 -8.52497 -8.43164H107.721C109.615 -8.43164 111.156 -6.894 111.156 -5.00453V157.965C111.156 159.854 109.615 161.392 107.721 161.392ZM-8.52497 -8.28094C-10.337 -8.28094 -11.8107 -6.81115 -11.8107 -5.00393V157.965C-11.8107 159.773 -10.337 161.242 -8.52497 161.242H107.721C109.532 161.242 111.006 159.773 111.006 157.965V-5.00453C111.006 -6.81115 109.532 -8.28154 107.721 -8.28154L-8.52497 -8.28094Z" fill="#EBEBEB"/>
<path d="M237.931 161.392H121.686C119.791 161.392 118.25 159.854 118.25 157.965V-5.00453C118.25 -6.894 119.792 -8.43164 121.686 -8.43164H237.931C239.826 -8.43164 241.367 -6.894 241.367 -5.00453V157.965C241.367 159.854 239.826 161.392 237.931 161.392ZM121.686 -8.28094C119.874 -8.28094 118.4 -6.81115 118.4 -5.00393V157.965C118.4 159.773 119.874 161.242 121.686 161.242H237.931C239.743 161.242 241.216 159.773 241.216 157.965V-5.00453C241.216 -6.81115 239.743 -8.28154 237.931 -8.28154L121.686 -8.28094Z" fill="#EBEBEB"/>
<path d="M101.891 53.9313V67.6002L108.948 68.2636C109.9 72.8453 111.721 77.1052 114.211 80.8896L109.678 86.3503L119.37 96.0168L124.845 91.4951C128.639 93.979 132.911 95.7952 137.505 96.7451L138.17 103.784H151.875L152.54 96.7445C157.134 95.794 161.407 93.979 165.2 91.4951L170.676 96.0168L180.368 86.3503L175.835 80.889C178.325 77.1052 180.145 72.8453 181.098 68.2636L188.156 67.6002V53.9313L181.098 53.2679C180.145 48.6856 178.325 44.4251 175.835 40.6414L180.368 35.1801L170.676 25.5135L165.2 30.034C161.407 27.5519 157.134 25.7357 152.54 24.7852L151.875 17.7461H138.17L137.505 24.7852C132.911 25.7351 128.639 27.5513 124.845 30.034L119.37 25.5135L109.678 35.1801L114.211 40.6408C111.721 44.4245 109.9 48.685 108.948 53.2673L101.891 53.9313ZM145.023 42.2601C155.271 42.2601 163.578 50.5451 163.578 60.7658C163.578 70.9859 155.271 79.2709 145.023 79.2709C134.775 79.2709 126.468 70.9853 126.468 60.7658C126.468 50.5451 134.775 42.2601 145.023 42.2601Z" fill="#E0E0E0"/>
<path d="M78.7349 115.101L82.669 118.351L89.6323 111.405L86.3755 107.482C88.164 104.763 89.4728 101.701 90.1567 98.4096L95.2273 97.9335V88.112L90.1567 87.6353C89.4722 84.3427 88.164 81.2824 86.3749 78.5638L89.6317 74.6395L82.6684 67.6941L78.7343 70.9422C76.0078 69.159 72.9389 67.8544 69.6375 67.1705L69.1601 62.1133L59.312 62.1145L58.8352 67.1705C55.5338 67.8532 52.4642 69.159 49.7384 70.9422L45.8043 67.6941L38.841 74.6395L42.0984 78.5638C40.3092 81.2812 39.0011 84.3427 38.316 87.6353L33.2466 88.112V97.9335L38.316 98.4096C39.0011 101.701 40.3086 104.762 42.0984 107.482L38.841 111.405L45.8043 118.351L49.7384 115.101C52.4642 116.885 55.5332 118.191 58.8352 118.874L59.312 123.93H69.1601L69.6375 118.873C72.9395 118.191 76.0084 116.885 78.7349 115.101ZM50.9056 93.0222C50.9056 85.6792 56.8739 79.7268 64.2369 79.7268C71.5988 79.7268 77.5682 85.6792 77.5682 93.0222C77.5682 100.365 71.5994 106.318 64.2369 106.318C56.8739 106.318 50.9056 100.365 50.9056 93.0222Z" fill="#E0E0E0"/>
<path d="M122.501 181.63C126.431 180.818 130.085 179.263 133.331 177.14L138.014 181.007L146.305 172.739L142.427 168.066C144.557 164.83 146.115 161.186 146.929 157.266L152.966 156.699V145.005L146.929 144.438C146.115 140.518 144.556 136.875 142.427 133.638L146.305 128.966L138.014 120.698L133.331 124.565C130.085 122.441 126.431 120.888 122.501 120.075L121.932 114.054H110.207L109.639 120.075C105.709 120.888 102.056 122.441 98.8102 124.565L94.1261 120.698L85.8353 128.966L89.7122 133.638C87.5829 136.875 86.0255 140.518 85.2104 144.438L79.1736 145.005V156.699L85.2104 157.266C86.0255 161.186 87.5829 164.83 89.7122 168.067L85.8353 172.739L94.1261 181.007L98.8102 177.14C102.056 179.263 105.709 180.818 109.639 181.63L110.207 187.651H121.932L122.501 181.63ZM100.198 150.851C100.198 142.109 107.304 135.022 116.07 135.022C124.836 135.022 131.943 142.109 131.943 150.851C131.943 159.594 124.836 166.681 116.07 166.681C107.304 166.681 100.198 159.594 100.198 150.851Z" fill="#E0E0E0"/>
<path d="M206.772 85.396H219.719C220.97 85.396 221.752 84.0457 221.127 82.9649L214.654 71.7818C214.028 70.7016 212.465 70.7016 211.839 71.7818L205.366 82.9649C204.74 84.0457 205.522 85.396 206.772 85.396ZM214.117 74.8336L213.831 80.4048H212.65L212.351 74.8336H214.117ZM212.291 82.3207C212.291 81.8091 212.685 81.4039 213.234 81.4039C213.795 81.4039 214.201 81.8091 214.201 82.3207C214.201 82.8322 213.795 83.2495 213.234 83.2495C212.685 83.2495 212.291 82.8322 212.291 82.3207Z" fill="#F0F0F0"/>
<path d="M17.3807 34.9634H30.328C31.5789 34.9634 32.3603 33.613 31.7354 32.5323L25.2621 21.3492C24.6366 20.269 23.0733 20.269 22.4478 21.3492L15.9739 32.5329C15.3484 33.613 16.1298 34.9634 17.3807 34.9634ZM24.7251 24.401L24.4386 29.9722H23.2575L22.9589 24.401H24.7251ZM22.8999 31.8881C22.8999 31.3765 23.2936 30.9713 23.8426 30.9713C24.4037 30.9713 24.8094 31.3765 24.8094 31.8881C24.8094 32.3996 24.4037 32.8163 23.8426 32.8163C23.293 32.8163 22.8999 32.3996 22.8999 31.8881Z" fill="#F0F0F0"/>
<path d="M52.1156 172.551H65.0628C66.3138 172.551 67.0952 171.201 66.4703 170.12L59.997 158.937C59.3715 157.857 57.8081 157.857 57.1826 158.937L50.7093 170.12C50.0832 171.201 50.8646 172.551 52.1156 172.551ZM59.46 161.988L59.1734 167.559H57.9923L57.6937 161.988H59.46ZM57.6341 169.475C57.6341 168.964 58.0278 168.559 58.5769 168.559C59.1379 168.559 59.5437 168.964 59.5437 169.475C59.5437 169.987 59.1379 170.404 58.5769 170.404C58.0278 170.404 57.6341 169.988 57.6341 169.475Z" fill="#F0F0F0"/>
<path d="M173.335 156.371H186.282C187.533 156.371 188.314 155.02 187.689 153.94L181.216 142.756C180.591 141.676 179.027 141.676 178.402 142.756L171.928 153.94C171.302 155.02 172.084 156.371 173.335 156.371ZM180.68 145.808L180.393 151.379H179.212L178.913 145.808H180.68ZM178.854 153.295C178.854 152.784 179.248 152.378 179.796 152.378C180.357 152.378 180.763 152.784 180.763 153.295C180.763 153.807 180.357 154.224 179.796 154.224C179.247 154.224 178.854 153.807 178.854 153.295Z" fill="#F0F0F0"/>
<path d="M182.645 14.8895H189.815C190.508 14.8895 190.941 14.1414 190.594 13.5434L187.009 7.35085C186.663 6.75284 185.797 6.75284 185.451 7.35085L181.866 13.5434C181.52 14.1414 181.953 14.8895 182.645 14.8895ZM186.712 9.04039L186.554 12.1253H185.899L185.734 9.04039H186.712ZM185.701 13.1862C185.701 12.9028 185.919 12.6782 186.223 12.6782C186.534 12.6782 186.758 12.9028 186.758 13.1862C186.758 13.4696 186.534 13.7001 186.223 13.7001C185.919 13.7007 185.701 13.4696 185.701 13.1862Z" fill="#F0F0F0"/>
<path d="M3.83399 109.578H11.0038C11.6967 109.578 12.1295 108.83 11.7834 108.232L8.19849 102.039C7.85173 101.441 6.98606 101.441 6.63991 102.039L3.055 108.232C2.70825 108.831 3.14108 109.578 3.83399 109.578ZM7.9011 103.729L7.74217 106.814H7.0878L6.92224 103.729H7.9011ZM6.89034 107.875C6.89034 107.592 7.10826 107.367 7.41227 107.367C7.72291 107.367 7.94745 107.592 7.94745 107.875C7.94745 108.159 7.72291 108.389 7.41227 108.389C7.10826 108.389 6.89034 108.159 6.89034 107.875Z" fill="#F0F0F0"/>
<path d="M141.111 63.8177H148.28C148.973 63.8177 149.406 63.0696 149.06 62.4716L145.475 56.279C145.128 55.6804 144.263 55.6804 143.917 56.279L140.332 62.4716C139.985 63.0696 140.418 63.8177 141.111 63.8177ZM145.178 57.9686L145.019 61.0535H144.364L144.199 57.9686H145.178ZM144.166 62.1144C144.166 61.831 144.384 61.6064 144.688 61.6064C144.999 61.6064 145.223 61.831 145.223 62.1144C145.223 62.3978 144.999 62.6283 144.688 62.6283C144.384 62.6283 144.166 62.3978 144.166 62.1144Z" fill="#F0F0F0"/>
<path d="M82.4593 11.6084H63.8352V23.8855H82.4593V11.6084Z" fill="#E0E0E0"/>
<path d="M82.4996 11.6084H63.8352V13.6234H82.4996V11.6084Z" fill="#F0F0F0"/>
<path d="M41.7564 57.1387H23.1323V69.4158H41.7564V57.1387Z" fill="#E0E0E0"/>
<path d="M41.7967 57.1387H23.1323V59.1536H41.7967V57.1387Z" fill="#F0F0F0"/>
<path d="M39.1785 144.53H20.5544V156.807H39.1785V144.53Z" fill="#E0E0E0"/>
<path d="M39.2188 144.53H20.5544V146.545H39.2188V144.53Z" fill="#F0F0F0"/>
<path d="M182.587 112.89H163.963V125.167H182.587V112.89Z" fill="#E0E0E0"/>
<path d="M182.628 112.89H163.963V114.905H182.628V112.89Z" fill="#F0F0F0"/>
<path d="M223.409 128.819H204.785V141.096H223.409V128.819Z" fill="#E0E0E0"/>
<path d="M223.45 128.819H204.785V130.834H223.45V128.819Z" fill="#F0F0F0"/>
<path d="M216.559 37.0869H197.935V49.364H216.559V37.0869Z" fill="#E0E0E0"/>
<path d="M216.599 37.0869H197.935V39.1019H216.599V37.0869Z" fill="#F0F0F0"/>
<path d="M115.538 215.284C180.001 215.284 232.259 212.241 232.259 208.486C232.259 204.731 180.001 201.688 115.538 201.688C51.0747 201.688 -1.18311 204.731 -1.18311 208.486C-1.18311 212.241 51.0747 215.284 115.538 215.284Z" fill="#F5F5F5"/>
<path d="M93.5561 30.2734H76.2618C73.3204 30.2734 70.9365 32.6516 70.9365 35.5846V50.596C70.9365 53.529 73.3211 55.9072 76.2618 55.9072H79.5042L78.2833 60.6468L83.0861 55.9072H93.5567C96.4974 55.9072 98.882 53.5296 98.882 50.596V35.5846C98.8814 32.6516 96.4968 30.2734 93.5561 30.2734Z" fill="#DC1010"/>
<path opacity="0.7" d="M93.5561 30.2734H76.2618C73.3204 30.2734 70.9365 32.6516 70.9365 35.5846V50.596C70.9365 53.529 73.3211 55.9072 76.2618 55.9072H79.5042L78.2833 60.6468L83.0861 55.9072H93.5567C96.4974 55.9072 98.882 53.5296 98.882 50.596V35.5846C98.8814 32.6516 96.4968 30.2734 93.5561 30.2734Z" fill="white"/>
<path opacity="0.4" d="M92.1243 40.4932V45.9688C92.1243 46.8654 91.6427 47.698 90.8641 48.1544L86.0962 50.9002C85.3177 51.3485 84.3544 51.3485 83.5678 50.9002L78.8 48.1544C78.0214 47.7061 77.5398 46.8735 77.5398 45.9688V40.4932C77.5398 39.5966 78.0214 38.764 78.8 38.3077L83.5678 35.5618C84.3464 35.1135 85.3096 35.1135 86.0962 35.5618L90.8641 38.3077C91.6427 38.764 92.1243 39.5886 92.1243 40.4932Z" fill="#DC1010"/>
<path d="M84.8361 44.6312C84.507 44.6312 84.2341 44.359 84.2341 44.0308V39.8279C84.2341 39.4997 84.507 39.2275 84.8361 39.2275C85.1652 39.2275 85.4381 39.4997 85.4381 39.8279V44.0308C85.4381 44.359 85.1652 44.6312 84.8361 44.6312Z" fill="#DC1010"/>
<path d="M84.8361 47.4332C84.7318 47.4332 84.6274 47.4092 84.5311 47.3691C84.4268 47.3291 84.3465 47.2731 84.2662 47.2011C84.194 47.121 84.1378 47.0329 84.0896 46.9369C84.0495 46.8408 84.0334 46.7367 84.0334 46.6327C84.0334 46.4245 84.1137 46.2164 84.2662 46.0643C84.3465 45.9922 84.4268 45.9362 84.5311 45.8962C84.8281 45.7681 85.1813 45.8401 85.406 46.0643C85.4783 46.1443 85.5344 46.2244 85.5746 46.3284C85.6147 46.4245 85.6388 46.5286 85.6388 46.6327C85.6388 46.7367 85.6147 46.8408 85.5746 46.9369C85.5344 47.0329 85.4783 47.121 85.406 47.2011C85.2535 47.3532 85.0528 47.4332 84.8361 47.4332Z" fill="#DC1010"/>
<path d="M63.3472 205.508L67.5359 205.438L68.5755 195.784L64.3862 195.854L63.3472 205.508Z" fill="#E4897B"/>
<path opacity="0.2" d="M68.5743 195.786L68.0392 200.762L63.8486 200.833L64.3832 195.856L68.5743 195.786Z" fill="black"/>
<path d="M73.1678 160.942C73.1792 174.168 69.4456 199.304 69.4456 199.304L62.4365 200.389C62.4365 200.389 61.755 176.939 61.4914 163.957C61.451 162.043 56.1089 152.814 50.6054 143.796C47.7712 139.147 44.8906 134.55 42.6686 131.038C40.2865 127.274 38.6599 124.755 38.6599 124.755L55.295 118.547C55.295 118.547 73.1563 148.223 73.1678 160.942Z" fill="#407BFF"/>
<path d="M70.4231 199.71L61.9855 200.246L61.8374 197.537L71.104 196.809L70.4231 199.71Z" fill="#263238"/>
<path d="M67.7407 204.854C67.7365 204.813 67.7594 204.772 67.7973 204.754C67.9918 204.663 69.7081 203.865 70.2071 204.168C70.3028 204.225 70.3558 204.318 70.36 204.435C70.3667 204.632 70.2974 204.791 70.1541 204.908C69.6786 205.297 68.4848 205.095 67.816 204.939C67.8118 204.938 67.8075 204.937 67.8033 204.935C67.769 204.922 67.7443 204.891 67.7407 204.854ZM68.1531 204.81C69.0712 204.993 69.7622 204.975 70.0289 204.757C70.1228 204.68 70.1662 204.578 70.1614 204.444C70.1596 204.392 70.1421 204.36 70.103 204.336C70.0921 204.33 70.0807 204.324 70.0675 204.32C69.7568 204.201 68.8297 204.517 68.1531 204.81Z" fill="#407BFF"/>
<path d="M67.7787 204.921C67.751 204.9 67.7366 204.866 67.7414 204.831C67.748 204.783 67.9069 203.667 68.4578 203.25C68.6257 203.123 68.8136 203.072 69.0146 203.099C69.2861 203.136 69.359 203.275 69.3728 203.386C69.43 203.858 68.3916 204.725 67.8768 204.933C67.8528 204.943 67.8269 204.943 67.8034 204.934C67.7944 204.932 67.7859 204.927 67.7787 204.921ZM68.9863 203.294C68.837 203.275 68.7034 203.311 68.577 203.407C68.2158 203.68 68.0382 204.345 67.9714 204.67C68.4999 204.379 69.2097 203.695 69.1754 203.411C69.173 203.394 69.1675 203.349 69.0869 203.318C69.0616 203.308 69.0291 203.3 68.9863 203.294Z" fill="#407BFF"/>
<path d="M67.415 204.347L62.8422 204.2C62.6713 204.195 62.5178 204.308 62.4738 204.473L61.4938 208.141C61.392 208.521 61.6702 208.894 62.0657 208.9C63.7164 208.926 66.1045 208.906 68.1778 208.973C70.602 209.051 72.1444 208.941 74.9876 209.032C76.7069 209.087 77.2553 207.377 76.542 207.198C73.2954 206.381 71.1697 206.528 68.4107 204.704C68.1103 204.505 67.7762 204.359 67.415 204.347Z" fill="#263238"/>
<path opacity="0.2" d="M50.606 143.797C47.7717 139.148 44.8912 134.55 42.6692 131.038C44.0664 129.21 45.7328 128.011 45.7328 128.011C45.7328 128.011 50.5885 136.463 50.606 143.797Z" fill="black"/>
<path d="M16.0891 205.004L20.1327 206.1L23.8266 197.117L19.7836 196.021L16.0891 205.004Z" fill="#E4897B"/>
<path opacity="0.2" d="M23.8247 197.12L21.9212 201.751L17.877 200.654L19.7805 196.023L23.8247 197.12Z" fill="black"/>
<path d="M55.718 114.96L55.3785 120.765L45.289 128.797C45.289 128.797 44.5973 155.815 41.7276 161.733C38.8578 167.651 25.0486 198.659 25.0486 198.659L17.4971 196.355C17.4971 196.355 29.4949 159.907 30.7031 157.754C31.9114 155.601 25.5572 124.171 34.0695 109.312L55.718 114.96Z" fill="#407BFF"/>
<path d="M68.1614 89.0557C68.5888 91.7611 68.9458 94.4623 69.2594 97.1809C69.5628 99.9026 69.8397 102.617 70.0245 105.395L70.1359 107.196C70.1787 107.611 70.2864 108.046 70.4544 108.493C70.7927 109.383 71.3803 110.32 72.1328 111.207C72.8762 112.103 73.7762 112.952 74.7418 113.761C75.23 114.157 75.7243 114.563 76.242 114.942C76.7501 115.313 77.3148 115.694 77.794 116.017L76.5629 118.897C75.7941 118.669 75.1458 118.425 74.4595 118.138C73.7858 117.853 73.1122 117.553 72.4621 117.2C71.1539 116.506 69.8855 115.679 68.6959 114.652C67.5142 113.626 66.3897 112.39 65.5541 110.818C65.1369 110.037 64.7811 109.178 64.5825 108.252C64.5217 108.025 64.494 107.787 64.4518 107.554L64.3663 106.978L64.2273 106L63.0082 98.0029C62.6067 95.3239 62.2244 92.6323 61.8867 89.9473L68.1614 89.0557Z" fill="#DC897C"/>
<path d="M59.4042 81.6469C57.0588 84.8885 61.0802 97.2827 61.0802 97.2827L70.3666 95.027C70.3666 95.027 69.9205 89.2517 68.256 84.395C66.5475 79.4092 61.9778 78.0895 59.4042 81.6469Z" fill="#407BFF"/>
<path opacity="0.7" d="M59.4042 81.6469C57.0588 84.8885 61.0802 97.2827 61.0802 97.2827L70.3666 95.027C70.3666 95.027 69.9205 89.2517 68.256 84.395C66.5475 79.4092 61.9778 78.0895 59.4042 81.6469Z" fill="white"/>
<path opacity="0.2" d="M62.5598 88.2744C64.1786 89.8115 65.1063 93.7718 64.5187 96.4466L61.0789 97.2817C61.0789 97.2817 59.533 92.5211 58.9177 88.1298C59.8201 87.4105 60.7057 86.5141 62.5598 88.2744Z" fill="black"/>
<path d="M42.3375 74.0303C42.0389 78.7915 41.2719 83.4849 40.3292 87.8282C39.6375 91.0049 38.8452 93.9926 38.062 96.68C36.2284 102.979 34.4428 107.652 34.0696 109.313C37.2421 110.142 49.1978 113.262 55.7181 114.961C66.4229 93.5333 64.9582 80.1448 64.9582 80.1448C64.9582 80.1448 62.7802 78.8936 60.1157 77.8212C59.766 77.6777 59.4054 77.5426 59.0381 77.4112C56.6614 76.5556 52.6347 75.5991 49.8342 75.0095C49.2454 74.8858 48.6446 74.776 48.0577 74.6781C45.0675 74.1828 42.3375 74.0303 42.3375 74.0303Z" fill="#407BFF"/>
<path opacity="0.7" d="M42.3375 74.0303C42.0389 78.7915 41.2719 83.4849 40.3292 87.8282C39.6375 91.0049 38.8452 93.9926 38.062 96.68C36.2284 102.979 34.4428 107.652 34.0696 109.313C37.2421 110.142 49.1978 113.262 55.7181 114.961C66.4229 93.5333 64.9582 80.1448 64.9582 80.1448C64.9582 80.1448 62.7802 78.8936 60.1157 77.8212C59.766 77.6777 59.4054 77.5426 59.0381 77.4112C56.6614 76.5556 52.6347 75.5991 49.8342 75.0095C49.2454 74.8858 48.6446 74.776 48.0577 74.6781C45.0675 74.1828 42.3375 74.0303 42.3375 74.0303Z" fill="white"/>
<path d="M57.6222 78.8223C56.5061 76.8458 57.739 75.14 59.2289 73.7153L56.907 66.46C55.7903 69.3533 53.3179 74.3937 50.4084 74.9953C50.6854 76.261 51.2242 77.5897 52.203 78.8223H57.6222Z" fill="#E4897B"/>
<path opacity="0.2" d="M57.8534 69.4189L59.229 73.7112C58.8082 74.1111 58.4103 74.5344 58.081 74.9811C57.0708 74.1405 56.3063 71.9977 56.9143 70.7747C57.2177 70.1646 57.5904 69.6279 57.8534 69.4189Z" fill="black"/>
<path d="M71.8934 66.821C71.7802 67.3746 66.8516 66.1984 66.0853 65.1303C65.319 64.0622 67.8112 63.4732 69.3638 64.2741C70.9163 65.0751 71.8934 66.821 71.8934 66.821Z" fill="#407BFF"/>
<path opacity="0.3" d="M71.8934 66.821C71.7802 67.3746 66.8516 66.1984 66.0853 65.1303C65.319 64.0622 67.8112 63.4732 69.3638 64.2741C70.9163 65.0751 71.8934 66.821 71.8934 66.821Z" fill="black"/>
<path d="M69.5919 64.0371C69.5745 65.7194 68.2856 68.7689 66.4814 67.0541C64.6772 65.34 69.622 61.1449 69.5919 64.0371Z" fill="#263238"/>
<path d="M66.9086 71.1326C66.5938 71.6639 66.2615 72.149 65.9177 72.5777C63.4327 75.6962 58.4734 75.5419 56.624 72.041C56.4982 71.8122 56.3893 71.5727 56.2977 71.3157C55.29 68.534 56.3778 66.3581 57.8955 62.5149C59.4131 58.6711 64.435 57.5178 67.3842 60.6357C69.9553 63.3483 68.7929 67.9804 66.9086 71.1326Z" fill="#E4897B"/>
<path d="M60.6986 55.8555C60.6986 55.8555 59.618 56.1028 58.414 57.2076C56.1763 59.261 54.5461 62.3393 57.3809 65.441C59.4338 64.6706 60.4457 61.8409 60.6986 61.0286V55.8555Z" fill="#263238"/>
<path d="M54.9897 64.9568C54.8392 66.0586 55.2173 67.1237 55.7886 67.8382C56.6482 68.9123 57.8938 68.3407 58.3386 67.1135C58.739 66.0087 58.7739 64.1193 57.5825 63.4876C56.4086 62.865 55.1619 63.6972 54.9897 64.9568Z" fill="#E4897B"/>
<path d="M63.1275 66.152C62.9848 66.4564 63.0324 66.777 63.2334 66.8683C63.4345 66.9595 63.7126 66.786 63.8547 66.4816C63.9974 66.1772 63.9498 65.8566 63.7487 65.7653C63.5483 65.6747 63.2701 65.8476 63.1275 66.152Z" fill="#263238"/>
<path d="M66.6006 67.7262C66.4585 68.0306 66.5055 68.3512 66.7066 68.4425C66.9076 68.5337 67.1857 68.3602 67.3278 68.0558C67.4705 67.7514 67.4229 67.4308 67.2219 67.3395C67.0214 67.2489 66.7433 67.4218 66.6006 67.7262Z" fill="#263238"/>
<path d="M65.4253 67.377C65.4253 67.377 65.3501 69.3931 65.7426 70.5657C64.984 70.7987 64.1677 70.149 64.1677 70.149L65.4253 67.377Z" fill="#DE5753"/>
<path d="M61.9771 70.5692C62.0951 70.6431 62.2239 70.7127 62.3648 70.7764C62.4147 70.7992 62.4737 70.777 62.4966 70.7277C62.5201 70.6779 62.4972 70.6196 62.4484 70.5974C61.0994 69.9844 60.9073 68.7674 60.9049 68.7548C60.8971 68.7014 60.8465 68.6641 60.7923 68.6719C60.7382 68.6803 60.7002 68.7302 60.7081 68.7842C60.7153 68.8334 60.8814 69.8836 61.9771 70.5692Z" fill="#263238"/>
<path d="M62.5767 64.555C62.6351 64.5916 62.7115 64.597 62.7771 64.5616C63.5603 64.1455 64.2057 64.4847 64.2123 64.4883C64.3086 64.5406 64.4296 64.5051 64.4826 64.4097C64.5356 64.3142 64.5001 64.1947 64.4044 64.1431C64.3706 64.1245 63.5616 63.6994 62.5899 64.2157C62.493 64.2674 62.4563 64.3863 62.5075 64.4823C62.5249 64.5129 62.549 64.5376 62.5767 64.555Z" fill="#263238"/>
<path d="M68.6504 67.2201C68.6823 67.2399 68.7202 67.2513 68.7612 67.2501C68.8707 67.2477 68.9586 67.1576 68.9562 67.0489C68.9364 65.9592 68.1628 65.4807 68.1303 65.4543C68.037 65.3972 67.9142 65.4254 67.8564 65.5179C67.7986 65.6098 67.8263 65.7305 67.9178 65.7881C67.9509 65.8067 68.5421 66.1838 68.5583 67.058C68.5601 67.1264 68.5962 67.1858 68.6504 67.2201Z" fill="#263238"/>
<path d="M69.4401 65.1299C66.6685 62.9883 63.1353 62.0114 60.3692 61.5659C57.7866 61.1492 55.874 61.2002 55.874 61.2002C55.9944 59.6524 57.981 56.1118 59.2296 55.8542C60.8899 55.5114 64.8414 55.8086 65.5114 56.0596C66.9659 56.6023 69.8633 58.6984 70.0812 59.5779C70.5333 61.423 69.4401 65.1299 69.4401 65.1299Z" fill="#407BFF"/>
<path d="M60.3674 61.5652C60.3674 61.5652 64.0402 60.7468 67.2495 61.9897C70.4588 63.2325 71.8933 66.8205 71.8933 66.8205C71.8933 66.8205 71.608 66.0838 68.9562 65.1292C66.0148 64.0707 63.5189 64.055 60.3674 61.5652Z" fill="#407BFF"/>
<path opacity="0.1" d="M65.5114 56.0611C65.5114 56.0611 62.2299 57.4721 62.0012 57.7002C61.7724 57.923 60.3692 61.5668 60.3692 61.5668C57.7866 61.1502 55.874 61.2012 55.874 61.2012C55.9944 59.6533 57.981 56.1128 59.2296 55.8552C60.8905 55.5124 64.8414 55.8096 65.5114 56.0611Z" fill="black"/>
<path opacity="0.1" d="M60.3674 61.5652C60.3674 61.5652 64.0402 60.7468 67.2495 61.9897C70.4588 63.2325 71.8933 66.8205 71.8933 66.8205C71.8933 66.8205 71.608 66.0838 68.9562 65.1292C66.0148 64.0707 63.5189 64.055 60.3674 61.5652Z" fill="black"/>
<path opacity="0.3" d="M66.9087 71.1324C66.5939 71.6638 66.2616 72.1489 65.9178 72.5776C63.4328 75.6961 58.4735 75.5418 56.6242 72.0408C56.4526 69.979 57.1684 66.6096 58.5885 64.588L59.2296 63.9023C59.2296 63.9023 58.4338 66.9578 58.6686 67.563C58.9033 68.1628 60.604 67.3919 61.3944 67.8884C62.1903 68.391 62.4882 69.4189 62.4882 69.4189L62.0012 69.7275C62.0012 69.7275 61.0447 68.2024 60.6955 68.1628C60.3403 68.1286 58.68 69.6362 58.8287 70.1616C58.9834 70.6869 58.7258 70.9499 59.2296 71.1781C59.7335 71.4062 60.9417 70.6185 60.9417 70.6185L61.6057 71.2183C61.6057 71.2183 60.5462 72.3434 60.7069 72.5716C60.8671 72.7943 61.9266 73.211 62.6827 72.9084C63.4388 72.6058 63.4099 70.9553 63.5532 70.7842C63.7019 70.6131 62.3907 70.0475 62.3907 70.0475L62.7917 69.4195C62.7917 69.4195 64.4466 70.4702 64.5098 70.7842C64.567 71.1042 64.2407 72.0462 64.5212 72.0462C64.7271 72.0462 66.0154 71.7436 66.9087 71.1324Z" fill="black"/>
<path d="M68.3739 61.3512L68.2824 61L68.5412 60.7454L69.1167 60.9033C69.0644 60.6674 68.8862 60.4668 68.6357 60.3984C68.398 60.3329 68.1553 60.4038 67.9892 60.5623C67.9645 60.5485 67.9386 60.5377 67.9103 60.5299L66.3186 60.0796C66.2904 60.0718 66.2621 60.0682 66.2338 60.0676C66.1724 59.8466 66.0002 59.6623 65.7618 59.5974C65.5114 59.529 65.2561 59.61 65.09 59.7866L65.6655 59.9445L65.757 60.2957L65.4981 60.5503L64.9226 60.3924C64.975 60.6283 65.1532 60.8289 65.4036 60.8973C65.6414 60.9628 65.884 60.8919 66.0502 60.7334C66.0748 60.7472 66.1013 60.758 66.129 60.7658L67.7207 61.2161C67.749 61.2239 67.7773 61.2275 67.8056 61.2287C67.867 61.4497 68.0392 61.634 68.2769 61.6989C68.5274 61.7673 68.7832 61.6862 68.9488 61.5097L68.3739 61.3512Z" fill="white"/>
<path d="M77.0458 115.667L81.1063 116.957L77.8699 120.392C77.8699 120.392 74.3169 119.023 75.1007 117.227L77.0458 115.667Z" fill="#E4897B"/>
<path d="M83.1578 121.423L81.94 123.613L77.8699 120.393L81.1062 116.957L83.1578 121.423Z" fill="#E4897B"/>
<path d="M42.0683 82.6806C40.2099 84.8037 38.3118 87.0011 36.5118 89.1842C35.6016 90.2728 34.7305 91.3823 33.8932 92.4793C33.069 93.5648 32.2738 94.7176 31.738 95.6896C31.6098 95.9244 31.5062 96.1477 31.452 96.2798C31.4292 96.3351 31.4111 96.3861 31.4147 96.3327C31.4123 96.3273 31.4123 96.3116 31.4141 96.2786L31.4015 96.006C31.3732 95.7316 31.3015 95.4507 31.1739 95.1847C31.1035 95.0484 31.0565 94.9571 30.9807 94.8485C30.9108 94.7464 30.8193 94.6437 30.7688 94.5861C30.7074 94.5188 30.6405 94.4552 30.5701 94.3981C30.5003 94.3423 30.4714 94.3177 30.4166 94.2799C30.301 94.2042 30.2402 94.1718 30.1818 94.143C30.1036 94.1088 30.0855 94.1009 30.0476 94.0883C30.0024 94.0757 29.997 94.0739 29.9832 94.0715C29.9362 94.0655 29.9838 94.0919 30.0717 94.11C30.2372 94.1544 30.5207 94.1934 30.8103 94.218C31.4027 94.2679 32.0763 94.2769 32.7578 94.2655C33.4423 94.2625 34.1436 94.242 34.8503 94.209C37.6791 94.0781 40.5976 93.8626 43.4908 93.6909L44.1157 96.7589C41.2683 97.713 38.416 98.4869 35.4379 99.0687C33.9353 99.3521 32.452 99.6055 30.7284 99.6727C30.2866 99.6841 29.8381 99.6925 29.2788 99.6325C29.0049 99.6025 28.6919 99.555 28.2964 99.4428C28.1952 99.4127 28.1013 99.3863 27.9731 99.3359C27.8509 99.2885 27.7461 99.25 27.5884 99.1696C27.4481 99.0993 27.3067 99.0243 27.1188 98.8922C27.0279 98.8267 26.9581 98.7799 26.8558 98.6922C26.7528 98.6028 26.6535 98.5079 26.5596 98.4083C26.4735 98.3212 26.3597 98.1783 26.264 98.0384C26.1659 97.8907 26.0834 97.7658 26.0015 97.5851C25.8378 97.2351 25.7373 96.8676 25.706 96.5008C25.6969 96.4083 25.6915 96.3158 25.6897 96.224L25.6903 96.1321L25.6951 95.955C25.6987 95.8307 25.7084 95.725 25.7198 95.629C25.7643 95.2129 25.8408 94.9091 25.9191 94.6149C26.0798 94.0493 26.2622 93.599 26.4476 93.1757C27.1917 91.521 28.0411 90.2451 28.8959 88.9453C29.7526 87.6628 30.6616 86.456 31.5736 85.2618C33.4242 82.8848 35.3271 80.6417 37.3817 78.4268L42.0683 82.6806Z" fill="#DC897C"/>
<path d="M41.057 74.0803C37.0983 74.7066 30.8862 84.8943 30.8862 84.8943L39.4822 90.4654C39.4822 90.4654 42.9214 86.2716 45.3035 81.6821C47.8993 76.6831 45.8526 73.322 41.057 74.0803Z" fill="#407BFF"/>
<path opacity="0.7" d="M41.057 74.0803C37.0983 74.7066 30.8862 84.8943 30.8862 84.8943L39.4822 90.4654C39.4822 90.4654 42.9214 86.2716 45.3035 81.6821C47.8993 76.6831 45.8526 73.322 41.057 74.0803Z" fill="white"/>
<path d="M49.8347 75.0086L51.958 73.4746L55.9071 78.7468L57.4265 76.111L59.0393 77.4109C59.0393 77.4109 60.4564 79.4426 59.0393 82.2201L55.8746 79.6372L52.4697 81.8118C52.4697 81.8118 48.8444 77.5964 49.8347 75.0086Z" fill="#407BFF"/>
<path d="M45.0453 67.2026C48.7765 71.9332 47.9572 78.7755 43.214 82.4968C38.4751 86.2151 31.6141 85.3979 27.8835 80.6673C25.2907 77.3801 24.8976 73.0716 26.4929 69.5022L32.4581 77.0655L38.2716 76.2303L40.4581 70.7889L34.4928 63.2256C38.3468 62.5201 42.4531 63.9154 45.0453 67.2026Z" fill="#407BFF"/>
<path d="M87.2154 155.893C83.4842 151.162 84.3035 144.32 89.0467 140.599C93.7856 136.88 100.647 137.697 104.377 142.428C106.97 145.715 107.363 150.024 105.768 153.593L99.8026 146.03L93.9891 146.865L91.8026 152.307L97.7679 159.87C93.9139 160.575 89.8076 159.18 87.2154 155.893Z" fill="#407BFF"/>
<g opacity="0.2">
<path d="M45.0453 67.2026C48.7765 71.9332 47.9572 78.7755 43.214 82.4968C38.4751 86.2151 31.6141 85.3979 27.8835 80.6673C25.2907 77.3801 24.8976 73.0716 26.4929 69.5022L32.4581 77.0655L38.2716 76.2303L40.4581 70.7889L34.4928 63.2256C38.3468 62.5201 42.4531 63.9154 45.0453 67.2026Z" fill="white"/>
<path d="M87.2154 155.893C83.4842 151.162 84.3035 144.32 89.0467 140.599C93.7856 136.88 100.647 137.697 104.377 142.428C106.97 145.715 107.363 150.024 105.768 153.593L99.8026 146.03L93.9891 146.865L91.8026 152.307L97.7679 159.87C93.9139 160.575 89.8076 159.18 87.2154 155.893Z" fill="white"/>
</g>
<path d="M92.7176 145.257C90.2169 147.219 86.5946 146.787 84.6273 144.293L38.5773 85.9073C36.61 83.4132 37.0428 79.8006 39.5435 77.8385C42.0442 75.8763 45.6665 76.308 47.6338 78.8021L93.6838 137.188C95.6511 139.682 95.2183 143.295 92.7176 145.257Z" fill="#407BFF"/>
<path opacity="0.2" d="M92.7176 145.257C90.2169 147.219 86.5946 146.787 84.6273 144.293L38.5773 85.9073C36.61 83.4132 37.0428 79.8006 39.5435 77.8385C42.0442 75.8763 45.6665 76.308 47.6338 78.8021L93.6838 137.188C95.6511 139.682 95.2183 143.295 92.7176 145.257Z" fill="white"/>
<path opacity="0.2" d="M90.0202 141.838C88.7355 142.846 86.8747 142.624 85.864 141.343L41.7446 85.4042C40.7338 84.123 40.956 82.2671 42.2406 81.259C43.5253 80.2509 45.3861 80.4725 46.3968 81.7538L90.5162 137.692C91.527 138.974 91.3048 140.829 90.0202 141.838Z" fill="black"/>
<path d="M42.5818 94.4529L45.7333 91.625L47.2942 96.7435C47.2942 96.7435 44.0802 98.5501 42.9376 96.9404L42.5818 94.4529Z" fill="#E4897B"/>
<path d="M49.1995 91.3818L50.2933 95.6729L47.2941 96.7435L45.7332 91.625L49.1995 91.3818Z" fill="#E4897B"/>
<path d="M24.4291 200.808L16.4604 197.991L17.3923 195.442L26.1996 198.407L24.4291 200.808Z" fill="#263238"/>
<path d="M20.7544 204.854C20.7502 204.813 20.7731 204.772 20.8116 204.754C21.006 204.663 22.7223 203.865 23.2214 204.168C23.3171 204.225 23.3701 204.318 23.3743 204.435C23.3809 204.632 23.3117 204.791 23.1684 204.908C22.6928 205.297 21.4991 205.095 20.8303 204.939C20.826 204.938 20.8218 204.937 20.8176 204.935C20.7827 204.922 20.7586 204.891 20.7544 204.854ZM21.1668 204.81C22.0848 204.993 22.7759 204.975 23.0432 204.757C23.1371 204.68 23.1805 204.578 23.1756 204.444C23.1738 204.392 23.1564 204.36 23.1173 204.336C23.1064 204.33 23.095 204.324 23.0817 204.32C22.7705 204.201 21.844 204.517 21.1668 204.81Z" fill="#407BFF"/>
<path d="M20.7924 204.921C20.7647 204.9 20.7502 204.866 20.7551 204.831C20.7617 204.783 20.9206 203.667 21.4714 203.25C21.6394 203.123 21.8272 203.072 22.0283 203.099C22.2998 203.136 22.3726 203.275 22.3865 203.386C22.4437 203.858 21.4052 204.725 20.8905 204.933C20.8664 204.943 20.8405 204.943 20.8171 204.934C20.8086 204.932 20.8002 204.927 20.7924 204.921ZM22.0006 203.294C21.8513 203.275 21.7171 203.311 21.5912 203.407C21.23 203.68 21.0531 204.345 20.9856 204.67C21.5142 204.379 22.2239 203.695 22.1896 203.411C22.1872 203.394 22.1824 203.349 22.1011 203.318C22.0753 203.308 22.0427 203.3 22.0006 203.294Z" fill="#407BFF"/>
<path d="M20.4288 204.347L15.8554 204.2C15.6845 204.195 15.531 204.308 15.487 204.473L14.507 208.141C14.4052 208.521 14.6833 208.894 15.0789 208.9C16.7295 208.926 19.1177 208.906 21.191 208.973C23.6152 209.051 25.1575 208.941 28.0008 209.032C29.7201 209.087 30.2685 207.377 29.5551 207.198C26.3086 206.381 24.1829 206.528 21.4239 204.704C21.1241 204.505 20.79 204.359 20.4288 204.347Z" fill="#263238"/>
<path d="M33.3465 109.608L39.2786 111.202L38.7465 113.372L32.4646 111.865L33.3465 109.608Z" fill="#263238"/>
<path d="M39.9487 111.379L53.95 115.143L53.6237 116.953L39.3479 113.521L39.9487 111.379Z" fill="#263238"/>
<path d="M55.9137 115.669L55.7193 117.456L54.0933 117.068L54.4593 115.28L55.9137 115.669Z" fill="#263238"/>
<path d="M45.6707 113.057L45.2957 114.813C45.2632 114.964 45.3583 115.114 45.5094 115.149L48.8041 115.922C48.96 115.959 49.116 115.86 49.1485 115.703L49.4934 114.051C49.5241 113.903 49.4344 113.757 49.2887 113.718L46.0247 112.842C45.8658 112.8 45.705 112.898 45.6707 113.057Z" fill="white"/>
<path d="M61.7213 91.1696L61.6298 90.8183L61.8886 90.5638L62.4642 90.7217C62.4118 90.4857 62.2336 90.2852 61.9832 90.2167C61.7454 90.1513 61.5028 90.2221 61.3366 90.3806C61.3119 90.3668 61.286 90.356 61.2577 90.3482L59.6661 89.8979C59.6378 89.8901 59.6095 89.8865 59.5812 89.8859C59.5198 89.665 59.3476 89.4806 59.1092 89.4158C58.8588 89.3474 58.6035 89.4284 58.4374 89.6049L59.0129 89.7628L59.1044 90.1141L58.8455 90.3686L58.27 90.2107C58.3224 90.4467 58.5006 90.6472 58.751 90.7157C58.9888 90.7811 59.2314 90.7103 59.3976 90.5518C59.4222 90.5656 59.4487 90.5764 59.4764 90.5842L61.0681 91.0345C61.0964 91.0423 61.1247 91.0459 61.153 91.0471C61.2144 91.268 61.3866 91.4524 61.6244 91.5172C61.8748 91.5857 62.1306 91.5046 62.2962 91.3281L61.7213 91.1696Z" fill="#407BFF"/>
<path d="M127.404 206.818V208.628C127.404 208.854 127.588 209.032 127.814 209.032H179.07C180.965 209.032 182.257 207.123 181.55 205.374L165.307 165.253L139.059 165.432L139.955 170.637L145.745 204.33C145.934 205.416 145.094 206.414 143.987 206.414H127.815C127.588 206.413 127.404 206.592 127.404 206.818Z" fill="#407BFF"/>
<path opacity="0.6" d="M127.404 206.818V208.628C127.404 208.854 127.588 209.032 127.814 209.032H179.07C180.965 209.032 182.257 207.123 181.55 205.374L171.479 180.503L165.308 165.253L139.06 165.432L139.956 170.637L142.473 185.29L145.745 204.33C145.934 205.416 145.094 206.414 143.987 206.414H127.815C127.588 206.413 127.404 206.592 127.404 206.818Z" fill="white"/>
<path opacity="0.2" d="M143.987 206.413H177.336C178.17 206.413 178.737 205.567 178.416 204.798L164.175 170.637H139.955L145.745 204.33C145.934 205.416 145.094 206.413 143.987 206.413Z" fill="black"/>
<path opacity="0.1" d="M139.06 165.432L139.955 170.637L142.474 185.29L171.48 180.503L165.307 165.253L139.06 165.432Z" fill="black"/>
<path d="M88.0183 90.6406H90.5936H206.961H209.537C211.254 90.6406 212.647 92.0294 212.647 93.7423V175.791C212.647 177.504 211.254 178.892 209.537 178.892H206.961H90.5942H88.0189C86.3014 178.892 84.9089 177.504 84.9089 175.791V93.7417C84.9089 92.0288 86.3008 90.6406 88.0183 90.6406Z" fill="#407BFF"/>
<path opacity="0.7" d="M88.0183 90.6406H90.5936H206.961H209.537C211.254 90.6406 212.647 92.0294 212.647 93.7423V175.791C212.647 177.504 211.254 178.892 209.537 178.892H206.961H90.5942H88.0189C86.3014 178.892 84.9089 177.504 84.9089 175.791V93.7417C84.9089 92.0288 86.3008 90.6406 88.0183 90.6406Z" fill="white"/>
<path opacity="0.2" d="M206.963 178.89H209.539C211.255 178.89 212.646 177.503 212.646 175.792V93.7435C212.646 92.0276 211.255 90.6406 209.539 90.6406H206.963C208.679 90.6406 210.07 92.0276 210.07 93.7435V175.792C210.07 177.503 208.678 178.89 206.963 178.89Z" fill="black"/>
<path d="M207.265 93.6777H87.7095V172.796H207.265V93.6777Z" fill="#263238"/>
<path d="M207.267 93.6777H87.7095V99.7484H207.267V93.6777Z" fill="#407BFF"/>
<path opacity="0.2" d="M204.469 96.9293C204.469 97.7482 203.803 98.4123 202.982 98.4123C202.161 98.4123 201.495 97.7482 201.495 96.9293C201.495 96.1103 202.161 95.4463 202.982 95.4463C203.803 95.4463 204.469 96.1103 204.469 96.9293Z" fill="black"/>
<path opacity="0.2" d="M199.561 96.9293C199.561 97.7482 198.895 98.4123 198.074 98.4123C197.253 98.4123 196.587 97.7482 196.587 96.9293C196.587 96.1103 197.253 95.4463 198.074 95.4463C198.895 95.4463 199.561 96.1103 199.561 96.9293Z" fill="black"/>
<path opacity="0.2" d="M194.653 96.9293C194.653 97.7482 193.987 98.4123 193.166 98.4123C192.345 98.4123 191.679 97.7482 191.679 96.9293C191.679 96.1103 192.345 95.4463 193.166 95.4463C193.987 95.4463 194.653 96.1103 194.653 96.9293Z" fill="black"/>
<path opacity="0.4" d="M207.265 99.7803H87.7095V120.318H207.265V99.7803Z" fill="white"/>
<path d="M90.4468 100.688L87.7095 105.584V100.688H90.4468Z" fill="#263238"/>
<path d="M105.215 100.688L94.7186 119.472H87.7095V117.171L96.9177 100.688H105.215Z" fill="#263238"/>
<path d="M109.443 119.55H101.149L111.689 100.687H119.983L109.443 119.55Z" fill="#263238"/>
<path d="M124.211 119.55H115.917L126.458 100.687H134.752L124.211 119.55Z" fill="#263238"/>
<path d="M138.98 119.55H130.686L141.226 100.687H149.52L138.98 119.55Z" fill="#263238"/>
<path d="M153.749 119.55H145.455L155.995 100.687H164.289L153.749 119.55Z" fill="#263238"/>
<path d="M168.518 119.412H160.223L170.764 100.548H179.057L168.518 119.412Z" fill="#263238"/>
<path d="M183.286 119.412H174.992L185.533 100.548H193.826L183.286 119.412Z" fill="#263238"/>
<path d="M207.265 100.626V102.927L198.057 119.41H189.759L200.256 100.626H207.265Z" fill="#263238"/>
<path d="M207.265 114.656V119.473H204.574L207.265 114.656Z" fill="#263238"/>
<path opacity="0.4" d="M207.265 152.174H87.7095V172.711H207.265V152.174Z" fill="white"/>
<path d="M90.4468 153.256L87.7095 158.11V153.256H90.4468Z" fill="#263238"/>
<path d="M105.215 153.256L94.7186 171.879H87.7095V169.598L96.9177 153.256H105.215Z" fill="#263238"/>
<path d="M109.443 171.956H101.149L111.689 153.253H119.983L109.443 171.956Z" fill="#263238"/>
<path d="M124.211 171.956H115.917L126.458 153.253H134.752L124.211 171.956Z" fill="#263238"/>
<path d="M138.98 171.956H130.686L141.226 153.253H149.52L138.98 171.956Z" fill="#263238"/>
<path d="M153.749 171.956H145.455L155.995 153.253H164.289L153.749 171.956Z" fill="#263238"/>
<path d="M168.518 171.819H160.223L170.764 153.116H179.057L168.518 171.819Z" fill="#263238"/>
<path d="M183.286 171.819H174.992L185.533 153.116H193.826L183.286 171.819Z" fill="#263238"/>
<path d="M207.265 153.193V155.475L198.057 171.817H189.759L200.256 153.193H207.265Z" fill="#263238"/>
<path d="M207.265 167.104V171.879H204.574L207.265 167.104Z" fill="#263238"/>
<path d="M122.011 143V131.364H129.716V133.392H124.472V136.165H129.205V138.193H124.472V143H122.011ZM131.923 143H129.287L133.304 131.364H136.474L140.486 143H137.849L134.935 134.023H134.844L131.923 143ZM131.759 138.426H137.986V140.347H131.759V138.426ZM144.347 131.364V143H141.886V131.364H144.347ZM146.371 143V131.364H148.831V140.972H153.82V143H146.371ZM155.449 143V131.364H163.29V133.392H157.909V136.165H162.886V138.193H157.909V140.972H163.312V143H155.449ZM169.371 143H165.246V131.364H169.405C170.575 131.364 171.583 131.597 172.428 132.062C173.272 132.525 173.922 133.189 174.376 134.057C174.835 134.924 175.064 135.962 175.064 137.17C175.064 138.383 174.835 139.424 174.376 140.295C173.922 141.167 173.268 141.835 172.416 142.301C171.568 142.767 170.553 143 169.371 143ZM167.706 140.892H169.268C169.996 140.892 170.607 140.763 171.104 140.506C171.604 140.244 171.979 139.841 172.229 139.295C172.482 138.746 172.609 138.038 172.609 137.17C172.609 136.311 172.482 135.608 172.229 135.062C171.979 134.517 171.606 134.116 171.109 133.858C170.613 133.6 170.001 133.472 169.274 133.472H167.706V140.892Z" fill="white"/>
<path opacity="0.4" d="M185.136 142.735H198.083C199.334 142.735 200.116 141.385 199.491 140.304L193.017 129.121C192.392 128.041 190.829 128.041 190.203 129.121L183.73 140.304C183.104 141.384 183.886 142.735 185.136 142.735ZM192.481 132.172L192.194 137.743H191.013L190.715 132.172H192.481ZM190.655 139.659C190.655 139.147 191.049 138.742 191.598 138.742C192.159 138.742 192.565 139.147 192.565 139.659C192.565 140.171 192.159 140.587 191.598 140.587C191.048 140.588 190.655 140.171 190.655 139.659Z" fill="white"/>
<path opacity="0.4" d="M96.8941 142.735H109.841C111.092 142.735 111.874 141.385 111.249 140.304L104.776 129.121C104.15 128.041 102.587 128.041 101.961 129.121L95.4879 140.304C94.8618 141.384 95.6432 142.735 96.8941 142.735ZM104.239 132.172L103.952 137.743H102.771L102.472 132.172H104.239ZM102.413 139.659C102.413 139.147 102.807 138.742 103.356 138.742C103.917 138.742 104.323 139.147 104.323 139.659C104.323 140.171 103.917 140.587 103.356 140.587C102.806 140.588 102.413 140.171 102.413 139.659Z" fill="white"/>
<path opacity="0.1" d="M100.171 93.6768C116.702 110.195 159.159 146.954 207.267 144.236V93.6768H100.171Z" fill="white"/>
<path opacity="0.1" d="M87.7107 124.035V172.797H159.69C156.929 162.947 151.412 149.461 140.708 139.823C121.452 122.484 99.1053 122.535 87.7107 124.035Z" fill="white"/>
<path d="M190.184 205.339L192.329 206.276C191.577 207.027 190.123 207.527 188.896 206.991C187.504 206.383 186.85 204.809 187.252 203.385C187.391 202.89 187.643 202.474 188.036 202.118L182.212 187.266C180.116 187.355 179.229 185.397 179.278 184.05L181.409 184.993C181.911 185.212 182.489 184.987 182.709 184.486C182.929 183.985 182.696 183.403 182.194 183.184L180.047 182.247C180.8 181.496 182.252 180.997 183.48 181.533C184.871 182.141 185.612 183.681 185.21 185.105C185.07 185.6 184.905 185.983 184.512 186.339L190.336 201.19C191.97 201.282 193.232 203.093 193.183 204.44L191.009 203.514C190.507 203.295 189.907 203.529 189.687 204.03C189.467 204.53 189.681 205.12 190.184 205.339Z" fill="#407BFF"/>
<path opacity="0.2" d="M190.184 205.339L192.329 206.276C191.577 207.027 190.123 207.527 188.896 206.991C187.504 206.383 186.85 204.809 187.252 203.385C187.391 202.89 187.643 202.474 188.036 202.118L182.212 187.266C180.116 187.355 179.229 185.397 179.278 184.05L181.409 184.993C181.911 185.212 182.489 184.987 182.709 184.486C182.929 183.985 182.696 183.403 182.194 183.184L180.047 182.247C180.8 181.496 182.252 180.997 183.48 181.533C184.871 182.141 185.612 183.681 185.21 185.105C185.07 185.6 184.905 185.983 184.512 186.339L190.336 201.19C191.97 201.282 193.232 203.093 193.183 204.44L191.009 203.514C190.507 203.295 189.907 203.529 189.687 204.03C189.467 204.53 189.681 205.12 190.184 205.339Z" fill="white"/>
<path d="M173.566 192.218L171.293 192.781C171.43 191.728 172.276 190.448 173.576 190.125C175.051 189.759 176.532 190.608 177.085 191.982C177.277 192.458 177.332 192.941 177.238 193.462L190.938 201.686C192.545 200.34 194.445 201.351 195.23 202.448L192.965 202.998C192.433 203.13 192.113 203.661 192.245 204.191C192.378 204.722 192.918 205.041 193.45 204.91L195.724 204.345C195.588 205.398 194.741 206.677 193.441 207C191.966 207.365 190.438 206.595 189.885 205.222C189.693 204.746 189.589 204.342 189.683 203.821L175.984 195.597C174.633 196.519 172.525 195.852 171.74 194.755L174.029 194.166C174.561 194.034 174.893 193.484 174.761 192.954C174.628 192.423 174.098 192.086 173.566 192.218Z" fill="#407BFF"/>
<path opacity="0.2" d="M173.566 192.218L171.293 192.781C171.43 191.728 172.276 190.448 173.576 190.125C175.051 189.759 176.532 190.608 177.085 191.982C177.277 192.458 177.332 192.941 177.238 193.462L190.938 201.686C192.545 200.34 194.445 201.351 195.23 202.448L192.965 202.998C192.433 203.13 192.113 203.661 192.245 204.191C192.378 204.722 192.918 205.041 193.45 204.91L195.724 204.345C195.588 205.398 194.741 206.677 193.441 207C191.966 207.365 190.438 206.595 189.885 205.222C189.693 204.746 189.589 204.342 189.683 203.821L175.984 195.597C174.633 196.519 172.525 195.852 171.74 194.755L174.029 194.166C174.561 194.034 174.893 193.484 174.761 192.954C174.628 192.423 174.098 192.086 173.566 192.218Z" fill="white"/>
<path d="M219.617 185.381L219.616 185.387L219.652 185.29H198.479L193.515 198.37H214.597L214.584 198.405H216.327L220.793 186.741L219.617 185.381Z" fill="#263238"/>
<path opacity="0.2" d="M219.617 185.381L219.616 185.387L219.652 185.29H198.479L193.515 198.37H214.597L214.584 198.405H216.327L220.793 186.741L219.617 185.381Z" fill="white"/>
<path opacity="0.4" d="M219.652 185.29L214.688 198.371L193.515 198.37L198.479 185.29H219.652Z" fill="black"/>
<path d="M182.9 194.445L187.8 200.723L189.559 200.459L184.389 194.445H182.9Z" fill="#263238"/>
<path opacity="0.1" d="M182.9 194.445L187.8 200.723L189.559 200.459L184.389 194.445H182.9Z" fill="white"/>
<path d="M184.389 188.508L189.288 194.785L191.047 194.521L185.877 188.508H184.389Z" fill="#263238"/>
<path opacity="0.1" d="M184.389 188.508L189.288 194.785L191.047 194.521L185.877 188.508H184.389Z" fill="white"/>
<path d="M178.072 209.032H214.688V198.371H178.072V209.032Z" fill="#263238"/>
<path opacity="0.2" d="M178.072 209.032H214.688V198.371H178.072V209.032Z" fill="white"/>
<path d="M182.044 195.105H215.681V193.419H182.044V195.105Z" fill="#263238"/>
<path opacity="0.2" d="M182.044 195.105H215.681V193.419H182.044V195.105Z" fill="white"/>
<path opacity="0.2" d="M202.77 195.105H215.681V193.419H202.77V195.105Z" fill="black"/>
<path d="M184.03 190.154H217.667V188.468H184.03V190.154Z" fill="#263238"/>
<path opacity="0.2" d="M184.03 190.154H217.667V188.468H184.03V190.154Z" fill="white"/>
<path opacity="0.2" d="M204.755 190.154H217.667V188.468H204.755V190.154Z" fill="black"/>
<path opacity="0.2" d="M200.288 209.032H214.688V198.371H200.288V209.032Z" fill="black"/>
</g>
<defs>
<clipPath id="clip0_778_6142">
<rect width="232" height="224" fill="white" transform="translate(0.134521 0.393555)"/>
</clipPath>
</defs>
</svg>
