<svg width="167" height="186" viewBox="0 0 167 186" fill="none" xmlns="http://www.w3.org/2000/svg">
<ellipse cx="83.3333" cy="80.9333" rx="83.2" ry="80.4" fill="#FFCF43"/>
<path d="M39.1876 116.133C52.8374 115.287 60.327 116.417 73.1876 123.333C78.2638 125.484 80.7371 127.461 84.7876 131.733C88.0764 127.703 90.3805 125.761 95.9876 123.333C109.867 114.036 124.933 117.938 130.788 116.133C130.995 116.069 133.416 111.137 133.188 107.733C132.986 104.723 130.512 102.804 130.388 100.533C129.435 95.6208 129.258 91.4276 129.988 79.7333C130.387 73.1007 130.394 69.5053 129.988 63.3333C129.546 54.1831 127.646 49.6603 122.788 42.1333C114.63 33.532 109.767 30.0104 100.388 29.3333C88.3907 29.4423 82.6662 31.3949 74.3876 38.5333C71.2716 35.4567 69.2548 34.2493 64.3876 34.5333C60.7113 34.7971 56.7615 35.8557 52.7876 38.5333C46.1668 42.9944 44.5139 49.377 42.3876 56.1333C41.4813 66.7226 41.5915 70.7423 41.5876 78.5333C42.0041 91.332 39.6253 96.4938 34.3876 104.933C33.4966 107.433 33.5343 108.834 34.3876 111.333C35.9116 113.929 37.0556 114.789 39.1876 116.133Z" fill="#4B3A3A" stroke="#4B3A3A" stroke-width="0.8"/>
<path d="M67.7887 53.3333C64.1767 66.6698 60.6254 72.1415 48.9887 74.9333C48.4733 76.7107 48.64 77.7931 48.9887 79.7333C46.5743 78.2176 45.2948 77.6578 43.3887 78.1333C40.6128 79.4847 39.9143 82.0113 40.1887 84.9333C40.6445 89.789 43.278 93.87 48.1887 95.3333C50.5839 96.0471 52.0888 96.036 54.5887 95.3333C60.282 106.608 65.022 110.668 75.7887 114.533C74.8441 118.605 73.9248 120.487 71.7887 123.333C77.0752 125.56 79.5087 127.547 83.3887 131.733C86.8446 127.705 89.092 125.698 94.5887 123.333C92.8174 120.021 92.0987 118.098 91.3887 114.533C101.875 110.949 106.784 106.866 112.989 94.1333C114.393 97.1362 115.871 96.583 118.589 95.3333C121.811 93.2585 123.51 91.8195 125.789 87.3333C126.86 83.5221 127.105 81.6135 125.789 79.3333C122.664 77.137 120.913 77.3542 117.789 79.3333V74.9333C111.137 73.1735 106.928 72.3021 96.9887 71.3333C78.3775 69.2277 72.2221 65.1238 67.7887 53.3333Z" fill="#FFE0C1" stroke="#FEDFC0" stroke-width="0.8"/>
<circle cx="97.7334" cy="81.3333" r="4.8" fill="#4B3A3A"/>
<circle cx="68.9332" cy="81.3333" r="4.8" fill="#4B3A3A"/>
<ellipse cx="70.5335" cy="80.1333" rx="1.6" ry="2" fill="white"/>
<ellipse cx="99.3333" cy="80.1333" rx="1.6" ry="2" fill="white"/>
<path d="M92.1336 95.3333C92.1336 96.1213 91.9163 96.9015 91.4941 97.6294C91.072 98.3574 90.4533 99.0188 89.6733 99.576C88.8932 100.133 87.9672 100.575 86.9481 100.877C85.929 101.178 84.8367 101.333 83.7336 101.333C82.6305 101.333 81.5382 101.178 80.519 100.877C79.4999 100.575 78.5739 100.133 77.7939 99.576C77.0138 99.0188 76.3951 98.3574 75.973 97.6294C75.5508 96.9015 75.3336 96.1213 75.3336 95.3333L92.1336 95.3333Z" fill="#D45E15"/>
<path d="M79.3334 128.533C64.3056 118.751 52.6413 117.255 27.3334 120.133L30.1334 178.533C52.0523 176.571 62.7564 178.085 79.3334 184.933V128.533Z" fill="#0736BC"/>
<path d="M28.9334 119.333L31.3334 112.533C62.3328 113.049 71.3864 117.803 83.3334 128.533H80.5334C67.2346 121.008 59.5063 116.944 28.9334 119.333Z" fill="#0736BC"/>
<path d="M79.3334 128.533C64.3056 118.751 52.6413 117.255 27.3334 120.133L30.1334 178.533C52.0523 176.571 62.7564 178.085 79.3334 184.933V128.533Z" stroke="#0736BC" stroke-width="0.8"/>
<path d="M28.9334 119.333L31.3334 112.533C62.3328 113.049 71.3864 117.803 83.3334 128.533H80.5334C67.2346 121.008 59.5063 116.944 28.9334 119.333Z" stroke="#0736BC" stroke-width="0.8"/>
<path d="M88.1395 128.217C103.167 118.435 114.832 116.939 140.14 119.817L137.34 178.217C115.421 176.255 104.717 177.769 88.1395 184.617V128.217Z" fill="#0736BC"/>
<path d="M138.54 119.017L136.533 113.333C105.534 113.849 96.4804 118.603 84.5335 129.333L86.9395 128.217C100.238 120.691 107.967 116.628 138.54 119.017Z" fill="#0736BC"/>
<path d="M88.1395 128.217C103.167 118.435 114.832 116.939 140.14 119.817L137.34 178.217C115.421 176.255 104.717 177.769 88.1395 184.617V128.217Z" stroke="#0736BC" stroke-width="0.8"/>
<path d="M138.54 119.017L136.533 113.333C105.534 113.849 96.4804 118.603 84.5335 129.333L86.9395 128.217C100.238 120.691 107.967 116.628 138.54 119.017Z" stroke="#0736BC" stroke-width="0.8"/>
<rect x="79.7333" y="128.533" width="8" height="56.8" fill="#03164B"/>
<path d="M29.3336 118.687L31.7249 112.533C56.4321 112.672 69.1053 114.305 83.1373 128.533H85.13C95.4234 118.307 101.746 112.807 136.542 112.944L138.934 118.687C115.229 116.261 104.2 119.178 86.7242 128.533H85.13H83.1373H80.746C64.9755 118.09 53.022 117.002 29.3336 118.687Z" fill="#FEFEFE" stroke="#FEFEFE" stroke-width="0.8"/>
</svg>
