<svg width="80" height="80" viewBox="0 0 80 80" fill="none" xmlns="http://www.w3.org/2000/svg">
<rect width="80" height="80" rx="40" fill="#43AA7B"/>
<path d="M12.3789 54.5834C23.4328 55.1749 30.9488 52.7758 38.741 49.3315C52.094 42.1245 57.9427 35.3845 65.309 27.3975L65.7209 67.6614H12.3789V54.5834Z" fill="#0736BC"/>
<path d="M71.2479 20.674C71.2191 20.3786 70.9563 20.1626 70.661 20.1915L65.8484 20.6615C65.5531 20.6904 65.3371 20.9532 65.3659 21.2485C65.3948 21.5438 65.6576 21.7598 65.9529 21.731L70.2307 21.3131L70.6485 25.591C70.6774 25.8863 70.9402 26.1023 71.2355 26.0734C71.5308 26.0446 71.7468 25.7818 71.718 25.4865L71.2479 20.674ZM11.3746 55.1881C23.4174 54.649 32.966 52.705 42.2146 47.5776C51.4519 42.4564 60.3461 34.1838 71.1282 21.0674L70.2981 20.385C59.5505 33.4596 50.7579 41.6126 41.6936 46.6378C32.6407 51.6567 23.2728 53.5798 11.3266 54.1146L11.3746 55.1881Z" fill="#DC1010"/>
<line x1="24.7903" y1="72.6055" x2="24.7903" y2="54.8923" stroke="white" stroke-width="0.716361" stroke-dasharray="1.07 1.07"/>
<line x1="37.7658" y1="72.6055" x2="37.7658" y2="52.422" stroke="white" stroke-width="0.716361" stroke-dasharray="1.07 1.07"/>
<line x1="51.1545" y1="72.6055" x2="51.1545" y2="43.7719" stroke="white" stroke-width="0.716361" stroke-dasharray="1.07 1.07"/>
<path d="M64.9992 67.0028H12.6308C12.5181 67.0028 12.4267 66.9108 12.4267 66.7972V20.6422C12.4267 20.4151 12.6095 20.231 12.835 20.231H14.2694C14.6049 20.231 14.7973 19.8462 14.5974 19.5748L10.7094 14.298C10.5472 14.0779 10.2206 14.0762 10.0561 14.2946L6.08368 19.5714C5.87982 19.8422 6.07163 20.231 6.40908 20.231H8.13921C8.36472 20.231 8.54754 20.4151 8.54754 20.6422V70.7034C8.54754 70.9305 8.73035 71.1146 8.95587 71.1146H64.9992C65.2247 71.1146 65.4076 71.2987 65.4076 71.5258V73.0346C65.4076 73.3793 65.8036 73.571 66.071 73.3556L71.1339 69.277C71.3383 69.1124 71.3389 68.8 71.1333 68.6369C69.8135 67.5894 67.5433 65.854 66.0013 64.8884C65.7376 64.7233 65.4076 64.9184 65.4076 65.2311V66.5916C65.4076 66.8187 65.2247 67.0028 64.9992 67.0028Z" fill="#70422E"/>
<path d="M27.896 27.704L26.696 37.58L26.132 39.992C26.028 40.312 25.884 40.556 25.7 40.724C25.516 40.892 25.256 40.976 24.92 40.976H23.996L25.592 27.728L24.464 27.56C24.304 27.52 24.176 27.456 24.08 27.368C23.992 27.28 23.96 27.144 23.984 26.96L24.092 26H25.808L25.94 24.896C26.028 24.2 26.204 23.58 26.468 23.036C26.74 22.492 27.076 22.032 27.476 21.656C27.884 21.272 28.348 20.984 28.868 20.792C29.396 20.592 29.964 20.492 30.572 20.492C31.068 20.492 31.524 20.572 31.94 20.732L31.724 21.956C31.684 22.124 31.572 22.212 31.388 22.22C31.204 22.228 30.98 22.232 30.716 22.232C30.38 22.232 30.068 22.28 29.78 22.376C29.5 22.472 29.248 22.628 29.024 22.844C28.8 23.06 28.612 23.344 28.46 23.696C28.316 24.04 28.212 24.464 28.148 24.968L28.028 26H30.992L30.776 27.704H27.896ZM32.6028 34.7075C32.6028 35.0675 32.6178 35.4475 32.6478 35.8475C32.6828 36.2425 32.7328 36.6375 32.7978 37.0325C32.8678 37.4275 32.9528 37.815 33.0528 38.195C33.1528 38.575 33.2678 38.93 33.3978 39.26C33.4628 39.425 33.4678 39.55 33.4128 39.635C33.3578 39.725 33.2878 39.795 33.2028 39.845L32.5353 40.2275C32.3303 39.7975 32.1528 39.3525 32.0028 38.8925C31.8578 38.4375 31.7378 37.98 31.6428 37.52C31.5478 37.055 31.4778 36.5975 31.4328 36.1475C31.3878 35.6925 31.3653 35.255 31.3653 34.835C31.3653 34.12 31.4053 33.4275 31.4853 32.7575C31.5703 32.0825 31.7203 31.405 31.9353 30.725C32.1503 30.04 32.4428 29.34 32.8128 28.625C33.1828 27.905 33.6553 27.145 34.2303 26.345L34.8153 26.7275C34.8503 26.7525 34.8828 26.7825 34.9128 26.8175C34.9428 26.8525 34.9628 26.8925 34.9728 26.9375C34.9828 26.9825 34.9803 27.0375 34.9653 27.1025C34.9503 27.1625 34.9178 27.2325 34.8678 27.3125C34.5078 27.8775 34.1878 28.445 33.9078 29.015C33.6278 29.58 33.3903 30.1625 33.1953 30.7625C33.0053 31.3625 32.8578 31.9875 32.7528 32.6375C32.6528 33.2875 32.6028 33.9775 32.6028 34.7075ZM39.0714 33.8975L41.0814 38H39.7689C39.6639 38 39.5814 37.975 39.5214 37.925C39.4614 37.87 39.4139 37.8 39.3789 37.715L38.0139 34.7525C37.9889 34.8125 37.9614 34.87 37.9314 34.925C37.9064 34.975 37.8789 35.0225 37.8489 35.0675L35.8689 37.7225C35.8139 37.7925 35.7539 37.8575 35.6889 37.9175C35.6239 37.9725 35.5414 38 35.4414 38H34.1664L37.2339 33.89L35.4189 30.38H36.7314C36.8364 30.38 36.9114 30.395 36.9564 30.425C37.0064 30.455 37.0489 30.505 37.0839 30.575L38.2989 33.11C38.3239 33.055 38.3514 33 38.3814 32.945C38.4164 32.885 38.4539 32.8275 38.4939 32.7725L40.1214 30.605C40.2064 30.455 40.3189 30.38 40.4589 30.38H41.7864L39.0714 33.8975ZM43.8073 31.865C43.8073 31.505 43.7898 31.1275 43.7548 30.7325C43.7198 30.3325 43.6673 29.935 43.5973 29.54C43.5323 29.145 43.4498 28.7575 43.3498 28.3775C43.2548 27.9975 43.1423 27.6425 43.0123 27.3125C42.9823 27.2325 42.9673 27.1625 42.9673 27.1025C42.9673 27.0375 42.9773 26.9825 42.9973 26.9375C43.0223 26.8925 43.0523 26.8525 43.0873 26.8175C43.1223 26.7825 43.1623 26.7525 43.2073 26.7275L43.8823 26.345C44.0873 26.775 44.2623 27.22 44.4073 27.68C44.5573 28.14 44.6773 28.6 44.7673 29.06C44.8623 29.52 44.9323 29.9775 44.9773 30.4325C45.0223 30.8825 45.0448 31.3175 45.0448 31.7375C45.0448 32.4525 45.0023 33.1475 44.9173 33.8225C44.8373 34.4925 44.6898 35.17 44.4748 35.855C44.2648 36.535 43.9723 37.235 43.5973 37.955C43.2273 38.67 42.7548 39.4275 42.1798 40.2275L41.6023 39.845C41.5273 39.795 41.4748 39.725 41.4448 39.635C41.4148 39.55 41.4498 39.425 41.5498 39.26C41.9098 38.695 42.2298 38.1225 42.5098 37.5425C42.7898 36.9625 43.0248 36.37 43.2148 35.765C43.4098 35.155 43.5573 34.5275 43.6573 33.8825C43.7573 33.2375 43.8073 32.565 43.8073 31.865Z" fill="white"/>
</svg>
