<svg width="500" height="345" viewBox="0 0 500 345" fill="none" xmlns="http://www.w3.org/2000/svg">
<path d="M500 303.718H0V303.95H500V303.718Z" fill="#EBEBEB"/>
<path d="M449.902 318.647H428.223V318.879H449.902V318.647Z" fill="#EBEBEB"/>
<path d="M344.668 313.836H310.559V314.068H344.668V313.836Z" fill="#EBEBEB"/>
<path d="M441.111 310.034H396.586V310.266H441.111V310.034Z" fill="#EBEBEB"/>
<path d="M173.015 314.711H161.877V314.943H173.015V314.711Z" fill="#EBEBEB"/>
<path d="M152.975 314.711H114.586V314.943H152.975V314.711Z" fill="#EBEBEB"/>
<path d="M94.0016 310.795H66.3066V311.027H94.0016V310.795Z" fill="#EBEBEB"/>
<path d="M237.014 262.352H43.915C40.768 262.352 38.207 259.976 38.207 257.057V5.29438C38.207 2.37542 40.768 0 43.915 0H237.014C240.16 0 242.721 2.37542 242.721 5.29438V257.057C242.721 259.976 240.16 262.352 237.014 262.352ZM43.915 0.232811C40.905 0.232811 38.457 2.50342 38.457 5.2953V257.058C38.457 259.85 40.905 262.121 43.915 262.121H237.014C240.023 262.121 242.471 259.85 242.471 257.058V5.29438C242.471 2.50342 240.023 0.231884 237.014 0.231884L43.915 0.232811Z" fill="#EBEBEB"/>
<path d="M453.311 262.352H260.213C257.066 262.352 254.506 259.976 254.506 257.057V5.29438C254.506 2.37542 257.067 0 260.213 0H453.311C456.459 0 459.019 2.37542 459.019 5.29438V257.057C459.02 259.976 456.459 262.352 453.311 262.352ZM260.213 0.232811C257.204 0.232811 254.756 2.50342 254.756 5.2953V257.058C254.756 259.85 257.204 262.121 260.213 262.121H453.311C456.321 262.121 458.769 259.85 458.769 257.058V5.29438C458.769 2.50342 456.321 0.231884 453.311 0.231884L260.213 0.232811Z" fill="#EBEBEB"/>
<path d="M216.071 135.352L216.521 123.163L208.453 120.718C208.121 116.554 207.37 112.441 206.302 108.478L213.14 103.802L208.495 92.3532L200.037 92.9849C198.021 89.2831 195.652 85.7612 192.997 82.4574L197.378 75.6743L188.37 66.7597L180.808 70.3512C177.402 67.6659 173.812 65.2349 169.969 63.0848L171.194 55.2991L159.196 50.2487L153.699 56.2239C149.511 54.9633 145.172 54.021 140.683 53.3958L138.639 45.764L125.463 45.3457L122.861 52.83C118.336 53.1685 113.937 53.8336 109.666 54.8251L104.588 48.5132L92.2464 52.7901L92.9284 60.6361C88.9364 62.5376 85.1404 64.734 81.5784 67.1975L74.3004 63.1349L64.6544 71.4568L68.5254 78.5023C65.6324 81.63 63.0094 84.9932 60.7244 88.5587L52.3324 87.3909L46.8534 98.5176L53.3294 103.617C51.9714 107.503 50.9184 111.559 50.2804 115.692L42.0164 117.617L41.5664 129.806L49.6684 132.254C49.9994 136.449 50.7514 140.531 51.8204 144.492L44.9834 149.169L49.6284 160.618L58.0864 159.985C60.1024 163.686 62.4714 167.208 65.1264 170.512L60.7444 177.295L69.7534 186.211L77.3144 182.618C80.6864 185.303 84.3114 187.736 88.1544 189.886L86.8944 197.669L98.8924 202.72L104.424 196.746C108.612 198.006 112.951 198.948 117.441 199.574L119.485 207.205L132.661 207.624L135.264 200.139C139.788 199.801 144.187 199.136 148.458 198.144L153.501 204.454L165.843 200.177L165.195 192.334C169.188 190.433 172.949 188.234 176.545 185.771L183.824 189.835L193.469 181.513L189.599 174.467C192.492 171.339 195.115 167.976 197.4 164.411L205.792 165.579L211.271 154.452L204.794 149.352C206.153 145.468 207.204 141.444 207.843 137.279L216.071 135.352ZM127.275 174.838C98.4974 173.924 75.9624 151.538 76.9484 124.845C77.9354 98.1197 102.069 77.2196 130.847 78.1341C159.625 79.0487 182.16 101.432 181.173 128.157C180.187 154.851 156.053 175.753 127.275 174.838Z" fill="#EBEBEB"/>
<path d="M440.957 95.046L444.271 92.1753L442.947 89.7544C443.961 88.6636 444.859 87.4912 445.64 86.2836L448.537 86.6898L450.414 82.848L448.185 81.0894C448.667 79.7305 449.015 78.3364 449.236 76.9303L452.088 76.2671L452.235 72.0561L449.447 71.2213C449.322 69.7966 449.086 68.3914 448.714 66.9982L451.06 65.3769L449.462 61.4321L446.551 61.6454C445.861 60.3905 445.051 59.1791 444.121 58.0123L445.629 55.6888L442.526 52.6066L439.923 53.8421C438.73 52.9006 437.483 52.0686 436.181 51.3442L436.602 48.6562L432.468 46.9078L430.572 48.9753C429.099 48.5356 427.596 48.2128 426.079 48.0078L425.372 45.3709L420.832 45.2188L419.924 47.8121C418.396 47.9207 416.873 48.147 415.378 48.5004L413.639 46.3179L409.378 47.7917L409.616 50.5001C408.263 51.1401 406.94 51.8914 405.698 52.755L403.177 51.3553L399.863 54.2261L401.195 56.6553C400.173 57.7535 399.283 58.9185 398.502 60.1261L395.605 59.7198L393.727 63.5626L395.956 65.3212C395.474 66.6801 395.126 68.0742 394.905 69.4803L392.053 70.1435L391.906 74.3554L394.694 75.1893C394.811 76.6066 395.055 78.0201 395.426 79.4133L393.073 81.0263L394.671 84.9711L397.591 84.7652C398.281 86.0201 399.091 87.2306 400.022 88.3993L398.514 90.7227L401.617 93.805L404.219 92.5685C405.411 93.5091 406.659 94.342 407.961 95.0664L407.532 97.7461L411.666 99.4945L413.57 97.4353C415.044 97.875 416.539 98.1894 418.063 98.4018L418.77 101.039L423.31 101.191L424.218 98.5975C425.746 98.489 427.269 98.2627 428.764 97.9093L430.503 100.093L434.765 98.6189L434.526 95.9105C435.878 95.2705 437.193 94.5275 438.444 93.6565L440.957 95.046ZM417.341 77.3013C414.903 74.8795 415.043 71.0812 417.654 68.8199C420.268 66.5558 424.363 66.6856 426.801 69.1084C429.239 71.5302 429.099 75.3284 426.485 77.5925C423.874 79.8539 419.779 79.7231 417.341 77.3013Z" fill="#EBEBEB"/>
<path d="M319.989 220.183L309.648 213.558C309.645 213.551 309.645 213.542 309.642 213.535C308.619 210.05 307.208 206.696 305.483 203.543L308.132 193.899L293.132 178.998L282.573 180.791C279.303 178.981 275.794 177.447 272.119 176.263C272.111 176.261 272.101 176.259 272.093 176.255L265.673 166.229L243.708 165.53L236.566 175.122C236.553 175.125 236.539 175.128 236.525 175.131C232.772 176.08 229.159 177.386 225.765 178.984L215.372 176.527L199.308 190.441L201.237 200.215C201.235 200.219 201.233 200.22 201.231 200.224C199.239 203.291 197.623 206.547 196.346 209.957L185.538 215.909L184.785 236.284L195.135 242.914C196.157 246.423 197.524 249.769 199.282 252.948C199.283 252.95 199.283 252.95 199.284 252.951L196.642 262.566L211.642 277.465L222.135 275.684C225.447 277.501 228.961 279.037 232.681 280.223C232.684 280.225 232.686 280.225 232.69 280.225L239.099 290.237L261.064 290.935L268.201 281.35C271.998 280.403 275.616 279.095 279.052 277.493C279.052 277.493 279.054 277.493 279.055 277.491L289.401 279.936L305.465 266.024L303.536 256.248C305.528 253.181 307.144 249.923 308.421 246.513L308.422 246.511L319.234 240.555L319.989 220.183ZM251.537 251.153C237.883 250.719 227.217 240.087 227.683 227.458C228.151 214.794 239.575 204.9 253.229 205.333C266.883 205.767 277.55 216.363 277.083 229.028C276.617 241.656 265.191 251.587 251.537 251.153Z" fill="#EBEBEB"/>
<path d="M343.548 162.321C343.524 162.321 343.5 162.321 343.476 162.32L326.159 161.77C325.44 161.748 324.783 161.386 324.416 160.813L319.753 153.53C317.274 152.696 314.831 151.644 312.47 150.397L304.963 151.67C304.255 151.795 303.531 151.569 303.04 151.08L291.214 139.335C290.723 138.847 290.534 138.161 290.711 137.514L292.599 130.641C291.452 128.464 290.492 126.139 289.74 123.713L282.209 118.888C281.617 118.51 281.274 117.877 281.298 117.211L281.891 101.148C281.915 100.481 282.305 99.8721 282.923 99.5317L290.789 95.1992C291.722 92.8302 292.853 90.5754 294.159 88.4764L292.78 81.4893C292.651 80.8335 292.89 80.1601 293.416 79.7056L306.081 68.7356C306.607 68.2793 307.347 68.1049 308.044 68.2691L315.479 70.0268C317.884 68.9416 320.383 68.0474 322.928 67.3638L328.125 60.3841C328.533 59.835 329.204 59.4955 329.935 59.54L347.252 60.091C347.971 60.1133 348.628 60.4741 348.995 61.0482L353.667 68.3442C356.149 69.1873 358.573 70.2364 360.894 71.4719L368.448 70.1882C369.157 70.0685 369.881 70.2902 370.372 70.7781L382.198 82.5262C382.689 83.0141 382.878 83.7005 382.701 84.347L380.805 91.246C381.976 93.4777 382.939 95.7947 383.677 98.1525L391.202 102.972C391.794 103.35 392.137 103.984 392.113 104.651L391.52 120.714C391.496 121.381 391.106 121.99 390.488 122.331L382.619 126.665C381.686 129.033 380.557 131.287 379.253 133.383L380.632 140.373C380.761 141.029 380.522 141.702 379.996 142.157L367.331 153.124C366.806 153.58 366.067 153.756 365.369 153.59L357.968 151.841C355.529 152.934 353.016 153.827 350.48 154.503L345.288 161.477C344.891 162.006 344.241 162.321 343.548 162.321ZM327.457 157.892L342.466 158.37L347.437 151.694C347.721 151.312 348.143 151.036 348.626 150.915C351.391 150.226 354.134 149.25 356.781 148.016C356.786 148.014 356.79 148.012 356.795 148.009C357.236 147.808 357.75 147.746 358.253 147.867L365.291 149.531L376.268 140.024L374.955 133.37C374.862 132.901 374.958 132.417 375.223 132.007C376.671 129.778 377.899 127.333 378.873 124.74C379.033 124.28 379.372 123.893 379.814 123.652L387.337 119.508L387.851 105.586L380.648 100.971C380.271 100.73 379.989 100.381 379.844 99.9797C379.826 99.9296 379.81 99.8767 379.796 99.8229C379.043 97.2648 377.995 94.7512 376.682 92.3516C376.45 91.9278 376.393 91.4408 376.518 90.9807L378.322 84.4156L368.072 74.2322L360.883 75.4528C360.379 75.5391 359.86 75.451 359.421 75.208C356.921 73.8241 354.281 72.6805 351.575 71.8076C351.422 71.7585 351.267 71.6926 351.134 71.6175C350.842 71.4505 350.599 71.2214 350.425 70.9487L345.953 63.9653L330.944 63.4876L325.969 70.1696C325.673 70.5675 325.23 70.8476 324.726 70.9599C321.949 71.6657 319.248 72.6341 316.672 73.8464C316.215 74.0616 315.689 74.1153 315.195 73.9975L308.12 72.3243L297.143 81.8324L298.456 88.4857C298.539 88.9031 298.472 89.3344 298.268 89.7137C298.239 89.7675 298.207 89.8195 298.173 89.8714C296.722 92.1086 295.492 94.561 294.519 97.1609C294.355 97.5969 294.031 97.966 293.603 98.2016L286.075 102.349L285.561 116.27L292.771 120.889C293.182 121.152 293.479 121.542 293.61 121.989C294.387 124.657 295.433 127.19 296.72 129.518C296.794 129.652 296.852 129.793 296.891 129.939C296.976 130.254 296.975 130.583 296.889 130.897L295.091 137.44L305.341 147.621L312.479 146.409C312.98 146.325 313.496 146.411 313.933 146.651C316.478 148.046 319.131 149.189 321.821 150.05C322.307 150.193 322.728 150.498 322.995 150.916L327.457 157.892ZM336.728 140.302C336.358 140.302 335.989 140.295 335.617 140.283C318.171 139.728 304.464 126.113 305.062 109.931C305.66 93.7504 320.363 81.0403 337.785 81.5894C355.231 82.1441 368.938 95.7594 368.34 111.942C368.051 119.771 364.49 127.032 358.314 132.387C352.403 137.512 344.774 140.302 336.728 140.302ZM336.69 85.4897C321.992 85.4897 309.79 96.3373 309.283 110.066C308.765 124.088 320.643 135.887 335.762 136.368C343.088 136.595 350.073 134.171 355.431 129.525C360.784 124.884 363.87 118.592 364.12 111.808C364.638 97.7851 352.759 85.985 337.641 85.5046C337.323 85.4953 337.005 85.4897 336.69 85.4897Z" fill="#EBEBEB"/>
<path d="M383.438 46.7219L376.264 44.9354L374.338 38.2822L377.147 35.6768L380.11 41.3681L386.246 44.1173L383.438 46.7219Z" fill="#E0E0E0"/>
<path d="M383.882 42.2672C385.189 41.0549 385.189 39.0793 383.882 37.867C382.575 36.6547 380.455 36.6639 379.148 37.8762L382.716 32.9111L387.502 35.1548L388.551 39.8194L383.882 42.2672Z" fill="#E0E0E0"/>
<path d="M376.58 36.2013L381.837 31.3252L389.01 33.1116L390.937 39.7658L385.68 44.6418L378.506 42.8545L376.58 36.2013ZM386.125 40.1878C387.432 38.9755 387.432 36.9999 386.125 35.7876C384.818 34.5753 382.698 34.5846 381.391 35.7968C380.084 37.0091 380.084 38.9672 381.391 40.1785C382.698 41.3908 384.818 41.4001 386.125 40.1878Z" fill="#F0F0F0"/>
<path d="M90.2218 224.238L94.0708 223.279L95.1048 219.709L93.5978 218.312L92.0079 221.366L88.7148 222.841L90.2218 224.238Z" fill="#E0E0E0"/>
<path d="M89.9826 221.848C89.2816 221.198 89.2816 220.137 89.9826 219.486C90.6836 218.836 91.8216 218.841 92.5226 219.491L90.6076 216.826L88.0396 218.03L87.4766 220.533L89.9826 221.848Z" fill="#E0E0E0"/>
<path d="M93.9013 218.593L91.0803 215.977L87.2313 216.936L86.1973 220.507L89.0183 223.123L92.8673 222.164L93.9013 218.593ZM88.7783 220.732C88.0773 220.082 88.0773 219.022 88.7783 218.371C89.4793 217.72 90.6173 217.725 91.3183 218.375C92.0193 219.025 92.0193 220.076 91.3183 220.726C90.6183 221.378 89.4803 221.382 88.7783 220.732Z" fill="#F0F0F0"/>
<path d="M76.3623 28.4852L79.5573 31.4486C80.3893 32.2204 81.7503 32.2204 82.5823 31.4486C83.4143 30.6769 83.4143 29.4146 82.5823 28.6428L79.3873 25.6794C78.5553 24.9077 77.1943 24.9077 76.3623 25.6794C75.5303 26.4511 75.5303 27.7144 76.3623 28.4852Z" fill="#F0F0F0"/>
<path d="M74.111 21.1046C76.573 20.2846 79.242 21.3569 80.072 23.5004C80.902 25.6439 79.579 28.0463 77.117 28.8671C74.655 29.6871 71.986 28.6148 71.156 26.4713C70.326 24.3278 71.649 21.9255 74.111 21.1046Z" fill="#E0E0E0"/>
<path d="M70.6287 25.977L71.0918 27.1729L80.5988 24.0058L80.1357 22.8099L70.6287 25.977Z" fill="#F0F0F0"/>
<path d="M86.7162 60.9332C85.7152 56.8492 86.1622 53.4108 88.0582 50.6162C89.9542 47.8234 93.0922 45.9655 97.4712 45.0417C101.961 44.0947 105.694 44.4833 108.671 46.2076C111.648 47.931 113.63 50.8063 114.617 54.8346C115.334 57.7591 115.391 60.269 114.789 62.3644C114.186 64.4606 113.01 66.2405 111.26 67.7042C109.509 69.1688 107.137 70.215 104.144 70.8467C101.102 71.4885 98.4742 71.5701 96.2602 71.0925C94.0462 70.6139 92.0812 69.5324 90.3652 67.847C88.6492 66.1626 87.4322 63.8586 86.7162 60.9332ZM95.0602 59.2107C95.6792 61.7373 96.6302 63.4449 97.9132 64.3344C99.1952 65.2258 100.707 65.4855 102.45 65.1182C104.241 64.7416 105.495 63.9087 106.211 62.6213C106.927 61.3339 106.943 59.2896 106.256 56.4912C105.679 54.1362 104.745 52.5232 103.454 51.6513C102.163 50.7813 100.641 50.5308 98.8872 50.9009C97.2062 51.2552 95.9922 52.0919 95.2442 53.4099C94.4962 54.7289 94.4352 56.6619 95.0602 59.2107Z" fill="#263238"/>
<path d="M118.593 57.8734C117.915 55.1093 118.363 52.6179 119.936 50.4011C121.508 48.1843 124.006 46.7151 127.429 45.9944C131.342 45.1689 134.556 45.5974 137.072 47.2818C139.094 48.6388 140.41 50.557 141.018 53.0372C141.701 55.8263 141.265 58.3195 139.707 60.5206C138.15 62.7216 135.611 64.1936 132.09 64.9356C128.95 65.5979 126.229 65.3948 123.928 64.3235C121.099 62.9943 119.321 60.8443 118.593 57.8734ZM126.097 56.2743C126.493 57.8891 127.138 59.0096 128.034 59.6357C128.929 60.2608 129.91 60.4603 130.977 60.2349C132.056 60.0067 132.849 59.439 133.355 58.5301C133.861 57.622 133.908 56.3253 133.496 54.6428C133.111 53.0724 132.475 51.9761 131.587 51.3556C130.699 50.735 129.74 50.5328 128.71 50.7508C127.618 50.9808 126.812 51.5615 126.292 52.4909C125.771 53.4193 125.706 54.6808 126.097 56.2743Z" fill="#263238"/>
<path d="M148.586 68.2791L142.453 43.2569L149.464 41.7775L150.121 44.4572C150.814 43.1271 151.516 42.1782 152.228 41.6087C153.189 40.8444 154.332 40.3213 155.657 40.043C158.27 39.4911 160.518 39.9929 162.402 41.5456C164.286 43.0993 165.563 45.2409 166.232 47.9725C166.971 50.9879 166.756 53.4533 165.587 55.3696C164.418 57.285 162.644 58.4945 160.264 58.9963C159.111 59.2393 158.015 59.2792 156.974 59.115C155.934 58.9508 154.952 58.591 154.028 58.0317L156.149 66.6846L148.586 68.2791ZM152.195 50.7885C152.546 52.2225 153.132 53.2177 153.952 53.7752C154.772 54.3326 155.679 54.5052 156.673 54.2965C157.544 54.1128 158.193 53.6259 158.618 52.8365C159.043 52.0463 159.061 50.8553 158.671 49.2618C158.311 47.7935 157.74 46.7806 156.958 46.2223C156.176 45.662 155.343 45.4765 154.46 45.662C153.504 45.8642 152.791 46.3799 152.323 47.2073C151.855 48.0365 151.812 49.2293 152.195 50.7885Z" fill="#263238"/>
<path d="M169.435 51.3358L176.71 49.119C177.217 49.8731 177.791 50.3693 178.429 50.6068C179.067 50.8424 179.847 50.8637 180.767 50.6698C181.772 50.4574 182.503 50.0948 182.958 49.58C183.315 49.1941 183.439 48.7805 183.33 48.3362C183.208 47.8362 182.831 47.5088 182.2 47.3558C181.748 47.2482 180.616 47.2361 178.805 47.3187C176.101 47.4476 174.2 47.4383 173.099 47.2945C171.999 47.1489 170.998 46.7241 170.096 46.0173C169.194 45.3115 168.609 44.4118 168.342 43.321C168.05 42.1272 168.172 41.0207 168.708 39.9985C169.245 38.9764 170.117 38.1138 171.325 37.4107C172.533 36.7076 174.241 36.1233 176.449 35.6577C178.78 35.1661 180.541 34.9694 181.732 35.064C182.923 35.1605 183.975 35.4768 184.887 36.0138C185.8 36.5518 186.646 37.3597 187.426 38.4403L180.482 40.5866C180.156 40.044 179.745 39.6823 179.249 39.5005C178.57 39.2593 177.814 39.2268 176.98 39.404C176.133 39.5821 175.551 39.8511 175.233 40.211C174.915 40.5708 174.804 40.9502 174.902 41.3481C175.01 41.7915 175.338 42.0744 175.884 42.1977C176.43 42.3229 177.548 42.3007 179.236 42.1365C181.79 41.874 183.732 41.8462 185.061 42.0567C186.39 42.2664 187.482 42.7357 188.338 43.4638C189.193 44.1919 189.748 45.0731 190.002 46.1082C190.258 47.1545 190.167 48.2434 189.729 49.375C189.29 50.5075 188.41 51.5204 187.087 52.4155C185.765 53.3087 183.84 54.0229 181.313 54.5572C177.743 55.3103 175.084 55.3725 173.338 54.7482C171.592 54.1231 170.291 52.9859 169.435 51.3358Z" fill="#263238"/>
<path d="M193.85 28.3952L202.058 28.3525L202.094 34.1988L200.58 45.9516L195.504 45.9776L193.885 34.2415L193.85 28.3952ZM194.251 47.7696L201.912 47.7297L201.951 54.0128L194.29 54.0527L194.251 47.7696Z" fill="#263238"/>
<path d="M128.679 108.177C128.619 108.177 128.558 108.167 128.498 108.146C123.997 106.529 121.304 104.95 119.906 103.052C118.89 103.241 117.753 103.116 116.674 102.64C115.626 102.178 114.617 101.37 113.893 100.208C113.218 100.691 112.384 100.823 111.468 100.556C110.452 100.26 109.395 99.466 108.516 98.3196C107.957 98.6943 107.384 98.7509 106.964 98.7184C103.991 98.494 99.9634 93.0048 99.6744 87.1549C99.6614 86.8998 99.8754 86.6818 100.151 86.6716C100.421 86.6503 100.661 86.8571 100.673 87.114C100.947 92.6653 104.782 97.6239 107.046 97.7946C107.413 97.828 107.72 97.7213 107.978 97.5358C106.62 95.3255 105.915 92.1738 106.955 88.8059C107.815 86.0186 108.575 84.9288 109.487 85.131C111.21 85.5289 110.984 91.5978 110.071 95.601C109.864 96.5091 109.566 97.1602 109.226 97.6258C110.015 98.7064 110.95 99.4336 111.769 99.6729C112.501 99.8862 113.043 99.7053 113.443 99.3519C112.657 97.5562 112.494 95.1094 113.561 91.9882C114.965 87.8802 115.53 87.7689 115.868 87.703C116.106 87.6557 116.344 87.729 116.513 87.9071C117.437 88.8745 116.333 95.255 115.169 98.4105C115.018 98.8205 114.83 99.1794 114.612 99.4837C115.233 100.612 116.148 101.381 117.105 101.803C117.873 102.142 118.661 102.265 119.378 102.203C119.288 102.028 119.207 101.85 119.134 101.669C118.341 99.6775 118.729 97.3782 120.319 94.6401C121.374 92.8239 122.234 91.9771 123.026 91.9762C123.261 91.9762 123.702 92.0569 124.013 92.5902C124.885 94.0826 124.254 99.0078 122.53 101.452C122.124 102.028 121.563 102.465 120.912 102.749C122.252 104.383 124.796 105.822 128.861 107.284C129.118 107.377 129.246 107.645 129.147 107.883C129.069 108.065 128.879 108.177 128.679 108.177ZM123.025 92.9009C123.022 92.9009 122.46 92.9046 121.198 95.0779C119.752 97.5683 119.383 99.6182 120.071 101.345C120.155 101.557 120.255 101.763 120.371 101.967C120.905 101.754 121.362 101.409 121.692 100.943C123.092 98.9568 123.763 94.8784 123.242 93.284C123.135 92.9575 123.026 92.9009 123.025 92.9009ZM115.853 88.9932C115.595 89.4431 115.161 90.3697 114.513 92.2665C113.655 94.7783 113.65 96.7966 114.128 98.34C114.161 98.2621 114.192 98.1842 114.221 98.1072C115.397 94.9183 115.97 90.5255 115.853 88.9932ZM109.267 86.0715C109.098 86.2153 108.612 86.7996 107.915 89.0591C106.996 92.0393 107.562 94.7579 108.642 96.7075C108.849 96.305 108.993 95.8412 109.092 95.4071C110.129 90.852 109.827 86.731 109.267 86.0715Z" fill="#263238"/>
<path d="M166.699 156.795C165.174 156.795 163.57 156.473 162.138 155.693C161.9 155.562 161.82 155.279 161.96 155.057C162.099 154.836 162.406 154.764 162.644 154.891C166.211 156.834 170.822 155.478 171.771 154.063C171.881 153.897 171.982 153.686 171.918 153.441C170.507 153.579 168.771 153.232 166.787 152.081C164.242 150.605 164.046 150.166 164.062 149.816C164.072 149.608 164.199 149.427 164.403 149.331C165.399 148.862 169.908 150.791 171.788 151.937C172.034 152.087 172.242 152.25 172.41 152.421C173.241 152.234 173.885 151.835 174.313 151.359C174.607 151.032 174.803 150.676 174.9 150.318C174.834 150.328 174.767 150.335 174.7 150.341C173.101 150.49 171.497 149.854 169.789 148.389C168.615 147.383 168.159 146.689 168.311 146.139C168.359 145.964 168.517 145.652 169.03 145.533C170.413 145.214 173.827 146.564 175.223 147.984C175.537 148.303 175.751 148.679 175.865 149.082C177.17 148.513 178.55 147.238 180.184 145.121C180.345 144.912 180.657 144.865 180.882 145.014C181.107 145.162 181.158 145.453 180.998 145.66C179.109 148.109 177.534 149.497 175.952 150.062C175.89 150.715 175.599 151.38 175.083 151.955C174.576 152.518 173.837 153.002 172.902 153.263C173.002 153.681 172.912 154.122 172.622 154.554C171.777 155.813 169.359 156.795 166.699 156.795ZM165.811 150.362C166.147 150.592 166.629 150.896 167.317 151.296C168.674 152.084 169.883 152.446 170.917 152.522C169.26 151.57 167.093 150.727 165.811 150.362ZM169.301 146.422C169.357 146.567 169.579 146.948 170.467 147.709C171.953 148.984 173.305 149.55 174.598 149.42C174.704 149.409 174.811 149.396 174.918 149.375C174.847 149.093 174.702 148.833 174.484 148.61C173.077 147.179 169.984 146.273 169.301 146.422Z" fill="#263238"/>
<path d="M179.942 155.522L164.36 158.147L150.213 86.5303L120.149 91.5955L71.1602 172.29L76.4202 198.918L139.257 188.331L143.559 210.111L173.623 205.045L169.321 183.267L184.903 180.641L179.942 155.522ZM101.094 168.807L127.053 126.542L134.297 163.213L101.094 168.807Z" fill="#407BFF"/>
<path d="M305.431 81.6606C304.849 76.7131 303.784 72.3175 302.234 68.4729C300.685 64.6283 298.354 60.8597 295.244 57.1672C292.134 53.4746 287.899 50.2691 282.54 47.5523C277.18 44.8365 270.106 42.9452 261.317 41.8832C243.025 39.6729 228.766 42.6855 218.535 50.9174C208.303 59.1512 201.572 74.923 198.337 98.232C197.021 107.712 196.695 116.476 197.36 124.523C198.023 132.569 199.615 139.042 202.138 143.939C205.589 150.821 210.473 156.316 216.787 160.423C223.1 164.531 231.749 167.25 242.737 168.577C262.334 170.945 276.856 167.457 286.306 158.108C295.754 148.761 302.023 132.961 305.111 110.71C306.49 100.783 306.596 91.1002 305.431 81.6606Z" fill="#407BFF"/>
<path d="M251.768 159.056C249.363 158.979 246.804 158.778 244.161 158.458C235.007 157.353 227.924 155.204 223.108 152.069C218.356 148.979 214.761 144.912 212.116 139.635L212.067 139.539C210.144 135.808 208.888 130.493 208.332 123.745C207.727 116.429 208.036 108.284 209.25 99.5346C212.819 73.8224 220.191 63.0945 225.747 58.6238C232.225 53.411 240.968 51.0551 252.477 51.4206C254.835 51.4957 257.332 51.6914 259.898 52.0012C267.284 52.8935 273.128 54.4091 277.268 56.5062C281.277 58.5385 284.41 60.8749 286.578 63.4488C288.982 66.3019 290.783 69.1949 291.932 72.0462C293.155 75.0792 294.018 78.6864 294.498 82.7666C295.563 91.4011 295.462 100.346 294.205 109.407C291.432 129.386 286.076 143.423 278.285 151.129C272.506 156.847 263.833 159.44 251.771 159.056C251.769 159.056 251.768 159.056 251.768 159.056Z" fill="#263238"/>
<path d="M271.337 81.9342L271.467 78.4207L269.142 77.7158C269.046 76.5156 268.83 75.3302 268.522 74.1875L270.493 72.8398L269.154 69.5396L266.716 69.7214C266.135 68.6547 265.452 67.6391 264.687 66.6865L265.95 64.7312L263.353 62.162L261.173 63.1971C260.191 62.4235 259.156 61.7223 258.048 61.1027L258.401 58.8581L254.943 57.4018L253.359 59.1243C252.152 58.7607 250.901 58.4889 249.607 58.309L249.018 56.1089L245.22 55.9883L244.47 58.1457C243.165 58.2431 241.898 58.4351 240.667 58.7208L239.203 56.9019L235.645 58.1346L235.842 60.3959C234.691 60.9441 233.597 61.5767 232.57 62.2872L230.472 61.1166L227.692 63.5152L228.808 65.5456C227.974 66.4472 227.218 67.4164 226.559 68.4442L224.14 68.1075L222.561 71.3149L224.428 72.785C224.036 73.9055 223.733 75.0742 223.549 76.2652L221.167 76.8198L221.037 80.3333L223.372 81.0392C223.467 82.2487 223.684 83.4248 223.992 84.5666L222.021 85.9143L223.36 89.2145L225.798 89.0317C226.379 90.0984 227.062 91.1141 227.827 92.0667L226.564 94.0219L229.161 96.5921L231.34 95.557C232.312 96.3305 233.357 97.0318 234.464 97.6523L234.101 99.896L237.559 101.352L239.154 99.6298C240.361 99.9934 241.612 100.265 242.906 100.445L243.495 102.645L247.293 102.766L248.043 100.608C249.347 100.511 250.615 100.319 251.846 100.033L253.3 101.852L256.858 100.619L256.671 98.3581C257.822 97.81 258.906 97.1764 259.943 96.466L262.041 97.6374L264.821 95.2379L263.705 93.2075C264.539 92.306 265.295 91.3367 265.953 90.309L268.372 90.6457L269.951 87.4382L268.084 85.9681C268.476 84.8486 268.779 83.6882 268.963 82.488L271.337 81.9342ZM245.742 93.316C237.447 93.0526 230.951 86.5998 231.235 78.9058C231.52 71.2027 238.476 65.1783 246.771 65.4417C255.066 65.7051 261.562 72.1571 261.277 79.8603C260.994 87.5542 254.037 93.5795 245.742 93.316Z" fill="#407BFF"/>
<path opacity="0.3" d="M287.123 146.47L287.398 144.102L285.863 143.522C285.858 142.707 285.782 141.901 285.636 141.116L287.036 140.291L286.325 138L284.663 138.012C284.328 137.264 283.933 136.545 283.467 135.869L284.415 134.607L282.81 132.754L281.279 133.346C280.668 132.784 280.008 132.263 279.288 131.796L279.66 130.288L277.409 129.142L276.233 130.244C275.426 129.925 274.592 129.692 273.756 129.514L273.473 127.997L270.92 127.731L270.294 129.155C269.416 129.16 268.559 129.241 267.7 129.377L266.812 128.067L264.341 128.738L264.354 130.279C263.558 130.591 262.784 130.957 262.043 131.39L260.683 130.499L258.686 131.988L259.324 133.408C258.729 133.976 258.157 134.587 257.652 135.255L256.037 134.921L254.802 137.009L255.979 138.088C255.647 138.849 255.385 139.611 255.192 140.397L253.556 140.648L253.281 143.016L254.815 143.608C254.809 144.411 254.896 145.217 255.043 146.004L253.632 146.828L254.355 149.119L256.017 149.118C256.353 149.856 256.747 150.574 257.214 151.251L256.255 152.512L257.86 154.376L259.404 153.774C260.015 154.336 260.674 154.856 261.395 155.325L261.023 156.833L263.274 157.979L264.449 156.888C265.257 157.196 266.091 157.428 266.927 157.606L267.21 159.124L269.763 159.389L270.389 157.965C271.255 157.961 272.124 157.88 272.983 157.745L273.871 159.053L276.33 158.383L276.329 156.841C277.125 156.53 277.899 156.164 278.64 155.732L279.988 156.621L281.997 155.134L281.347 153.713C281.953 153.146 282.514 152.534 283.03 151.867L284.644 152.2L285.879 150.112L284.702 149.032C285.034 148.273 285.285 147.509 285.477 146.734L287.123 146.47ZM274.25 145.551C273.064 147.554 270.345 148.293 268.186 147.193C266.027 146.093 265.242 143.572 266.428 141.569C267.614 139.567 270.32 138.839 272.48 139.938C274.639 141.038 275.435 143.549 274.25 145.551Z" fill="#407BFF"/>
<path d="M301.29 106.386L298.309 104.476C298.308 104.474 298.308 104.472 298.307 104.47C298.012 103.465 297.605 102.499 297.108 101.59L297.872 98.81L293.548 94.5146L290.505 95.0312C289.563 94.509 288.551 94.0675 287.492 93.7262C287.49 93.7252 287.487 93.7252 287.484 93.7243L285.634 90.8341L279.303 90.6328L277.244 93.3978C277.24 93.3987 277.236 93.3997 277.232 93.4006C276.15 93.6742 275.109 94.0508 274.13 94.5108L271.134 93.8022L266.504 97.8129L267.06 100.631C267.059 100.632 267.059 100.633 267.058 100.634C266.484 101.517 266.018 102.456 265.65 103.439L262.535 105.155L262.318 111.027L265.301 112.938C265.595 113.949 265.99 114.914 266.496 115.83C266.496 115.831 266.496 115.831 266.496 115.831L265.735 118.603L270.058 122.897L273.083 122.384C274.037 122.907 275.05 123.351 276.123 123.692C276.124 123.693 276.125 123.693 276.126 123.693L277.973 126.579L284.304 126.78L286.361 124.017C287.455 123.744 288.498 123.366 289.489 122.905C289.489 122.905 289.49 122.905 289.49 122.904L292.472 123.609L297.102 119.599L296.546 116.781C297.12 115.897 297.586 114.957 297.954 113.975L301.07 112.257L301.29 106.386ZM281.559 115.314C277.623 115.188 274.549 112.124 274.683 108.484C274.818 104.833 278.111 101.982 282.046 102.106C285.982 102.232 289.056 105.286 288.922 108.936C288.788 112.576 285.494 115.439 281.559 115.314Z" fill="white"/>
<path d="M323.045 59.5218L323.566 58.3559C323.567 58.3559 323.568 58.3549 323.569 58.3549C323.943 58.1759 324.294 57.9607 324.615 57.7196L325.776 57.7604L327.136 55.9498L326.692 54.9536C326.824 54.5919 326.92 54.2126 326.971 53.8248C326.971 53.8239 326.971 53.823 326.971 53.8221L327.969 52.9641L327.55 50.7918L326.293 50.3086C326.292 50.3076 326.292 50.3058 326.291 50.3048C326.098 49.9579 325.867 49.6333 325.607 49.3356L325.651 48.2596L323.699 46.9982L322.627 47.4091H322.626C322.231 47.2829 321.823 47.1985 321.405 47.1503L320.48 46.2246L318.138 46.6132L317.616 47.7801C317.239 47.96 316.888 48.1706 316.565 48.4154L315.408 48.3746L314.049 50.1852L314.49 51.1749C314.358 51.5412 314.262 51.9206 314.212 52.313L313.215 53.17L313.634 55.3423L314.89 55.8255C315.084 56.1771 315.316 56.5026 315.577 56.8032L315.533 57.8745L317.485 59.1359L318.557 58.7241C318.952 58.8502 319.361 58.9346 319.779 58.9829L320.704 59.9095L323.045 59.5218ZM317.956 53.5048C317.696 52.1543 318.667 50.866 320.118 50.6248C321.574 50.3837 322.962 51.2797 323.223 52.6302C323.484 53.9807 322.516 55.2681 321.061 55.5102C319.61 55.7513 318.217 54.8553 317.956 53.5048Z" fill="#407BFF"/>
<path d="M295.608 53.3683L294.844 52.77C296.172 51.312 298.055 49.4643 300.852 48.1055L301.316 48.9282C298.334 50.3761 296.424 52.4732 295.608 53.3683Z" fill="#407BFF"/>
<path d="M303.592 48.0935L303.197 47.2401C306.98 45.7375 310.932 45.1513 314.936 45.4964L314.843 46.4202C311.003 46.0807 307.219 46.6502 303.592 48.0935Z" fill="#407BFF"/>
<path d="M301.705 54.5098L300.879 53.9876C302.933 51.1892 306.992 48.7525 310.75 48.0615L310.944 48.9705C307.422 49.6198 303.623 51.8969 301.705 54.5098Z" fill="#407BFF"/>
<path d="M235.343 143.773C235.209 143.773 235.079 143.723 234.984 143.632L232.887 141.627C231.819 141.534 230.763 141.352 229.741 141.084L226.473 142.42C226.318 142.486 226.138 142.469 225.995 142.383L220.52 139.016C220.378 138.928 220.294 138.781 220.296 138.622L220.35 135.317C219.685 134.549 219.092 133.715 218.584 132.834L215.779 131.825C215.62 131.768 215.504 131.641 215.469 131.486L214.164 125.514C214.13 125.359 214.184 125.199 214.306 125.088L216.467 123.144C216.567 122.158 216.763 121.178 217.051 120.223L215.612 117.196C215.543 117.051 215.559 116.884 215.652 116.752L219.281 111.672C219.375 111.541 219.509 111.459 219.706 111.465L223.267 111.516C224.103 110.896 225.003 110.346 225.946 109.879L227.034 107.275C227.096 107.128 227.234 107.02 227.401 106.988L233.839 105.776C234.006 105.746 234.179 105.795 234.297 105.908L236.391 107.91C237.455 108.003 238.513 108.186 239.544 108.453L242.807 107.118C242.962 107.055 243.142 107.069 243.285 107.156L248.76 110.522C248.902 110.61 248.986 110.758 248.984 110.917L248.93 114.223C249.596 114.992 250.188 115.826 250.694 116.704L253.501 117.714C253.66 117.772 253.776 117.899 253.811 118.054L255.116 124.025C255.15 124.18 255.096 124.341 254.974 124.451L252.812 126.396C252.713 127.371 252.517 128.35 252.227 129.311L253.668 132.344C253.737 132.488 253.721 132.656 253.628 132.788L250 137.868C249.906 138 249.756 138.066 249.576 138.076L246.013 138.026C245.183 138.64 244.284 139.188 243.338 139.657L242.247 142.266C242.186 142.414 242.047 142.521 241.88 142.554L235.442 143.765C235.409 143.77 235.376 143.773 235.343 143.773ZM229.706 140.127C229.753 140.127 229.801 140.134 229.847 140.147C230.918 140.438 232.031 140.631 233.158 140.718C233.279 140.728 233.391 140.777 233.475 140.857L235.511 142.804L241.413 141.694L242.473 139.16C242.517 139.055 242.601 138.968 242.708 138.916C243.711 138.431 244.658 137.854 245.523 137.199C245.614 137.131 245.717 137.083 245.846 137.095L249.317 137.145L252.644 132.488L251.24 129.535C251.193 129.436 251.185 129.323 251.218 129.218C251.534 128.206 251.741 127.173 251.834 126.147C251.844 126.034 251.897 125.931 251.984 125.852L254.083 123.963L252.887 118.49L250.16 117.509C250.044 117.467 249.949 117.387 249.893 117.284C249.373 116.357 248.75 115.482 248.042 114.681C247.967 114.596 247.926 114.489 247.928 114.38L247.981 111.158L242.961 108.072L239.785 109.37C239.677 109.414 239.557 109.421 239.444 109.392C238.36 109.1 237.242 108.907 236.121 108.82C236 108.811 235.888 108.761 235.804 108.682L233.771 106.737L227.869 107.847L226.812 110.377C226.768 110.482 226.684 110.569 226.576 110.621C225.58 111.102 224.632 111.681 223.76 112.34C223.669 112.409 223.547 112.458 223.435 112.446L219.965 112.396L216.638 117.052L218.04 120.001C218.1 120.128 218.096 120.273 218.03 120.396C217.748 121.323 217.541 122.357 217.447 123.395C217.437 123.506 217.384 123.61 217.297 123.689L215.199 125.576L216.395 131.05L219.121 132.03C219.243 132.074 219.341 132.16 219.394 132.268C219.912 133.189 220.534 134.062 221.238 134.857C221.313 134.943 221.355 135.051 221.353 135.16L221.3 138.381L226.32 141.468L229.504 140.165C229.568 140.141 229.637 140.127 229.706 140.127ZM234.624 137.127C232.096 137.127 229.542 136.463 227.281 135.073C224.315 133.25 222.291 130.463 221.582 127.229C220.873 123.994 221.566 120.696 223.532 117.944H223.533C227.598 112.263 235.885 110.703 242.006 114.466C248.128 118.235 249.808 125.921 245.75 131.602C243.189 135.185 238.945 137.127 234.624 137.127ZM224.366 118.457C222.548 121.002 221.907 124.051 222.563 127.045C223.218 130.037 225.09 132.613 227.834 134.3C233.501 137.782 241.163 136.341 244.915 131.089C248.669 125.835 247.116 118.725 241.453 115.24C235.791 111.759 228.126 113.202 224.366 118.457Z" fill="white"/>
<path d="M425.826 163.894L410.131 161.929L420.511 89.7596L390.23 85.9697L316.777 148.695L312.918 175.528L376.21 183.451L373.054 205.398L403.335 209.188L406.491 187.241L422.186 189.205L425.826 163.894ZM346.408 153.953L385.166 121.185L379.851 158.139L346.408 153.953Z" fill="#407BFF"/>
<path d="M394.133 208.5C394.103 208.5 394.073 208.497 394.043 208.492C393.772 208.446 393.591 208.205 393.641 207.953L416.967 89.2928C417.016 89.0424 417.279 88.8847 417.548 88.9199C417.82 88.9663 418 89.2084 417.95 89.4598L394.624 208.119C394.58 208.343 394.37 208.5 394.133 208.5Z" fill="#263238"/>
<path d="M414.83 91.286C414.814 91.7053 414.435 92.0336 413.983 92.0197C413.531 92.0049 413.177 91.6534 413.192 91.2341C413.207 90.8149 413.587 90.4865 414.039 90.5004C414.492 90.5143 414.846 90.8659 414.83 91.286Z" fill="#263238"/>
<path d="M411.498 107.333C411.482 107.752 411.103 108.081 410.651 108.067C410.199 108.053 409.845 107.7 409.86 107.281C409.875 106.862 410.255 106.533 410.707 106.547C411.159 106.561 411.513 106.913 411.498 107.333Z" fill="#263238"/>
<path d="M408.166 123.38C408.15 123.799 407.771 124.127 407.319 124.113C406.867 124.1 406.513 123.747 406.528 123.328C406.543 122.909 406.923 122.58 407.375 122.594C407.828 122.609 408.182 122.961 408.166 123.38Z" fill="#263238"/>
<path d="M401.613 140.086C401.597 140.505 401.218 140.833 400.766 140.82C400.314 140.805 399.96 140.453 399.975 140.034C399.99 139.615 400.37 139.286 400.822 139.3C401.274 139.314 401.629 139.666 401.613 140.086Z" fill="#263238"/>
<path d="M401.5 155.475C401.484 155.894 401.105 156.222 400.653 156.208C400.201 156.193 399.847 155.842 399.862 155.423C399.877 155.003 400.257 154.675 400.709 154.689C401.162 154.703 401.516 155.055 401.5 155.475Z" fill="#263238"/>
<path d="M398.168 171.521C398.152 171.941 397.773 172.269 397.321 172.255C396.869 172.241 396.515 171.889 396.53 171.469C396.545 171.05 396.925 170.722 397.377 170.736C397.829 170.75 398.183 171.101 398.168 171.521Z" fill="#263238"/>
<path d="M394.836 187.569C394.82 187.988 394.441 188.317 393.989 188.303C393.537 188.288 393.183 187.937 393.198 187.517C393.214 187.098 393.593 186.77 394.045 186.784C394.498 186.798 394.852 187.149 394.836 187.569Z" fill="#263238"/>
<path d="M391.504 203.615C391.488 204.034 391.109 204.363 390.657 204.349C390.205 204.335 389.851 203.982 389.866 203.563C389.881 203.144 390.261 202.816 390.713 202.83C391.165 202.843 391.519 203.196 391.504 203.615Z" fill="#263238"/>
<path d="M400.794 140.524C400.564 140.524 400.356 140.375 400.306 140.156C400.248 139.906 400.42 139.66 400.69 139.605L403.174 139.111C403.448 139.061 403.71 139.216 403.768 139.468C403.826 139.718 403.654 139.964 403.384 140.019L400.9 140.513C400.864 140.52 400.829 140.524 400.794 140.524Z" fill="#263238"/>
<path d="M409.085 131.979C409.085 131.979 406.847 137.385 406.094 140.661C405.341 143.937 405.295 151.257 405.295 151.257" fill="#263238"/>
<path d="M405.295 151.721H405.292C405.016 151.719 404.793 151.51 404.795 151.254C404.797 150.954 404.849 143.849 405.605 140.564C406.358 137.29 408.526 132.035 408.618 131.811C408.717 131.573 409.005 131.454 409.264 131.545C409.522 131.637 409.651 131.906 409.552 132.144C409.53 132.199 407.32 137.556 406.583 140.757C405.849 143.95 405.796 151.188 405.795 151.26C405.793 151.516 405.57 151.721 405.295 151.721Z" fill="#263238"/>
<path d="M222.451 231.781C223.84 211.001 221.285 173.228 263.395 178.228C308.53 183.588 295.617 232.541 295.617 232.541L222.451 231.781Z" fill="#263238"/>
<path d="M251.514 219.291C261.662 219.291 269.889 211.66 269.889 202.248C269.889 192.835 261.662 185.204 251.514 185.204C241.365 185.204 233.139 192.835 233.139 202.248C233.139 211.66 241.365 219.291 251.514 219.291Z" fill="white"/>
<path d="M253.925 185.231C245.221 183.853 235.915 189.804 234.998 195.833L269.505 198.776C268.289 191.903 260.831 186.325 253.925 185.231Z" fill="#263238"/>
<path d="M265.576 201.824C265.329 206.28 262.711 209.777 259.728 209.635C256.745 209.493 254.527 205.765 254.773 201.309C255.02 196.853 257.638 193.356 260.621 193.498C263.604 193.64 265.823 197.368 265.576 201.824Z" fill="#263238"/>
<path d="M251.513 220.218C240.829 220.218 232.137 212.157 232.137 202.247C232.137 192.338 240.829 184.276 251.513 184.276C262.197 184.276 270.888 192.338 270.888 202.247C270.888 212.157 262.196 220.218 251.513 220.218ZM251.513 186.131C241.932 186.131 234.137 193.361 234.137 202.247C234.137 211.134 241.931 218.363 251.513 218.363C261.094 218.363 268.888 211.134 268.888 202.247C268.888 193.361 261.093 186.131 251.513 186.131Z" fill="#407BFF"/>
<path opacity="0.3" d="M290.484 231.258C290.445 231.258 290.406 231.253 290.366 231.245C290.098 231.184 289.932 230.934 289.997 230.684C290.03 230.559 293.216 217.983 289.907 205.267C289.842 205.019 290.007 204.768 290.276 204.707C290.541 204.651 290.814 204.8 290.879 205.049C294.247 217.988 291.003 230.774 290.969 230.902C290.914 231.116 290.71 231.258 290.484 231.258Z" fill="white"/>
<path opacity="0.3" d="M287.697 198.313C287.507 198.313 287.326 198.213 287.242 198.043C285.956 195.44 284.361 193.051 282.5 190.94C282.325 190.742 282.357 190.451 282.571 190.288C282.784 190.125 283.099 190.154 283.275 190.353C285.189 192.525 286.83 194.982 288.151 197.657C288.266 197.89 288.156 198.165 287.905 198.271C287.837 198.3 287.767 198.313 287.697 198.313Z" fill="white"/>
<path d="M128.735 329.243C128.611 329.243 128.487 329.242 128.363 329.238C125.603 329.168 123.427 327.036 123.502 324.475C123.577 321.915 125.851 319.934 128.637 319.967C128.668 319.968 128.7 319.968 128.733 319.968C131.622 319.968 138.572 316.712 153.111 295.453C153.892 294.312 155.172 293.542 156.614 293.347C158.059 293.157 159.519 293.554 160.619 294.442C178.56 308.951 197.573 317.983 197.763 318.073C200.224 319.232 201.207 322.024 199.957 324.307C198.707 326.59 195.699 327.504 193.238 326.344C192.483 325.988 175.864 318.107 158.44 304.875C146.254 321.866 137.211 329.243 128.735 329.243Z" fill="#263238"/>
<path d="M159.67 293.61C159.528 293.61 159.386 293.6 159.242 293.582C157.602 293.365 156.462 291.955 156.697 290.433C157.408 285.817 156.527 268.519 150.222 255.07C149.647 253.844 150.093 252.413 151.284 251.66C164.982 243.002 194.16 241.966 195.396 241.926C197.043 241.893 198.44 243.075 198.498 244.611C198.556 246.146 197.26 247.435 195.605 247.488C195.335 247.497 169.825 248.404 156.717 255.096C162.301 268.487 163.567 285.182 162.636 291.22C162.422 292.609 161.139 293.61 159.67 293.61Z" fill="#263238"/>
<path d="M164.709 290.007C162.714 285.642 153.721 286.138 148.441 289.879C145.619 291.877 141.8 297.893 141.398 300.073C140.997 302.254 142.625 304.229 145.421 304.004C148.869 303.728 153.602 299.08 153.602 299.08C150.453 301.944 154.516 303.965 160.579 299.823C163.943 297.525 166.943 294.895 164.709 290.007Z" fill="#407BFF"/>
<path d="M336.705 233.005C336.66 233.005 336.613 233 336.567 232.987C336.302 232.916 336.148 232.658 336.225 232.413C337.557 228.11 339.012 225.48 340.925 224.018C340.632 223.094 340.665 222.033 341.078 220.995C341.48 219.985 342.257 218.982 343.44 218.208C342.861 217.627 342.645 216.868 342.85 215.999C343.077 215.033 343.834 213.986 344.986 213.071C344.533 212.588 344.422 212.062 344.419 211.673C344.394 208.907 349.926 204.693 356.181 203.901C356.455 203.854 356.707 204.043 356.744 204.298C356.781 204.551 356.59 204.785 356.316 204.82C350.378 205.572 345.399 209.559 345.419 211.665C345.422 212.007 345.558 212.281 345.781 212.503C348.032 211.049 351.355 210.114 355.063 210.775C358.132 211.319 359.38 211.92 359.236 212.785C358.964 214.411 352.427 214.747 348.046 214.263C347.053 214.154 346.326 213.936 345.796 213.664C344.707 214.491 344.009 215.418 343.827 216.196C343.664 216.891 343.906 217.375 344.322 217.714C346.178 216.826 348.791 216.455 352.238 217.162C356.775 218.09 356.944 218.603 357.046 218.908C357.118 219.126 357.06 219.351 356.885 219.522C355.929 220.462 348.979 220.016 345.487 219.223C345.032 219.12 344.631 218.979 344.284 218.805C343.127 219.481 342.383 220.393 342.016 221.316C341.722 222.056 341.655 222.794 341.79 223.452C341.97 223.353 342.154 223.262 342.342 223.179C344.411 222.268 346.913 222.421 349.996 223.643C352.041 224.456 353.027 225.174 353.099 225.906C353.121 226.122 353.075 226.536 352.529 226.872C351.004 227.812 345.659 227.669 342.881 226.297C342.226 225.972 341.707 225.495 341.343 224.919C339.708 226.304 338.39 228.783 337.187 232.668C337.122 232.873 336.922 233.005 336.705 233.005ZM342.13 224.35C342.406 224.825 342.817 225.217 343.349 225.479C345.606 226.593 350.045 226.848 351.711 226.225C352.051 226.097 352.102 225.99 352.102 225.99C352.102 225.987 352.047 225.468 349.601 224.498C346.798 223.386 344.563 223.23 342.77 224.017C342.552 224.114 342.338 224.224 342.13 224.35ZM345.464 218.258C345.55 218.281 345.637 218.304 345.722 218.323C349.253 219.124 354.02 219.262 355.655 219.012C355.149 218.814 354.115 218.497 352.02 218.068C349.247 217.501 347.079 217.678 345.464 218.258ZM346.726 213.044C347.177 213.199 347.687 213.291 348.163 213.343C353.146 213.89 357.545 213.244 358.203 212.668C358.033 212.525 357.362 212.128 354.874 211.687C351.591 211.107 348.723 211.87 346.726 213.044Z" fill="#263238"/>
<path d="M206.527 327.694C207.186 327.498 206.965 326.909 206.23 326.909H192.691C166.91 324.376 148.897 327.77 160.248 328.571C171.598 329.371 159.449 329.203 151.16 332.111C142.871 335.02 212.814 335.753 219.175 332.111C225.041 328.752 197.392 330.41 206.527 327.694Z" fill="#263238"/>
<path d="M303.468 331.395L185.666 327.773L180.777 221.828L319.888 224.714L303.468 331.395Z" fill="#407BFF"/>
<path d="M222.451 329.369C222.193 329.369 221.974 329.186 221.953 328.943L212.51 222.535C212.487 222.28 212.692 222.055 212.968 222.035C213.251 222.02 213.485 222.204 213.507 222.459L222.95 328.867C222.972 329.122 222.768 329.346 222.492 329.367C222.478 329.368 222.464 329.369 222.451 329.369Z" fill="#263238"/>
<path d="M303.469 331.395L335.131 326.925L345.104 228.411L319.889 224.714L303.469 331.395Z" fill="#407BFF"/>
<path opacity="0.2" d="M303.469 331.395L335.131 326.925L345.104 228.411L319.889 224.714L303.469 331.395Z" fill="black"/>
<path d="M195.734 307.352L192.83 244.408C192.527 237.837 198.274 232.397 205.362 232.545L293.421 234.371C300.775 234.523 306.332 240.602 305.292 247.357L295.529 310.792C294.644 316.541 289.234 320.75 282.977 320.557L207.586 318.239C201.174 318.041 196.009 313.296 195.734 307.352Z" fill="#263238"/>
<path d="M205.246 251.859L218.87 252.262L218.758 255.52L210.229 255.269L210.146 257.694L218.058 257.928L217.951 261.04L210.039 260.806L209.936 263.814L218.712 264.073L218.594 267.529L204.723 267.12L205.246 251.859Z" fill="white"/>
<path d="M221.398 267.611L221.921 252.352L230.394 252.602C231.965 252.648 233.162 252.809 233.983 253.083C234.805 253.358 235.458 253.84 235.944 254.532C236.43 255.224 236.656 256.055 236.622 257.027C236.593 257.874 236.373 258.598 235.963 259.201C235.553 259.804 235 260.287 234.306 260.647C233.864 260.877 233.262 261.061 232.5 261.198C233.099 261.404 233.534 261.605 233.804 261.799C233.986 261.93 234.248 262.206 234.589 262.626C234.93 263.046 235.157 263.369 235.269 263.595L237.579 268.09L231.835 267.92L229.278 263.177C228.954 262.564 228.661 262.162 228.398 261.974C228.039 261.727 227.628 261.596 227.164 261.582L226.715 261.569L226.503 267.764L221.398 267.611ZM226.816 258.686L228.959 258.749C229.191 258.755 229.642 258.7 230.313 258.581C230.652 258.528 230.932 258.377 231.154 258.126C231.376 257.876 231.493 257.584 231.504 257.251C231.521 256.758 231.366 256.375 231.038 256.102C230.71 255.828 230.083 255.678 229.155 255.65L226.922 255.584L226.816 258.686Z" fill="white"/>
<path d="M239.275 268.14L239.798 252.88L248.271 253.13C249.842 253.177 251.039 253.337 251.86 253.612C252.682 253.886 253.335 254.369 253.821 255.061C254.307 255.752 254.533 256.584 254.499 257.556C254.47 258.402 254.25 259.127 253.84 259.73C253.429 260.333 252.877 260.815 252.183 261.176C251.741 261.406 251.139 261.589 250.377 261.727C250.976 261.933 251.411 262.133 251.681 262.328C251.864 262.459 252.125 262.734 252.467 263.154C252.808 263.574 253.035 263.897 253.147 264.123L255.457 268.618L249.712 268.449L247.155 263.705C246.832 263.092 246.538 262.69 246.275 262.502C245.916 262.255 245.505 262.125 245.041 262.111L244.592 262.098L244.38 268.291L239.275 268.14ZM244.693 259.214L246.836 259.277C247.068 259.284 247.519 259.228 248.19 259.108C248.529 259.055 248.809 258.904 249.031 258.654C249.253 258.403 249.37 258.111 249.381 257.778C249.398 257.286 249.243 256.903 248.915 256.629C248.587 256.355 247.959 256.205 247.032 256.177L244.799 256.111L244.693 259.214Z" fill="white"/>
<path d="M256.314 261.015C256.4 258.524 257.214 256.607 258.758 255.263C260.302 253.92 262.409 253.287 265.08 253.366C267.818 253.447 269.905 254.191 271.339 255.598C272.774 257.005 273.449 258.937 273.365 261.394C273.304 263.177 272.93 264.631 272.244 265.753C271.557 266.876 270.592 267.736 269.347 268.335C268.102 268.935 266.567 269.206 264.741 269.153C262.886 269.098 261.36 268.779 260.163 268.194C258.966 267.61 258.01 266.714 257.295 265.505C256.58 264.295 256.253 262.799 256.314 261.015ZM261.397 261.186C261.344 262.727 261.615 263.842 262.209 264.533C262.803 265.224 263.631 265.586 264.694 265.618C265.786 265.65 266.643 265.345 267.264 264.704C267.885 264.062 268.225 262.888 268.284 261.18C268.333 259.745 268.057 258.685 267.455 258.005C266.853 257.323 266.017 256.967 264.947 256.935C263.922 256.904 263.087 257.217 262.443 257.872C261.799 258.527 261.45 259.631 261.397 261.186Z" fill="white"/>
<path d="M275.906 269.22L276.429 253.96L284.902 254.21C286.473 254.257 287.67 254.417 288.491 254.692C289.313 254.966 289.966 255.449 290.452 256.141C290.938 256.833 291.164 257.665 291.13 258.636C291.101 259.483 290.881 260.207 290.471 260.81C290.061 261.413 289.508 261.895 288.814 262.256C288.371 262.486 287.769 262.67 287.008 262.807C287.607 263.013 288.042 263.213 288.312 263.408C288.494 263.539 288.756 263.814 289.097 264.234C289.438 264.654 289.665 264.977 289.777 265.204L292.087 269.698L286.343 269.529L283.786 264.785C283.462 264.172 283.169 263.771 282.906 263.582C282.547 263.336 282.136 263.205 281.672 263.191L281.223 263.178L281.011 269.371L275.906 269.22ZM281.324 260.294L283.467 260.357C283.699 260.364 284.15 260.308 284.821 260.188C285.16 260.135 285.44 259.984 285.662 259.734C285.884 259.483 286.001 259.191 286.012 258.858C286.029 258.366 285.874 257.983 285.546 257.709C285.218 257.435 284.591 257.285 283.663 257.257L281.43 257.192L281.324 260.294Z" fill="white"/>
<path d="M283.998 295.148C283.642 295.148 283.288 295.014 283.028 294.752L274.467 286.062L265.23 293.889C264.695 294.344 263.865 294.307 263.376 293.812L254.815 285.122L245.578 292.949C245.043 293.403 244.212 293.368 243.724 292.872L235.163 284.182L225.926 292.011C225.67 292.229 225.324 292.343 224.982 292.329C224.634 292.314 224.307 292.172 224.072 291.934L215.511 283.244L206.274 291.071C205.739 291.525 204.909 291.489 204.42 290.994C203.931 290.498 203.969 289.727 204.504 289.274L214.709 280.624C215.244 280.169 216.074 280.205 216.564 280.701L225.125 289.391L234.362 281.563C234.618 281.345 234.963 281.232 235.306 281.245C235.654 281.26 235.981 281.402 236.216 281.64L244.777 290.33L254.014 282.503C254.548 282.048 255.379 282.083 255.868 282.58L264.429 291.27L273.666 283.442C274.201 282.987 275.031 283.022 275.521 283.519L284.967 293.108C285.456 293.604 285.418 294.375 284.883 294.829C284.631 295.043 284.314 295.148 283.998 295.148Z" fill="white"/>
<path d="M125.749 333.648L119.491 330.879L113.908 305.681L116.938 302.586L125.749 333.648Z" fill="#407BFF"/>
<path d="M125.748 333.648L134.053 329.148L126.933 308.387L116.938 302.586L125.748 333.648Z" fill="#407BFF"/>
<path opacity="0.2" d="M125.748 333.648L134.053 329.148L126.933 308.387L116.938 302.586L125.748 333.648Z" fill="black"/>
<path d="M261.948 338.229C261.712 338.229 261.481 338.225 261.257 338.219C258.497 338.149 256.32 336.017 256.396 333.456C256.472 330.897 258.752 328.884 261.531 328.948C269.234 329.181 285.537 324.792 294.85 316.407C295.426 315.888 296.127 315.506 296.896 315.293C312.684 310.898 318.56 319.776 318.803 320.157L310.196 324.878C310.196 324.878 310.229 324.942 310.311 325.047C310.215 324.925 307.98 322.229 300.859 323.897C289.172 333.792 271.232 338.229 261.948 338.229Z" fill="#263238"/>
<path d="M261.394 344.394L243.181 343.329L241.744 312.187L266.221 313.035L261.394 344.394Z" fill="#407BFF"/>
<path d="M261.395 344.394L265.652 340.464L268.291 321.045L266.222 313.035L261.395 344.394Z" fill="#407BFF"/>
<path opacity="0.2" d="M261.395 344.394L265.652 340.464L268.291 321.045L266.222 313.035L261.395 344.394Z" fill="black"/>
<path d="M366.909 332.6C366.277 332.6 365.639 332.416 365.096 332.034C354.701 324.706 340.651 311.697 335.259 299.146C335.18 298.963 335.123 298.772 335.088 298.577C332.459 284.077 329.947 253.554 329.841 252.261C329.716 250.73 330.953 249.392 332.605 249.276C334.252 249.164 335.698 250.308 335.823 251.841C335.849 252.152 338.386 282.974 340.951 297.358C346.329 309.56 360.908 322.091 368.726 327.602C370.045 328.532 370.302 330.278 369.299 331.501C368.71 332.222 367.815 332.6 366.909 332.6Z" fill="#263238"/>
<path d="M380.778 334.007C378.459 334.007 375.829 333.031 372.964 331.108C371.622 330.207 371.321 328.468 372.293 327.223C373.265 325.978 375.14 325.699 376.482 326.599C378.959 328.263 380.312 328.442 380.779 328.442C382.436 328.442 383.779 329.687 383.779 331.224C383.778 332.761 382.435 334.007 380.778 334.007Z" fill="#263238"/>
<path d="M373.803 331.028C377.013 322.184 390.173 323.932 394.705 325.245C399.237 326.558 403.32 328.211 405.775 329.7C408.23 331.189 408.269 333.674 404.996 335.094C400.96 336.846 390.835 335.292 390.835 335.292C396.076 337.421 390.825 340.831 381.63 337.481C378.636 336.39 372.67 334.269 373.803 331.028Z" fill="#407BFF"/>
<path d="M341.862 256.078C340.671 263.593 333.962 269.134 328.504 268.39C323.046 267.646 322.819 260.935 324.01 253.42C325.201 245.905 327.359 240.433 332.817 241.177C338.275 241.922 343.053 248.564 341.862 256.078Z" fill="#263238"/>
<path d="M209.874 226.079C210.326 226.079 210.693 225.739 210.693 225.319C210.693 224.9 210.326 224.56 209.874 224.56C209.421 224.56 209.055 224.9 209.055 225.319C209.055 225.739 209.421 226.079 209.874 226.079Z" fill="#263238"/>
<path d="M218.207 230.795C218.207 231.214 217.84 231.554 217.388 231.554C216.936 231.554 216.568 231.214 216.568 230.795C216.568 230.375 216.935 230.035 217.388 230.035C217.841 230.035 218.207 230.375 218.207 230.795Z" fill="#263238"/>
<path d="M219.123 320.678C219.123 321.098 218.756 321.437 218.304 321.437C217.851 321.437 217.484 321.097 217.484 320.678C217.484 320.257 217.851 319.918 218.304 319.918C218.756 319.917 219.123 320.257 219.123 320.678Z" fill="#263238"/>
<path d="M226.639 326.153C226.639 326.573 226.272 326.913 225.819 326.913C225.367 326.913 225 326.572 225 326.153C225 325.733 225.367 325.394 225.819 325.394C226.272 325.393 226.639 325.733 226.639 326.153Z" fill="#263238"/>
<path d="M82.5099 335.274C80.1299 335.274 76.9119 333.937 75.1769 331.611C75.0199 331.401 75.0759 331.112 75.3029 330.967C75.5299 330.82 75.8409 330.873 75.9989 331.084C77.8649 333.583 81.9779 334.916 83.8039 334.127C83.9959 334.043 84.1519 333.938 84.2709 333.812C82.6389 333.113 81.1469 331.744 80.7449 329.655C80.5179 328.48 80.3379 326.891 81.3839 326.671C82.8179 326.373 84.6939 329.589 85.4159 332.028C85.5499 332.479 85.5919 332.897 85.5459 333.273C86.1779 333.434 86.7999 333.476 87.3329 333.404C87.7659 333.346 88.3809 333.181 88.7079 332.713C87.4929 331.952 86.6759 330.609 86.4029 328.828C86.0149 326.292 86.3059 325.849 86.6089 325.633C86.8059 325.493 87.0559 325.466 87.2969 325.561C88.3659 325.983 89.6619 329.581 89.9099 331.617C89.9369 331.841 89.9369 332.057 89.9129 332.26C90.3219 332.411 90.7729 332.493 91.2619 332.503C92.1289 332.549 92.9859 332.293 93.6719 331.919C93.5299 331.837 93.3959 331.745 93.2699 331.646C92.2319 330.823 91.8139 329.509 91.9899 327.628C92.1259 326.175 92.4829 325.38 93.1129 325.131C93.3339 325.04 93.7839 324.955 94.3209 325.352C95.4009 326.153 96.4089 328.69 96.0469 330.507C95.9719 330.882 95.7969 331.243 95.5449 331.574C97.3799 331.867 99.9619 331.39 102.189 330.879C102.456 330.819 102.728 330.969 102.794 331.218C102.86 331.468 102.697 331.718 102.429 331.779C99.7189 332.401 96.8019 332.906 94.7409 332.351C93.8249 333.028 92.5349 333.438 91.2429 333.429C90.6539 333.418 90.1049 333.321 89.6039 333.144C89.2099 333.766 88.4769 334.187 87.4799 334.323C86.8159 334.414 86.0339 334.355 85.2419 334.145C85.0169 334.493 84.6769 334.772 84.2289 334.967C83.7489 335.173 83.1609 335.273 82.5099 335.274ZM81.6459 327.597C81.5879 327.739 81.4829 328.208 81.7309 329.493C82.0599 331.199 83.2509 332.334 84.5699 332.932C84.5639 332.735 84.5249 332.516 84.4539 332.275C83.6679 329.624 82.1749 327.796 81.6459 327.597ZM87.2169 326.788C87.2109 327.137 87.2449 327.723 87.3939 328.698C87.5969 330.022 88.1229 331.039 88.9129 331.687C88.6789 329.824 87.7879 327.667 87.2169 326.788ZM93.5079 325.982H93.5059C93.5039 325.983 93.1309 326.158 92.9849 327.707C92.8389 329.268 93.1449 330.326 93.9189 330.939C94.0949 331.078 94.2949 331.195 94.5179 331.29C94.8009 331 94.9939 330.675 95.0609 330.337C95.3289 328.993 94.6389 327.025 93.8649 326.228C93.6649 326.021 93.5359 325.982 93.5079 325.982Z" fill="#263238"/>
<path d="M228.872 342.285L231.582 337.926L228.872 333.566H225.971L227.61 337.926L225.971 342.285H228.872Z" fill="#263238"/>
<path d="M226.162 340.198C224.812 340.198 223.712 339.178 223.712 337.926C223.712 336.674 224.812 335.663 226.162 335.663L221.554 334.808L220.332 338.259L222.388 341.171L226.162 340.198Z" fill="#263238"/>
<path d="M226.556 333.566H221.126L218.416 337.926L221.126 342.285H226.556L229.266 337.926L226.556 333.566ZM223.846 340.198C222.496 340.198 221.396 339.178 221.396 337.926C221.396 336.674 222.496 335.663 223.846 335.663C225.196 335.663 226.286 336.674 226.286 337.926C226.286 339.178 225.196 340.198 223.846 340.198Z" fill="#407BFF"/>
<path d="M417.889 333.276L415.877 330.038L417.889 326.801H420.044L418.827 330.039L420.044 333.276H417.889Z" fill="#407BFF"/>
<path d="M419.902 331.726C420.905 331.726 421.722 330.968 421.722 330.038C421.722 329.108 420.905 328.357 419.902 328.357L423.324 327.722L424.232 330.285L422.705 332.447L419.902 331.726Z" fill="#407BFF"/>
<path d="M419.611 326.801H423.644L425.657 330.038L423.644 333.276H419.611L417.598 330.038L419.611 326.801ZM421.624 331.726C422.627 331.726 423.444 330.968 423.444 330.038C423.444 329.108 422.627 328.357 421.624 328.357C420.621 328.357 419.812 329.108 419.812 330.038C419.811 330.968 420.621 331.726 421.624 331.726Z" fill="#263238"/>
<path d="M342.948 337.573H347.466C348.642 337.573 349.605 336.681 349.605 335.589C349.605 334.499 348.642 333.605 347.466 333.605H342.948C341.771 333.605 340.809 334.499 340.809 335.589C340.809 336.681 341.771 337.573 342.948 337.573Z" fill="#263238"/>
<path d="M335.73 333.831C336.846 331.636 339.55 330.645 341.772 331.616C343.993 332.587 344.889 335.154 343.774 337.348C342.659 339.543 339.954 340.534 337.733 339.563C335.51 338.592 334.614 336.025 335.73 333.831Z" fill="#407BFF"/>
<path d="M337.001 339.546L338.24 340.088L342.549 331.613L341.31 331.071L337.001 339.546Z" fill="#263238"/>
</svg>
