<svg width="500" height="501" viewBox="0 0 500 501" fill="none" xmlns="http://www.w3.org/2000/svg">
<path d="M250 443.087C357.083 443.087 443.89 438.019 443.89 431.767C443.89 425.515 357.083 420.447 250 420.447C142.918 420.447 56.1101 425.515 56.1101 431.767C56.1101 438.019 142.918 443.087 250 443.087Z" fill="#F5F5F5"/>
<path d="M238.395 342.03H45.305C42.155 342.025 39.605 339.47 39.605 336.32V64.89C39.632 61.76 42.175 59.235 45.305 59.23H238.395C241.548 59.23 244.105 61.786 244.105 64.94V336.32C244.105 339.474 241.548 342.03 238.395 342.03ZM45.305 59.43C42.293 59.436 39.855 61.878 39.855 64.89V336.32C39.855 339.332 42.293 341.774 45.305 341.78H238.395C241.408 341.775 243.849 339.333 243.855 336.32V64.89C243.849 61.877 241.408 59.435 238.395 59.43H45.305Z" fill="#E6E6E6"/>
<path d="M454.705 342.03H261.605C258.454 342.025 255.9 339.471 255.895 336.32V64.89C255.928 61.758 258.473 59.235 261.605 59.23H454.705C457.831 59.241 460.368 61.764 460.395 64.89V336.32C460.395 339.466 457.851 342.019 454.705 342.03ZM261.605 59.43C258.592 59.436 256.15 61.877 256.145 64.89V336.32C256.15 339.333 258.592 341.774 261.605 341.78H454.705C457.718 341.775 460.159 339.333 460.165 336.32V64.89C460.159 61.877 457.718 59.435 454.705 59.43H261.605Z" fill="#E6E6E6"/>
<path d="M85.94 392.71H44.73V392.96H85.94V392.71Z" fill="#E0E0E0"/>
<path d="M169.94 390.71H128.61V390.96H169.94V390.71Z" fill="#E0E0E0"/>
<path d="M223.72 390.71H213.72V390.96H223.72V390.71Z" fill="#E0E0E0"/>
<path d="M123.77 399.25H77.52V399.5H123.77V399.25Z" fill="#E0E0E0"/>
<path d="M283.74 392.58H262.14V392.83H283.74V392.58Z" fill="#E0E0E0"/>
<path d="M320.57 392.58H292.64V392.83H320.57V392.58Z" fill="#E0E0E0"/>
<path d="M455.27 396.81H392.83V397.06H455.27V396.81Z" fill="#E0E0E0"/>
<path d="M500 382.898H0V383.148H500V382.898Z" fill="#EBEBEB"/>
<path opacity="0.8" d="M334.835 79.98L332.343 114.254C332.259 115.448 331.744 116.532 330.95 117.344C330.035 118.318 328.74 118.927 327.343 118.927H299.85C298.834 118.927 297.917 118.605 297.194 118.046C296.067 117.208 295.394 115.819 295.503 114.253L297.995 79.979C298.176 77.397 300.413 75.305 302.995 75.305H330.486C333.07 75.307 335.015 77.398 334.835 79.98Z" fill="#E0E0E0"/>
<path d="M322.911 95.497C322.557 100.553 318.902 104.651 314.747 104.651C310.592 104.651 307.51 100.553 307.863 95.497C308.217 90.441 311.872 86.343 316.027 86.343C320.182 86.343 323.264 90.442 322.911 95.497Z" fill="white"/>
<path d="M326.377 116.566H301.218C299.623 116.566 298.518 115.801 298.478 114.727C298.42 113.172 306.579 106.423 314.319 107.008C314.347 107.01 314.375 107.008 314.404 107.008C314.435 107.008 314.466 107.008 314.496 107.008C319.238 107.028 323.703 109.033 327.455 111.999C331.188 114.95 327.655 116.566 326.377 116.566Z" fill="white"/>
<path d="M193.021 117.68C187.669 117.747 182.956 113.443 182.514 108.087C182.073 102.73 186.068 98.318 191.42 98.251C196.773 98.184 201.486 102.488 201.927 107.845C202.369 113.201 198.374 117.613 193.021 117.68ZM191.846 103.413C189.338 103.444 187.466 105.512 187.673 108.022C187.88 110.532 190.088 112.548 192.596 112.517C195.104 112.486 196.976 110.418 196.77 107.908C196.563 105.398 194.354 103.382 191.846 103.413Z" fill="#E0E0E0"/>
<path d="M193.502 102.664L189.818 102.71L187.864 78.993L191.548 78.947L193.502 102.664Z" fill="#E0E0E0"/>
<path d="M195.039 80.011L188.122 80.098L187.818 76.41L194.735 76.324L195.039 80.011Z" fill="#E0E0E0"/>
<path d="M195.435 84.75L188.931 84.831L188.627 81.143L195.131 81.062L195.435 84.75Z" fill="#E0E0E0"/>
<path d="M195.996 91.434L190.319 91.505L190.015 87.817L195.693 87.746L195.996 91.434Z" fill="#E0E0E0"/>
<path d="M79.3089 319.268C79.3299 319.568 79.3709 319.868 79.4209 320.158C79.7559 322.088 80.7579 323.828 82.1489 325.128C83.7539 326.628 85.8889 327.558 88.1789 327.558H172.669C176.949 327.558 180.242 324.318 180.392 320.158C180.402 319.868 180.401 319.568 180.38 319.268C180.22 316.988 179.145 314.908 177.541 313.418C175.936 311.918 173.801 310.988 171.511 310.988H87.0199C82.4399 310.988 78.9889 314.698 79.3089 319.268Z" fill="#F0F0F0"/>
<path d="M180.388 320.157C180.383 320.427 180.359 320.697 180.314 320.957C180.092 318.797 179.036 316.837 177.501 315.417C175.897 313.917 173.764 312.987 171.474 312.987L81.6218 313.127C82.9948 311.797 84.8888 310.987 87.0188 310.987H171.509C173.799 310.987 175.933 311.917 177.536 313.417C179.14 314.907 180.223 316.987 180.383 319.267C180.398 319.567 180.403 319.867 180.388 320.157Z" fill="#E0E0E0"/>
<path d="M165.93 314.984L166.213 319.026L170.001 317.623L170.86 319.618L166.992 320.894L169.694 324.285L167.948 325.562L165.318 322.038L163.217 325.562L161.347 324.285L163.539 320.894L159.528 319.618L160.106 317.635L164.125 318.987L163.845 314.984H165.93Z" fill="white"/>
<path d="M142.823 314.984L143.106 319.026L146.894 317.623L147.753 319.618L143.885 320.894L146.587 324.285L144.841 325.562L142.211 322.038L140.11 325.562L138.24 324.285L140.432 320.894L136.421 319.618L136.999 317.635L141.018 318.987L140.738 314.984H142.823Z" fill="white"/>
<path d="M119.716 314.984L119.999 319.026L123.787 317.623L124.646 319.618L120.778 320.894L123.48 324.285L121.734 325.562L119.104 322.038L117.003 325.562L115.133 324.285L117.325 320.894L113.314 319.618L113.892 317.635L117.911 318.987L117.631 314.984H119.716Z" fill="white"/>
<path d="M96.6088 314.984L96.8918 319.026L100.68 317.623L101.539 319.618L97.6708 320.894L100.373 324.285L98.6268 325.562L95.9968 322.038L93.8958 325.562L92.0258 324.285L94.2178 320.894L90.2068 319.618L90.7848 317.635L94.8038 318.987L94.5238 314.984H96.6088Z" fill="white"/>
<path d="M152.735 308.069H148.797L148.815 307.069H152.752L152.735 308.069Z" fill="#E0E0E0"/>
<path d="M169.673 308.069H156.82L156.837 307.069H169.691L169.673 308.069Z" fill="#E0E0E0"/>
<g opacity="0.8">
<path d="M269.385 303.027L285.319 327.559L337.877 275.001C338.339 274.539 337.702 273.82 337.188 274.223L287.1 313.482L277.641 298.231L269.385 303.027Z" fill="#E0E0E0"/>
</g>
<path opacity="0.1" d="M259.856 128.455L222.117 269.606H234.812L272.135 128.455H259.856Z" fill="white"/>
<path opacity="0.1" d="M279.449 128.455L241.709 269.606H266.891L304.214 128.455H279.449Z" fill="white"/>
<path d="M415.31 255.815L423.271 142.511C423.534 138.768 420.698 135.735 416.936 135.739L219.202 135.911C215.44 135.914 212.177 138.952 211.914 142.695L203.953 255.999C203.69 259.742 206.526 262.775 210.288 262.771L408.022 262.599C411.784 262.595 415.047 259.558 415.31 255.815Z" fill="#0736BC"/>
<path d="M412.773 253.344L420.734 140.04C420.997 136.297 418.161 133.264 414.399 133.268L216.665 133.44C212.903 133.443 209.64 136.481 209.377 140.224L201.416 253.528C201.153 257.272 203.989 260.304 207.751 260.3L405.485 260.128C409.247 260.125 412.51 257.087 412.773 253.344Z" fill="#0841E2"/>
<path opacity="0.6" d="M407.531 255.016C407.249 255.279 406.76 255.594 406.038 255.595L208.304 255.766C206.974 255.767 205.889 254.609 205.982 253.289L213.943 139.986C213.993 139.274 214.338 138.813 214.62 138.55C214.903 138.287 215.391 137.973 216.113 137.971L413.848 137.8C415.178 137.799 416.263 138.956 416.17 140.277L408.209 253.58C408.157 254.293 407.812 254.754 407.531 255.016Z" fill="white"/>
<path d="M341.759 192.729H272.353C271.114 192.729 270.004 193.729 269.875 194.962L268.813 205.111C268.684 206.344 269.584 207.344 270.823 207.344H340.229C341.468 207.344 342.578 206.344 342.707 205.111L343.769 194.962C343.898 193.729 342.998 192.729 341.759 192.729Z" fill="white"/>
<path d="M280.608 234.185H269.777C268.538 234.185 267.428 235.185 267.299 236.418L266.237 246.567C266.108 247.8 267.008 248.8 268.247 248.8H279.078C280.317 248.8 281.427 247.8 281.556 246.567L282.618 236.418C282.748 235.185 281.848 234.185 280.608 234.185Z" fill="white"/>
<path d="M299.309 234.185H288.478C287.239 234.185 286.129 235.185 286 236.418L284.938 246.567C284.809 247.8 285.709 248.8 286.948 248.8H297.779C299.018 248.8 300.128 247.8 300.257 246.567L301.319 236.418C301.449 235.185 300.549 234.185 299.309 234.185Z" fill="white"/>
<path d="M318.01 234.185H307.179C305.94 234.185 304.83 235.185 304.701 236.418L303.639 246.567C303.51 247.8 304.41 248.8 305.649 248.8H316.48C317.719 248.8 318.829 247.8 318.958 246.567L320.02 236.418C320.15 235.185 319.25 234.185 318.01 234.185Z" fill="white"/>
<path d="M336.711 234.185H325.88C324.641 234.185 323.531 235.185 323.402 236.418L322.34 246.567C322.211 247.8 323.111 248.8 324.35 248.8H335.181C336.42 248.8 337.53 247.8 337.659 246.567L338.721 236.418C338.851 235.185 337.951 234.185 336.711 234.185Z" fill="white"/>
<path d="M281.059 227.271H324.475C326.586 227.271 328.475 225.568 328.695 223.468L329.217 218.485C329.437 216.384 327.904 214.682 325.793 214.682H282.377C280.266 214.682 278.377 216.385 278.157 218.485L277.636 223.468C277.415 225.568 278.948 227.271 281.059 227.271Z" stroke="#0841E2" stroke-miterlimit="10" stroke-linecap="round" stroke-linejoin="round"/>
<path d="M344.26 171.594H274.854C273.615 171.594 272.505 172.594 272.376 173.827L271.314 183.976C271.185 185.209 272.085 186.209 273.324 186.209H342.73C343.969 186.209 345.079 185.209 345.208 183.976L346.27 173.827C346.4 172.594 345.499 171.594 344.26 171.594Z" fill="white"/>
<path d="M280.793 200.037C280.936 198.672 279.939 197.565 278.568 197.565C277.196 197.565 275.968 198.672 275.825 200.037C275.682 201.402 276.679 202.509 278.051 202.509C279.423 202.509 280.65 201.402 280.793 200.037Z" fill="#0736BC"/>
<path d="M288.427 200.037C288.57 198.672 287.573 197.565 286.201 197.565C284.829 197.565 283.601 198.672 283.458 200.037C283.315 201.402 284.312 202.509 285.683 202.509C287.056 202.509 288.284 201.402 288.427 200.037Z" fill="#0736BC"/>
<path d="M296.06 200.037C296.203 198.672 295.206 197.565 293.834 197.565C292.462 197.565 291.234 198.672 291.091 200.037C290.948 201.402 291.944 202.509 293.317 202.509C294.689 202.509 295.917 201.402 296.06 200.037Z" fill="#0736BC"/>
<path d="M303.694 200.037C303.837 198.672 302.841 197.565 301.469 197.565C300.097 197.565 298.869 198.672 298.726 200.037C298.583 201.402 299.58 202.509 300.952 202.509C302.323 202.509 303.551 201.402 303.694 200.037Z" fill="#0736BC"/>
<path d="M311.477 200.037C311.62 198.672 310.623 197.565 309.252 197.565C307.88 197.565 306.652 198.672 306.509 200.037C306.366 201.402 307.363 202.509 308.735 202.509C310.106 202.509 311.334 201.402 311.477 200.037Z" fill="#0736BC"/>
<path d="M283.294 178.902C283.437 177.537 282.44 176.43 281.068 176.43C279.696 176.43 278.468 177.537 278.325 178.902C278.182 180.267 279.179 181.374 280.55 181.374C281.923 181.375 283.151 180.268 283.294 178.902Z" fill="#0736BC"/>
<path d="M290.928 178.902C291.071 177.537 290.075 176.43 288.702 176.43C287.33 176.43 286.102 177.537 285.959 178.902C285.816 180.267 286.812 181.374 288.184 181.374C289.557 181.375 290.785 180.268 290.928 178.902Z" fill="#0736BC"/>
<path d="M298.561 178.902C298.704 177.537 297.707 176.43 296.336 176.43C294.964 176.43 293.736 177.537 293.593 178.902C293.45 180.267 294.447 181.374 295.818 181.374C297.19 181.375 298.418 180.268 298.561 178.902Z" fill="#0736BC"/>
<path d="M306.195 178.902C306.338 177.537 305.341 176.43 303.97 176.43C302.598 176.43 301.37 177.537 301.227 178.902C301.084 180.267 302.081 181.374 303.453 181.374C304.825 181.374 306.052 180.268 306.195 178.902Z" fill="#0736BC"/>
<path d="M313.828 178.902C313.971 177.537 312.974 176.43 311.603 176.43C310.231 176.43 309.003 177.537 308.86 178.902C308.717 180.267 309.714 181.374 311.086 181.374C312.457 181.375 313.685 180.268 313.828 178.902Z" fill="#0736BC"/>
<path d="M321.462 178.902C321.605 177.537 320.608 176.43 319.237 176.43C317.865 176.43 316.637 177.537 316.494 178.902C316.351 180.267 317.347 181.374 318.72 181.374C320.091 181.375 321.319 180.268 321.462 178.902Z" fill="#0736BC"/>
<path d="M314.978 149.212L314.437 154.338C314.388 154.8 313.972 155.174 313.508 155.174C313.044 155.174 312.707 154.799 312.756 154.338L313.297 149.212C313.472 147.557 312.261 146.209 310.597 146.209H308.754C307.091 146.209 305.595 147.557 305.421 149.212L304.952 153.973H303.271L303.74 149.212C304.012 146.634 306.341 144.536 308.931 144.536H310.774C313.363 144.536 315.25 146.633 314.978 149.212Z" fill="#0841E2"/>
<path d="M315.012 154.15L313.958 164.137C313.891 164.769 313.324 165.28 312.689 165.28H302.654C302.02 165.28 301.559 164.769 301.626 164.137L302.68 154.15C302.723 153.742 302.977 153.383 303.321 153.182C303.509 153.071 303.725 153.007 303.949 153.007H313.984C314.202 153.007 314.398 153.067 314.56 153.171C314.872 153.371 315.056 153.734 315.012 154.15Z" fill="#0841E2"/>
<path d="M393.309 132.608L368.872 132.753" stroke="#0736BC" stroke-miterlimit="10" stroke-linecap="round" stroke-linejoin="round"/>
<path d="M406.629 132.542L397.992 132.58" stroke="#0736BC" stroke-miterlimit="10" stroke-linecap="round" stroke-linejoin="round"/>
<g opacity="0.3">
<path d="M235.099 137.942H263.075L234.634 255.767H212.118C212.098 255.767 212.077 255.767 212.057 255.767C209.271 255.752 207.305 253.086 207.958 250.38L235.099 137.942Z" fill="white"/>
<path d="M275.496 137.942H287.373L258.932 255.767H247.055L275.496 137.942Z" fill="white"/>
</g>
<path d="M86.654 101.163H92.33C86.617 101.163 82.309 105.794 82.709 111.508L94.757 283.806C95.156 289.519 100.112 294.151 105.825 294.151H100.149C94.436 294.151 89.481 289.52 89.081 283.806L77.032 111.507C76.633 105.794 80.94 101.163 86.654 101.163Z" fill="#0841E2"/>
<path d="M86.6539 101.163H92.3299C86.6169 101.163 82.3089 105.794 82.7089 111.508L94.7569 283.806C95.1559 289.519 100.112 294.151 105.825 294.151H100.149C94.4359 294.151 88.6809 289.52 88.2809 283.806L76.2319 111.507C75.8329 105.794 80.9399 101.163 86.6539 101.163Z" fill="#0841E2"/>
<path d="M101.841 294.15H171.338C177.051 294.15 181.359 289.519 180.959 283.805L168.911 111.507C168.511 105.794 163.556 101.162 157.843 101.162H88.346C82.633 101.162 78.325 105.793 78.725 111.507L90.773 283.805C91.173 289.518 96.128 294.15 101.841 294.15Z" fill="#0841E2"/>
<g opacity="0.6">
<path d="M157.656 104.482C161.623 104.482 165.077 107.712 165.354 111.681L177.402 283.978C177.531 285.826 176.942 287.552 175.743 288.839C174.548 290.123 172.875 290.829 171.035 290.829H101.538C97.5709 290.829 94.1179 287.6 93.8399 283.63L81.7909 111.334C81.6619 109.487 82.2509 107.76 83.4499 106.473C84.6449 105.19 86.3179 104.483 88.1579 104.483L157.656 104.482Z" fill="white"/>
</g>
<g opacity="0.3">
<path d="M138.033 290.83H110.315L133.174 104.482H155.482C157.515 104.482 159.335 105.334 160.621 106.695L138.033 290.83Z" fill="white"/>
<path d="M105.34 290.83H99.104L121.963 104.482H128.198L105.34 290.83Z" fill="white"/>
</g>
<path d="M103.176 185.904H153.517" stroke="white" stroke-miterlimit="10" stroke-linecap="round" stroke-linejoin="round"/>
<path d="M109.67 193.348H149.102" stroke="white" stroke-miterlimit="10" stroke-linecap="round" stroke-linejoin="round"/>
<path d="M104.678 151.578L104.747 153.556H103.457L103.388 151.562L101.104 147.973H102.474L104.05 150.453L105.452 147.973H106.719L104.678 151.578Z" fill="#0841E2"/>
<path d="M106.772 150.765C106.713 149.106 107.96 147.878 109.721 147.878C111.473 147.878 112.815 149.099 112.873 150.765C112.932 152.432 111.676 153.652 109.924 153.652C108.164 153.652 106.831 152.423 106.772 150.765ZM111.567 150.765C111.53 149.704 110.755 148.979 109.76 148.979C108.764 148.979 108.041 149.705 108.078 150.765C108.115 151.826 108.889 152.552 109.885 152.552C110.881 152.551 111.604 151.825 111.567 150.765Z" fill="#0841E2"/>
<path d="M113.814 151.1L113.705 147.974H114.995L115.102 151.053C115.139 152.114 115.617 152.552 116.398 152.552C117.186 152.552 117.625 152.113 117.588 151.053L117.481 147.974H118.755L118.864 151.1C118.922 152.743 118.014 153.652 116.429 153.652C114.844 153.652 113.872 152.743 113.814 151.1Z" fill="#0841E2"/>
<path d="M123.782 153.556L122.652 152.001H122.588H121.465L121.52 153.556H120.23L120.035 147.973H122.448C123.938 147.973 124.896 148.747 124.94 149.999C124.97 150.836 124.57 151.451 123.855 151.762L125.169 153.556H123.782ZM122.413 149.026H121.36L121.428 150.972H122.48C123.268 150.972 123.654 150.605 123.632 149.999C123.611 149.385 123.2 149.026 122.413 149.026Z" fill="#0841E2"/>
<path d="M127.895 150.765C127.836 149.082 129.084 147.878 130.82 147.878C131.784 147.878 132.601 148.229 133.149 148.867L132.347 149.633C131.958 149.202 131.481 148.979 130.923 148.979C129.879 148.979 129.164 149.712 129.201 150.765C129.238 151.818 130.004 152.552 131.048 152.552C131.606 152.552 132.068 152.328 132.426 151.89L133.281 152.656C132.778 153.302 131.986 153.653 131.014 153.653C129.287 153.652 127.954 152.447 127.895 150.765Z" fill="#0841E2"/>
<path d="M133.619 150.765C133.56 149.106 134.808 147.878 136.568 147.878C138.32 147.878 139.662 149.099 139.72 150.765C139.779 152.432 138.523 153.652 136.771 153.652C135.011 153.652 133.678 152.423 133.619 150.765ZM138.414 150.765C138.377 149.704 137.602 148.979 136.607 148.979C135.611 148.979 134.888 149.705 134.925 150.765C134.962 151.826 135.736 152.552 136.732 152.552C137.727 152.551 138.451 151.825 138.414 150.765Z" fill="#0841E2"/>
<path d="M140.6 147.973H143.133C144.956 147.973 146.245 149.074 146.305 150.765C146.365 152.456 145.152 153.557 143.328 153.557H140.795L140.6 147.973ZM143.227 152.495C144.334 152.495 145.036 151.833 144.998 150.765C144.961 149.697 144.213 149.035 143.105 149.035H141.926L142.047 152.496H143.227V152.495Z" fill="#0841E2"/>
<path d="M151.66 152.519L151.696 153.556H147.379L147.184 147.973H151.398L151.434 149.01H148.502L148.544 150.222H151.133L151.169 151.227H148.58L148.625 152.519H151.66Z" fill="#0841E2"/>
<path d="M114.378 174.306L114.418 176.55H103.891L103.86 174.776L109.437 169.391C110.801 168.065 111.032 167.228 111.017 166.434C110.995 165.128 110.083 164.373 108.329 164.373C106.942 164.373 105.788 164.842 105.01 165.862L103.128 164.434C104.204 162.945 106.168 162.068 108.514 162.068C111.615 162.068 113.642 163.638 113.686 166.168C113.71 167.555 113.345 168.82 111.398 170.676L107.647 174.307H114.378V174.306Z" fill="#0841E2"/>
<path d="M126.012 172.267C126.054 174.674 124.275 176.754 120.439 176.754C118.419 176.754 116.389 176.142 115.045 175.102L116.151 173.041C117.185 173.897 118.746 174.449 120.357 174.449C122.254 174.449 123.362 173.612 123.338 172.287C123.316 171.001 122.362 170.165 120.2 170.165H118.894L118.863 168.35L122.038 164.495H115.551L115.513 162.272H125.244L125.274 164.046L121.878 168.167C124.579 168.513 125.974 170.124 126.012 172.267Z" fill="#0841E2"/>
<path d="M139.336 172.45C139.383 175.102 137.106 176.754 133.556 176.754C130.006 176.754 127.714 175.102 127.667 172.45C127.64 170.879 128.435 169.717 129.892 169.044C128.739 168.411 128.088 167.391 128.065 166.045C128.022 163.597 130.137 162.067 133.299 162.067C136.482 162.067 138.671 163.597 138.714 166.045C138.737 167.391 138.103 168.411 136.951 169.044C138.452 169.717 139.309 170.879 139.336 172.45ZM136.662 172.369C136.637 170.961 135.398 170.084 133.439 170.084C131.481 170.084 130.312 170.961 130.337 172.369C130.362 173.817 131.561 174.674 133.519 174.674C135.478 174.673 136.687 173.816 136.662 172.369ZM130.678 166.167C130.699 167.391 131.733 168.166 133.406 168.166C135.099 168.166 136.127 167.391 136.105 166.167C136.083 164.882 134.968 164.147 133.336 164.147C131.703 164.148 130.655 164.882 130.678 166.167Z" fill="#0841E2"/>
<path d="M152.637 172.45C152.684 175.102 150.407 176.754 146.857 176.754C143.307 176.754 141.015 175.102 140.968 172.45C140.941 170.879 141.736 169.717 143.193 169.044C142.04 168.411 141.389 167.391 141.366 166.045C141.323 163.597 143.438 162.067 146.6 162.067C149.783 162.067 151.972 163.597 152.015 166.045C152.039 167.391 151.404 168.411 150.252 169.044C151.753 169.717 152.609 170.879 152.637 172.45ZM149.963 172.369C149.938 170.961 148.699 170.084 146.74 170.084C144.782 170.084 143.613 170.961 143.638 172.369C143.663 173.817 144.862 174.674 146.82 174.674C148.779 174.673 149.988 173.816 149.963 172.369ZM143.978 166.167C144 167.391 145.033 168.166 146.706 168.166C148.399 168.166 149.427 167.391 149.405 166.167C149.383 164.882 148.268 164.147 146.635 164.147C145.004 164.148 143.956 164.882 143.978 166.167Z" fill="#0841E2"/>
<path d="M76.719 126.136L78.492 150.307" stroke="#0841E2" stroke-miterlimit="10" stroke-linecap="round" stroke-linejoin="round"/>
<path d="M75.9109 115.125L76.3789 121.504" stroke="#0841E2" stroke-miterlimit="10" stroke-linecap="round" stroke-linejoin="round"/>
<path d="M123.37 91.093V76.377" stroke="#407BFF" stroke-miterlimit="10" stroke-linecap="round" stroke-linejoin="round"/>
<path d="M111.721 94.206L104.366 81.47" stroke="#407BFF" stroke-miterlimit="10" stroke-linecap="round" stroke-linejoin="round"/>
<path d="M142.374 81.47L135.019 94.212" stroke="#407BFF" stroke-miterlimit="10" stroke-linecap="round" stroke-linejoin="round"/>
<path d="M313.892 352.259C308.838 372.508 306.786 393.504 307.824 414.348" stroke="#407BFF" stroke-miterlimit="10"/>
<path d="M309.221 351.397C309.266 353.264 310.94 359.865 312.808 359.82C314.675 359.775 316.028 353.1 315.983 351.233C315.938 349.366 314.388 347.889 312.521 347.934C310.653 347.98 309.176 349.531 309.221 351.397Z" fill="#407BFF"/>
<path d="M316.494 372.388C316.449 370.521 314.775 363.92 312.908 363.965C311.041 364.01 309.687 370.684 309.733 372.552C309.778 374.419 311.328 375.896 313.195 375.851C315.062 375.805 316.539 374.255 316.494 372.388Z" fill="#407BFF"/>
<path d="M302.362 365.529C304.229 365.484 310.83 363.81 310.785 361.942C310.74 360.075 304.066 358.722 302.198 358.767C300.331 358.813 298.854 360.363 298.899 362.23C298.945 364.097 300.495 365.574 302.362 365.529Z" fill="#407BFF"/>
<path d="M323.352 358.256C321.485 358.301 314.884 359.975 314.929 361.842C314.974 363.709 321.648 365.062 323.516 365.017C325.383 364.972 326.86 363.422 326.815 361.555C326.77 359.688 325.219 358.211 323.352 358.256Z" fill="#407BFF"/>
<path d="M302.864 357.043C304.216 358.331 310.068 361.815 311.356 360.463C312.645 359.111 308.882 353.434 307.53 352.146C306.178 350.858 304.037 350.909 302.749 352.262C301.461 353.614 301.512 355.754 302.864 357.043Z" fill="#407BFF"/>
<path d="M322.85 366.742C321.498 365.454 315.647 361.97 314.358 363.322C313.07 364.674 316.832 370.35 318.184 371.639C319.536 372.927 321.677 372.876 322.965 371.523C324.254 370.171 324.202 368.031 322.85 366.742Z" fill="#407BFF"/>
<path d="M308.008 371.885C309.296 370.533 312.78 364.681 311.427 363.393C310.075 362.105 304.399 365.867 303.11 367.219C301.822 368.571 301.874 370.712 303.226 372C304.579 373.289 306.719 373.238 308.008 371.885Z" fill="#407BFF"/>
<path d="M317.707 351.9C316.419 353.252 312.935 359.103 314.287 360.392C315.639 361.68 321.316 357.918 322.604 356.565C323.893 355.213 323.841 353.072 322.488 351.784C321.136 350.496 318.995 350.548 317.707 351.9Z" fill="#407BFF"/>
<path d="M308.854 361.99C308.907 364.201 310.743 365.951 312.954 365.897C315.165 365.844 316.915 364.008 316.861 361.797C316.807 359.586 314.971 357.836 312.76 357.89C310.549 357.942 308.8 359.778 308.854 361.99Z" fill="white"/>
<path d="M308.28 391.754C308.28 391.754 308.971 381.541 314.576 379.925C320.181 378.31 322.239 376.12 322.239 376.12C322.239 376.12 321.671 391.951 308.28 391.754Z" fill="#407BFF"/>
<path opacity="0.5" d="M308.28 391.754C308.28 391.754 308.971 381.541 314.576 379.925C320.181 378.31 322.239 376.12 322.239 376.12C322.239 376.12 321.671 391.951 308.28 391.754Z" fill="white"/>
<path d="M307.539 399.572C307.539 399.572 306.848 389.359 301.243 387.743C295.638 386.128 293.58 383.938 293.58 383.938C293.58 383.938 294.148 399.768 307.539 399.572Z" fill="#407BFF"/>
<path opacity="0.5" d="M307.539 399.572C307.539 399.572 306.848 389.359 301.243 387.743C295.638 386.128 293.58 383.938 293.58 383.938C293.58 383.938 294.148 399.768 307.539 399.572Z" fill="white"/>
<path d="M328.699 420.842C328.699 428.812 319.209 435.262 307.509 435.262C295.799 435.262 286.319 428.812 286.319 420.842C286.319 416.812 288.749 413.162 292.679 410.552C294.949 409.032 297.719 407.862 300.799 407.172H314.219C317.389 407.892 320.229 409.102 322.529 410.682C326.349 413.292 328.699 416.872 328.699 420.842Z" fill="#407BFF"/>
<path opacity="0.8" d="M314.219 407.172C317.389 407.892 320.229 409.102 322.529 410.682C326.349 413.292 328.699 416.872 328.699 420.842C328.699 428.812 319.209 435.262 307.509 435.262C295.799 435.262 286.319 428.812 286.319 420.842C286.319 416.812 288.749 413.162 292.679 410.552C294.949 409.032 297.719 407.862 300.799 407.172H314.219Z" fill="white"/>
<path d="M307.57 408.47C307.57 410.846 307.57 413.223 307.57 415.599" stroke="#407BFF" stroke-miterlimit="10"/>
<path d="M323.462 406.95L322.337 410.454L322.319 410.49H292.689L292.627 410.303L291.556 406.95H323.462Z" fill="#407BFF"/>
<path d="M326.196 423.738C324.154 426.689 321.246 429.044 318.057 430.736C312.967 433.437 291.556 434.134 289.113 421.986C289.079 421.817 289.022 421.653 288.991 421.482C288.407 418.304 291.235 415.477 294.451 415.799C296.449 415.999 298.535 415.761 300.521 415.459C308.181 414.292 316.078 414.72 323.57 416.695C326.63 417.502 327.997 421.135 326.196 423.738Z" fill="#263238"/>
<path d="M172.51 419.699C172.885 419.565 173.134 419.269 173.251 418.82C173.339 418.481 173.212 418.259 173.09 418.132C172.319 417.327 169.191 417.898 168.837 417.966C168.755 417.982 168.691 418.043 168.673 418.124C168.655 418.204 168.688 418.287 168.755 418.334C169.274 418.701 170.032 419.186 170.785 419.49C171.411 419.742 172.033 419.87 172.51 419.699ZM172.786 418.413C172.837 418.466 172.89 418.549 172.846 418.718C172.765 419.032 172.608 419.226 172.367 419.313C171.8 419.517 170.715 419.134 169.414 418.282C170.671 418.09 172.381 417.985 172.786 418.413Z" fill="#FFCF43"/>
<path d="M168.903 418.37C169.86 418.251 172.062 417.121 172.255 416.144C172.292 415.957 172.286 415.605 171.827 415.353C171.537 415.192 171.226 415.166 170.905 415.277C169.698 415.69 168.725 417.992 168.683 418.09C168.655 418.157 168.665 418.235 168.71 418.293C168.733 418.322 168.763 418.344 168.796 418.358C168.83 418.369 168.866 418.374 168.903 418.37ZM171.623 415.709C171.857 415.838 171.865 415.967 171.845 416.064C171.727 416.66 170.262 417.585 169.234 417.88C169.599 417.13 170.321 415.909 171.041 415.662C171.216 415.602 171.379 415.604 171.537 415.668C171.566 415.68 171.595 415.694 171.623 415.709Z" fill="#FFCF43"/>
<path d="M159.409 414.34L167.55 417.63L174.655 398.82L166.514 395.53L159.409 414.34Z" fill="#FFB573"/>
<path d="M168.582 416.964L159.436 413.267C159.103 413.132 158.738 413.251 158.558 413.552L154.544 420.251C154.128 420.946 154.481 421.906 155.254 422.203C158.465 423.438 160.079 423.875 164.101 425.5C166.575 426.5 170.085 428.214 173.502 429.595C176.844 430.946 178.489 427.725 177.192 426.849C171.376 422.92 171.145 420.651 169.738 418.006C169.483 417.529 169.069 417.16 168.582 416.964Z" fill="#263238"/>
<path d="M174.551 408.049L160.412 402.334L161.707 397.152L176.877 402.702L174.551 408.049Z" fill="#FFCF43"/>
<path d="M188.707 190.335C185.839 198.638 177.346 218.198 170.803 210.051C169.635 208.597 168.639 207.022 167.945 205.291C165.167 198.437 164.484 187.337 164.132 184.911L161.903 177.302C161.864 177.171 161.844 177.034 161.843 176.898L161.807 172.553C161.807 170.792 163.226 169.745 165.148 169.906C165.148 169.906 168.248 169.544 168.248 171.396L168.852 177.917H168.832C169.144 180.192 168.238 183.352 168.772 185.435C170.765 193.265 173.521 193.617 175.252 201.698C177.657 195.871 181.975 185.777 181.975 185.777C184.883 186.138 189.653 187.597 188.707 190.335Z" fill="#FFB573"/>
<path d="M178.452 213.034C176.498 216.048 172.102 216.222 169.983 213.323C168.688 211.551 167.662 209.599 167.216 208.128C164.619 199.604 163.009 194.32 162.788 185.413C164.6 183.531 167.548 182.827 170.014 183.702L174.271 198.134C174.271 198.134 182.946 176.584 186.448 175.809C190.584 174.903 192.305 178.589 194.046 183.128C195.301 186.395 184.102 204.317 178.452 213.034Z" fill="#FFCF43"/>
<path d="M213.481 154.245C212.5 159.247 210.297 170.159 213.797 173.497C213.797 173.497 212.43 178.571 203.135 178.571C192.915 178.571 198.251 173.497 198.251 173.497C203.829 172.165 203.685 168.026 202.714 164.14L213.481 154.245Z" fill="#FFB573"/>
<path d="M197.848 142.448C197.908 142.448 197.969 142.434 198.026 142.406C198.223 142.307 198.303 142.067 198.204 141.87C197.215 139.895 195.385 139.666 195.308 139.657C195.09 139.63 194.891 139.79 194.866 140.009C194.841 140.227 194.998 140.425 195.216 140.45C195.277 140.457 196.701 140.651 197.49 142.227C197.561 142.367 197.702 142.447 197.848 142.448Z" fill="#263238"/>
<path d="M194.801 146.819C194.801 146.819 193.296 149.583 191.862 150.828C192.65 151.77 194.212 151.577 194.212 151.577L194.801 146.819Z" fill="#ED893E"/>
<path d="M195.604 145.356C195.748 146.021 195.513 146.636 195.078 146.73C194.644 146.824 194.175 146.362 194.031 145.697C193.887 145.032 194.122 144.417 194.556 144.323C194.99 144.229 195.459 144.692 195.604 145.356Z" fill="#263238"/>
<path d="M194.756 144.319L193.06 144.205C193.06 144.205 194.149 145.274 194.756 144.319Z" fill="#263238"/>
<path d="M159.979 169.552V169.572C159.979 169.562 159.969 169.562 159.969 169.552H159.979Z" fill="#FFB573"/>
<path opacity="0.2" d="M188.347 186.066C190.118 184.445 191.316 184.929 192.131 186.217C192.936 189.961 188.166 197.801 186.244 200.77L188.347 186.066Z" fill="black"/>
<path d="M229.304 190.997C229.074 195.117 228.684 200.307 228.054 206.837C227.394 213.727 226.454 222.097 225.164 232.267C211.574 232.267 197.344 232.057 190.734 232.057C191.287 218.549 191.491 204.862 185.431 177.976C185.113 176.563 186.038 175.165 187.464 174.911C190.209 174.422 194.757 173.723 199.385 173.497C205.145 173.217 209.865 173.037 214.935 173.497C221.605 174.107 229.185 175.657 229.185 175.657C229.185 175.657 230.024 178.137 229.304 190.997Z" fill="#FFCF43"/>
<path opacity="0.2" d="M229.304 190.997C229.074 195.117 228.684 200.307 228.054 206.837C224.394 202.597 220.934 187.997 222.034 183.007C224.734 184.847 227.234 187.677 229.144 190.207C229.204 190.447 229.264 190.706 229.304 190.997Z" fill="black"/>
<path d="M264.593 209.3L271.557 205.384L272.858 212.514C272.858 212.514 266.956 214.775 263.831 213.191L264.593 209.3Z" fill="#FFB573"/>
<path d="M276.222 206.194L276.706 208.521C276.858 209.253 276.554 210.004 275.936 210.424L272.859 212.514L271.558 205.384L273.966 204.78C274.983 204.524 276.009 205.167 276.222 206.194Z" fill="#FFB573"/>
<path d="M222.597 183.921C224.829 188.463 233.015 205.609 236.613 209.573L237.317 210.312L237.669 210.68C237.789 210.804 237.885 210.914 238.077 211.082C238.752 211.717 239.471 212.25 240.199 212.686C241.659 213.561 243.138 214.074 244.56 214.446C247.408 215.158 250.114 215.274 252.739 215.223C258 215.017 262.922 214.134 267.839 212.658L266.945 208.483C264.64 208.679 262.218 208.821 259.874 208.86C257.521 208.925 255.181 208.859 252.924 208.64C250.674 208.445 248.482 208.051 246.628 207.415C245.713 207.09 244.906 206.676 244.303 206.241C244 206.025 243.757 205.797 243.559 205.578C243.519 205.547 243.418 205.422 243.333 205.32L243.072 205.008L242.55 204.386C239.787 200.927 232.497 184.249 230.309 180.08L222.597 183.921Z" fill="#FFB573"/>
<path d="M264.483 216.395C258.807 219.454 251.893 220.129 245.734 218.217C239.877 216.395 234.664 212.148 231.644 206.804C228.031 201.49 218.421 186.471 219.628 182.586C221.057 177.946 224.097 175.068 229.179 176.316C232.752 177.182 239.564 194.516 242.855 201.45C244.153 203.382 246.629 206.442 249.397 207.388C254.288 209.079 257.891 208.344 263.014 207.62C263.95 208.184 263.88 209.049 264.353 210.025C265.319 211.997 265.48 214.443 264.483 216.395Z" fill="#FFCF43"/>
<path d="M218.523 146.225C216.989 154.45 216.515 157.963 211.803 161.699C204.715 167.319 194.949 163.635 193.995 155.118C193.136 147.452 195.79 135.29 204.31 132.995C212.704 130.736 220.058 138.001 218.523 146.225Z" fill="#FFB573"/>
<path d="M247.7 191.74C246.13 193.53 245.635 194.566 243.455 195.536C241.275 196.506 236.516 195.661 235.006 193.811C235.496 195.251 238.36 197.84 239.86 198.04C236.54 199.98 231.87 199.16 229.4 196.2C229.64 197.95 231.29 199.52 232.96 200.11C213.797 200.605 221.866 191.587 209.874 178.764C196.589 164.559 199.47 152.82 199.47 152.82C199.46 150.79 199.01 147.42 196.86 144.68C194.94 142.22 195.5 138.9 196.11 137.04C197 134.31 199.71 133.35 202.31 133.19C202.768 130.496 208.272 130.992 208.976 131.442C209.58 131.828 209.734 131.796 210.337 131.409C211.69 130.542 215.089 129.637 218.729 132.58C220.951 134.377 223.324 137.6 223.404 144.46C223.487 151.594 220.083 160.057 231.875 170.895C238.825 177.282 235.503 190.992 247.7 191.74Z" fill="#263238"/>
<path d="M197.89 146.846C196.879 148.246 196.589 149.986 196.812 151.39C197.147 153.501 199.205 153.641 200.695 152.288C202.036 151.07 203.477 148.504 202.379 146.754C201.297 145.03 199.046 145.246 197.89 146.846Z" fill="#FFB573"/>
<path d="M216.448 232.263C216.448 232.263 212.365 289.67 207.756 327.535C206.375 338.88 202.917 349.879 197.541 360.008L174.954 402.566L163.393 398.019C163.393 398.019 171.357 357.565 186.976 335.508C186.976 335.508 175.318 269.578 190.576 232.061L216.448 232.263Z" fill="#03164B"/>
<path opacity="0.2" d="M200.728 246.165C200.728 246.165 204.165 272.206 206.054 287.637C198.963 278.336 193.532 265.361 200.728 246.165Z" fill="black"/>
<path d="M245.641 425.09C245.908 424.798 245.988 424.422 245.877 423.972C245.794 423.633 245.575 423.494 245.407 423.438C244.343 423.082 241.851 425.028 241.57 425.251C241.505 425.302 241.478 425.387 241.5 425.466C241.522 425.544 241.59 425.603 241.673 425.614C242.306 425.699 243.207 425.778 244.017 425.7C244.691 425.634 245.301 425.46 245.641 425.09ZM245.273 423.826C245.343 423.849 245.43 423.898 245.471 424.068C245.548 424.383 245.503 424.627 245.331 424.814C244.927 425.255 243.786 425.417 242.231 425.264C243.251 424.515 244.711 423.635 245.273 423.826Z" fill="#FFCF43"/>
<path d="M241.821 425.577C242.61 425.031 244.018 423.018 243.724 422.065C243.668 421.883 243.495 421.575 242.969 421.563C242.636 421.554 242.349 421.675 242.118 421.92C241.248 422.841 241.483 425.323 241.494 425.429C241.501 425.501 241.547 425.565 241.615 425.595C241.649 425.61 241.686 425.616 241.722 425.612C241.757 425.61 241.791 425.599 241.821 425.577ZM242.959 421.973C243.227 421.979 243.295 422.089 243.325 422.184C243.504 422.765 242.65 424.257 241.882 424.992C241.848 424.161 241.904 422.75 242.423 422.2C242.549 422.067 242.694 421.993 242.864 421.977C242.895 421.974 242.927 421.973 242.959 421.973Z" fill="#FFCF43"/>
<path d="M231.516 426.392L240.275 425.547L237.602 405.653L228.843 406.497L231.516 426.392Z" fill="#FFB573"/>
<path d="M240.869 424.483L231.029 425.431C230.671 425.466 230.405 425.738 230.388 426.087L230.029 433.856C229.992 434.662 230.761 435.347 231.586 435.254C235.011 434.865 236.644 434.508 240.972 434.091C243.634 433.834 247.551 433.732 251.227 433.378C254.823 433.031 254.743 429.427 253.18 429.251C246.172 428.46 244.888 426.561 242.385 424.872C241.935 424.567 241.393 424.432 240.869 424.483Z" fill="#263238"/>
<path d="M225.111 232.249C225.111 232.249 236.316 300.759 238.475 341.343L238.878 414.038L229.812 415.807C229.812 415.807 216.676 369.429 215.165 342.623C211.155 271.495 187.988 271.378 201.926 232.122L225.111 232.249Z" fill="#03164B"/>
<path d="M241.889 414.337L226.876 416.393L225.355 410.628L241.4 408.541L241.889 414.337Z" fill="#FFCF43"/>
<path d="M159.999 169.623H159.969L159.979 169.573C159.979 169.593 159.989 169.603 159.999 169.623Z" fill="#FFB573"/>
<path d="M160.961 158.753H161.535C160.958 158.753 160.514 159.221 160.544 159.799L161.457 177.213C161.487 177.79 161.98 178.259 162.557 178.259H161.983C161.406 178.259 160.913 177.791 160.883 177.213L159.97 159.799C159.94 159.221 160.384 158.753 160.961 158.753Z" fill="#FFCF43"/>
<path opacity="0.1" d="M160.961 158.753H161.535C160.958 158.753 160.514 159.221 160.544 159.799L161.457 177.213C161.487 177.79 161.98 178.259 162.557 178.259H161.983C161.406 178.259 160.913 177.791 160.883 177.213L159.97 159.799C159.94 159.221 160.384 158.753 160.961 158.753Z" fill="white"/>
<path d="M162.154 178.259H169.178C169.756 178.259 170.199 177.791 170.169 177.213L169.256 159.799C169.226 159.222 168.733 158.753 168.156 158.753H161.132C160.555 158.753 160.111 159.221 160.141 159.799L161.054 177.213C161.084 177.79 161.577 178.259 162.154 178.259Z" fill="#FFCF43"/>
<path opacity="0.4" d="M162.154 178.259H169.178C169.756 178.259 170.199 177.791 170.169 177.213L169.256 159.799C169.226 159.222 168.733 158.753 168.156 158.753H161.132C160.555 158.753 160.111 159.221 160.141 159.799L161.054 177.213C161.084 177.79 161.577 178.259 162.154 178.259Z" fill="white"/>
<path d="M169.73 176.85C169.74 177.03 169.68 177.2 169.56 177.33C169.44 177.45 169.27 177.52 169.09 177.52H162.28C161.89 177.52 161.56 177.2 161.54 176.81L160.65 159.92C160.64 159.74 160.7 159.57 160.82 159.45C160.94 159.32 161.11 159.25 161.29 159.25H168.1C168.49 159.25 168.82 159.57 168.84 159.96L168.9 161.17L169.73 176.85Z" fill="#263238"/>
<g opacity="0.1">
<path d="M168.9 161.17L166.64 177.52H163.93L166.49 159.25H168.1C168.49 159.25 168.82 159.57 168.84 159.96L168.9 161.17Z" fill="white"/>
<path d="M162.95 177.52H162.339L164.9 159.251H165.512L162.95 177.52Z" fill="white"/>
</g>
<path d="M188.521 234.202C183.429 244.185 180.658 255.343 180.489 266.549C197.511 279.737 213.32 264.292 232.778 266.901C232.099 258.113 229.114 241.852 225.568 233.782C212.71 234.325 200.668 233.042 188.521 234.202Z" fill="#FFCF43"/>
<path d="M190.292 230.633C190.292 230.633 188.919 234.155 189.312 234.155H224.989C225.296 234.155 225.55 234.005 225.569 233.812L225.876 230.767C225.897 230.556 225.631 230.377 225.296 230.377H190.846C190.592 230.378 190.368 230.481 190.292 230.633Z" fill="white"/>
<path d="M195.318 234.455H194.395C194.211 234.455 194.071 234.36 194.084 234.245L194.517 230.289C194.53 230.173 194.69 230.079 194.874 230.079H195.797C195.981 230.079 196.121 230.174 196.108 230.289L195.675 234.245C195.663 234.36 195.502 234.455 195.318 234.455Z" fill="#FFCF43"/>
<path d="M217.682 234.455H216.759C216.575 234.455 216.435 234.36 216.448 234.245L216.881 230.289C216.894 230.173 217.054 230.079 217.238 230.079H218.161C218.345 230.079 218.485 230.174 218.472 230.289L218.039 234.245C218.027 234.36 217.866 234.455 217.682 234.455Z" fill="#FFCF43"/>
</svg>
