<svg width="80" height="80" viewBox="0 0 80 80" fill="none" xmlns="http://www.w3.org/2000/svg">
<rect width="80" height="80" rx="40" fill="#FFCE00"/>
<rect x="25.6445" y="14.792" width="14.6767" height="1.22306" transform="rotate(-38.6271 25.6445 14.792)" fill="#E6E6E6"/>
<rect width="14.6767" height="1.22306" transform="matrix(-0.893542 -0.44898 -0.44898 0.893542 53.0059 12.2197)" fill="#E6E6E6"/>
<rect x="0.6875" y="15.2129" width="73.5594" height="61.6505" rx="5.71429" transform="rotate(-5 0.6875 15.2129)" fill="#8C5841"/>
<rect x="5.0459" y="19.2119" width="65.2937" height="53.8097" rx="5.71429" transform="rotate(-5 5.0459 19.2119)" fill="#623C2C"/>
<rect x="6.56543" y="20.5371" width="62.3062" height="51.1184" rx="5.71429" transform="rotate(-5 6.56543 20.5371)" fill="#43AA7B"/>
<ellipse cx="37.8758" cy="6.48636" rx="2.93534" ry="3.05764" fill="#564D47"/>
<path d="M18.2076 30.7109C18.8033 32.2558 19.3403 33.8223 19.8099 35.4102C20.0403 36.1883 20.2549 36.971 20.4532 37.7582C20.6304 38.4609 20.7104 39.2647 21.0218 39.9227C21.7086 41.3737 23.6143 40.9072 24.8976 40.73C26.5311 40.5045 28.1395 40.0943 29.6865 39.5234C30.5716 39.1965 30.048 37.8253 29.1595 38.153C27.8214 38.6473 26.4471 39.0144 25.0361 39.2283C24.3164 39.3374 23.5898 39.4123 22.8626 39.4459C22.6483 39.4557 22.4926 39.5172 22.3655 39.3448C22.2266 39.1569 22.1942 38.7772 22.1437 38.5585C21.4837 35.7097 20.6302 32.9125 19.5775 30.1839C19.2388 29.3039 17.8671 29.827 18.2076 30.7109Z" fill="#EDE8F9"/>
<path d="M20.9077 34.0133C20.9233 33.9769 20.942 33.9421 20.9581 33.9061C21.0133 33.7822 20.8547 34.0387 20.9385 33.9366C20.9622 33.9077 20.9829 33.8781 21.0077 33.8501C21.0634 33.7866 21.1128 33.7892 20.9738 33.8756C21.035 33.8376 21.0876 33.7833 21.1497 33.7442C21.1751 33.728 21.2771 33.6708 21.1629 33.7336C21.043 33.7995 21.1711 33.7323 21.1979 33.7198C21.3363 33.6571 21.4815 33.6089 21.6279 33.568C21.6882 33.5512 21.9721 33.4943 21.7192 33.5418C21.8032 33.5262 21.8861 33.5042 21.9694 33.4867C22.3396 33.4071 22.7154 33.3347 23.0739 33.211C23.4852 33.0688 23.8326 32.8474 24.1442 32.5474C24.4217 32.2797 24.3342 31.7338 24.0427 31.5147C23.6945 31.253 23.306 31.331 23.0101 31.6162C23.1802 31.452 22.9838 31.6286 22.9299 31.6654C22.8967 31.6883 22.8618 31.7085 22.8281 31.73C22.7078 31.8072 22.9752 31.6614 22.8527 31.7157C22.7001 31.7833 22.5473 31.8446 22.3868 31.8923C22.3052 31.9165 22.2222 31.9375 22.1397 31.9588C21.9854 31.9986 22.3197 31.919 22.1637 31.9531C22.1214 31.9621 22.0795 31.9716 22.0372 31.9812C21.8698 32.0178 21.7021 32.0525 21.5353 32.091C20.7299 32.2788 19.9284 32.5822 19.5752 33.4C19.423 33.7522 19.563 34.2212 19.9354 34.3734C20.2955 34.5213 20.7452 34.3901 20.9077 34.0133Z" fill="#EDE8F9"/>
<path d="M18.8272 30.1307C20.9638 29.4178 23.1339 28.8147 25.3041 28.214C25.6865 28.1081 25.8578 27.61 25.7261 27.2656C25.5728 26.8658 25.161 26.7376 24.7777 26.8436C22.6074 27.4443 20.4373 28.0469 18.3007 28.7603C17.4049 29.0592 17.9309 30.4297 18.8272 30.1307Z" fill="#EDE8F9"/>
<path d="M31.0407 33.6976C32.0938 33.7592 33.1439 33.7243 34.186 33.559C34.5645 33.4992 34.9034 33.1655 34.8445 32.7569C34.7905 32.3822 34.4485 32.0339 34.0424 32.0984C33.5647 32.1743 33.0836 32.226 32.6004 32.2509C32.3637 32.2634 32.1268 32.2689 31.8893 32.2687C31.7758 32.2685 31.662 32.266 31.5482 32.2639C31.3749 32.2608 31.6767 32.2709 31.5176 32.263C31.442 32.2591 31.366 32.2557 31.2903 32.2509C31.0866 32.239 30.9064 32.2557 30.7347 32.3797C30.592 32.4832 30.4645 32.6712 30.4421 32.8489C30.3967 33.2073 30.6308 33.6734 31.0407 33.6976Z" fill="#EDE8F9"/>
<path d="M32.1291 36.3762C33.1171 36.2364 34.0956 36.0183 35.0516 35.7316C35.4197 35.6212 35.6234 35.1278 35.4735 34.7832C35.3047 34.3962 34.9195 34.2428 34.5251 34.3612C34.3016 34.4284 34.0773 34.4918 33.8515 34.5503C33.7475 34.5773 33.6429 34.6033 33.5382 34.6288C33.3736 34.6691 33.6724 34.5989 33.5205 34.633C33.4593 34.6464 33.3978 34.6608 33.3367 34.6742C32.8896 34.7717 32.4388 34.8514 31.986 34.9156C31.6064 34.9696 31.2695 35.3134 31.3274 35.7177C31.3815 36.0977 31.7218 36.434 32.1291 36.3762Z" fill="#EDE8F9"/>
<path d="M38.2234 32.7546C38.5531 33.933 38.8794 35.1122 39.2028 36.2921C39.5866 36.0155 39.9698 35.7384 40.3536 35.4618C40.1895 35.3383 40.2204 35.0723 40.2267 34.8765C40.2418 34.38 40.3028 33.8795 40.358 33.3859C40.4658 32.4177 40.6195 31.4558 40.8128 30.5014C40.4164 30.649 40.0203 30.796 39.6239 30.9436C40.7794 32.0074 41.5981 33.4395 41.9046 34.983C42.0912 35.9207 43.3427 35.78 43.3653 34.8394C43.3795 34.2486 43.4889 33.6362 43.6781 33.0763C43.7818 32.7702 43.9097 32.4715 44.0559 32.1833C44.2009 31.8977 44.4016 31.6539 44.5554 31.3787C44.6014 31.2965 44.6522 31.2384 44.4885 31.2732C44.4129 31.289 44.4638 31.2417 44.5145 31.3173C44.5426 31.3588 44.5732 31.3996 44.6014 31.4415C44.7811 31.709 44.9269 32.0024 45.065 32.2921C45.3857 32.9645 45.6351 33.6661 45.8224 34.3865C45.9221 34.7705 46.4307 34.9387 46.7708 34.8085C47.1754 34.6537 47.2926 34.245 47.1928 33.86C46.937 32.8774 46.5573 31.9458 46.0683 31.0565C45.6361 30.2701 44.8924 29.451 43.9221 30.0119C43.5128 30.2483 43.2617 30.6495 43.0201 31.0429C42.787 31.4222 42.5867 31.8199 42.4275 32.2357C42.0868 33.1251 41.9279 34.0349 41.9052 34.9834C42.392 34.9355 42.8789 34.8877 43.3658 34.8398C42.9783 32.8934 42.0176 31.1562 40.5556 29.8099C40.134 29.4217 39.4706 29.7391 39.3667 30.2522C39.1357 31.3932 38.9622 32.5444 38.8535 33.7039C38.7643 34.6614 38.5343 35.9272 39.4229 36.5964C40.0388 37.0604 40.7638 36.4597 40.5737 35.7661C40.2503 34.5861 39.9235 33.407 39.5939 32.2286C39.487 31.8469 38.9903 31.6745 38.6454 31.8067C38.246 31.9595 38.1165 32.3719 38.2234 32.7546Z" fill="#EDE8F9"/>
<path d="M50.4939 28.762C49.7082 29.0756 49.0523 29.6597 48.6664 30.4149C48.3968 30.9428 48.4571 31.426 48.6253 31.9718C48.7517 32.3831 48.8939 32.7944 49.0706 33.1865C49.2806 33.6525 49.5646 34.0469 50.0198 34.2971C50.3842 34.4977 50.8097 34.5665 51.2175 34.6188C52.1346 34.7366 53.2115 34.6652 53.7905 33.8296C54.0088 33.5147 54.0234 33.0482 53.689 32.7969C53.3923 32.5739 52.8897 32.5614 52.6564 32.8984C52.6176 32.9544 52.5779 33.0104 52.5295 33.0579C52.6286 32.9607 52.4803 33.0829 52.4555 33.1001C52.5683 33.0231 52.4108 33.1207 52.3777 33.1338C52.3407 33.1482 52.1756 33.1984 52.3048 33.1675C51.9623 33.2493 51.757 33.2105 51.4258 33.1669C51.2788 33.1474 51.1314 33.1275 50.9863 33.0965C50.9647 33.0917 50.7728 33.0398 50.8906 33.0784C50.8231 33.0565 50.7591 33.0264 50.6948 32.9969C50.619 32.9561 50.6123 32.9524 50.6745 32.9856C50.6558 32.9707 50.6377 32.9558 50.619 32.9409C50.5242 32.8263 50.6166 32.9765 50.5496 32.8553C50.5449 32.8469 50.4359 32.6585 50.4894 32.7624C50.4492 32.6838 50.4156 32.6015 50.3815 32.5203C50.252 32.2076 50.1371 31.8886 50.0341 31.5664C50.0084 31.4854 49.9833 31.4043 49.959 31.3226C49.9474 31.2849 49.9369 31.2476 49.9263 31.2098C49.9393 31.2675 49.9416 31.2702 49.9331 31.2185C49.929 31.1672 49.9262 31.169 49.9247 31.2237C49.9416 31.1404 49.9454 31.1194 49.9361 31.1597C49.9258 31.2 49.9352 31.1804 49.9652 31.1003C49.9814 31.0653 49.9987 31.0311 50.0175 30.9973C50.0336 30.9662 50.0508 30.936 50.0685 30.9058C50.0361 30.9562 50.034 30.9598 50.0623 30.9177C50.1019 30.8602 50.143 30.8041 50.1863 30.7492C50.2301 30.6947 50.2756 30.6421 50.3232 30.5912C50.3467 30.5653 50.3713 30.5403 50.3959 30.5162C50.3522 30.5569 50.3491 30.5601 50.3871 30.5264C50.4926 30.4349 50.6039 30.3513 50.7223 30.2762C50.7514 30.2571 50.7816 30.2394 50.8119 30.2217C50.7567 30.2507 50.7521 30.2536 50.7985 30.2304C50.8716 30.1947 50.9461 30.1623 51.0218 30.1322C51.378 29.9901 51.6032 29.5506 51.4438 29.1838C51.2849 28.8228 50.8756 28.6094 50.4939 28.762Z" fill="#EDE8F9"/>
<path d="M53.7843 25.6831C53.8387 25.6408 53.8936 25.5996 53.9514 25.5629C53.9713 25.5501 54.0631 25.4885 53.968 25.551C53.8484 25.6296 54.0075 25.5436 54.0079 25.5426C53.995 25.5714 53.8351 25.5542 53.9415 25.5614C53.9172 25.5599 53.7686 25.543 53.8688 25.5622C53.8132 25.5573 53.7642 25.5385 53.7211 25.5054C53.6705 25.4706 53.6602 25.4652 53.6895 25.4889C53.7476 25.5343 53.6072 25.3716 53.6403 25.4386C53.6944 25.5488 53.6337 25.4309 53.6214 25.3909C53.6286 25.4147 53.6437 25.4383 53.6539 25.4614C53.6763 25.5142 53.691 25.5688 53.71 25.6225C53.7393 25.7057 53.6792 25.454 53.6912 25.5413C53.6953 25.5724 53.7022 25.6031 53.7063 25.6347C53.7133 25.691 53.7174 25.7476 53.718 25.8041C53.7204 25.9627 53.7332 25.6384 53.7163 25.7964C53.7101 25.8531 53.7014 25.9095 53.6892 25.9652C53.6824 25.9964 53.6736 26.0267 53.6663 26.0574C53.6471 26.1424 53.7225 25.9044 53.6886 25.9845C53.6662 26.0368 53.6479 26.0907 53.623 26.1423C53.6071 26.1758 53.5116 26.3391 53.5803 26.2281C53.6482 26.1187 53.5534 26.2593 53.531 26.2866C53.5113 26.3111 53.4889 26.3335 53.4692 26.358C53.4073 26.4339 53.5144 26.3231 53.5253 26.3092C53.4886 26.3556 53.425 26.3933 53.3772 26.427C53.1226 26.6074 52.9951 26.9915 53.1228 27.2848C53.2471 27.5695 53.5537 27.8033 53.8795 27.7516C54.7106 27.6203 55.5417 27.4889 56.3729 27.3576C56.7514 27.2978 57.0903 26.9641 57.0314 26.5555C56.9774 26.1808 56.6355 25.833 56.2293 25.897C55.3982 26.0283 54.567 26.1596 53.7359 26.291C53.9032 26.7327 54.0709 27.1739 54.2382 27.6156C54.8969 27.1502 55.2622 26.3101 55.1693 25.5101C55.1187 25.0751 54.9409 24.5862 54.575 24.3199C54.0398 23.931 53.4056 24.1202 52.9242 24.4944C52.6214 24.7296 52.5085 25.2014 52.7605 25.5192C52.9997 25.8221 53.46 25.9347 53.7843 25.6831Z" fill="#EDE8F9"/>
<path d="M57.5384 43.3846C58.5499 43.8265 59.5308 44.3341 60.4757 44.9049C60.6854 45.0314 60.969 44.8018 60.8903 44.5701C60.5513 43.5721 60.1392 42.5997 59.6598 41.6608C59.5886 41.5217 59.388 41.4882 59.2622 41.5652C59.1201 41.6522 59.0954 41.8231 59.1666 41.9628C59.6228 42.8563 60.0119 43.7802 60.3345 44.73C60.4727 44.6184 60.6109 44.5068 60.7491 44.3953C59.8041 43.8246 58.8232 43.3169 57.8118 42.875C57.6688 42.8125 57.4981 42.8476 57.4203 42.9931C57.3511 43.1224 57.3946 43.3217 57.5384 43.3846Z" fill="#EDE8F9"/>
<path d="M61.7743 41.739C61.9076 41.6691 62.0434 41.6037 62.181 41.5427C62.1573 41.5532 62.1338 41.5636 62.1101 41.5741C62.1791 41.5439 62.2484 41.5146 62.3183 41.4864C62.3924 41.4566 62.454 41.418 62.4932 41.3452C62.526 41.2841 62.5388 41.1954 62.5163 41.1286C62.492 41.0566 62.4455 40.9878 62.3751 40.9538C62.3112 40.9229 62.227 40.903 62.1584 40.9307C61.9251 41.0245 61.6954 41.129 61.4725 41.2457C61.4096 41.2788 61.3587 41.3573 61.3423 41.4247C61.3257 41.4936 61.3365 41.5834 61.3769 41.6433C61.4189 41.7053 61.4803 41.7587 61.5559 41.7735C61.6339 41.7888 61.7033 41.7762 61.7743 41.739Z" fill="#EDE8F9"/>
<path d="M62.2073 42.4374C62.2853 42.4013 62.3637 42.3659 62.4423 42.3313C62.4186 42.3418 62.3952 42.3521 62.3715 42.3626C62.6076 42.2588 62.8462 42.1608 63.0875 42.0691C63.1613 42.0411 63.2239 41.9996 63.2623 41.9279C63.295 41.8665 63.3079 41.778 63.2854 41.7112C63.2386 41.5729 63.0785 41.4558 62.9273 41.5134C62.5817 41.645 62.2414 41.7895 61.9054 41.9444C61.8428 41.9733 61.7908 42.0594 61.7752 42.1234C61.7586 42.1924 61.7694 42.2821 61.8098 42.342C61.8518 42.404 61.9132 42.4574 61.9888 42.4722C62.0687 42.4875 62.1334 42.4714 62.2073 42.4374Z" fill="#EDE8F9"/>
<path d="M63.5401 37.0491C62.9092 37.4839 62.8726 38.4204 63.5207 38.8634C63.8318 39.0759 64.2319 39.1011 64.5935 39.1576C64.7904 39.1882 64.9874 39.219 65.184 39.2498C65.2871 39.2658 65.3901 39.2819 65.4933 39.2982C65.5717 39.3104 65.7019 39.3086 65.763 39.3507C65.7263 39.3161 65.6896 39.2815 65.6533 39.247C65.6522 39.2456 65.6526 39.075 65.6639 39.0821C65.6704 39.0862 65.6335 39.1111 65.6346 39.1101C65.5756 39.1534 65.5031 39.1854 65.4385 39.219C65.3072 39.287 65.1732 39.3479 65.0354 39.4005C64.7434 39.5121 64.4411 39.5917 64.1328 39.6433C63.9788 39.6691 63.8951 39.8635 63.9349 40.0012C63.9823 40.1657 64.1382 40.2249 64.2927 40.1991C64.8319 40.109 65.3526 39.9261 65.8321 39.6632C66.0473 39.5452 66.2763 39.3402 66.2043 39.0647C66.1247 38.7606 65.7682 38.7578 65.5161 38.7185C65.2349 38.6748 64.9536 38.6308 64.6725 38.5869C64.4261 38.5485 64.1393 38.5377 63.9126 38.4255C63.5646 38.2534 63.5164 37.7672 63.8422 37.5428C64.1473 37.3318 63.8472 36.8375 63.5401 37.0491Z" fill="#EDE8F9"/>
<path d="M64.4186 41.3255C65.4663 40.9154 66.5035 40.4794 67.5308 40.0206C67.6737 39.957 67.7005 39.7441 67.6264 39.6231C67.5361 39.4756 67.3721 39.4636 67.2289 39.5275C66.2488 39.965 65.2579 40.3784 64.2584 40.7696C64.1131 40.8265 64.0144 40.9678 64.0606 41.1277C64.1011 41.2669 64.2726 41.3825 64.4186 41.3255Z" fill="#EDE8F9"/>
<path d="M65.9953 41.6344C66.1988 42.0688 66.4403 42.4843 66.72 42.874C66.8091 42.9985 66.8966 43.109 67.0494 43.1548C67.1679 43.1904 67.3099 43.1628 67.4272 43.138C67.6748 43.0856 67.8927 42.9582 68.0822 42.794C68.197 42.6947 68.1786 42.4794 68.0686 42.3853C67.9394 42.2745 67.7828 42.2924 67.6597 42.3987C67.6507 42.4065 67.6224 42.4276 67.6474 42.4091C67.6307 42.4216 67.6138 42.4337 67.5964 42.4452C67.5573 42.4712 67.5167 42.494 67.4749 42.5156C67.4296 42.5391 67.5078 42.5032 67.4605 42.523C67.4413 42.531 67.4218 42.5381 67.4021 42.5447C67.3577 42.5599 67.3126 42.572 67.2668 42.5819C67.2591 42.5838 67.2194 42.5903 67.2485 42.5863C67.2294 42.5888 67.2094 42.5884 67.1905 42.5917C67.1814 42.5918 67.1723 42.5919 67.1632 42.5921C67.1849 42.5977 67.2065 42.6034 67.2282 42.6088C67.25 42.6144 67.2548 42.6438 67.2432 42.6145C67.2278 42.5754 67.1858 42.5349 67.1617 42.5003C67.1316 42.4571 67.1018 42.4137 67.0726 42.3702C66.8512 42.0399 66.6565 41.6925 66.4878 41.3323C66.4234 41.1947 66.2098 41.156 66.0902 41.2367C65.949 41.3329 65.9265 41.4873 65.9953 41.6344Z" fill="#EDE8F9"/>
<path d="M66.1428 42.5401C66.5683 42.3932 66.9801 42.2033 67.3661 41.9718C67.4958 41.8941 67.5485 41.7029 67.4617 41.5742C67.3731 41.4431 67.2032 41.3952 67.0641 41.4786C66.8855 41.5856 66.7018 41.6841 66.5131 41.7724C66.4911 41.7827 66.4687 41.793 66.4465 41.8031C66.4353 41.8083 66.4243 41.8133 66.413 41.8182C66.4466 41.8034 66.4478 41.8029 66.4166 41.8166C66.3714 41.8356 66.3264 41.8549 66.2809 41.8733C66.1824 41.9129 66.0828 41.9498 65.9825 41.9846C65.8399 42.0337 65.733 42.1893 65.7847 42.3426C65.8328 42.4844 65.9898 42.5928 66.1428 42.5401Z" fill="#EDE8F9"/>
<path d="M17.1809 47.5954C16.8052 50.1669 16.2718 52.712 15.5839 55.2181C15.4581 55.6761 16.1817 55.821 16.3071 55.3649C16.9951 52.8588 17.5284 50.3138 17.9046 47.7424C17.9724 47.2741 17.2498 47.1244 17.1809 47.5954Z" fill="#EDE8F9"/>
<path d="M17.3382 47.7766C18.5462 47.8305 19.7516 47.9319 20.9519 48.0782C21.1499 48.1023 21.345 47.9965 21.3869 47.79C21.4242 47.6063 21.2977 47.3792 21.0987 47.355C19.8329 47.2009 18.5613 47.0972 17.2874 47.04C17.0883 47.0313 16.9321 47.251 16.9445 47.4337C16.9595 47.6507 17.1387 47.7674 17.3382 47.7766Z" fill="#EDE8F9"/>
<path d="M16.9712 50.4163C18.2663 50.5556 19.562 50.6945 20.8571 50.8338C21.0551 50.8553 21.2498 50.754 21.2922 50.5456C21.329 50.3643 21.2035 50.1319 21.004 50.1106C19.7088 49.9713 18.4132 49.8324 17.118 49.6931C16.9199 49.6721 16.7253 49.7729 16.683 49.9813C16.6461 50.1631 16.7716 50.395 16.9712 50.4163Z" fill="#EDE8F9"/>
<path d="M22.3793 52.8002C22.8919 53.0749 23.4733 53.204 24.0537 53.1846C24.2468 53.1784 24.4183 52.9846 24.3966 52.7909C24.3735 52.5863 24.2097 52.441 24.0029 52.448C23.9373 52.4503 23.8721 52.4507 23.8069 52.4486C23.7933 52.4483 23.7342 52.4388 23.7229 52.4446C23.7752 52.4482 23.7802 52.4482 23.738 52.4452C23.7285 52.4443 23.7191 52.4434 23.7102 52.4426C23.585 52.4303 23.4605 52.4095 23.3376 52.381C23.2783 52.3675 23.2199 52.3516 23.1619 52.3343C23.1561 52.3326 23.0858 52.3062 23.0817 52.3089C23.1311 52.3265 23.1359 52.328 23.0959 52.3138C23.0827 52.3091 23.0696 52.3039 23.0564 52.2992C22.9384 52.2541 22.8245 52.2011 22.7134 52.1417C22.5431 52.0506 22.2983 52.1251 22.2171 52.304C22.1329 52.4903 22.1967 52.7026 22.3793 52.8002Z" fill="#EDE8F9"/>
<path d="M21.578 54.8012C21.9425 54.798 22.2192 54.8173 22.5887 54.8772C22.9419 54.9348 23.2891 55.0219 23.6284 55.1357C23.8122 55.1973 24.035 55.0275 24.0634 54.8475C24.0975 54.6298 23.9722 54.4787 23.7752 54.4125C23.0509 54.169 22.2907 54.0576 21.5276 54.0647C21.3345 54.0664 21.1633 54.2683 21.1847 54.4584C21.2081 54.6665 21.3712 54.8031 21.578 54.8012Z" fill="#EDE8F9"/>
<path d="M29.7128 51.3522C28.9092 51.6014 28.1495 51.9126 27.6461 52.622C27.1221 53.3605 26.9513 54.2717 27.025 55.1638C27.0927 55.9841 27.2992 56.8987 27.8975 57.5017C28.4777 58.0869 29.3468 58.1992 30.0396 57.7499C30.9115 57.1844 31.1055 56.0948 30.9643 55.1318C30.8959 54.6657 30.159 54.7109 30.2277 55.1827C30.3395 55.9423 30.249 56.9399 29.4102 57.2455C28.5583 57.5556 28.0561 56.5764 27.8902 55.9093C27.6888 55.0987 27.6559 54.182 28.0281 53.4152C28.4204 52.6066 29.1372 52.3029 29.9511 52.0507C30.4046 51.9101 30.1668 51.2117 29.7128 51.3522Z" fill="#EDE8F9"/>
<path d="M28.7287 55.2201C29.7026 55.3653 30.6856 55.4463 31.6701 55.4645C31.8693 55.4681 32.0256 55.2575 32.013 55.0708C31.9983 54.8573 31.8194 54.7316 31.6193 54.7279C30.7002 54.7103 29.7848 54.6325 28.8757 54.4964C28.6787 54.467 28.4818 54.582 28.4406 54.7846C28.4023 54.9732 28.5308 55.1905 28.7287 55.2201Z" fill="#EDE8F9"/>
<path d="M35.2518 51.2709C35.5002 51.6161 35.188 52.169 35.1004 52.5288C35.0251 52.837 34.9992 53.1639 35.0212 53.4803C35.032 53.6313 35.0567 53.7802 35.0882 53.9284C35.1007 53.9865 35.1053 54.0853 35.1392 54.1371C35.1926 54.2197 35.0856 54.1974 35.1714 54.1205C35.2233 54.0861 35.2752 54.0517 35.3277 54.0169C35.3145 54.0223 35.3007 54.0281 35.2875 54.0335C35.4497 54.1416 35.6121 54.2493 35.7749 54.3575C35.7691 53.0734 36.2135 51.8044 37.0165 50.8025C36.822 50.7883 36.628 50.7746 36.4335 50.7603C36.6977 51.192 36.667 51.7481 36.6857 52.2354C36.7099 52.8697 36.7341 53.5035 36.7578 54.1377C36.7697 54.4566 37.1955 54.592 37.401 54.3581C37.7369 53.9761 38.0728 53.5946 38.4093 53.2127C38.6639 52.9232 38.9152 52.5629 39.3005 52.4478C39.1444 52.3712 38.9884 52.2946 38.8319 52.2174C38.9574 52.5987 38.831 52.995 38.7216 53.3649C38.5968 53.7883 38.4763 54.2075 38.4968 54.6538C38.5186 55.1281 39.255 55.0782 39.2334 54.6029C39.2135 54.1638 39.3839 53.7422 39.4988 53.3254C39.6214 52.8809 39.6776 52.4249 39.5305 51.9786C39.4664 51.7844 39.2515 51.6919 39.0619 51.7482C38.5966 51.8874 38.2722 52.2496 37.9618 52.6025C37.5912 53.0234 37.2211 53.4444 36.8504 53.8653C37.0647 53.9386 37.2794 54.0124 37.4936 54.0857C37.4678 53.4001 37.4415 52.7139 37.4158 52.0278C37.3937 51.4454 37.3608 50.8618 37.0486 50.3512C36.9292 50.1559 36.6115 50.1272 36.4656 50.3091C35.5329 51.4724 35.0313 52.916 35.038 54.4068C35.0388 54.6366 35.3135 54.8176 35.5254 54.7309C35.9257 54.5668 35.9086 54.1859 35.8192 53.8285C35.7274 53.4626 35.7307 53.0762 35.8157 52.7093C35.9573 52.0991 36.2857 51.4435 35.8672 50.8624C35.5898 50.4785 34.9734 50.8843 35.2518 51.2709Z" fill="#EDE8F9"/>
<path d="M40.1127 54.4701C40.0788 54.9331 39.9984 55.3913 39.8732 55.8388C39.8212 56.0251 39.9741 56.2443 40.1614 56.2738C40.3707 56.3067 40.5403 56.1852 40.5964 55.9856C40.7215 55.5386 40.8019 55.0805 40.8359 54.617C40.8435 54.515 40.8409 54.4287 40.7821 54.34C40.7323 54.2648 40.6387 54.1963 40.5481 54.1825C40.4537 54.1679 40.3505 54.1787 40.2712 54.2363C40.1969 54.2894 40.1198 54.3757 40.1127 54.4701Z" fill="#EDE8F9"/>
<path d="M42.8097 52.3102C42.8884 52.5563 42.8665 52.8087 42.8294 53.0607C42.7848 53.365 42.7264 53.6676 42.6638 53.9684C42.5364 54.5784 42.3825 55.1826 42.2281 55.7862C42.1268 56.1836 42.7611 56.4153 42.9188 56.0264C43.1508 55.4552 43.3924 54.887 43.6128 54.3109C43.7237 54.021 43.8243 53.7265 43.8803 53.4209C43.9243 53.1795 43.9385 52.9204 44.024 52.6884C44.0565 52.6006 44.0999 52.5035 44.1726 52.441C44.1843 52.4308 44.231 52.4049 44.2336 52.3969C44.2673 52.3876 44.2499 52.381 44.1818 52.3762C44.1877 52.3845 44.194 52.3929 44.1999 52.4011C44.1976 52.4224 44.2404 52.4951 44.2502 52.5239C44.273 52.5931 44.2913 52.6645 44.3103 52.735C44.3486 52.877 44.3837 53.0199 44.4161 53.1637C44.546 53.7468 44.6111 54.3435 44.6314 54.9397C44.6451 55.3371 45.1453 55.362 45.3289 55.0813C45.6176 54.6392 45.9468 54.2235 46.3055 53.8361C46.4787 53.6496 46.659 53.4697 46.8465 53.2973C47.0384 53.1202 47.2446 52.9148 47.4726 52.7864C47.3801 52.8045 47.2876 52.8226 47.1956 52.8403C47.2144 52.8425 47.2326 52.8447 47.2513 52.847C47.1732 52.7943 47.095 52.7416 47.0174 52.689C47.0241 52.7009 47.0307 52.7129 47.0374 52.7248C47.0172 52.6652 46.9969 52.6061 46.9767 52.5465C47.0133 53.1767 46.8969 53.8517 46.8002 54.4725C46.6982 55.1286 46.555 55.7769 46.3758 56.4158C46.2476 56.8733 46.9713 57.0178 47.0991 56.5627C47.2977 55.8555 47.4516 55.1372 47.5549 54.4097C47.6065 54.0462 47.6457 53.6812 47.6731 53.3152C47.6883 53.1134 47.7005 52.9115 47.7093 52.7093C47.7166 52.5392 47.7208 52.3841 47.6015 52.2458C47.3092 51.9079 46.9218 52.2648 46.6831 52.4662C46.4255 52.6834 46.176 52.9103 45.9404 53.1512C45.4623 53.6386 45.0443 54.1761 44.6714 54.7474C44.9041 54.7947 45.1363 54.8418 45.369 54.8891C45.3442 54.1608 45.2431 53.4382 45.07 52.7297C44.9942 52.4195 44.9255 52.0493 44.6746 51.8257C44.4109 51.5905 44.0368 51.621 43.7658 51.8249C43.2184 52.2362 43.2563 52.947 43.098 53.5452C42.9035 54.2795 42.5469 54.9894 42.2613 55.6925C42.4914 55.7726 42.7219 55.8527 42.952 55.9327C43.1199 55.2743 43.2881 54.615 43.4214 53.9485C43.5433 53.3409 43.7031 52.6803 43.5087 52.0715C43.3638 51.6196 42.665 51.8568 42.8097 52.3102Z" fill="#EDE8F9"/>
<path d="M48.6335 56.3256C48.8731 56.2718 49.2369 56.2498 49.4726 56.2749C49.5136 56.2792 49.5543 56.2875 49.5953 56.2917C49.6084 56.2944 49.622 56.2972 49.6351 56.2998C49.6116 56.2885 49.6122 56.2881 49.6357 56.2994C49.658 56.311 49.6597 56.3104 49.6395 56.2982C49.6346 56.2922 49.6297 56.2866 49.6249 56.2806C49.6152 56.2534 49.6146 56.2517 49.6238 56.2758C49.6304 56.2928 49.636 56.3101 49.64 56.3276C49.6289 56.2779 49.6374 56.3407 49.6384 56.3606C49.6392 56.3789 49.6396 56.3971 49.6393 56.4158C49.6417 56.3839 49.6417 56.3814 49.6384 56.408C49.6338 56.4379 49.6288 56.4676 49.6217 56.4975C49.6196 56.5051 49.5825 56.6061 49.6094 56.5429C49.5853 56.5996 49.5576 56.6541 49.5256 56.7071C49.5575 56.6545 49.5018 56.7401 49.4937 56.7501C49.4701 56.7791 49.4457 56.8075 49.4199 56.8351C49.3986 56.858 49.376 56.8796 49.3531 56.9007C49.3345 56.9176 49.3345 56.9177 49.3537 56.9003C49.344 56.908 49.3339 56.9155 49.3243 56.9231C49.2605 56.9687 49.1966 57.0128 49.1281 57.0519C49.0426 57.1001 48.926 57.1497 48.798 57.1959C48.6543 57.2474 48.5081 57.2914 48.362 57.335C48.2121 57.3797 48.0951 57.5533 48.1128 57.7094C48.13 57.8612 48.2433 58.0266 48.4074 58.0458C49.0949 58.1253 49.7824 58.2043 50.4699 58.2838C50.6612 58.306 50.8721 58.2044 50.9049 57.9956C50.9337 57.8116 50.8219 57.584 50.6167 57.5605C49.9293 57.481 49.2417 57.402 48.5543 57.3225C48.5698 57.5593 48.5847 57.7966 48.6002 58.0334C49.3399 57.8136 50.1848 57.4602 50.353 56.6096C50.3933 56.4063 50.3872 56.18 50.3008 55.9893C50.189 55.742 49.9674 55.6026 49.7035 55.5627C49.2657 55.4965 48.8261 55.5314 48.3966 55.6279C48.202 55.6717 48.1072 55.9225 48.1662 56.0965C48.2353 56.3008 48.4384 56.3693 48.6335 56.3256Z" fill="#EDE8F9"/>
<path d="M33.402 56.4185C39.5186 57.7022 45.6501 58.9123 51.796 60.049C52.2625 60.1351 52.4108 59.4122 51.9428 59.3258C45.7974 58.1891 39.6654 56.979 33.5488 55.6953C33.0842 55.5974 32.9363 56.3204 33.402 56.4185Z" fill="#EDE8F9"/>
<path d="M38.3737 59.3537C38.5845 59.3672 38.6386 59.7396 38.6509 59.8854C38.6764 60.1949 38.6645 60.5095 38.6677 60.8195C38.6746 61.5089 38.681 62.1981 38.688 62.8875C38.8353 62.7584 38.9821 62.6292 39.1294 62.5006C39.181 62.5151 39.1337 62.502 39.1279 62.4261C39.1212 62.337 39.1554 62.2384 39.1771 62.154C39.2335 61.9333 39.2939 61.7128 39.3522 61.4925C39.4665 61.0615 39.554 60.6103 39.7072 60.1917C39.8197 59.8835 40.017 59.6126 40.3573 59.5475C40.6945 59.4827 41.0009 59.6589 41.1719 59.943C41.4172 60.3506 42.0317 59.9419 41.7871 59.5354C41.4958 59.0513 40.9312 58.7444 40.3625 58.8035C39.7717 58.8648 39.2965 59.2538 39.0726 59.7969C38.8311 60.3823 38.7122 61.0305 38.5508 61.6412C38.4698 61.9483 38.351 62.2699 38.4079 62.5914C38.4638 62.9076 38.675 63.1377 38.9826 63.2239C39.2266 63.2921 39.4263 63.0596 39.424 62.837C39.4159 61.9945 39.4073 61.1519 39.3991 60.3094C39.3957 59.9534 39.4011 59.5835 39.2476 59.2535C39.0692 58.869 38.7419 58.6441 38.3228 58.6176C38.124 58.605 37.9675 58.8311 37.9799 59.0113C37.9953 59.2314 38.1739 59.3409 38.3737 59.3537Z" fill="#EDE8F9"/>
<path d="M43.3472 60.18C43.4374 60.1286 43.2833 60.2013 43.3795 60.1623C43.4049 60.1518 43.4301 60.1418 43.4561 60.1335C43.4821 60.1246 43.5083 60.1173 43.5345 60.11C43.6306 60.0841 43.4703 60.1131 43.5694 60.1045C43.6245 60.0995 43.6777 60.0957 43.7332 60.0958C43.8336 60.096 43.6665 60.0813 43.7652 60.0998C43.792 60.1047 43.8189 60.1087 43.8455 60.1146C43.8721 60.1205 43.8981 60.1288 43.9246 60.1352C43.8468 60.1159 43.9393 60.1422 43.9537 60.1487C43.9763 60.1588 43.998 60.1738 44.0209 60.183C44.0587 60.1983 43.9747 60.1418 44.0264 60.1857C44.0488 60.2048 44.0698 60.2232 44.0903 60.244C44.0572 60.2106 44.0673 60.2152 44.0878 60.2511C44.109 60.2882 44.0677 60.1885 44.0837 60.2538C44.0737 60.2336 44.0714 60.2125 44.0762 60.1912C44.0806 60.1573 44.0791 60.162 44.0713 60.2059C44.1006 60.1659 44.0611 60.2088 44.0496 60.2307C44.0284 60.2703 44.0759 60.2003 44.0346 60.2499C43.9971 60.2953 43.9607 60.3404 43.9203 60.3826C43.9018 60.4016 43.8829 60.42 43.864 60.4388C43.7913 60.5109 43.9198 60.3977 43.8392 60.4611C43.7972 60.4939 43.755 60.5257 43.7106 60.5551C43.6617 60.5875 43.6105 60.6155 43.5593 60.644C43.5229 60.6644 43.6066 60.6248 43.5433 60.6508C43.5136 60.663 43.4848 60.6758 43.4547 60.6869C43.405 60.7055 43.3543 60.7215 43.3031 60.7353C43.293 60.7378 43.1922 60.7567 43.2725 60.7443C43.2407 60.7494 43.2094 60.7542 43.1778 60.7583C42.9943 60.7821 42.8511 60.9131 42.8384 61.1023C42.8256 61.2971 42.9522 61.4318 43.1301 61.4881C43.7053 61.6705 44.28 61.8528 44.8552 62.0351C45.0396 62.0938 45.2617 61.9294 45.2902 61.747C45.3238 61.5317 45.1997 61.3748 45.002 61.3119C44.4268 61.1295 43.8521 60.9472 43.2769 60.7648C43.2609 61.0079 43.2447 61.2514 43.2287 61.4945C43.5765 61.4495 43.9144 61.3263 44.1965 61.1156C44.4851 60.8996 44.8365 60.5535 44.8099 60.1625C44.7821 59.7526 44.4005 59.5015 44.0399 59.403C43.6678 59.3018 43.2706 59.3766 42.9397 59.5643C42.7714 59.6598 42.7243 59.9218 42.8359 60.0757C42.9595 60.2472 43.1674 60.2823 43.3472 60.18Z" fill="#EDE8F9"/>
</svg>
