<svg width="24" height="25" viewBox="0 0 24 25" fill="none" xmlns="http://www.w3.org/2000/svg">
<path d="M15.3945 5.90039C15.7524 5.90221 16.0768 6.22493 16.1143 6.67578L16.1182 6.76758L16.0713 18.9834C16.0693 19.4812 15.7232 19.8447 15.3418 19.8428L15.2715 19.8379C14.9426 19.7972 14.6572 19.4881 14.6221 19.0674L14.6191 18.9756L14.665 6.75977C14.6668 6.29283 14.9717 5.94428 15.3242 5.9043L15.3945 5.90039Z" fill="white" stroke="white" stroke-width="0.3"/>
<path d="M7.23503 19.8986L6.24759 19.8935C6.14806 19.893 6.06317 19.8101 6.04619 19.6967L5.42145 15.5264L6.91766 15.534L7.51429 19.5167C7.54426 19.7167 7.41061 19.8995 7.23503 19.8986Z" fill="white"/>
<path d="M8.78047 10.1529L8.77024 12.8376L8.76001 15.5223C13.0236 15.7191 14.4691 18.834 14.4691 18.834L14.5146 6.89941C14.5146 6.89941 13.0454 9.99949 8.78047 10.1529Z" fill="white"/>
<path d="M5.35133 15.5505L7.90781 15.5635L7.92861 10.1029L5.37212 10.0899C4.06779 10.0832 3.00577 11.3002 3.00002 12.8082C2.99429 14.3161 4.047 15.5439 5.35133 15.5505Z" fill="white"/>
<path d="M7.27423 10.0889L9.11798 10.0977C9.13036 10.0977 9.14631 10.1039 9.16193 10.1221C9.16984 10.1314 9.17734 10.143 9.18243 10.1572L9.19025 10.2061L9.17072 15.4746C9.17058 15.5109 9.15733 15.5404 9.14142 15.5586C9.12579 15.5765 9.10981 15.5821 9.09747 15.582L7.25372 15.5723C7.24142 15.5722 7.2253 15.5668 7.20978 15.5488C7.20177 15.5395 7.19441 15.527 7.18927 15.5127L7.18146 15.4648L7.20099 10.1953C7.20113 10.159 7.21438 10.1296 7.23029 10.1113C7.23782 10.1028 7.24552 10.0973 7.25275 10.0938L7.27423 10.0889Z" fill="white" stroke="white" stroke-width="0.3"/>
<path d="M20.9714 13.2455H18.1341C17.983 13.2455 17.8605 13.1038 17.8605 12.9292V12.8143C17.8605 12.6397 17.983 12.498 18.1341 12.498H20.9714C21.1225 12.498 21.245 12.6397 21.245 12.8143V12.9292C21.245 13.1038 21.1225 13.2455 20.9714 13.2455Z" fill="white"/>
<path d="M20.7067 7.41713L18.1767 9.77437C18.066 9.87757 17.9243 9.81633 17.8604 9.63759C17.7965 9.45885 17.8344 9.2303 17.9452 9.12709L20.4751 6.76986C20.5859 6.66666 20.7275 6.7279 20.7915 6.90664C20.8554 7.08538 20.8175 7.31393 20.7067 7.41713Z" fill="white"/>
<path d="M20.7068 18.3263L18.1768 15.9691C18.066 15.8659 17.9244 15.9271 17.8605 16.1059C17.7965 16.2846 17.8345 16.5132 17.9452 16.6164L20.4752 18.9736C20.586 19.0768 20.7276 19.0155 20.7915 18.8368C20.8555 18.6581 20.8175 18.4295 20.7068 18.3263Z" fill="white"/>
</svg>
