<svg width="304" height="230" viewBox="0 0 304 230" fill="none" xmlns="http://www.w3.org/2000/svg">
<g clip-path="url(#clip0_651_3407)">
<path d="M156.386 229.766C221.425 229.766 274.15 226.687 274.15 222.889C274.15 219.091 221.425 216.012 156.386 216.012C91.3473 216.012 38.6228 219.091 38.6228 222.889C38.6228 226.687 91.3473 229.766 156.386 229.766Z" fill="#F5F5F5"/>
<path d="M303.978 204.197H0.290649V204.349H303.978V204.197Z" fill="#E0E0E0"/>
<path d="M48.7792 213.724H32.153V213.875H48.7792V213.724Z" fill="#E0E0E0"/>
<path d="M58.0581 213.724H52.7782V213.875H58.0581V213.724Z" fill="#E0E0E0"/>
<path d="M152.135 211.623H140.376V211.775H152.135V211.623Z" fill="#E0E0E0"/>
<path d="M254.154 211.548H227.919V211.7H254.154V211.548Z" fill="#E0E0E0"/>
<path d="M263.408 211.548H259.561V211.7H263.408V211.548Z" fill="#E0E0E0"/>
<path d="M207.203 207.953H150.307V208.105H207.203V207.953Z" fill="#E0E0E0"/>
<path d="M144.247 177.109H26.9636C25.0522 177.109 23.4967 175.554 23.4967 173.642V8.78135C23.4967 6.86994 25.0522 5.31445 26.9636 5.31445H144.247C146.158 5.31445 147.713 6.86994 147.713 8.78135V173.642C147.713 175.554 146.158 177.109 144.247 177.109ZM26.9636 5.4669C25.1354 5.4669 23.6485 6.95376 23.6485 8.78196V173.643C23.6485 175.471 25.1354 176.958 26.9636 176.958H144.247C146.075 176.958 147.562 175.471 147.562 173.643V8.78135C147.562 6.95376 146.075 5.4663 144.247 5.4663L26.9636 5.4669Z" fill="#E0E0E0"/>
<path d="M275.62 177.109H158.337C156.426 177.109 154.871 175.554 154.871 173.642V8.78135C154.871 6.86994 156.426 5.31445 158.337 5.31445H275.62C277.532 5.31445 279.087 6.86994 279.087 8.78135V173.642C279.087 175.554 277.532 177.109 275.62 177.109ZM158.337 5.4669C156.509 5.4669 155.023 6.95376 155.023 8.78196V173.643C155.023 175.471 156.509 176.958 158.337 176.958H275.62C277.448 176.958 278.935 175.471 278.935 173.643V8.78135C278.935 6.95376 277.448 5.4663 275.62 5.4663L158.337 5.4669Z" fill="#E0E0E0"/>
<path d="M189.922 2.89594C189.922 1.51963 191.049 0.393555 192.425 0.393555H270.375C271.751 0.393555 272.877 1.51963 272.877 2.89594V10.951H189.922V2.89594Z" fill="#E0E0E0"/>
<path d="M208.263 5.67225C208.263 6.71754 209.11 7.56422 210.155 7.56422C211.2 7.56422 212.047 6.71693 212.047 5.67225C212.047 4.62756 211.199 3.78027 210.155 3.78027C209.11 3.77967 208.263 4.62696 208.263 5.67225Z" fill="white"/>
<path d="M201.558 5.67225C201.558 6.71754 202.406 7.56422 203.45 7.56422C204.496 7.56422 205.342 6.71693 205.342 5.67225C205.342 4.62756 204.495 3.78027 203.45 3.78027C202.406 3.77967 201.558 4.62696 201.558 5.67225Z" fill="white"/>
<path d="M194.854 5.67225C194.854 6.71754 195.702 7.56422 196.746 7.56422C197.791 7.56422 198.638 6.71693 198.638 5.67225C198.638 4.62756 197.791 3.78027 196.746 3.78027C195.702 3.77967 194.854 4.62696 194.854 5.67225Z" fill="white"/>
<path d="M270.375 65.201H192.425C191.048 65.201 189.922 64.0749 189.922 62.6986V10.9502H272.876V62.6986C272.877 64.0749 271.751 65.201 270.375 65.201Z" fill="#F0F0F0"/>
<path d="M184.339 11.2709C184.339 9.89463 185.465 8.76855 186.841 8.76855H264.791C266.167 8.76855 267.293 9.89463 267.293 11.2709V19.326H184.339V11.2709Z" fill="#F0F0F0"/>
<path d="M202.679 14.0482C202.679 15.0935 203.526 15.9402 204.571 15.9402C205.616 15.9402 206.463 15.0929 206.463 14.0482C206.463 13.0035 205.616 12.1563 204.571 12.1563C203.526 12.1556 202.679 13.0029 202.679 14.0482Z" fill="#E0E0E0"/>
<path d="M195.975 14.0482C195.975 15.0935 196.822 15.9402 197.867 15.9402C198.912 15.9402 199.759 15.0929 199.759 14.0482C199.759 13.0035 198.912 12.1563 197.867 12.1563C196.822 12.1556 195.975 13.0029 195.975 14.0482Z" fill="#E0E0E0"/>
<path d="M189.271 14.0482C189.271 15.0935 190.118 15.9402 191.163 15.9402C192.208 15.9402 193.055 15.0929 193.055 14.0482C193.055 13.0035 192.207 12.1563 191.163 12.1563C190.117 12.1556 189.271 13.0029 189.271 14.0482Z" fill="#E0E0E0"/>
<path d="M264.791 73.5769H186.841C185.465 73.5769 184.339 72.4509 184.339 71.0746V19.3262H267.293V71.0739C267.293 72.4509 266.167 73.5769 264.791 73.5769Z" fill="#FAFAFA"/>
<path d="M178.755 19.6469C178.755 18.2706 179.881 17.1445 181.258 17.1445H259.208C260.584 17.1445 261.71 18.2706 261.71 19.6469V27.7019H178.755V19.6469Z" fill="#FAFAFA"/>
<path d="M197.096 22.4232C197.096 23.4685 197.943 24.3152 198.988 24.3152C200.032 24.3152 200.88 23.4679 200.88 22.4232C200.88 21.3785 200.032 20.5313 198.988 20.5313C197.943 20.5306 197.096 21.3779 197.096 22.4232Z" fill="#F0F0F0"/>
<path d="M190.391 22.4232C190.391 23.4685 191.238 24.3152 192.283 24.3152C193.328 24.3152 194.175 23.4679 194.175 22.4232C194.175 21.3785 193.328 20.5312 192.283 20.5312C191.238 20.5312 190.391 21.3779 190.391 22.4232Z" fill="#F0F0F0"/>
<path d="M185.579 24.3152C186.624 24.3152 187.471 23.4681 187.471 22.4232C187.471 21.3783 186.624 20.5312 185.579 20.5312C184.534 20.5312 183.687 21.3783 183.687 22.4232C183.687 23.4681 184.534 24.3152 185.579 24.3152Z" fill="#F0F0F0"/>
<path d="M259.207 81.9523H181.258C179.882 81.9523 178.755 80.8262 178.755 79.4499V27.7021H261.71V79.4499C261.71 80.8262 260.584 81.9523 259.207 81.9523Z" fill="#E0E0E0"/>
<path d="M48.3534 49.6109C48.3534 48.3057 49.4212 47.2373 50.727 47.2373H168.186C169.491 47.2373 170.559 48.3051 170.559 49.6109V57.2511H48.3534V49.6109Z" fill="#E0E0E0"/>
<path d="M67.5434 54.1945C66.4678 54.1945 65.5925 53.3199 65.5925 52.2442C65.5925 51.1686 66.4678 50.2939 67.5434 50.2939C68.6191 50.2939 69.4937 51.1686 69.4937 52.2442C69.4931 53.3193 68.6185 54.1945 67.5434 54.1945ZM67.5434 50.6049C66.6396 50.6049 65.9041 51.3405 65.9041 52.2436C65.9041 53.1474 66.6396 53.8823 67.5434 53.8823C68.4472 53.8823 69.1821 53.1468 69.1821 52.2436C69.1821 51.3405 68.4466 50.6049 67.5434 50.6049Z" fill="white"/>
<path d="M61.1842 54.1945C60.1085 54.1945 59.2339 53.3199 59.2339 52.2442C59.2339 51.1686 60.1085 50.2939 61.1842 50.2939C62.2598 50.2939 63.1345 51.1686 63.1345 52.2442C63.1345 53.3193 62.2592 54.1945 61.1842 54.1945ZM61.1842 50.6049C60.2804 50.6049 59.5455 51.3405 59.5455 52.2436C59.5455 53.1474 60.2804 53.8823 61.1842 53.8823C62.0879 53.8823 62.8229 53.1468 62.8229 52.2436C62.8229 51.3405 62.0879 50.6049 61.1842 50.6049Z" fill="white"/>
<path d="M54.8256 54.1945C53.75 54.1945 52.8754 53.3199 52.8754 52.2442C52.8754 51.1686 53.75 50.2939 54.8256 50.2939C55.9007 50.2939 56.7759 51.1686 56.7759 52.2442C56.7753 53.3193 55.9007 54.1945 54.8256 54.1945ZM54.8256 50.6049C53.9219 50.6049 53.1863 51.3405 53.1863 52.2436C53.1863 53.1474 53.9213 53.8823 54.8256 53.8823C55.7294 53.8823 56.4643 53.1468 56.4643 52.2436C56.4643 51.3405 55.7288 50.6049 54.8256 50.6049Z" fill="white"/>
<path d="M168.185 120.763H50.7264C49.4212 120.763 48.3528 119.695 48.3528 118.389V57.251H170.558V118.389C170.558 119.695 169.49 120.763 168.185 120.763Z" fill="#F0F0F0"/>
<path d="M43.0571 65.7203C43.0571 64.4151 44.1249 63.3467 45.4301 63.3467H162.889C164.194 63.3467 165.262 64.4144 165.262 65.7203V73.3605H43.0571V65.7203Z" fill="#FAFAFA"/>
<path d="M62.2472 70.3039C61.1715 70.3039 60.2969 69.4293 60.2969 68.3536C60.2969 67.2779 61.1715 66.4033 62.2472 66.4033C63.3228 66.4033 64.1974 67.2779 64.1974 68.3536C64.1974 69.4293 63.3222 70.3039 62.2472 70.3039ZM62.2472 66.7143C61.3434 66.7143 60.6085 67.4492 60.6085 68.3536C60.6085 69.2574 61.3434 69.9923 62.2472 69.9923C63.1509 69.9923 63.8859 69.2574 63.8859 68.3536C63.8859 67.4498 63.1509 66.7143 62.2472 66.7143Z" fill="#E0E0E0"/>
<path d="M55.8879 70.3039C54.8122 70.3039 53.9376 69.4293 53.9376 68.3536C53.9376 67.2779 54.8122 66.4033 55.8879 66.4033C56.9636 66.4033 57.8382 67.2779 57.8382 68.3536C57.8382 69.4293 56.9636 70.3039 55.8879 70.3039ZM55.8879 66.7143C54.9841 66.7143 54.2492 67.4492 54.2492 68.3536C54.2492 69.2574 54.9841 69.9923 55.8879 69.9923C56.7917 69.9923 57.5272 69.2574 57.5272 68.3536C57.5272 67.4498 56.7917 66.7143 55.8879 66.7143Z" fill="#E0E0E0"/>
<path d="M49.5293 70.3039C48.4536 70.3039 47.579 69.4293 47.579 68.3536C47.579 67.2779 48.4536 66.4033 49.5293 66.4033C50.6049 66.4033 51.4795 67.2779 51.4795 68.3536C51.4795 69.4293 50.6043 70.3039 49.5293 70.3039ZM49.5293 66.7143C48.6255 66.7143 47.8906 67.4492 47.8906 68.3536C47.8906 69.2574 48.6261 69.9923 49.5293 69.9923C50.4324 69.9923 51.168 69.2574 51.168 68.3536C51.168 67.4498 50.433 66.7143 49.5293 66.7143Z" fill="#E0E0E0"/>
<path d="M162.889 148.929H45.43C44.1248 148.929 43.057 147.861 43.057 146.555V73.3604H165.262V146.555C165.262 147.861 164.194 148.929 162.889 148.929Z" fill="#F0F0F0"/>
<path d="M83.1725 8.28208H40.3629C39.0048 8.28208 37.8945 7.17119 37.8945 5.8131C37.8945 4.45501 39.0054 3.34473 40.3629 3.34473H83.1725C84.5306 3.34473 85.6415 4.45562 85.6415 5.8131C85.6409 7.17058 84.53 8.28208 83.1725 8.28208Z" fill="#E0E0E0"/>
<path d="M100.951 18.6314L40.5008 18.3866C39.1427 18.3811 38.0367 17.266 38.0421 15.9079C38.0476 14.5504 39.1634 13.4438 40.5208 13.4492L100.971 13.694C102.329 13.6995 103.435 14.8152 103.43 16.1727C103.424 17.5308 102.309 18.6368 100.951 18.6314Z" fill="#F0F0F0"/>
<path d="M68.7741 30.0672H40.3629C39.0048 30.0672 37.8945 28.9563 37.8945 27.5989C37.8945 26.2414 39.0054 25.1299 40.3629 25.1299H68.7741C70.1322 25.1299 71.2431 26.2408 71.2431 27.5989C71.2425 28.9563 70.1316 30.0672 68.7741 30.0672Z" fill="#E6E6E6"/>
<path d="M265.008 99.9628H251.821C250.788 99.9628 249.942 99.1167 249.942 98.083C249.942 97.0492 250.788 96.2031 251.821 96.2031H265.008C266.042 96.2031 266.888 97.0492 266.888 98.083C266.888 99.1167 266.042 99.9628 265.008 99.9628Z" fill="#E0E0E0"/>
<path d="M271.269 107.986H251.821C250.787 107.986 249.941 107.14 249.941 106.106C249.941 105.073 250.787 104.227 251.821 104.227H271.269C272.303 104.227 273.149 105.073 273.149 106.106C273.149 107.14 272.303 107.986 271.269 107.986Z" fill="#F0F0F0"/>
<path d="M259.898 116.55H251.821C250.787 116.55 249.941 115.704 249.941 114.67C249.941 113.636 250.787 112.79 251.821 112.79H259.898C260.932 112.79 261.778 113.636 261.778 114.67C261.778 115.704 260.932 116.55 259.898 116.55Z" fill="#E6E6E6"/>
<path d="M265.446 124.573H251.821C250.787 124.573 249.941 123.727 249.941 122.693C249.941 121.66 250.787 120.813 251.821 120.813H265.446C266.48 120.813 267.326 121.66 267.326 122.693C267.326 123.727 266.48 124.573 265.446 124.573Z" fill="#F0F0F0"/>
<path d="M263.254 133.137H251.821C250.787 133.137 249.941 132.291 249.941 131.257C249.941 130.223 250.787 129.377 251.821 129.377H263.254C264.288 129.377 265.134 130.223 265.134 131.257C265.134 132.291 264.288 133.137 263.254 133.137Z" fill="#E6E6E6"/>
<path d="M219.824 109.866H180.634C179.601 109.866 178.755 109.02 178.755 107.986C178.755 106.953 179.601 106.106 180.634 106.106H219.824C220.858 106.106 221.704 106.953 221.704 107.986C221.704 109.021 220.858 109.866 219.824 109.866Z" fill="#E0E0E0"/>
<path d="M235.692 117.891H180.634C179.601 117.891 178.755 117.044 178.755 116.011C178.755 114.977 179.601 114.131 180.634 114.131H235.692C236.726 114.131 237.572 114.977 237.572 116.011C237.572 117.045 236.726 117.891 235.692 117.891Z" fill="#F0F0F0"/>
<path d="M206.873 126.454H180.635C179.601 126.454 178.755 125.608 178.755 124.574C178.755 123.54 179.601 122.694 180.635 122.694H206.873C207.907 122.694 208.753 123.54 208.753 124.574C208.752 125.608 207.907 126.454 206.873 126.454Z" fill="#E6E6E6"/>
<path d="M220.934 134.477H180.634C179.601 134.477 178.755 133.631 178.755 132.598C178.755 131.564 179.601 130.718 180.634 130.718H220.934C221.968 130.718 222.814 131.564 222.814 132.598C222.814 133.631 221.968 134.477 220.934 134.477Z" fill="#F0F0F0"/>
<path d="M215.38 143.041H180.634C179.601 143.041 178.755 142.195 178.755 141.161C178.755 140.127 179.601 139.281 180.634 139.281H215.38C216.414 139.281 217.26 140.127 217.26 141.161C217.26 142.195 216.414 143.041 215.38 143.041Z" fill="#E6E6E6"/>
<path d="M88.6552 66.5943C87.8547 67.6682 86.9619 68.8659 86.1583 70.0369C85.3432 71.2195 84.5312 72.4057 83.7683 73.6107C82.2456 76.0153 80.8152 78.4813 79.7596 80.9618L79.5616 81.4271L79.4638 81.6554C79.4638 81.6554 79.4559 81.6451 79.4523 81.656C79.4304 81.6773 79.3946 81.7903 79.3837 81.9621C79.3563 82.312 79.411 82.8568 79.5452 83.4278C79.8192 84.583 80.2972 85.8803 80.8651 87.1504C81.999 89.7038 83.4215 92.3209 84.861 94.8294L82.2335 96.9084C80.0202 94.6672 78.0663 92.3082 76.3292 89.5981C75.4825 88.2297 74.6662 86.8054 74.057 85.0938C73.7575 84.2325 73.4848 83.3008 73.4047 82.151C73.3713 81.5746 73.3895 80.9339 73.5413 80.2257C73.5747 80.0526 73.6324 79.8643 73.6834 79.6857L73.7812 79.3875L73.9756 78.7995C74.2234 78.0033 74.5301 77.2599 74.8223 76.4964C75.1472 75.7627 75.4552 75.0101 75.8087 74.3001C76.4816 72.8485 77.25 71.4728 78.0347 70.1104C78.8255 68.7523 79.6691 67.4392 80.5541 66.154C80.9981 65.512 81.4512 64.8785 81.9152 64.2487C82.3811 63.6067 82.8408 63.0181 83.3838 62.3555L88.6552 66.5943Z" fill="#E58A7B"/>
<path d="M83.9177 93.874L87.1812 94.4358L84.287 99.3459C84.287 99.3459 82.0124 98.2532 81.603 96.131L83.9177 93.874Z" fill="#E58A7B"/>
<path d="M90.7051 96.1896L88.1232 100.136L84.2864 99.3456L87.1805 94.4355L90.7051 96.1896Z" fill="#E58A7B"/>
<path d="M105.475 42.7849C105.475 43.1447 105.666 43.437 105.901 43.437C106.137 43.437 106.327 43.1453 106.327 42.7849C106.327 42.4245 106.137 42.1328 105.901 42.1328C105.666 42.1328 105.475 42.4251 105.475 42.7849Z" fill="#263238"/>
<path d="M105.633 43.4365C105.633 43.4365 106.451 45.5131 107.352 46.5147C106.716 47.1093 105.633 46.8372 105.633 46.8372V43.4365Z" fill="#DF5753"/>
<path d="M104.2 40.7903C104.134 40.7903 104.069 40.76 104.028 40.7023C103.96 40.6075 103.981 40.4751 104.076 40.4071C105.025 39.7232 105.938 40.0651 105.977 40.0797C106.086 40.1216 106.14 40.2443 106.098 40.353C106.056 40.4618 105.936 40.517 105.825 40.4745C105.796 40.463 105.079 40.2048 104.323 40.7503C104.286 40.777 104.242 40.7903 104.2 40.7903Z" fill="#263238"/>
<path d="M93.8599 46.9346C94.5001 50.1986 95.1385 56.18 92.8547 58.3581C92.8547 58.3581 93.747 61.6695 99.8122 61.6695C106.482 61.6695 103 58.3587 103 58.3587C99.3597 57.4895 99.4539 54.7885 100.088 52.2527L93.8599 46.9346Z" fill="#E58A7B"/>
<path d="M91.9807 59.4939C91.5027 58.4456 90.9761 57.246 92.0651 56.8707C93.2628 56.4571 99.8201 56.0355 102.081 56.8118C104.341 57.588 103.701 59.7138 103.701 59.7138L91.9807 59.4939Z" fill="#407BFF"/>
<path d="M77.9297 211.891C77.4693 211.891 76.9938 211.82 76.7654 211.764C76.7253 211.755 76.6937 211.722 76.6864 211.681C76.6785 211.64 76.6962 211.598 76.7302 211.574C76.7818 211.538 78.0178 210.698 78.6659 210.848C78.8159 210.884 78.9277 210.966 78.9975 211.094C79.1311 211.337 79.0734 211.501 79.0011 211.596C78.8293 211.82 78.3865 211.891 77.9297 211.891ZM77.0642 211.61C77.7311 211.723 78.6416 211.718 78.8329 211.468C78.8511 211.444 78.9076 211.37 78.8123 211.197C78.7716 211.122 78.7078 211.076 78.6173 211.054C78.2261 210.961 77.4918 211.345 77.0642 211.61Z" fill="#407BFF"/>
<path d="M76.7895 211.766C76.7695 211.766 76.7494 211.761 76.7318 211.749C76.699 211.729 76.6814 211.691 76.6838 211.653C76.6881 211.598 76.795 210.31 77.3131 209.887C77.4479 209.777 77.5997 209.733 77.7631 209.751C78.0158 209.783 78.0826 209.939 78.0996 210.029C78.1938 210.526 77.3009 211.504 76.8393 211.754C76.8241 211.762 76.8065 211.766 76.7895 211.766ZM77.6902 209.958C77.6034 209.958 77.5238 209.989 77.4479 210.05C77.1375 210.304 76.9796 211.018 76.9201 211.449C77.3793 211.102 77.9484 210.363 77.8931 210.068C77.8882 210.041 77.8761 209.978 77.7388 209.961C77.7218 209.959 77.7054 209.958 77.6902 209.958Z" fill="#407BFF"/>
<path d="M104.723 211.891C104.19 211.891 103.639 211.823 103.354 211.766C103.311 211.757 103.277 211.722 103.27 211.679C103.263 211.635 103.283 211.591 103.322 211.569C103.387 211.531 104.945 210.647 105.69 210.845C105.842 210.887 105.955 210.97 106.024 211.093C106.15 211.311 106.099 211.464 106.033 211.555C105.848 211.812 105.295 211.891 104.723 211.891ZM103.697 211.609C104.533 211.724 105.661 211.71 105.862 211.431C105.888 211.393 105.916 211.329 105.841 211.197C105.799 211.124 105.732 211.076 105.634 211.05C105.146 210.917 104.17 211.366 103.697 211.609Z" fill="#407BFF"/>
<path d="M103.374 211.767C103.353 211.767 103.331 211.76 103.313 211.748C103.282 211.726 103.265 211.689 103.269 211.652C103.274 211.601 103.394 210.399 103.962 209.933C104.135 209.791 104.332 209.729 104.548 209.752C104.839 209.782 104.922 209.929 104.942 210.047C105.023 210.552 103.956 211.517 103.418 211.758C103.404 211.765 103.389 211.767 103.374 211.767ZM104.464 209.959C104.329 209.959 104.208 210.004 104.096 210.097C103.723 210.403 103.564 211.122 103.507 211.473C104.057 211.143 104.782 210.385 104.733 210.082C104.729 210.057 104.717 209.982 104.527 209.963C104.505 209.96 104.484 209.959 104.464 209.959Z" fill="#407BFF"/>
<path d="M98.468 211.662H102.93L103.374 201.329H98.9126L98.468 211.662Z" fill="#E58A7B"/>
<path d="M71.6774 211.662H76.1398L78.3822 201.329H73.9204L71.6774 211.662Z" fill="#E58A7B"/>
<path d="M76.4568 211.145H71.4441C71.2619 211.145 71.104 211.271 71.0645 211.449L70.1832 215.416C70.0921 215.827 70.4152 216.216 70.8367 216.209C72.5866 216.179 73.4369 216.076 75.6417 216.076C76.998 216.076 79.7919 216.217 81.665 216.217C83.4969 216.217 83.7823 214.365 83.0158 214.197C79.5781 213.445 78.2826 212.408 77.182 211.418C76.9828 211.24 76.7234 211.145 76.4568 211.145Z" fill="#263238"/>
<path d="M102.901 211.145H98.0278C97.8456 211.145 97.6876 211.271 97.6476 211.449L96.7663 215.416C96.6751 215.827 96.9873 216.216 97.4083 216.209C99.166 216.18 101.706 216.076 103.915 216.076C106.498 216.076 108.729 216.217 111.759 216.217C113.591 216.217 114.099 214.365 113.332 214.198C109.841 213.434 106.991 213.352 103.975 211.493C103.648 211.29 103.286 211.145 102.901 211.145Z" fill="#263238"/>
<path d="M108.801 60.9053C111.413 62.1923 114.126 63.5061 116.804 64.7409C119.486 65.9908 122.19 67.1691 124.879 68.1944L125.884 68.5576L126.136 68.6487L126.199 68.6718C126.218 68.6785 126.201 68.673 126.204 68.6748C126.2 68.6754 126.196 68.6766 126.192 68.6797C126.185 68.6839 126.189 68.6991 126.223 68.7064C126.346 68.7526 126.796 68.7313 127.299 68.5819C128.327 68.2819 129.559 67.655 130.739 66.9432C133.118 65.4983 135.525 63.6852 137.808 61.8746L140.268 64.1481C138.37 66.7233 136.303 69.0423 133.777 71.1663C132.493 72.2097 131.14 73.2241 129.331 74.0076C128.418 74.3848 127.369 74.7492 125.97 74.7364C125.625 74.7334 125.253 74.6945 124.875 74.6222L124.587 74.5566L124.382 74.5032L124.092 74.423L122.929 74.1023C119.869 73.1992 116.945 72.0998 114.085 70.8948C111.216 69.6806 108.456 68.3784 105.672 66.9001L108.801 60.9053Z" fill="#E58A7B"/>
<path d="M84.8653 59.3669C80.6835 60.326 75.8871 71.7276 75.8871 71.7276L84.2865 77.4843C84.2865 77.4843 87.4685 73.0329 89.8342 68.0524C92.3129 62.8338 89.1412 58.3866 84.8653 59.3669Z" fill="#263238"/>
<path d="M87.8621 66.6367L83.8899 77.2105L84.2847 77.4838C84.2847 77.4838 86.0036 75.0726 87.8621 71.817V66.6367Z" fill="#407BFF"/>
<path opacity="0.8" d="M87.8621 66.6367L83.8899 77.2105L84.2847 77.4838C84.2847 77.4838 86.0036 75.0726 87.8621 71.817V66.6367Z" fill="black"/>
<path d="M109.863 59.5958C109.863 59.5958 114.612 64.9602 110.127 98.1623C102.936 98.1623 89.7607 98.1623 86.2616 98.1623C86.097 94.4987 88.3989 76.6272 84.8658 59.3656C84.8658 59.3656 88.9565 58.5445 92.8553 58.3568C95.9049 58.2098 100.319 58.1126 103 58.3574C106.534 58.6799 109.863 59.5958 109.863 59.5958Z" fill="#263238"/>
<path d="M111.951 69.8125L106.211 68.5674C106.296 68.6706 109.843 73.1348 112.036 75.9105C112.078 73.5722 112.042 71.5496 111.951 69.8125Z" fill="#407BFF"/>
<path opacity="0.8" d="M111.951 69.8125L106.211 68.5674C106.296 68.6706 109.843 73.1348 112.036 75.9105C112.078 73.5722 112.042 71.5496 111.951 69.8125Z" fill="black"/>
<path d="M102.376 65.5375C103.693 69.5954 116.982 74.0262 116.982 74.0262L120.93 64.6702C120.93 64.6702 115.645 61.3873 110.382 59.7267C104.977 58.0218 100.931 61.0842 102.376 65.5375Z" fill="#263238"/>
<path d="M137.429 62.4376L138.739 57.915L143.932 60.2644C143.932 60.2644 142.782 63.7756 139.643 64.615L137.429 62.4376Z" fill="#E58A7B"/>
<path d="M141.844 54.165L145.376 57.6453L143.931 60.2643L138.739 57.9156L141.844 54.165Z" fill="#E58A7B"/>
<path d="M103.373 201.331L103.145 206.657H98.6815L98.9099 201.331H103.373Z" fill="#CF6F64"/>
<path d="M73.9186 201.331H78.3828L77.2246 206.657H72.7604L73.9186 201.331Z" fill="#CF6F64"/>
<path d="M93.4711 42.0213C93.7426 46.4412 93.677 49.042 95.9091 51.3105C99.2673 54.7228 104.723 52.699 105.778 48.287C106.727 44.316 106.124 37.7545 101.797 35.9956C97.5345 34.2627 93.1996 37.6015 93.4711 42.0213Z" fill="#E58A7B"/>
<path d="M102.059 39.0796C105.394 40.0659 108.192 35.3339 107.673 38.6781C107.161 41.9731 110.796 41.6603 110.796 41.6603C110.796 41.6603 107.939 40.5792 111.336 37.7622C115.487 34.3202 109.592 32.2059 107.015 34.0754C103.535 36.5996 102.86 32.1415 98.3812 30.9498C95.3637 30.1469 91.6065 32.0553 91.5397 34.2461C91.4583 36.9246 89.1539 34.7702 88.9839 38.751C88.8727 41.3499 91.9661 49.9236 95.3109 50.2152C100.339 50.6537 102.026 44.2787 102.059 39.0796Z" fill="#263238"/>
<path d="M99.4362 43.3073C99.681 44.4413 100.379 45.4356 101.127 46.0411C102.251 46.9516 103.153 46.1377 103.124 44.8215C103.098 43.6365 102.482 41.7348 101.216 41.3327C99.9689 40.9355 99.1556 42.0112 99.4362 43.3073Z" fill="#E58A7B"/>
<path d="M92.514 36.7372C92.0123 35.8583 90.8686 33.8625 92.022 31.0898C92.022 31.0898 87.2717 34.6649 92.514 36.7372Z" fill="#263238"/>
<path d="M88.7147 36.2958C89.2079 36.1276 90.3291 35.7419 91.6204 36.594C91.6204 36.594 90.2714 33.8438 88.7147 36.2958Z" fill="#263238"/>
<path d="M101.661 98.1631C101.661 98.1631 96.5973 132.262 93.8173 145.037C90.7731 159.027 79.3041 205.626 79.3041 205.626H71.1318C71.1318 205.626 78.6943 160.156 80.4314 146.305C82.3167 131.273 86.261 98.1631 86.261 98.1631H101.661Z" fill="#407BFF"/>
<path d="M80.6094 202.615C80.644 202.615 79.7657 205.754 79.7657 205.754H70.5707L70.7395 202.953L80.6094 202.615Z" fill="#407BFF"/>
<path opacity="0.2" d="M80.6094 202.615C80.644 202.615 79.7657 205.754 79.7657 205.754H70.5707L70.7395 202.953L80.6094 202.615Z" fill="black"/>
<path d="M98.4608 110.312C92.6057 111.46 93.2252 133.295 93.9298 144.526C95.6183 136.587 98.0903 121.312 99.7788 110.47C99.3901 110.276 98.9528 110.215 98.4608 110.312Z" fill="#407BFF"/>
<path opacity="0.2" d="M98.4608 110.312C92.6057 111.46 93.2252 133.295 93.9298 144.526C95.6183 136.587 98.0903 121.312 99.7788 110.47C99.3901 110.276 98.9528 110.215 98.4608 110.312Z" fill="black"/>
<path d="M110.127 98.1631C110.127 98.1631 110.742 131.524 110.256 145.131C109.752 159.284 104.808 205.627 104.808 205.627H97.2495C97.2495 205.627 96.972 160.112 96.6361 146.212C96.2692 131.059 94.4398 98.1637 94.4398 98.1637H110.127V98.1631Z" fill="#407BFF"/>
<path d="M103.234 200.197C103.231 200.197 103.229 200.197 103.226 200.196C103.184 200.192 103.153 200.155 103.158 200.113C104.49 187.288 107.631 156.258 108.028 145.129C108.434 133.726 108.065 108.264 107.942 100.731C107.941 100.69 107.975 100.655 108.017 100.654C108.054 100.656 108.093 100.687 108.094 100.729C108.216 108.262 108.586 133.728 108.179 145.135C107.782 156.268 104.641 187.303 103.308 200.129C103.305 200.168 103.272 200.197 103.234 200.197Z" fill="#407BFF"/>
<path opacity="0.2" d="M103.234 200.197C103.231 200.197 103.229 200.197 103.226 200.196C103.184 200.192 103.153 200.155 103.158 200.113C104.49 187.288 107.631 156.258 108.028 145.129C108.434 133.726 108.065 108.264 107.942 100.731C107.941 100.69 107.975 100.655 108.017 100.654C108.054 100.656 108.093 100.687 108.094 100.729C108.216 108.262 108.586 133.728 108.179 145.135C107.782 156.268 104.641 187.303 103.308 200.129C103.305 200.168 103.272 200.197 103.234 200.197Z" fill="black"/>
<path d="M106.263 202.615C106.297 202.615 105.836 205.754 105.836 205.754H96.6411L96.3927 202.953L106.263 202.615Z" fill="#407BFF"/>
<path opacity="0.2" d="M106.263 202.615C106.297 202.615 105.836 205.754 105.836 205.754H96.6411L96.3927 202.953L106.263 202.615Z" fill="black"/>
<path opacity="0.7" d="M227.066 201.538H152.213C141.62 201.538 133.406 192.871 133.961 182.277L140.364 60.097C140.919 49.5038 150.041 40.8359 160.635 40.8359H235.488C246.082 40.8359 254.295 49.5032 253.74 60.097L247.336 182.277C246.781 192.87 237.66 201.538 227.066 201.538Z" fill="#CED9F9"/>
<path d="M182.862 33.7988H178.205V34.4062H182.862V33.7988Z" fill="#407BFF"/>
<path d="M174.22 33.7988H158.024V34.4062H174.22V33.7988Z" fill="#407BFF"/>
<path d="M132.296 75.4559L132.053 80.0625L132.659 80.0946L132.903 75.488L132.296 75.4559Z" fill="#407BFF"/>
<path opacity="0.6" d="M222.762 197.235H147.909C137.316 197.235 129.102 188.567 129.657 177.974L136.06 55.7933C136.615 45.2001 145.737 36.5322 156.331 36.5322H231.184C241.777 36.5322 249.991 45.1995 249.436 55.7933L243.033 177.974C242.477 188.567 233.355 197.235 222.762 197.235Z" fill="#407BFF"/>
<mask id="mask0_651_3407" style="mask-type:luminance" maskUnits="userSpaceOnUse" x="129" y="36" width="121" height="162">
<path d="M222.762 197.235H147.909C137.316 197.235 129.102 188.567 129.657 177.974L136.06 55.7933C136.615 45.2001 145.737 36.5322 156.331 36.5322H231.184C241.777 36.5322 249.991 45.1995 249.436 55.7933L243.033 177.974C242.477 188.567 233.355 197.235 222.762 197.235Z" fill="white"/>
</mask>
<g mask="url(#mask0_651_3407)">
<path d="M161.91 179.945C144.112 179.945 127.733 173.016 115.793 160.433C103.829 147.825 97.7544 131.061 98.6892 113.227C99.3032 101.514 102.99 89.9917 109.352 79.9062C115.523 70.1226 124.067 61.8738 134.058 56.0528C134.094 56.0321 134.137 56.0266 134.177 56.0382C134.217 56.0497 134.25 56.0764 134.269 56.1135L140.403 67.8024C140.621 67.681 140.84 67.5631 141.06 67.4453L141.301 67.3153C141.337 67.2959 141.38 67.2922 141.417 67.3038C141.456 67.3159 141.489 67.3426 141.507 67.3785L143.18 70.566C143.218 70.6389 143.192 70.7294 143.12 70.7695C127.529 79.4829 117.274 95.7587 116.357 113.244C115.67 126.352 120.134 138.673 128.926 147.938C137.701 157.185 149.738 162.277 162.82 162.277C162.861 162.277 162.901 162.294 162.93 162.325C162.959 162.355 162.974 162.395 162.971 162.437L162.061 179.802C162.057 179.882 161.99 179.945 161.91 179.945ZM134.074 56.3947C113.642 68.3612 100.204 90.1295 98.9923 113.243C98.0624 130.993 104.107 147.677 116.013 160.224C127.864 172.712 144.107 179.604 161.766 179.641L162.661 162.58C149.556 162.538 137.504 157.416 128.707 148.145C119.857 138.819 115.363 126.418 116.055 113.227C116.974 95.6858 127.234 79.3565 142.843 70.5751L141.311 67.6542L141.204 67.7119C140.941 67.8534 140.676 67.995 140.416 68.1426C140.38 68.1632 140.338 68.1675 140.299 68.1559C140.259 68.1444 140.226 68.117 140.208 68.0806L134.074 56.3947Z" fill="#407BFF"/>
<path d="M166.229 186.277C166.188 186.277 166.148 186.26 166.119 186.23C166.091 186.2 166.076 186.16 166.078 186.118L167.052 167.538C167.056 167.457 167.123 167.394 167.203 167.394C196.147 167.394 220.929 143.846 222.445 114.902C222.45 114.821 222.517 114.758 222.597 114.758H227.02C227.102 114.758 227.169 114.823 227.171 114.906C227.209 116.412 227.19 117.934 227.116 119.432H240.774C240.817 119.432 240.859 119.451 240.887 119.483C240.916 119.515 240.929 119.559 240.924 119.602C238.879 136.876 230.659 153.131 217.777 165.371C203.794 178.657 185.005 186.277 166.229 186.277ZM167.347 167.697L166.389 185.974C185.035 185.931 203.681 178.346 217.568 165.15C230.356 152.999 238.532 136.877 240.602 119.736H226.955C226.914 119.736 226.874 119.719 226.845 119.688C226.816 119.659 226.802 119.617 226.803 119.576C226.882 118.083 226.904 116.566 226.87 115.062H222.74C221.144 144.051 196.34 167.62 167.347 167.697Z" fill="#407BFF"/>
<path d="M227.019 115.061C226.937 115.061 226.87 114.995 226.867 114.912C226.095 84.2212 201.345 60.18 170.522 60.18C160.462 60.18 150.407 62.7395 141.445 67.5815C141.372 67.621 141.28 67.5943 141.24 67.5202C141.2 67.4467 141.228 67.3543 141.301 67.3149C150.308 62.4486 160.412 59.877 170.523 59.877C185.655 59.877 199.792 65.5456 210.329 75.8394C220.814 86.0816 226.794 99.9558 227.171 114.906C227.173 114.99 227.107 115.059 227.023 115.061C227.022 115.061 227.02 115.061 227.019 115.061Z" fill="#407BFF"/>
<path d="M247.978 119.736H240.774C240.69 119.736 240.622 119.668 240.622 119.584C240.622 119.5 240.69 119.432 240.774 119.432H247.834C248.544 105.396 245.547 91.5492 239.163 79.3798C229.759 61.4829 213.706 48.4024 193.959 42.5485C172.956 36.3211 150.597 38.9183 130.988 49.8595L134.269 56.1137C134.308 56.1878 134.28 56.2795 134.205 56.3184C134.131 56.3566 134.04 56.3293 134.001 56.2546L130.65 49.8692C130.612 49.7964 130.638 49.7065 130.71 49.6664C140.644 44.1022 151.321 40.6657 162.446 39.4515C173.182 38.2811 183.814 39.2238 194.046 42.257C213.872 48.1346 229.99 61.2685 239.433 79.2383C245.864 91.4981 248.872 105.452 248.131 119.592C248.126 119.672 248.059 119.736 247.978 119.736Z" fill="#407BFF"/>
<path d="M140.341 68.1625C140.326 68.1625 140.312 68.1607 140.297 68.1564C140.258 68.1449 140.225 68.1175 140.206 68.0811L134 56.2543C133.961 56.1802 133.99 56.0885 134.064 56.0496C134.138 56.0107 134.23 56.0393 134.269 56.1134L140.403 67.8023C140.62 67.6808 140.84 67.563 141.06 67.4452L141.301 67.3152C141.374 67.2763 141.467 67.3024 141.507 67.3772C141.546 67.4513 141.519 67.543 141.445 67.5831L141.203 67.713C140.939 67.8545 140.675 67.9961 140.415 68.1437C140.392 68.1558 140.367 68.1625 140.341 68.1625Z" fill="#407BFF"/>
<g opacity="0.3">
<path d="M161.91 179.945C144.112 179.945 127.733 173.016 115.793 160.433C103.829 147.825 97.7544 131.061 98.6892 113.227C99.3032 101.514 102.99 89.9917 109.352 79.9062C115.523 70.1226 124.067 61.8738 134.058 56.0528C134.094 56.0321 134.137 56.0266 134.177 56.0382C134.217 56.0497 134.25 56.0764 134.269 56.1135L140.403 67.8024C140.621 67.681 140.84 67.5631 141.06 67.4453L141.301 67.3153C141.337 67.2959 141.38 67.2922 141.417 67.3038C141.456 67.3159 141.489 67.3426 141.507 67.3785L143.18 70.566C143.218 70.6389 143.192 70.7294 143.12 70.7695C127.529 79.4829 117.274 95.7587 116.357 113.244C115.67 126.352 120.134 138.673 128.926 147.938C137.701 157.185 149.738 162.277 162.82 162.277C162.861 162.277 162.901 162.294 162.93 162.325C162.959 162.355 162.974 162.395 162.971 162.437L162.061 179.802C162.057 179.882 161.99 179.945 161.91 179.945ZM134.074 56.3947C113.642 68.3612 100.204 90.1295 98.9923 113.243C98.0624 130.993 104.107 147.677 116.013 160.224C127.864 172.712 144.107 179.604 161.766 179.641L162.661 162.58C149.556 162.538 137.504 157.416 128.707 148.145C119.857 138.819 115.363 126.418 116.055 113.227C116.974 95.6858 127.234 79.3565 142.843 70.5751L141.311 67.6542L141.204 67.7119C140.941 67.8534 140.676 67.995 140.416 68.1426C140.38 68.1632 140.338 68.1675 140.299 68.1559C140.259 68.1444 140.226 68.117 140.208 68.0806L134.074 56.3947Z" fill="white"/>
<path d="M166.229 186.277C166.188 186.277 166.148 186.26 166.119 186.23C166.091 186.2 166.076 186.16 166.078 186.118L167.052 167.538C167.056 167.457 167.123 167.394 167.203 167.394C196.147 167.394 220.929 143.846 222.445 114.902C222.45 114.821 222.517 114.758 222.597 114.758H227.02C227.102 114.758 227.169 114.823 227.171 114.906C227.209 116.412 227.19 117.934 227.116 119.432H240.774C240.817 119.432 240.859 119.451 240.887 119.483C240.916 119.515 240.929 119.559 240.924 119.602C238.879 136.876 230.659 153.131 217.777 165.371C203.794 178.657 185.005 186.277 166.229 186.277ZM167.347 167.697L166.389 185.974C185.035 185.931 203.681 178.346 217.568 165.15C230.356 152.999 238.532 136.877 240.602 119.736H226.955C226.914 119.736 226.874 119.719 226.845 119.688C226.816 119.659 226.802 119.617 226.803 119.576C226.882 118.083 226.904 116.566 226.87 115.062H222.74C221.144 144.051 196.34 167.62 167.347 167.697Z" fill="white"/>
<path d="M227.019 115.061C226.937 115.061 226.87 114.995 226.867 114.912C226.095 84.2212 201.345 60.18 170.522 60.18C160.462 60.18 150.407 62.7395 141.445 67.5815C141.372 67.621 141.28 67.5943 141.24 67.5202C141.2 67.4467 141.228 67.3543 141.301 67.3149C150.308 62.4486 160.412 59.877 170.523 59.877C185.655 59.877 199.792 65.5456 210.329 75.8394C220.814 86.0816 226.794 99.9558 227.171 114.906C227.173 114.99 227.107 115.059 227.023 115.061C227.022 115.061 227.02 115.061 227.019 115.061Z" fill="white"/>
<path d="M247.978 119.736H240.774C240.69 119.736 240.622 119.668 240.622 119.584C240.622 119.5 240.69 119.432 240.774 119.432H247.834C248.544 105.396 245.547 91.5492 239.163 79.3798C229.759 61.4829 213.706 48.4024 193.959 42.5485C172.956 36.3211 150.597 38.9183 130.988 49.8595L134.269 56.1137C134.308 56.1878 134.28 56.2795 134.205 56.3184C134.131 56.3566 134.04 56.3293 134.001 56.2546L130.65 49.8692C130.612 49.7964 130.638 49.7065 130.71 49.6664C140.644 44.1022 151.321 40.6657 162.446 39.4515C173.182 38.2811 183.814 39.2238 194.046 42.257C213.872 48.1346 229.99 61.2685 239.433 79.2383C245.864 91.4981 248.872 105.452 248.131 119.592C248.126 119.672 248.059 119.736 247.978 119.736Z" fill="white"/>
<path d="M140.341 68.1625C140.326 68.1625 140.312 68.1607 140.297 68.1564C140.258 68.1449 140.225 68.1175 140.206 68.0811L134 56.2543C133.961 56.1802 133.99 56.0885 134.064 56.0496C134.138 56.0107 134.23 56.0393 134.269 56.1134L140.403 67.8023C140.62 67.6808 140.84 67.563 141.06 67.4452L141.301 67.3152C141.374 67.2763 141.467 67.3024 141.507 67.3772C141.546 67.4513 141.519 67.543 141.445 67.5831L141.203 67.713C140.939 67.8545 140.675 67.9961 140.415 68.1437C140.392 68.1558 140.367 68.1625 140.341 68.1625Z" fill="white"/>
</g>
</g>
<path d="M220.513 122.814C220.513 146.985 202.247 166.65 179.795 166.65C157.343 166.65 139.077 146.985 139.077 122.814C139.077 98.6439 157.343 78.9797 179.795 78.9797C193.643 78.9797 206.362 86.4192 213.921 98.902L210.926 100.904L218.738 103.309L220.07 94.7911L217.277 96.6588C208.992 82.9197 195.015 74.7285 179.795 74.7285C155.165 74.7285 135.128 96.3 135.128 122.815C135.128 149.33 155.165 170.902 179.795 170.902C204.424 170.902 224.462 149.33 224.462 122.815H220.513V122.814Z" fill="#407BFF"/>
<path opacity="0.7" d="M220.513 122.814C220.513 146.985 202.247 166.65 179.795 166.65C157.343 166.65 139.077 146.985 139.077 122.814C139.077 98.6439 157.343 78.9797 179.795 78.9797C193.643 78.9797 206.362 86.4192 213.921 98.902L210.926 100.904L218.738 103.309L220.07 94.7911L217.277 96.6588C208.992 82.9197 195.015 74.7285 179.795 74.7285C155.165 74.7285 135.128 96.3 135.128 122.815C135.128 149.33 155.165 170.902 179.795 170.902C204.424 170.902 224.462 149.33 224.462 122.815H220.513V122.814Z" fill="white"/>
<path d="M185.81 113.734V107.954L183.046 107.674C182.673 105.737 181.96 103.936 180.984 102.336L182.76 100.027L178.963 95.9402L176.818 97.8517C175.333 96.802 173.66 96.0342 171.86 95.6324L171.6 92.6562H166.232L165.971 95.6324C164.172 96.0342 162.499 96.802 161.013 97.8517L158.868 95.9402L155.072 100.027L156.847 102.336C155.872 103.936 155.159 105.737 154.786 107.674L152.022 107.954V113.734L154.786 114.014C155.159 115.951 155.872 117.753 156.847 119.353L155.072 121.662L158.868 125.748L161.012 123.836C162.499 124.886 164.172 125.654 165.971 126.056L166.232 129.031H171.6L171.86 126.056C173.66 125.654 175.333 124.886 176.819 123.836L178.963 125.748L182.76 121.662L180.984 119.353C181.96 117.753 182.673 115.952 183.046 114.014L185.81 113.734ZM168.916 118.668C164.902 118.668 161.648 115.165 161.648 110.844C161.648 106.523 164.902 103.02 168.916 103.02C172.929 103.02 176.183 106.523 176.183 110.844C176.183 115.165 172.93 118.668 168.916 118.668Z" fill="#407BFF"/>
<path d="M207.568 130.048V125.519L205.403 125.299C205.11 123.781 204.551 122.37 203.787 121.116L205.178 119.307L202.204 116.104L200.523 117.602C199.359 116.779 198.048 116.178 196.638 115.863L196.433 113.531H192.227L192.023 115.863C190.613 116.178 189.301 116.779 188.137 117.602L186.457 116.104L183.482 119.307L184.873 121.116C184.109 122.37 183.55 123.781 183.258 125.299L181.091 125.519V130.048L183.258 130.267C183.55 131.786 184.109 133.197 184.873 134.451L183.482 136.26L186.457 139.462L188.137 137.965C189.302 138.787 190.613 139.389 192.023 139.703L192.227 142.035H196.433L196.638 139.703C198.048 139.388 199.359 138.787 200.523 137.965L202.204 139.462L205.179 136.26L203.787 134.451C204.551 133.197 205.111 131.786 205.403 130.267L207.568 130.048ZM194.33 133.914C191.184 133.914 188.635 131.169 188.635 127.783C188.635 124.397 191.184 121.652 194.33 121.652C197.475 121.652 200.025 124.397 200.025 127.783C200.025 131.169 197.475 133.914 194.33 133.914Z" fill="#407BFF"/>
<path d="M185.81 142.905V139.101L183.991 138.916C183.745 137.641 183.276 136.456 182.634 135.403L183.803 133.883L181.304 131.193L179.892 132.451C178.914 131.76 177.813 131.255 176.628 130.991L176.457 129.032H172.924L172.753 130.991C171.568 131.255 170.467 131.761 169.489 132.452L168.077 131.194L165.578 133.884L166.747 135.403C166.106 136.456 165.636 137.642 165.39 138.917L163.571 139.101V142.905L165.39 143.089C165.636 144.364 166.106 145.55 166.747 146.603L165.578 148.122L168.077 150.812L169.489 149.554C170.467 150.245 171.568 150.751 172.753 151.015L172.924 152.974H176.457L176.628 151.015C177.813 150.75 178.914 150.245 179.892 149.554L181.304 150.812L183.803 148.122L182.634 146.603C183.276 145.55 183.745 144.364 183.991 143.089L185.81 142.905ZM174.691 146.152C172.049 146.152 169.907 143.847 169.907 141.003C169.907 138.159 172.049 135.853 174.691 135.853C177.332 135.853 179.474 138.159 179.474 141.003C179.474 143.847 177.332 146.152 174.691 146.152Z" fill="#407BFF"/>
<path opacity="0.7" d="M185.81 113.734V107.954L183.046 107.674C182.673 105.737 181.96 103.936 180.984 102.336L182.76 100.027L178.963 95.9402L176.818 97.8517C175.333 96.802 173.66 96.0342 171.86 95.6324L171.6 92.6562H166.232L165.971 95.6324C164.172 96.0342 162.499 96.802 161.013 97.8517L158.868 95.9402L155.072 100.027L156.847 102.336C155.872 103.936 155.159 105.737 154.786 107.674L152.022 107.954V113.734L154.786 114.014C155.159 115.951 155.872 117.753 156.847 119.353L155.072 121.662L158.868 125.748L161.012 123.836C162.499 124.886 164.172 125.654 165.971 126.056L166.232 129.031H171.6L171.86 126.056C173.66 125.654 175.333 124.886 176.819 123.836L178.963 125.748L182.76 121.662L180.984 119.353C181.96 117.753 182.673 115.952 183.046 114.014L185.81 113.734ZM168.916 118.668C164.902 118.668 161.648 115.165 161.648 110.844C161.648 106.523 164.902 103.02 168.916 103.02C172.929 103.02 176.183 106.523 176.183 110.844C176.183 115.165 172.93 118.668 168.916 118.668Z" fill="white"/>
<path opacity="0.5" d="M207.568 130.048V125.519L205.403 125.299C205.11 123.781 204.551 122.37 203.787 121.116L205.178 119.307L202.204 116.104L200.523 117.602C199.359 116.779 198.048 116.178 196.638 115.863L196.433 113.531H192.227L192.023 115.863C190.613 116.178 189.301 116.779 188.137 117.602L186.457 116.104L183.482 119.307L184.873 121.116C184.109 122.37 183.55 123.781 183.258 125.299L181.091 125.519V130.048L183.258 130.267C183.55 131.786 184.109 133.197 184.873 134.451L183.482 136.26L186.457 139.462L188.137 137.965C189.302 138.787 190.613 139.389 192.023 139.703L192.227 142.035H196.433L196.638 139.703C198.048 139.388 199.359 138.787 200.523 137.965L202.204 139.462L205.179 136.26L203.787 134.451C204.551 133.197 205.111 131.786 205.403 130.267L207.568 130.048ZM194.33 133.914C191.184 133.914 188.635 131.169 188.635 127.783C188.635 124.397 191.184 121.652 194.33 121.652C197.475 121.652 200.025 124.397 200.025 127.783C200.025 131.169 197.475 133.914 194.33 133.914Z" fill="white"/>
<path opacity="0.3" d="M185.81 142.905V139.101L183.991 138.916C183.745 137.641 183.276 136.456 182.634 135.403L183.803 133.883L181.304 131.193L179.892 132.451C178.914 131.76 177.813 131.255 176.628 130.991L176.457 129.032H172.924L172.753 130.991C171.568 131.255 170.467 131.761 169.489 132.452L168.077 131.194L165.578 133.884L166.747 135.403C166.106 136.456 165.636 137.642 165.39 138.917L163.571 139.101V142.905L165.39 143.089C165.636 144.364 166.106 145.55 166.747 146.603L165.578 148.122L168.077 150.812L169.489 149.554C170.467 150.245 171.568 150.751 172.753 151.015L172.924 152.974H176.457L176.628 151.015C177.813 150.75 178.914 150.245 179.892 149.554L181.304 150.812L183.803 148.122L182.634 146.603C183.276 145.55 183.745 144.364 183.991 143.089L185.81 142.905ZM174.691 146.152C172.049 146.152 169.907 143.847 169.907 141.003C169.907 138.159 172.049 135.853 174.691 135.853C177.332 135.853 179.474 138.159 179.474 141.003C179.474 143.847 177.332 146.152 174.691 146.152Z" fill="white"/>
<path d="M219.857 160.881H207.417L206.075 186.497H218.514L219.857 160.881Z" fill="#FAFAFA"/>
<path d="M237.608 152.415H225.169L223.382 186.497H235.822L237.608 152.415Z" fill="#0E9035"/>
<path opacity="0.6" d="M237.608 152.415H225.169L223.382 186.497H235.822L237.608 152.415Z" fill="black"/>
<path d="M254.472 160.881H242.032L240.69 186.497H253.129L254.472 160.881Z" fill="#0E9035"/>
<path opacity="0.3" d="M254.472 160.881H242.032L240.69 186.497H253.129L254.472 160.881Z" fill="black"/>
<path d="M253.014 188.675H205.961L205.991 188.094H253.045L253.014 188.675Z" fill="#263238"/>
<path opacity="0.8" d="M91.5832 164.892H37.3409L38.9469 134.252H93.1885L91.5832 164.892Z" fill="#FAFAFA"/>
<path d="M38.3206 146.191L37.3403 164.893H91.5826L92.7998 141.67C83.8033 141.67 78.4608 151.92 67.3301 151.92C56.1987 151.919 53.1357 146.191 38.3206 146.191Z" fill="#407BFF"/>
<path opacity="0.1" d="M38.3206 146.191L37.3403 164.893H91.5826L92.7998 141.67C83.8033 141.67 78.4608 151.92 67.3301 151.92C56.1987 151.919 53.1357 146.191 38.3206 146.191Z" fill="black"/>
<path d="M37.8524 155.132C50.0448 155.132 54.4197 148.436 61.2667 148.436C68.1136 148.436 71.1086 155.462 79.6373 155.462C88.5263 155.462 92.3667 149.937 92.3667 149.937L91.5832 164.892H37.3409L37.8524 155.132Z" fill="#407BFF"/>
<path opacity="0.5" d="M37.8524 155.132C50.0448 155.132 54.4197 148.436 61.2667 148.436C68.1136 148.436 71.1086 155.462 79.6373 155.462C88.5263 155.462 92.3667 149.937 92.3667 149.937L91.5832 164.892H37.3409L37.8524 155.132Z" fill="black"/>
<path d="M157.284 64.102C156.857 64.102 156.462 63.9913 156.098 63.7699C155.734 63.5484 155.443 63.2519 155.226 62.8802C155.012 62.5045 154.906 62.0952 154.906 61.6524L154.929 55.5786C154.929 55.547 154.945 55.5312 154.977 55.5312H156.341C156.373 55.5312 156.388 55.547 156.388 55.5786V61.6524C156.388 61.9252 156.475 62.1585 156.649 62.3523C156.823 62.5421 157.035 62.637 157.284 62.637C157.545 62.637 157.763 62.5421 157.937 62.3523C158.111 62.1585 158.198 61.9252 158.198 61.6524V55.5786C158.198 55.547 158.213 55.5312 158.245 55.5312H159.609C159.641 55.5312 159.657 55.547 159.657 55.5786L159.68 61.6524C159.68 62.0992 159.574 62.5104 159.36 62.8861C159.143 63.2578 158.854 63.5544 158.494 63.7758C158.134 63.9933 157.731 64.102 157.284 64.102ZM162.059 63.9834H160.695C160.655 63.9834 160.635 63.9636 160.635 63.9241L160.659 55.5786C160.659 55.547 160.675 55.5312 160.707 55.5312H163.044C163.787 55.5312 164.374 55.7585 164.805 56.2133C165.24 56.6641 165.458 57.2789 165.458 58.0579C165.458 58.6273 165.345 59.1236 165.119 59.5467C164.89 59.9659 164.594 60.2901 164.23 60.5195C163.866 60.7488 163.471 60.8635 163.044 60.8635H162.118V63.9241C162.118 63.9636 162.098 63.9834 162.059 63.9834ZM163.044 56.9725L162.118 56.9843V59.3925H163.044C163.301 59.3925 163.524 59.2699 163.714 59.0247C163.904 58.7756 163.998 58.4534 163.998 58.0579C163.998 57.7416 163.913 57.4826 163.743 57.2809C163.573 57.0753 163.34 56.9725 163.044 56.9725ZM168.518 63.9715L166.341 63.9834C166.302 63.9834 166.282 63.9636 166.282 63.9241L166.306 55.5786C166.306 55.547 166.322 55.5312 166.353 55.5312L168.625 55.5193C169.076 55.5074 169.483 55.6102 169.847 55.8277C170.215 56.0452 170.507 56.3398 170.725 56.7115C170.946 57.0792 171.057 57.4865 171.057 57.9334V61.421C171.057 61.8876 170.944 62.3147 170.719 62.7022C170.489 63.0858 170.185 63.3922 169.805 63.6216C169.426 63.847 168.997 63.9636 168.518 63.9715ZM168.625 56.9725L167.777 56.9843L167.765 62.4887H168.518C168.819 62.4887 169.072 62.3839 169.277 62.1743C169.483 61.9647 169.586 61.7136 169.586 61.421V57.9215C169.586 57.6645 169.491 57.4411 169.301 57.2513C169.111 57.0575 168.886 56.9646 168.625 56.9725ZM171.603 63.9241L173.109 55.5786C173.117 55.547 173.137 55.5312 173.168 55.5312H174.93C174.962 55.5312 174.981 55.547 174.989 55.5786L176.437 63.9241C176.441 63.9636 176.425 63.9834 176.389 63.9834H175.043C175.003 63.9834 174.981 63.9636 174.977 63.9241L174.847 63.0344H173.192L173.062 63.9241C173.058 63.9636 173.038 63.9834 173.002 63.9834H171.65C171.618 63.9834 171.603 63.9636 171.603 63.9241ZM173.981 58.3248L173.435 61.7354H174.604L174.106 58.3248L174.034 57.8741L173.981 58.3248ZM179.788 63.9834H178.418C178.382 63.9834 178.364 63.9636 178.364 63.9241V56.9962H176.787C176.747 56.9962 176.727 56.9764 176.727 56.9369L176.739 55.5786C176.739 55.547 176.755 55.5312 176.787 55.5312H181.401C181.445 55.5312 181.466 55.547 181.466 55.5786V56.9369C181.466 56.9764 181.451 56.9962 181.419 56.9962H179.823L179.835 63.9241C179.835 63.9636 179.819 63.9834 179.788 63.9834ZM186.034 63.9834H182.107C182.075 63.9834 182.06 63.9636 182.06 63.9241L182.071 55.5786C182.071 55.547 182.087 55.5312 182.119 55.5312H186.022C186.053 55.5312 186.069 55.5509 186.069 55.5905V56.9488C186.069 56.9804 186.053 56.9962 186.022 56.9962H183.531V58.8943H186.022C186.053 58.8943 186.069 58.9101 186.069 58.9417L186.081 60.3178C186.081 60.3494 186.065 60.3652 186.034 60.3652H183.531V62.4887H186.034C186.065 62.4887 186.081 62.5085 186.081 62.548V63.9359C186.081 63.9676 186.065 63.9834 186.034 63.9834ZM195.536 64.102C195.105 64.102 194.707 63.9913 194.344 63.7699C193.984 63.5484 193.695 63.2538 193.478 62.8861C193.264 62.5144 193.157 62.1071 193.157 61.6642V61.1067C193.157 61.0632 193.177 61.0414 193.217 61.0414H194.581C194.612 61.0414 194.628 61.0632 194.628 61.1067V61.6642C194.628 61.9292 194.717 62.1585 194.895 62.3523C195.073 62.5421 195.287 62.637 195.536 62.637C195.789 62.637 196.004 62.5401 196.182 62.3463C196.36 62.1486 196.449 61.9212 196.449 61.6642C196.449 61.3677 196.255 61.1086 195.868 60.8872C195.805 60.8477 195.722 60.8002 195.619 60.7449C195.52 60.6855 195.401 60.6183 195.263 60.5432C195.124 60.4681 194.99 60.3949 194.86 60.3237C194.729 60.2486 194.603 60.1774 194.48 60.1102C194.037 59.8492 193.707 59.523 193.489 59.1315C193.276 58.7361 193.169 58.2932 193.169 57.8029C193.169 57.3521 193.28 56.9448 193.501 56.581C193.723 56.2212 194.011 55.9365 194.367 55.7269C194.727 55.5134 195.117 55.4066 195.536 55.4066C195.967 55.4066 196.362 55.5134 196.722 55.7269C197.082 55.9444 197.369 56.233 197.582 56.5929C197.8 56.9527 197.908 57.356 197.908 57.8029V58.7994C197.908 58.831 197.892 58.8468 197.861 58.8468H196.497C196.465 58.8468 196.449 58.831 196.449 58.7994L196.437 57.8029C196.437 57.5182 196.348 57.2868 196.17 57.1089C195.992 56.931 195.781 56.842 195.536 56.842C195.287 56.842 195.073 56.9369 194.895 57.1267C194.717 57.3165 194.628 57.5419 194.628 57.8029C194.628 58.0678 194.684 58.2893 194.794 58.4672C194.909 58.6451 195.117 58.8152 195.417 58.9773C195.449 58.9931 195.522 59.0327 195.637 59.0959C195.751 59.1592 195.878 59.2304 196.016 59.3095C196.159 59.3846 196.287 59.4538 196.402 59.5171C196.516 59.5764 196.586 59.612 196.609 59.6238C197.013 59.8492 197.331 60.126 197.564 60.4542C197.802 60.7824 197.92 61.1858 197.92 61.6642C197.92 62.1269 197.813 62.5421 197.6 62.9098C197.382 63.2776 197.094 63.5682 196.734 63.7817C196.374 63.9953 195.975 64.102 195.536 64.102ZM200.999 64.102C200.571 64.102 200.176 63.9913 199.812 63.7699C199.448 63.5484 199.158 63.2519 198.94 62.8802C198.727 62.5045 198.62 62.0952 198.62 61.6524L198.644 55.5786C198.644 55.547 198.66 55.5312 198.691 55.5312H200.055C200.087 55.5312 200.103 55.547 200.103 55.5786V61.6524C200.103 61.9252 200.19 62.1585 200.364 62.3523C200.538 62.5421 200.749 62.637 200.999 62.637C201.26 62.637 201.477 62.5421 201.651 62.3523C201.825 62.1585 201.912 61.9252 201.912 61.6524V55.5786C201.912 55.547 201.928 55.5312 201.959 55.5312H203.324C203.355 55.5312 203.371 55.547 203.371 55.5786L203.395 61.6524C203.395 62.0992 203.288 62.5104 203.075 62.8861C202.857 63.2578 202.568 63.5544 202.209 63.7758C201.849 63.9933 201.445 64.102 200.999 64.102ZM206.586 64.102C206.147 64.102 205.746 63.9913 205.382 63.7699C205.022 63.5484 204.735 63.2519 204.522 62.8802C204.312 62.5045 204.207 62.0873 204.207 61.6286L204.219 57.8385C204.219 57.3877 204.322 56.9804 204.528 56.6166C204.733 56.2489 205.016 55.9543 205.376 55.7328C205.74 55.5074 206.143 55.3947 206.586 55.3947C207.037 55.3947 207.438 55.5035 207.79 55.721C208.146 55.9384 208.429 56.233 208.638 56.6047C208.852 56.9725 208.958 57.3837 208.958 57.8385V58.396C208.958 58.4277 208.943 58.4435 208.911 58.4435H207.547C207.515 58.4435 207.499 58.4277 207.499 58.396V57.8385C207.499 57.5696 207.412 57.3383 207.238 57.1445C207.064 56.9507 206.847 56.8539 206.586 56.8539C206.297 56.8539 206.076 56.9527 205.922 57.1504C205.767 57.3481 205.69 57.5775 205.69 57.8385V61.6286C205.69 61.9252 205.777 62.1684 205.951 62.3582C206.125 62.544 206.337 62.637 206.586 62.637C206.847 62.637 207.064 62.5342 207.238 62.3285C207.412 62.119 207.499 61.8857 207.499 61.6286V61.0651C207.499 61.0335 207.515 61.0177 207.547 61.0177H208.923C208.955 61.0177 208.97 61.0335 208.97 61.0651V61.6286C208.97 62.0834 208.864 62.4986 208.65 62.8742C208.433 63.2459 208.146 63.5445 207.79 63.7699C207.434 63.9913 207.033 64.102 206.586 64.102ZM212.09 64.102C211.651 64.102 211.25 63.9913 210.886 63.7699C210.526 63.5484 210.24 63.2519 210.026 62.8802C209.817 62.5045 209.712 62.0873 209.712 61.6286L209.724 57.8385C209.724 57.3877 209.826 56.9804 210.032 56.6166C210.238 56.2489 210.52 55.9543 210.88 55.7328C211.244 55.5074 211.647 55.3947 212.09 55.3947C212.541 55.3947 212.942 55.5035 213.294 55.721C213.65 55.9384 213.933 56.233 214.143 56.6047C214.356 56.9725 214.463 57.3837 214.463 57.8385V58.396C214.463 58.4277 214.447 58.4435 214.415 58.4435H213.051C213.02 58.4435 213.004 58.4277 213.004 58.396V57.8385C213.004 57.5696 212.917 57.3383 212.743 57.1445C212.569 56.9507 212.351 56.8539 212.09 56.8539C211.802 56.8539 211.58 56.9527 211.426 57.1504C211.272 57.3481 211.195 57.5775 211.195 57.8385V61.6286C211.195 61.9252 211.282 62.1684 211.456 62.3582C211.63 62.544 211.841 62.637 212.09 62.637C212.351 62.637 212.569 62.5342 212.743 62.3285C212.917 62.119 213.004 61.8857 213.004 61.6286V61.0651C213.004 61.0335 213.02 61.0177 213.051 61.0177H214.427C214.459 61.0177 214.475 61.0335 214.475 61.0651V61.6286C214.475 62.0834 214.368 62.4986 214.154 62.8742C213.937 63.2459 213.65 63.5445 213.294 63.7699C212.938 63.9913 212.537 64.102 212.09 64.102ZM219.332 63.9834H215.406C215.374 63.9834 215.358 63.9636 215.358 63.9241L215.37 55.5786C215.37 55.547 215.386 55.5312 215.418 55.5312H219.321C219.352 55.5312 219.368 55.5509 219.368 55.5905V56.9488C219.368 56.9804 219.352 56.9962 219.321 56.9962H216.829V58.8943H219.321C219.352 58.8943 219.368 58.9101 219.368 58.9417L219.38 60.3178C219.38 60.3494 219.364 60.3652 219.332 60.3652H216.829V62.4887H219.332C219.364 62.4887 219.38 62.5085 219.38 62.548V63.9359C219.38 63.9676 219.364 63.9834 219.332 63.9834ZM222.524 64.102C222.093 64.102 221.695 63.9913 221.331 63.7699C220.972 63.5484 220.683 63.2538 220.465 62.8861C220.252 62.5144 220.145 62.1071 220.145 61.6642V61.1067C220.145 61.0632 220.165 61.0414 220.204 61.0414H221.569C221.6 61.0414 221.616 61.0632 221.616 61.1067V61.6642C221.616 61.9292 221.705 62.1585 221.883 62.3523C222.061 62.5421 222.274 62.637 222.524 62.637C222.777 62.637 222.992 62.5401 223.17 62.3463C223.348 62.1486 223.437 61.9212 223.437 61.6642C223.437 61.3677 223.243 61.1086 222.856 60.8872C222.792 60.8477 222.709 60.8002 222.607 60.7449C222.508 60.6855 222.389 60.6183 222.251 60.5432C222.112 60.4681 221.978 60.3949 221.847 60.3237C221.717 60.2486 221.59 60.1774 221.468 60.1102C221.025 59.8492 220.695 59.523 220.477 59.1315C220.264 58.7361 220.157 58.2932 220.157 57.8029C220.157 57.3521 220.268 56.9448 220.489 56.581C220.711 56.2212 220.999 55.9365 221.355 55.7269C221.715 55.5134 222.104 55.4066 222.524 55.4066C222.955 55.4066 223.35 55.5134 223.71 55.7269C224.07 55.9444 224.356 56.233 224.57 56.5929C224.787 56.9527 224.896 57.356 224.896 57.8029V58.7994C224.896 58.831 224.88 58.8468 224.849 58.8468H223.484C223.453 58.8468 223.437 58.831 223.437 58.7994L223.425 57.8029C223.425 57.5182 223.336 57.2868 223.158 57.1089C222.98 56.931 222.769 56.842 222.524 56.842C222.274 56.842 222.061 56.9369 221.883 57.1267C221.705 57.3165 221.616 57.5419 221.616 57.8029C221.616 58.0678 221.671 58.2893 221.782 58.4672C221.897 58.6451 222.104 58.8152 222.405 58.9773C222.437 58.9931 222.51 59.0327 222.624 59.0959C222.739 59.1592 222.866 59.2304 223.004 59.3095C223.146 59.3846 223.275 59.4538 223.39 59.5171C223.504 59.5764 223.573 59.612 223.597 59.6238C224.001 59.8492 224.319 60.126 224.552 60.4542C224.789 60.7824 224.908 61.1858 224.908 61.6642C224.908 62.1269 224.801 62.5421 224.588 62.9098C224.37 63.2776 224.082 63.5682 223.722 63.7817C223.362 63.9953 222.963 64.102 222.524 64.102ZM227.814 64.102C227.383 64.102 226.986 63.9913 226.622 63.7699C226.262 63.5484 225.974 63.2538 225.756 62.8861C225.543 62.5144 225.436 62.1071 225.436 61.6642V61.1067C225.436 61.0632 225.456 61.0414 225.495 61.0414H226.859C226.891 61.0414 226.907 61.0632 226.907 61.1067V61.6642C226.907 61.9292 226.996 62.1585 227.174 62.3523C227.352 62.5421 227.565 62.637 227.814 62.637C228.067 62.637 228.283 62.5401 228.461 62.3463C228.639 62.1486 228.728 61.9212 228.728 61.6642C228.728 61.3677 228.534 61.1086 228.147 60.8872C228.083 60.8477 228 60.8002 227.897 60.7449C227.799 60.6855 227.68 60.6183 227.542 60.5432C227.403 60.4681 227.269 60.3949 227.138 60.3237C227.008 60.2486 226.881 60.1774 226.759 60.1102C226.316 59.8492 225.986 59.523 225.768 59.1315C225.555 58.7361 225.448 58.2932 225.448 57.8029C225.448 57.3521 225.558 56.9448 225.78 56.581C226.001 56.2212 226.29 55.9365 226.646 55.7269C227.006 55.5134 227.395 55.4066 227.814 55.4066C228.245 55.4066 228.641 55.5134 229.001 55.7269C229.361 55.9444 229.647 56.233 229.861 56.5929C230.078 56.9527 230.187 57.356 230.187 57.8029V58.7994C230.187 58.831 230.171 58.8468 230.14 58.8468H228.775C228.744 58.8468 228.728 58.831 228.728 58.7994L228.716 57.8029C228.716 57.5182 228.627 57.2868 228.449 57.1089C228.271 56.931 228.06 56.842 227.814 56.842C227.565 56.842 227.352 56.9369 227.174 57.1267C226.996 57.3165 226.907 57.5419 226.907 57.8029C226.907 58.0678 226.962 58.2893 227.073 58.4672C227.188 58.6451 227.395 58.8152 227.696 58.9773C227.727 58.9931 227.801 59.0327 227.915 59.0959C228.03 59.1592 228.156 59.2304 228.295 59.3095C228.437 59.3846 228.566 59.4538 228.68 59.5171C228.795 59.5764 228.864 59.612 228.888 59.6238C229.291 59.8492 229.61 60.126 229.843 60.4542C230.08 60.7824 230.199 61.1858 230.199 61.6642C230.199 62.1269 230.092 62.5421 229.879 62.9098C229.661 63.2776 229.372 63.5682 229.013 63.7817C228.653 63.9953 228.253 64.102 227.814 64.102Z" fill="white"/>
<circle cx="223.655" cy="123.067" r="14.8321" fill="#0E9035"/>
<path d="M221.822 128.629C221.212 128.629 220.601 128.405 220.119 127.923L216.938 124.748C216.006 123.818 216.006 122.278 216.938 121.348C217.87 120.418 219.412 120.418 220.344 121.348L221.887 122.888L227.028 118.14C227.992 117.242 229.535 117.306 230.435 118.269C231.334 119.231 231.27 120.771 230.306 121.669L223.461 127.987C222.979 128.404 222.401 128.629 221.822 128.629Z" fill="white"/>
<g opacity="0.8">
<circle cx="52.9299" cy="45.4724" r="20.2458" fill="#0E9035"/>
<path d="M50.4285 53.0643C49.5951 53.0643 48.7617 52.7579 48.1037 52.1012L43.7612 47.7667C42.4891 46.497 42.4891 44.3951 43.7612 43.1254C45.0332 41.8557 47.1387 41.8557 48.4108 43.1254L50.5163 45.2272L57.5345 38.7471C58.8504 37.5211 60.9559 37.6089 62.1841 38.9224C63.4123 40.2359 63.3246 42.3375 62.0086 43.5634L52.6656 52.1885C52.0076 52.7577 51.2181 53.0643 50.4285 53.0643Z" fill="white"/>
</g>
</g>
<defs>
<clipPath id="clip0_651_3407">
<rect width="303.688" height="229.373" fill="white" transform="translate(0.290649 0.393555)"/>
</clipPath>
</defs>
</svg>
