<svg width="37" height="37" viewBox="0 0 37 37" fill="none" xmlns="http://www.w3.org/2000/svg">
<path d="M15.8263 19.138C8.80747 19.138 3.09155 24.4612 3.09155 31.0202C3.09155 31.4639 3.39976 31.8124 3.79203 31.8124H27.8605C28.2528 31.8124 28.561 31.4639 28.561 31.0202C28.561 24.4612 22.8451 19.138 15.8263 19.138Z" fill="#FFCF43"/>
<path d="M15.8263 15.9694C19.3429 15.9694 22.1936 13.1322 22.1936 9.63224C22.1936 6.1323 19.3429 3.29504 15.8263 3.29504C12.3097 3.29504 9.45889 6.1323 9.45889 9.63224C9.45889 13.1322 12.3097 15.9694 15.8263 15.9694Z" fill="#FFE0C1"/>
<path d="M24.8547 20.907V33.3967C24.713 33.3967 24.5629 33.3733 24.4461 33.311L24.4128 33.2954C22.8118 32.4773 20.0183 31.6202 18.2089 31.3943L17.967 31.3631C17.1665 31.2696 16.5161 30.5684 16.5161 29.8204V20.4083C16.5161 19.4812 17.325 18.7799 18.3173 18.8578C20.0684 18.9903 22.7201 19.8162 24.2043 20.681L24.4128 20.7979C24.5379 20.868 24.6963 20.907 24.8547 20.907Z" fill="#0841E2"/>
<path d="M21.9362 26.3142H19.4346C19.0927 26.3142 18.8092 26.0493 18.8092 25.7298C18.8092 25.4104 19.0927 25.1454 19.4346 25.1454H21.9362C22.2781 25.1454 22.5616 25.4104 22.5616 25.7298C22.5616 26.0493 22.2781 26.3142 21.9362 26.3142Z" fill="#FFCF43"/>
<path d="M21.3108 23.9768H19.4346C19.0927 23.9768 18.8092 23.7119 18.8092 23.3925C18.8092 23.073 19.0927 22.8081 19.4346 22.8081H21.3108C21.6527 22.8081 21.9362 23.073 21.9362 23.3925C21.9362 23.7119 21.6527 23.9768 21.3108 23.9768Z" fill="#FFCF43"/>
<path d="M33.1932 20.4162V29.8205C33.1932 30.5685 32.5428 31.2697 31.7423 31.3632L31.4671 31.3944C29.6493 31.6203 26.8475 32.4852 25.2465 33.3111C25.1381 33.3734 25.0047 33.3968 24.8546 33.3968V20.9071C25.013 20.9071 25.1715 20.8681 25.2965 20.798L25.4383 20.7123C26.9226 19.8396 29.5826 19.006 31.3337 18.8657H31.3837C32.376 18.7878 33.1932 19.4812 33.1932 20.4162Z" fill="#03164B"/>
</svg>
