<svg width="241" height="241" viewBox="0 0 241 241" fill="none" xmlns="http://www.w3.org/2000/svg">
<g clip-path="url(#clip0_778_17808)">
<path d="M263.673 198.935H-22.3274V199.077H263.673V198.935Z" fill="#EBEBEB"/>
<path d="M235.016 208.109H216.07V208.252H235.016V208.109Z" fill="#EBEBEB"/>
<path d="M167.13 209.656H162.158V209.799H167.13V209.656Z" fill="#EBEBEB"/>
<path d="M215.498 202.816H204.52V202.959H215.498V202.816Z" fill="#EBEBEB"/>
<path d="M32.3856 203.773H7.6792V203.916H32.3856V203.773Z" fill="#EBEBEB"/>
<path d="M41.101 203.773H37.4785V203.916H41.101V203.773Z" fill="#EBEBEB"/>
<path d="M106.457 206.181H52.874V206.323H106.457V206.181Z" fill="#EBEBEB"/>
<path d="M113.245 173.513H2.79208C0.991992 173.513 -0.4729 172.054 -0.4729 170.26V15.5436C-0.4729 13.7498 0.991992 12.29 2.79208 12.29H113.245C115.044 12.29 116.509 13.7498 116.509 15.5436V170.26C116.509 172.054 115.044 173.513 113.245 173.513ZM2.79208 12.4331C1.07036 12.4331 -0.3299 13.8285 -0.3299 15.5442V170.26C-0.3299 171.976 1.07036 173.371 2.79208 173.371H113.245C114.966 173.371 116.366 171.976 116.366 170.26V15.5436C116.366 13.8285 114.966 12.4325 113.245 12.4325L2.79208 12.4331Z" fill="#EBEBEB"/>
<path d="M236.966 173.513H126.514C124.714 173.513 123.25 172.054 123.25 170.26V15.5436C123.25 13.7498 124.714 12.29 126.514 12.29H236.966C238.767 12.29 240.231 13.7498 240.231 15.5436V170.26C240.232 172.054 238.767 173.513 236.966 173.513ZM126.514 12.4331C124.793 12.4331 123.393 13.8285 123.393 15.5442V170.26C123.393 171.976 124.793 173.371 126.514 173.371H236.966C238.688 173.371 240.088 171.976 240.088 170.26V15.5436C240.088 13.8285 238.688 12.4325 236.966 12.4325L126.514 12.4331Z" fill="#EBEBEB"/>
<path d="M214.371 110.083V39.709L167.159 39.709V110.083L214.371 110.083Z" fill="#E6E6E6"/>
<path d="M212.938 110.083V39.709L165.726 39.709V110.083L212.938 110.083Z" fill="#F5F5F5"/>
<path d="M206.871 45.7549H171.794V104.037H206.871V45.7549Z" fill="white"/>
<path d="M172.591 104.038V45.7559H171.794V104.038H172.591Z" fill="#E6E6E6"/>
<path d="M100.551 198.935L120.571 198.935L120.569 134.588L100.549 134.589L100.551 198.935Z" fill="#E6E6E6"/>
<path d="M104.354 198.936H100.551L100.55 189.806L108.34 189.806L104.354 198.936Z" fill="#F0F0F0"/>
<path d="M207.532 198.933L227.553 198.933L227.551 134.586L207.531 134.587L207.532 198.933Z" fill="#E6E6E6"/>
<path d="M100.55 197.597L210.851 197.595L210.849 134.587L100.549 134.59L100.55 197.597Z" fill="#F0F0F0"/>
<path d="M103.499 138.424L103.499 152.906L170.501 152.904L170.5 138.422L103.499 138.424Z" fill="#E6E6E6"/>
<path d="M173.053 138.422L173.054 152.904L207.9 152.903L207.899 138.421L173.053 138.422Z" fill="#E6E6E6"/>
<path d="M187.029 140.173H193.923C196.917 140.173 199.78 139.461 201.839 138.202L179.112 138.203C181.172 139.461 184.035 140.173 187.029 140.173Z" fill="#F0F0F0"/>
<path d="M117.123 140.174H156.173C159.167 140.174 162.03 139.461 164.089 138.203L109.206 138.204C111.266 139.462 114.128 140.175 117.123 140.174Z" fill="#F0F0F0"/>
<path d="M103.499 157.055L103.5 171.537L170.502 171.535L170.501 157.053L103.499 157.055Z" fill="#E6E6E6"/>
<path d="M173.053 157.053L173.054 171.535L207.9 171.534L207.9 157.052L173.053 157.053Z" fill="#E6E6E6"/>
<path d="M187.03 158.804H193.924C196.918 158.804 199.781 158.092 201.84 156.833L179.113 156.834C181.173 158.092 184.035 158.804 187.03 158.804Z" fill="#F0F0F0"/>
<path d="M117.123 158.805H156.173C159.168 158.805 162.03 158.092 164.09 156.834L109.206 156.835C111.266 158.093 114.129 158.805 117.123 158.805Z" fill="#F0F0F0"/>
<path d="M103.5 175.686L103.5 190.168L170.502 190.166L170.502 175.684L103.5 175.686Z" fill="#E6E6E6"/>
<path d="M173.054 175.684L173.055 190.166L207.901 190.165L207.901 175.683L173.054 175.684Z" fill="#E6E6E6"/>
<path d="M187.03 177.435H193.924C196.918 177.435 199.781 176.722 201.841 175.464L179.113 175.464C181.173 176.722 184.036 177.435 187.03 177.435Z" fill="#F0F0F0"/>
<path d="M117.124 177.436H156.174C159.168 177.436 162.031 176.723 164.091 175.465L109.208 175.465C111.267 176.723 114.13 177.436 117.124 177.436Z" fill="#F0F0F0"/>
<path d="M207.049 198.933H210.851L210.851 189.804H203.061L207.049 198.933Z" fill="#F0F0F0"/>
<path d="M217.469 123.135C217.469 123.135 216.889 129.672 194.623 129.673C172.357 129.674 171.776 123.136 171.776 123.136L217.469 123.135Z" fill="#FAFAFA"/>
<path d="M217.469 128.05C217.469 128.05 216.889 134.587 194.623 134.588C172.357 134.589 171.776 128.052 171.776 128.052L217.469 128.05Z" fill="#EBEBEB"/>
<path d="M61.5249 198.934H84.4129L77.6324 140.265H61.5249V198.934Z" fill="#E6E6E6"/>
<path d="M22.887 198.935H73.7973L79.17 130.267H28.2598L22.887 198.935Z" fill="#E0E0E0"/>
<path d="M19.2256 198.935H72.2019L77.5747 130.267H24.5984L19.2256 198.935Z" fill="#F5F5F5"/>
<path d="M67.1951 193.523L71.7208 135.678H29.605L25.0793 193.523H67.1951Z" fill="white"/>
<path d="M142.991 24.1104H13.2654V118.328H142.991V24.1104Z" fill="#EBEBEB"/>
<path d="M138.551 29.0947H17.7063V113.342H138.551V29.0947Z" fill="#FAFAFA"/>
<path d="M43.7117 113.342H31.0276L42.9709 29.0947H55.655L43.7117 113.342Z" fill="white"/>
<path d="M75.0493 113.342H62.3652L74.3092 29.0947H86.9933L75.0493 113.342Z" fill="white"/>
<path d="M115.449 113.342H109.107L121.051 29.0947H127.393L115.449 113.342Z" fill="white"/>
<path d="M86.2039 113.342H79.8616L91.8055 29.0947H98.1473L86.2039 113.342Z" fill="white"/>
<path d="M58.2171 29.0947H52.2397V113.342H58.2171V29.0947Z" fill="#EBEBEB"/>
<path d="M58.2171 113.343H59.5493L59.5493 29.095H58.2171L58.2171 113.343Z" fill="#E0E0E0"/>
<path d="M142.991 118.327H143.948V24.109H142.991V118.327Z" fill="#E0E0E0"/>
<path d="M120.673 224.677C181.923 224.677 231.577 221.787 231.577 218.223C231.577 214.658 181.923 211.769 120.673 211.769C59.4217 211.769 9.76807 214.658 9.76807 218.223C9.76807 221.787 59.4217 224.677 120.673 224.677Z" fill="#F5F5F5"/>
<path d="M147.317 201.733L154.567 197.561L158.994 206.393L152.942 209.889L147.317 201.733Z" fill="#FFC3BD"/>
<path opacity="0.2" d="M147.321 201.735L154.573 197.562L157.051 202.508L150.469 206.303L147.321 201.735Z" fill="black"/>
<path d="M149.924 173.256C155.06 161.398 163.521 147.623 160.054 134.907L136.971 131.271C136.971 131.271 132.197 159.689 133.145 171.345C134.128 183.465 148.483 204.978 148.483 204.978L156.751 200.142C156.751 200.142 153.156 181.753 149.924 173.256Z" fill="#407BFF"/>
<g opacity="0.4">
<path d="M149.924 173.256C155.06 161.398 163.521 147.623 160.054 134.907L136.971 131.271C136.971 131.271 132.197 159.689 133.145 171.345C134.128 183.465 148.483 204.978 148.483 204.978L156.751 200.142C156.751 200.142 153.156 181.753 149.924 173.256Z" fill="black"/>
</g>
<path d="M157.584 200.046L148.138 205.603L145.133 201.709L156.263 195.837L157.584 200.046Z" fill="#407BFF"/>
<path opacity="0.2" d="M151.614 169.512C154.39 163.509 157.596 157.118 159.409 150.688C153.956 151.614 149.336 156.027 151.614 169.512Z" fill="black"/>
<path d="M158.758 204.299C158.616 204.117 158.317 204.136 158.203 204.329C157.013 206.362 153.584 208.315 152.26 209.016C151.936 209.187 151.719 209.471 151.613 209.794C150.967 211.779 148.406 214.742 148.406 214.742C148.406 214.742 148.546 215.401 148.872 216.063C149.148 216.623 149.866 216.792 150.351 216.4L160.887 207.87C161.268 207.562 161.293 206.993 160.939 206.655C160.342 206.083 159.458 205.195 158.758 204.299Z" fill="#263238"/>
<path d="M160.934 205.758L169.305 205.838L168.546 215.686L161.55 215.63L160.934 205.758Z" fill="#FFC3BD"/>
<path d="M169.278 214.173C169.302 213.942 169.078 213.768 168.859 213.848C166.579 214.681 162.732 214.043 161.285 213.755C160.932 213.685 160.577 213.769 160.275 213.954C158.42 215.089 155.139 215.781 155.139 215.781C155.139 215.781 154.804 216.341 154.576 217.027C154.369 217.648 154.834 218.29 155.49 218.29L168.396 218.283C168.859 218.283 169.23 217.9 169.21 217.439C169.175 216.622 169.154 215.339 169.278 214.173Z" fill="#263238"/>
<path opacity="0.2" d="M160.936 205.762L169.31 205.841L168.883 211.356L161.279 211.29L160.936 205.762Z" fill="black"/>
<path d="M174.604 172.579C177.213 160.19 181.911 144.087 178.602 137.695L151.576 133.524C151.576 133.524 154.937 159.15 155.824 171.089C156.745 183.501 160.39 209.143 160.39 209.143L169.449 209.167C169.449 209.167 175.755 187.353 174.604 172.579Z" fill="#407BFF"/>
<path opacity="0.4" d="M174.604 172.579C177.213 160.19 181.911 144.087 178.602 137.695L151.576 133.524C151.576 133.524 154.937 159.15 155.824 171.089C156.745 183.501 160.39 209.143 160.39 209.143L169.449 209.167C169.449 209.167 175.755 187.353 174.604 172.579Z" fill="black"/>
<path d="M170.438 209.507H159.538L159.37 204.985L171.372 205.179L170.438 209.507Z" fill="#407BFF"/>
<path d="M158.713 94.405L158.024 94.9568L157.383 95.4555C156.956 95.7816 156.524 96.0905 156.093 96.4017C155.233 97.0247 154.347 97.6033 153.458 98.1807C151.665 99.3133 149.825 100.393 147.882 101.352C145.946 102.325 143.926 103.205 141.765 103.929C139.612 104.668 137.302 105.236 134.757 105.48L134.29 105.525C133.061 105.643 131.89 105.271 130.982 104.578C129.089 103.127 127.925 101.353 127.162 99.7305C126.767 98.9131 126.47 98.098 126.244 97.3029C126.016 96.5077 125.822 95.7291 125.696 94.9608C125.572 94.1907 125.483 93.4332 125.421 92.6865C125.367 91.9392 125.357 91.1982 125.359 90.4669C125.367 89.7344 125.415 89.0077 125.478 88.2855L125.608 87.2002L125.799 86.0625C126.069 84.4471 127.602 83.3567 129.223 83.6257C130.259 83.7979 131.08 84.4842 131.467 85.3791L131.704 85.9394C131.793 86.1503 131.896 86.4723 131.997 86.7454L132.297 87.5998C132.491 88.1686 132.706 88.7295 132.916 89.2796C133.342 90.378 133.789 91.4325 134.285 92.3792C134.757 93.3289 135.311 94.169 135.823 94.7801C136.335 95.4151 136.86 95.6989 137.098 95.7514L133.323 94.849C134.683 94.5441 136.18 94.0015 137.705 93.338C138.466 93.0085 139.234 92.6255 140 92.227C140.772 91.8406 141.544 91.4148 142.312 90.9742C143.845 90.0827 145.387 89.1382 146.9 88.1344C147.662 87.6397 148.408 87.1181 149.158 86.6086L150.267 85.8328L151.292 85.1043L151.524 84.9396C154.204 83.0369 157.925 83.6588 159.834 86.3298C161.675 88.9022 161.149 92.4482 158.713 94.405Z" fill="#FFC3BD"/>
<path d="M131.454 85.813L128.498 87.7344C124.876 88.5262 124.661 83.7102 124.661 83.7102L123.618 81.4359C123.264 80.6653 123.606 79.7026 124.424 79.1616L126.48 77.8028C127.417 77.1832 128.634 77.3359 129.178 78.1413L130.401 79.9511C130.757 80.4778 130.977 81.0837 131.04 81.7152L131.454 85.813Z" fill="#FFC3BD"/>
<path d="M158.517 82.4312C152.854 82.0949 141.216 89.3727 141.216 89.3727C139.875 93.6255 142.211 101.688 145.622 103.681C145.622 103.681 154.287 99.9713 158.365 96.3649C163.293 92.0055 169.972 83.1112 158.517 82.4312Z" fill="#263238"/>
<path d="M159.041 82.4413C165.976 82.7856 175.077 84.2767 181.995 86.3566C186.313 87.6545 189.004 90.8733 187.069 99.7995C183.144 117.907 183.467 132.701 180.112 138.911C180.112 138.911 140.822 141.33 135.569 132.299C136.633 109.943 147.388 92.9048 152.184 85.8607C153.717 83.6087 156.313 82.3056 159.041 82.4413Z" fill="#263238"/>
<path d="M161.267 84.9172C162.282 84.1933 163.122 84.8357 163.751 83.6079C164.085 82.7056 164.101 81.7098 163.729 80.5555L175.076 76.541C174.273 80.3486 173.647 83.3565 175.116 85.1452C175.168 88.0835 168.357 90.7682 162.6 89.6784C157.532 88.7185 159.807 85.9586 161.267 84.9172Z" fill="#FFC3BD"/>
<path opacity="0.2" d="M163.832 80.905L172.42 80.1201C169.823 83.0733 165.781 84.2851 163.883 83.181C164.055 82.4856 164.049 81.7389 163.832 80.905Z" fill="black"/>
<path d="M163 70.1878C162.547 65.8057 166.832 60.2602 170.415 62.1725C173.996 64.0849 163 70.1878 163 70.1878Z" fill="#263238"/>
<path d="M178.104 72.6885C175.834 77.6811 174.185 81.023 170.382 82.0524C162.826 84.0982 160.34 79.9617 161.07 74.3785C161.728 69.3534 165.33 62.0329 171.122 61.952C176.828 61.8733 180.375 67.6958 178.104 72.6885Z" fill="#FFC3BD"/>
<path d="M176.795 76.6899C174.205 76.3154 172.31 71.6545 175.02 69.2161C177.731 66.7782 176.795 64.4355 174.828 63.7424C172.861 63.0492 169.287 63.5514 168.471 61.8061C167.656 60.0613 173.101 58.7942 176.267 60.8023C179.433 62.8104 179.266 61.5912 179.266 61.5912C179.266 61.5912 179.926 62.6189 178.672 62.8343C181.161 64.4839 183.919 68.4517 181.353 70.0768C184.591 71.8934 179.577 76.2037 176.795 76.6899Z" fill="#263238"/>
<path d="M180.553 69.802C182.28 70.364 183.016 69.0615 183.016 69.0615C183.016 69.0615 183.56 71.1842 180.553 69.802Z" fill="#263238"/>
<path d="M167.859 75.0904C168.089 74.9918 168.323 74.8681 168.558 74.7136C168.622 74.672 168.635 74.5877 168.587 74.5255C168.539 74.464 168.451 74.4469 168.386 74.489C166.67 75.6194 164.967 74.9758 164.95 74.969C164.875 74.9393 164.793 74.9718 164.766 75.0408C164.739 75.1098 164.777 75.189 164.851 75.2181C164.918 75.2443 166.287 75.7636 167.859 75.0904Z" fill="#263238"/>
<path opacity="0.2" d="M170.905 71.1594C170.905 71.1594 172.022 70.9126 172.769 71.5048C171.72 71.5191 170.905 71.1594 170.905 71.1594Z" fill="black"/>
<path opacity="0.2" d="M170.853 71.6074C170.853 71.6074 171.896 71.5983 172.41 72.3308C171.482 72.1273 170.853 71.6074 170.853 71.6074Z" fill="black"/>
<path d="M177.79 78.0941C176.698 79.0876 175.245 79.4804 174.029 79.3989C172.2 79.2763 172.437 77.841 173.443 76.4337C174.348 75.1672 175.831 73.3574 177.428 74.1742C179.001 74.9791 179.039 76.9581 177.79 78.0941Z" fill="#FFC3BD"/>
<path d="M169.845 70.9966C169.686 71.4133 169.335 71.6647 169.063 71.5581C168.79 71.4521 168.698 71.028 168.857 70.6113C169.016 70.1947 169.367 69.9433 169.639 70.0499C169.912 70.1565 170.004 70.5805 169.845 70.9966Z" fill="#263238"/>
<path d="M165.011 69.1216C164.852 69.5383 164.501 69.7897 164.229 69.6831C163.956 69.5771 163.864 69.153 164.023 68.7363C164.182 68.3197 164.532 68.0683 164.805 68.1749C165.078 68.2815 165.17 68.705 165.011 69.1216Z" fill="#263238"/>
<path d="M166.52 69.8018L165.302 73.4492C165.302 73.4492 164.035 73.8875 162.877 72.6455C164.089 70.7702 166.52 69.8018 166.52 69.8018Z" fill="#ED847E"/>
<path d="M172.065 68.5726C172.106 68.5869 172.152 68.5903 172.198 68.5818C172.34 68.555 172.432 68.417 172.404 68.2745C172.126 66.8461 171.009 66.3719 170.962 66.3519C170.827 66.2966 170.675 66.3605 170.621 66.495C170.567 66.6289 170.631 66.7817 170.764 66.8376C170.801 66.853 171.668 67.2326 171.89 68.372C171.91 68.4689 171.979 68.543 172.065 68.5726Z" fill="#263238"/>
<path d="M163.196 67.1746C163.278 67.1968 163.369 67.1786 163.437 67.1182C164.299 66.3515 165.217 66.5835 165.255 66.5943C165.396 66.6314 165.539 66.5493 165.575 66.4097C165.612 66.27 165.529 66.1269 165.39 66.0882C165.339 66.0756 164.167 65.7644 163.086 66.7249C162.978 66.8206 162.97 66.9865 163.066 67.0954C163.102 67.1347 163.148 67.1615 163.196 67.1746Z" fill="#263238"/>
<path d="M102.622 100.092L100.137 106.844C99.6855 108.072 98.6828 108.91 97.4421 109.097L64.4583 114.076C62.3299 114.397 61.0709 116.574 61.6469 118.937L73.1956 166.334C73.7716 168.697 75.9635 170.353 78.0925 170.031L156.613 158.179C158.742 157.857 160.001 155.681 159.425 153.318L145.509 96.2076C144.933 93.8444 142.741 92.1891 140.612 92.5106L105.316 97.8384C104.076 98.0254 103.073 98.8644 102.622 100.092Z" fill="#407BFF"/>
<path opacity="0.3" d="M102.622 100.092L100.137 106.844C99.6855 108.072 98.6828 108.91 97.4421 109.097L64.4583 114.076C62.3299 114.397 61.0709 116.574 61.6469 118.937L73.1956 166.334C73.7716 168.697 75.9635 170.353 78.0925 170.031L156.613 158.179C158.742 157.857 160.001 155.681 159.425 153.318L145.509 96.2076C144.933 93.8444 142.741 92.1891 140.612 92.5106L105.316 97.8384C104.076 98.0254 103.073 98.8644 102.622 100.092Z" fill="black"/>
<path d="M85.6955 30.7931C86.4774 30.7931 87.249 30.8347 88.0098 30.9133C93.0691 23.9468 101.291 19.4102 110.58 19.4102C122.38 19.4102 132.458 26.7272 136.515 37.0534C145.54 38.5867 152.412 46.4139 152.412 55.8446C152.412 66.3759 143.845 74.9133 133.277 74.9133H85.6949C73.4684 74.9133 63.5574 65.0364 63.5574 52.8532C63.5579 40.6694 73.469 30.7931 85.6955 30.7931Z" fill="#407BFF"/>
<path d="M87.7468 67.1992V122.199H128.224V79.1715L116.21 67.1992H87.7468Z" fill="#407BFF"/>
<path opacity="0.6" d="M87.7468 67.1992V122.199H128.224V79.1715L116.21 67.1992H87.7468Z" fill="white"/>
<path opacity="0.4" d="M116.21 79.1715V67.1992L128.224 79.1715H116.21Z" fill="#407BFF"/>
<path d="M89.0446 169.836L86.177 170.268L86.2629 170.835L89.1305 170.403L89.0446 169.836Z" fill="#407BFF"/>
<path d="M102.277 167.841L92.2617 169.349L92.3477 169.916L102.363 168.408L102.277 167.841Z" fill="#407BFF"/>
<path d="M117.056 105.494L113.321 111.705C112.642 112.834 111.505 113.615 110.264 113.802L77.2802 118.781C75.1518 119.102 73.5039 121.11 73.5994 123.265L75.5156 166.492C75.6111 168.647 77.4141 170.134 79.5425 169.813L158.064 157.96C160.192 157.638 161.84 155.631 161.745 153.476L159.435 101.391C159.34 99.2357 157.537 97.7486 155.409 98.0701L120.113 103.398C118.873 103.585 117.735 104.365 117.056 105.494Z" fill="#407BFF"/>
<path d="M118.205 59.2239C118.023 59.2239 117.842 59.155 117.703 59.0165C117.425 58.74 117.425 58.292 117.703 58.0155C123.061 52.6758 123.061 43.9878 117.703 38.6481C115.107 36.0614 111.656 34.637 107.985 34.637C104.315 34.637 100.863 36.0614 98.2675 38.6481C95.6717 41.2347 94.2423 44.6735 94.2423 48.3318C94.2423 51.9901 95.6717 55.4289 98.2675 58.0155C98.5449 58.292 98.5449 58.74 98.2675 59.0165C97.9906 59.2923 97.5404 59.2923 97.2636 59.0165C94.3996 56.1625 92.822 52.368 92.822 48.3318C92.822 44.2956 94.399 40.5011 97.2636 37.6472C100.128 34.7932 103.935 33.2217 107.985 33.2217C112.036 33.2217 115.843 34.7932 118.707 37.6472C124.62 43.5387 124.62 53.1249 118.707 59.0165C118.568 59.155 118.387 59.2239 118.205 59.2239Z" fill="white"/>
<path d="M114.067 52.5929V68.3659C114.067 69.7875 112.911 70.9395 111.485 70.9395H104.485C103.059 70.9395 101.903 69.7875 101.903 68.3659V52.5929H99.2703L107.985 45.1122L116.7 52.5929H114.067Z" fill="white"/>
<path d="M184.622 102.642L184.275 103.425L183.947 104.139C183.727 104.61 183.492 105.068 183.261 105.527C182.8 106.445 182.297 107.337 181.791 108.229C180.758 110 179.659 111.746 178.424 113.435C177.807 114.281 177.174 115.121 176.501 115.949C175.816 116.768 175.113 117.581 174.356 118.376C172.856 119.974 171.16 121.494 169.154 122.866L168.76 123.136C168.559 123.273 168.333 123.388 168.117 123.473C165.738 124.381 163.759 124.539 161.858 124.649C159.972 124.735 158.19 124.607 156.452 124.433C154.716 124.229 153.026 123.95 151.363 123.579C149.689 123.2 148.095 122.782 146.416 122.193C144.85 121.644 144.027 119.932 144.579 118.371C144.984 117.226 146.016 116.479 147.156 116.381L147.279 116.371L151.917 115.976C153.458 115.838 154.98 115.69 156.457 115.493C157.194 115.394 157.92 115.299 158.628 115.178C159.332 115.051 160.017 114.91 160.67 114.77C161.949 114.479 163.165 114.044 163.741 113.673L162.704 114.279C163.743 113.354 164.775 112.189 165.782 110.924C166.284 110.291 166.769 109.614 167.246 108.927C167.732 108.245 168.202 107.533 168.663 106.811C169.575 105.356 170.477 103.862 171.324 102.325C171.757 101.562 172.165 100.783 172.582 100.013L173.743 97.78L173.882 97.5115C175.396 94.6005 178.992 93.4628 181.913 94.9716C184.72 96.4188 185.876 99.7984 184.622 102.642Z" fill="#FFC3BD"/>
<path d="M186.443 92.5677C189.194 102.417 182.21 112.208 182.21 112.208C178.506 113.264 168.756 109.477 166.686 105.853C166.686 105.853 170.085 96.5406 174.127 91.5896C177.869 87.0051 184.832 86.7953 186.443 92.5677Z" fill="#263238"/>
<path d="M148.308 116.606L148.853 120.08C148.09 123.695 143.595 121.914 143.595 121.914L141.086 121.928C140.236 121.932 139.496 121.227 139.337 120.261L138.937 117.835C138.755 116.729 139.394 115.686 140.355 115.522L142.512 115.154C143.14 115.047 143.785 115.096 144.389 115.297L148.308 116.606Z" fill="#FFC3BD"/>
</g>
<defs>
<clipPath id="clip0_778_17808">
<rect width="240" height="240" fill="white" transform="translate(0.134521 0.393555)"/>
</clipPath>
</defs>
</svg>
