<svg width="80" height="80" viewBox="0 0 80 80" fill="none" xmlns="http://www.w3.org/2000/svg">
<g clip-path="url(#clip0_1971_11038)">
<rect width="80" height="80" rx="40" fill="#FFCF43"/>
<path d="M6.98197 47.2702C6.87929 43.4252 7.43861 39.6594 8.64432 36.0769C10.2586 31.2859 13.0362 26.8749 16.6766 23.319C18.4995 21.535 20.5187 19.9864 22.6765 18.7173C29.2827 14.8325 37.3215 13.5208 44.7319 15.1178C47.0004 15.6072 49.1831 16.3559 51.2147 17.1078C51.6664 17.1301 52.0652 17.1607 52.4491 17.2028C55.8348 17.5712 59.1718 18.7332 62.1222 20.5683C63.6595 20.8664 65.2476 21.1079 66.7878 21.3422C72.5175 22.2135 78.4424 23.1144 83.5497 27.0411C85.3056 28.3924 86.8444 29.9407 88.1247 31.6435C90.9389 35.3858 92.4954 39.9373 92.6254 44.8055C92.6922 47.3068 92.3867 49.8229 91.7171 52.3038L92.9432 53.5842C93.3366 53.995 93.5394 54.5191 93.5534 55.0462C93.5694 55.6448 93.3424 56.2478 92.8759 56.6946L92.6113 56.9481C92.0364 57.4987 91.2403 57.6756 90.5235 57.4852C90.4574 58.3176 89.9175 59.0752 89.0814 59.3791L88.7371 59.5043C88.7116 59.514 88.6853 59.5229 88.6593 59.5309C88.0644 60.5569 87.4089 61.5627 86.6995 62.5374C83.2067 67.3381 78.3918 71.5432 72.7753 74.6976C69.1278 76.7472 65.1203 78.3101 60.8577 79.3453C60.3628 79.7091 59.7377 79.8492 59.136 79.732C55.6479 80.452 52.0472 80.8166 48.4193 80.8166C47.7489 80.8177 47.024 80.802 46.2161 80.7688C43.8087 81.4737 41.3178 81.8647 38.8055 81.9318C36.5524 81.9919 34.3011 81.793 32.1132 81.3407C31.7961 81.2756 31.4771 81.2028 31.1584 81.1263C31.1349 81.1212 31.1119 81.1161 31.0885 81.1106C23.8072 79.3324 17.5575 74.8682 13.4909 68.5411C13.2613 68.1901 13.0666 67.8762 12.8884 67.5675C12.8773 67.5478 12.8657 67.5277 12.8549 67.5076C11.3242 64.8995 10.2171 62.0787 9.56157 59.1188C7.96027 55.4 7.09261 51.4137 6.98197 47.2702Z" fill="#D7E0E5"/>
<path d="M48.5852 78.6436C46.3993 78.6468 44.217 78.511 42.0493 78.2461C29.6182 76.7148 16.9883 70.3397 11.7902 58.3743C8.85513 51.623 8.54687 43.7821 10.8951 36.8052C12.4041 32.3267 15.0014 28.2188 18.3794 24.9195C20.0593 23.2754 23.896 25.8583 25.9218 24.667C32.0248 21.0784 37.9705 21.6392 44.8915 23.1304C49.3849 24.0998 53.1094 20.3242 57.5028 21.6778C57.6916 21.7389 57.8765 21.7961 58.0647 21.8499C66.2792 24.2566 75.3153 23.3845 82.3744 28.8117C83.9359 30.0133 85.3454 31.4135 86.532 32.9921C91.164 39.1514 91.6577 47.2039 88.9377 54.2712C87.9844 56.7503 86.6676 59.0965 85.0864 61.2695C81.6192 66.0348 72.4124 63.6354 67.4002 66.4504C60.343 70.4167 56.695 78.6431 48.5852 78.6436Z" fill="#8BC0CA"/>
<path d="M27.0697 38.5429C23.3666 36.5362 20.3426 33.1877 19.0512 29.1836C18.6072 27.8128 18.3819 26.3662 18.3796 24.9211C20.0596 23.277 21.932 21.8333 23.9579 20.6421C30.0609 17.0534 37.5138 15.8051 44.4344 17.2968C48.9278 18.2661 53.1093 20.3262 57.5026 21.6794C57.4796 21.9186 57.4493 22.1613 57.416 22.4118C57.0775 24.9775 55.553 27.9122 52.6186 28.0564C50.058 28.1799 47.8026 25.856 45.2537 26.1439C43.4801 26.3453 41.9872 27.9881 41.954 29.7753C41.9391 30.5937 42.1954 31.3939 42.2903 32.2089C42.6772 35.5732 40.0788 38.8116 36.8613 39.8733C33.6443 40.9386 30.0474 40.1582 27.0697 38.5429Z" fill="#F7EDE5"/>
<path d="M48.586 78.6443C47.7519 76.3924 47.6579 73.835 48.3257 71.5135C49.3831 67.8394 52.1663 64.7905 55.5519 63.0163C57.8237 61.8222 60.4579 61.1614 62.9793 61.6367C65.1468 62.0446 67.3511 63.2659 69.433 62.5353C72.2783 61.5351 72.9252 57.6076 75.4716 55.9881C77.5674 54.6594 80.4899 55.3258 82.3354 56.9898C83.6885 58.208 84.5969 59.6805 85.0867 61.2699C81.6196 66.0352 76.876 69.9912 71.8638 72.8066C64.8071 76.7733 56.6957 78.6439 48.586 78.6443Z" fill="#F7EDE5"/>
<path d="M57.3641 68.6581L57.5956 68.652C57.8806 68.6443 62.5295 70.9987 65.2756 72.4025L65.5162 72.5256L59.7218 77.5994L57.3641 68.6581ZM64.8679 72.6058C62.3816 71.3365 58.9122 69.5913 57.8678 69.1305L59.9251 76.9341L64.8679 72.6058Z" fill="#302945"/>
<path d="M69.7465 46.5139L69.9154 46.3991C70.1502 46.2396 74.5696 45.7342 77.1826 45.4475L77.4336 45.4199L75.7369 53.5513L69.7465 46.5139ZM76.9717 45.84C74.6731 46.0939 71.3112 46.4889 70.351 46.6583L75.531 52.7441L76.9717 45.84Z" fill="#302945"/>
<path d="M16.3582 62.6199C14.9338 62.6579 13.5448 62.5302 12.2054 62.2533C12.0943 62.2305 11.908 62.0098 11.7976 61.9848C11.6966 61.9617 11.6719 62.1346 11.5715 62.1104L11.569 62.1105C7.01731 60.9988 3.12313 58.1584 0.649968 54.3104C0.587935 54.2158 0.633711 53.8145 0.574405 53.7193C0.510804 53.6173 0.342389 53.8212 0.282292 53.717L0.282226 53.7145C-1.22848 51.1576 -2.12757 48.1934 -2.21245 45.0149C-2.3006 41.7137 -1.49764 38.5929 -0.0240693 35.8875C0.0368431 35.7759 0.476964 35.6213 0.540907 35.5102C0.5928 35.4202 0.267692 35.3735 0.321543 35.2849C0.787932 34.5019 1.3097 33.7593 1.88685 33.0572C3.9012 30.5985 6.55792 28.6787 9.60737 27.5511C9.69239 27.5206 10.1257 27.6851 10.2115 27.6551C10.3123 27.62 10.0654 27.3908 10.1685 27.359C10.1685 27.359 10.1685 27.359 10.171 27.3589C11.8179 26.8103 13.5696 26.4926 15.3925 26.4439C17.3653 26.3913 19.273 26.6554 21.0646 27.1933C21.1484 27.2185 21.0409 27.6607 21.1238 27.6864C21.1979 27.7094 21.4625 27.316 21.5364 27.3409C25.3634 28.5999 28.6354 31.1048 30.8573 34.3861C30.9192 34.4758 30.2063 34.3854 30.2655 34.476C30.3532 34.6099 31.212 34.9254 31.2963 35.0613C32.9099 37.6818 33.8755 40.7529 33.9635 44.0492C33.9891 45.0086 33.9406 45.9551 33.8175 46.8793C33.7984 47.0377 33.5092 46.6429 33.4849 46.7996C33.4632 46.9405 33.7068 47.6333 33.6812 47.7738C32.9904 51.5906 31.095 55.0041 28.3971 57.5894C26.609 59.3085 24.4691 60.6606 22.0896 61.5317C22.0038 61.5628 21.9151 61.2827 21.8287 61.3124C21.7388 61.3434 21.6511 61.6844 21.5602 61.7131C19.9206 62.2566 18.1737 62.5714 16.3582 62.6199Z" fill="#FF9A7D"/>
<path d="M0.649849 54.3156C0.52149 54.1197 0.398063 53.9236 0.281903 53.7224L0.281837 53.72C1.13982 50.1743 2.54871 46.8849 4.40278 44.0413C5.91139 41.7239 7.71363 39.7016 9.75265 38.0742C9.88293 37.9723 10.0129 37.8703 10.1457 37.7683C10.551 37.4597 10.9665 37.1653 11.3899 36.8883C12.914 35.8876 14.5595 35.0928 16.2744 34.5054C16.4401 34.4467 16.6063 34.3931 16.7722 34.3418C18.2903 33.8581 19.8574 33.5382 21.441 33.3802C21.6102 33.3609 21.7774 33.3465 21.9468 33.3346C24.9512 33.097 28.0005 33.4436 30.857 34.3916C31.0104 34.614 31.1544 34.8391 31.2959 35.0665C28.3749 33.9999 25.2279 33.5892 22.1222 33.8148C21.9525 33.8267 21.7807 33.8412 21.6114 33.858C20.0741 34.0024 18.5536 34.3038 17.0789 34.7595C16.913 34.8108 16.7494 34.8643 16.586 34.918L16.5861 34.9205C14.8539 35.4984 13.1935 36.2936 11.6598 37.2996C11.2606 37.5614 10.8718 37.8375 10.4879 38.1261C10.3575 38.2256 10.2275 38.3275 10.0997 38.4294C8.01942 40.0826 6.18671 42.155 4.66727 44.5391C2.8337 47.4112 1.45759 50.7368 0.649849 54.3156Z" fill="#302945"/>
<path d="M33.6823 47.7757C33.34 46.9429 32.9029 46.1495 32.3739 45.4202C31.1317 43.7079 29.419 42.3482 27.7641 41.0358C26.054 39.6783 24.2834 38.2732 22.9969 36.4612C22.4239 35.6569 21.9622 34.7755 21.6126 33.8544C21.5516 33.6959 21.4958 33.5375 21.4422 33.3766C21.0699 32.2518 20.8636 31.0682 20.832 29.8825C20.8079 28.982 20.8847 28.0791 21.0654 27.1954C21.2241 27.243 21.3806 27.2904 21.5369 27.343C21.1419 29.3301 21.2911 31.4163 21.948 33.3313C22.0017 33.4922 22.06 33.6532 22.1234 33.8114C22.451 34.647 22.8759 35.443 23.3979 36.1774C24.6436 37.9313 26.3865 39.3126 28.0689 40.6487C29.7513 41.9848 31.4891 43.3638 32.7723 45.1315C33.1712 45.6822 33.5239 46.2684 33.8186 46.8808C33.7822 47.1823 33.7358 47.4789 33.6823 47.7757Z" fill="#302945"/>
<path d="M21.5603 61.7185C21.7899 60.2647 22.0015 58.792 22.1342 57.3114C22.2219 56.354 22.2774 55.3949 22.2815 54.4372C22.2943 51.6011 21.8747 48.5179 20.9982 45.0038C20.1688 41.6902 19.2099 39.1581 17.9816 37.0396C17.5583 36.305 17.0865 35.6014 16.5857 34.9204L16.5856 34.9179C16.4834 34.7778 16.3814 34.6429 16.2743 34.5053C15.3022 33.224 14.234 32.0292 13.1846 30.9C12.0948 29.7302 10.9352 28.5304 9.60713 27.5565C9.79238 27.4901 9.97762 27.4234 10.1683 27.3643C10.1683 27.3643 10.1683 27.3643 10.1707 27.3643C11.4175 28.3231 12.5134 29.4582 13.545 30.5654C14.6399 31.7425 15.759 32.9952 16.7723 34.3417C16.8769 34.4793 16.9791 34.6192 17.0788 34.7594C17.5542 35.4139 18.0006 36.0887 18.4082 36.7916C19.66 38.9539 20.6344 41.5251 21.4749 44.8849C22.3626 48.438 22.788 51.5629 22.7738 54.4386C22.7706 55.4283 22.7133 56.4168 22.6215 57.404C22.4935 58.7934 22.2992 60.1746 22.0893 61.5365C21.9142 61.6007 21.7387 61.6622 21.5603 61.7185Z" fill="#302945"/>
<path d="M12.206 62.2559C11.9931 62.2122 11.7826 62.1638 11.572 62.113L11.5696 62.113C10.479 59.9906 9.93944 57.5803 10.0775 55.1936C10.1445 54.0126 10.3694 52.8447 10.6465 51.7001C10.7905 51.0932 10.9515 50.4905 11.1103 49.8956C11.2826 49.251 11.4592 48.584 11.6142 47.93C12.0609 46.0374 12.5426 43.2403 11.5959 40.794C11.2602 39.9314 10.7491 39.1304 10.1001 38.4265C9.98851 38.3039 9.87212 38.1863 9.75332 38.0713C8.60124 36.9599 7.09431 36.1262 5.41713 35.7254C4.29744 35.4574 3.13834 35.3875 1.9967 35.4991C1.31178 35.5643 0.635746 35.6953 -0.023771 35.8904C0.0865496 35.6881 0.201802 35.4856 0.322119 35.288C0.862578 35.1529 1.41402 35.0595 1.96658 35.0077C3.15754 34.8947 4.36555 34.9683 5.53271 35.2473C7.32132 35.6723 8.92565 36.5698 10.1466 37.7654C10.2655 37.8829 10.3794 38.0006 10.4885 38.1232C11.1682 38.8658 11.7026 39.7082 12.0543 40.6169C13.051 43.19 12.555 46.0881 12.0927 48.0428C11.9382 48.7042 11.7589 49.3737 11.5867 50.0208C11.4076 50.6879 11.2263 51.3646 11.0696 52.0458C10.8241 53.0936 10.6288 54.1573 10.5684 55.2224C10.4292 57.6629 11.0193 60.1237 12.206 62.2559Z" fill="#302945"/>
<g opacity="0.27">
<path d="M16.359 62.6231C14.9346 62.6612 13.5455 62.5334 12.2062 62.2566C11.9933 62.2129 11.7828 62.1645 11.5722 62.1137L11.5697 62.1137C7.01804 61.0021 3.12387 58.1617 0.6507 54.3137C0.522341 54.1178 0.398915 53.9217 0.282754 53.7205L0.282689 53.718C-1.22802 51.1612 -2.12711 48.1969 -2.21199 45.0185C-2.30014 41.7172 -1.49717 38.5964 -0.0236028 35.8911C0.0867188 35.6888 0.201971 35.4863 0.322289 35.2887C0.788679 34.5057 1.31045 33.7631 1.88759 33.061C2.06585 33.6568 1.9428 34.389 1.96576 34.9717L1.96675 35.0087C1.97362 35.1736 1.98289 35.3357 1.99715 35.5001C2.04803 36.2965 2.14789 37.0888 2.29196 37.8728C2.68409 40.0188 3.39951 42.1019 4.40392 44.0397C4.42743 44.0884 4.45313 44.1368 4.47911 44.1855C4.54118 44.302 4.60359 44.421 4.66812 44.5375C6.17663 47.2789 8.23753 49.6955 10.647 51.7013C10.7856 51.8183 10.9266 51.9352 11.0697 52.0471C12.0533 52.833 13.0891 53.5538 14.1674 54.202C16.6093 55.6681 19.3362 56.7572 22.1352 57.3101C22.2984 57.3428 22.4593 57.3728 22.6228 57.403C24.5395 57.7382 26.4866 57.8217 28.3981 57.5935C26.61 59.3126 24.4701 60.6647 22.0906 61.5358C21.9152 61.5997 21.7394 61.6609 21.5613 61.7175C19.9214 62.2598 18.1744 62.5746 16.359 62.6231Z" fill="#302945"/>
</g>
<path d="M21.5464 38.0904C21.5193 37.0729 21.5843 36.1257 21.6866 35.305C22.355 29.9333 25.1734 24.9263 29.4185 21.5679C33.6636 18.2095 39.185 16.6193 44.5658 17.2045C47.7298 17.5487 50.8493 18.6621 53.5882 20.424C54.8645 21.2451 55.953 22.3164 57.0054 23.3519C57.5912 23.9287 58.1975 24.525 58.8236 25.0648C59.4882 25.6374 60.1098 26.0887 60.7245 26.4441C60.8876 26.5386 61.0687 26.6183 61.2605 26.7031C61.6785 26.8877 62.1106 27.0784 62.3925 27.4431C62.3946 27.4459 62.3967 27.4487 62.3988 27.4515C62.3993 27.4523 62.4001 27.4531 62.4005 27.4539L62.2544 27.5649L62.1832 27.7294C61.9637 27.6821 60.267 27.9174 59.5424 28.0181C59.2399 28.0601 59.0111 28.0919 58.9284 28.0999C57.7254 28.2186 56.6797 28.4002 55.7317 28.6555C52.4161 29.5498 49.8637 31.4215 48.3507 34.0695C47.3417 35.8351 46.7596 37.8294 46.1965 39.7579C45.9394 40.6396 45.6732 41.5513 45.3694 42.4301C43.9076 46.6605 40.8412 49.1413 36.2552 49.8023C31.8243 50.4411 26.1005 49.4393 23.3229 44.7108C22.0391 42.5252 21.6017 40.1613 21.5464 38.0904ZM58.5847 25.3424C57.9494 24.7947 57.3388 24.1941 56.7484 23.6133C55.709 22.5905 54.6348 21.5332 53.3901 20.7321C50.699 19.0008 47.6344 17.9071 44.5265 17.5688C39.2403 16.9937 33.8167 18.556 29.6464 21.8552C25.4757 25.1544 22.7073 30.0726 22.0502 35.35C21.7471 37.7852 21.7762 41.3543 23.6395 44.5255C25.9206 48.4079 30.6174 50.245 36.2034 49.4396C40.6425 48.7997 43.6102 46.4009 45.0234 42.3107C45.3241 41.4401 45.5888 40.5329 45.8453 39.6553C46.4143 37.7063 47.0024 35.6909 48.0329 33.8876C49.5955 31.1533 52.2251 29.2219 55.6368 28.3017C56.6043 28.041 57.6695 27.8556 58.8929 27.7351C58.9736 27.7272 59.1971 27.6959 59.4922 27.655C60.6854 27.4895 61.3724 27.4058 61.7757 27.3742C61.581 27.2457 61.3507 27.144 61.1126 27.0388C60.9203 26.9541 60.7219 26.8662 60.5413 26.7619C59.9068 26.3948 59.2668 25.9306 58.5847 25.3424Z" fill="#302945"/>
<path d="M80.9678 47.6341L76.1276 48.2778L75.8214 48.0743L75.7363 48.3275L74.7017 48.4667L74.3206 48.3154L74.2331 48.2675L68.6241 39.264L68.3963 39.2704L63.9704 39.4066L63.8586 39.1706C63.6578 39.2372 63.0328 39.5497 62.8383 39.5966C57.1003 41.106 54.6697 35.5265 54.6697 35.5265C52.5752 29.559 56.7358 27.2439 59.0104 26.4461C59.2825 26.3509 60.1342 26.3458 60.3383 26.2909C60.7241 26.187 60.3564 26.0796 60.3564 26.0796L61.249 26.1048L68.5251 26.3137C70.4824 27.3112 71.4782 28.8434 71.9734 30.2386L71.9805 30.2596L71.9965 30.3381C72.059 31.0408 69.5988 31.4804 69.652 32.0224C69.6544 32.0664 69.6696 32.1122 69.6933 32.1577C70.0457 32.8384 72.4508 33.488 72.4508 33.488C72.5508 33.4817 72.6494 33.4884 72.7462 33.5002C73.3459 33.5736 73.8774 33.9386 74.1605 34.4855L80.9678 47.6341Z" fill="#988CC7"/>
<path d="M71.9722 30.2386L66.381 30.1811C66.381 30.1811 67.4901 31.7168 67.1173 33.4376L72.7445 33.501L71.9722 30.2386Z" fill="#302945"/>
<path d="M66.5928 36.441C66.6533 36.3189 66.7092 36.1952 66.7613 36.0647C67.1073 35.2334 67.298 34.3417 67.3163 33.4361C67.3205 33.3805 67.323 33.3211 67.3187 33.2657C67.3212 33.2064 67.322 33.1442 67.318 33.0884C67.2976 32.1079 67.0738 31.1173 66.6308 30.1824C66.595 30.0976 66.5515 30.0129 66.5076 29.9283C65.4168 27.8217 63.4301 26.472 61.2485 26.1025L60.3559 26.0773C60.3559 26.0773 59.7961 26.1687 59.0096 26.4438C61.8554 26.0152 64.7874 27.4038 66.1815 30.0963C67.9332 33.4793 66.6078 37.6587 63.2248 39.41C63.0978 39.4759 62.9692 39.5381 62.837 39.5944C63.0315 39.5475 63.2309 39.4854 63.4314 39.4187L63.9691 39.4044C65.1366 38.6606 66.0242 37.6232 66.5928 36.441Z" fill="#302945"/>
<path d="M76.1269 48.276L75.7356 48.3257L75.7293 48.321L67.4166 33.4376L67.3189 33.2654L67.245 33.13L67.3182 33.088L67.5654 32.9519L67.8413 33.4451L76.1235 48.2696L76.1269 48.276Z" fill="#302945"/>
<path d="M74.7021 48.4681L74.3927 48.5087L74.3875 48.499L74.2992 48.5116L68.3963 39.2719L66.5936 36.444L66.4696 36.252L66.7622 36.0677L66.7802 36.0541L74.697 48.4585L74.7021 48.4681Z" fill="#302945"/>
<path d="M83.7105 52.9214L79.9209 48.9648L79.6563 49.2183L83.4459 53.1748L83.7105 52.9214Z" fill="#302945"/>
<path d="M80.6854 55.1269L78.5947 49.377L78.2504 49.5021L80.341 55.2521L80.6854 55.1269Z" fill="#302945"/>
<path d="M76.7444 49.8726L76.3789 49.8477L76.0198 55.1016L76.3853 55.1265L76.7444 49.8726Z" fill="#302945"/>
<path d="M60.043 37.4946C60.043 38.7082 59.9041 39.8915 59.642 41.0305C58.9538 44.0165 57.4138 46.676 55.2891 48.7413C52.466 51.4797 48.6132 53.1688 44.3694 53.1688C40.5317 53.1688 37.0205 51.7923 34.2966 49.499C31.8498 47.4488 30.0478 44.6706 29.2105 41.4908C28.874 40.2135 28.6953 38.8761 28.6953 37.4946C28.6953 30.8736 32.8007 25.2181 38.6047 22.9153C40.3878 22.2119 42.3338 21.8262 44.3688 21.8262C46.1766 21.8262 47.9148 22.133 49.5294 22.6931C55.6502 24.8266 60.043 30.6457 60.043 37.4946Z" fill="#E8E7E8"/>
<path d="M38.0426 39.0031C39.0592 37.0186 40.2456 35.1938 41.2622 33.2093C40.1503 31.6844 39.0731 30.0542 37.9605 28.5293C36.1995 29.4758 34.5219 30.5776 32.9541 31.8183C33.004 33.8603 32.9446 35.8934 32.9939 37.9354C34.6898 38.2132 36.3479 38.7253 38.0426 39.0031Z" fill="#020300"/>
<path d="M56.9005 37.5482C56.7394 35.4501 56.5974 33.3607 56.4357 31.2632C54.8332 30.1986 53.1063 29.2565 51.3358 28.5039C50.2877 30.0123 49.2395 31.5201 48.1914 33.0286C49.35 34.9582 50.5573 36.8865 51.7159 38.8161C53.4208 38.3678 55.1956 37.9959 56.9005 37.5482Z" fill="#020300"/>
<path d="M44.9336 52.1052C46.6441 51.2737 48.4196 50.4068 50.1307 49.5746C49.5259 48.0421 49.0163 46.54 48.412 45.0076C46.1869 44.9968 43.929 44.9678 41.7039 44.957C41.0321 46.5002 40.3603 48.0428 39.6885 49.5859C41.3794 50.4282 43.242 51.2629 44.9336 52.1052Z" fill="#020300"/>
<path d="M59.6425 41.0293C58.9543 44.0152 57.4143 46.6747 55.2896 48.7401L55.2744 47.8189C56.75 46.2145 57.8051 44.2729 58.3595 42.1633C58.7857 41.7971 59.2163 41.4107 59.6425 41.0293Z" fill="#020300"/>
<path d="M49.5292 22.6925C48.9893 23.2468 48.4646 23.8467 47.9045 24.3613C45.7009 23.8561 43.3685 23.8959 41.1844 24.4901C40.3428 23.9995 39.4613 23.4299 38.6045 22.9153C40.3876 22.2119 42.3336 21.8262 44.3686 21.8262C46.1764 21.8255 47.9146 22.133 49.5292 22.6925Z" fill="#020300"/>
<path d="M34.386 48.5002C34.3563 48.8317 34.3266 49.1689 34.297 49.5004C31.8503 47.4502 30.0482 44.672 29.2109 41.4922C29.7805 42.0074 30.3993 42.4481 31.0679 42.844C31.6867 44.9195 32.8801 46.9451 34.386 48.5002Z" fill="#020300"/>
<path d="M37.6465 29.1246C38.7312 27.0807 40.2365 25.261 42.0411 23.8125" stroke="#020300" stroke-width="0.408449" stroke-miterlimit="10" stroke-linecap="round" stroke-linejoin="round"/>
<path d="M48.0098 23.834C49.3351 25.7194 50.6611 27.6041 51.9864 29.4889" stroke="#020300" stroke-width="0.408449" stroke-miterlimit="10" stroke-linecap="round" stroke-linejoin="round"/>
<path d="M40.627 33.2909C43.2353 32.8104 45.9011 32.6418 48.5493 32.7908" stroke="#020300" stroke-width="0.408449" stroke-miterlimit="10" stroke-linecap="round" stroke-linejoin="round"/>
<path d="M37.873 38.4961C39.0683 41.3286 40.5875 44.0241 42.3914 46.5131" stroke="#020300" stroke-width="0.408449" stroke-miterlimit="10" stroke-linecap="round" stroke-linejoin="round"/>
<path d="M48.0801 45.7542C49.3694 43.3637 50.6588 40.9726 51.9481 38.582" stroke="#020300" stroke-width="0.408449" stroke-miterlimit="10" stroke-linecap="round" stroke-linejoin="round"/>
<path d="M56.5947 37.2305C57.5223 38.7345 58.2509 40.361 58.7548 42.0544" stroke="#020300" stroke-width="0.408449" stroke-miterlimit="10" stroke-linecap="round" stroke-linejoin="round"/>
<path d="M55.7686 31.586C56.6759 31.1611 57.5832 30.7355 58.4906 30.3105" stroke="#020300" stroke-width="0.408449" stroke-miterlimit="10" stroke-linecap="round" stroke-linejoin="round"/>
<path d="M33.2533 37.3359C32.524 39.2605 31.7947 41.1857 31.0654 43.1102" stroke="#020300" stroke-width="0.408449" stroke-miterlimit="10" stroke-linecap="round" stroke-linejoin="round"/>
<path d="M30.0918 31.0059C31.1993 31.2673 32.3074 31.5287 33.4149 31.7901" stroke="#020300" stroke-width="0.408449" stroke-miterlimit="10" stroke-linecap="round" stroke-linejoin="round"/>
<path d="M33.7734 48.4551C35.9221 49.3706 38.3013 49.7394 40.6268 49.5184" stroke="#020300" stroke-width="0.408449" stroke-miterlimit="10" stroke-linecap="round" stroke-linejoin="round"/>
<path d="M44.9801 51.6055C44.927 52.091 44.874 52.5766 44.8203 53.0621" stroke="#020300" stroke-width="0.408449" stroke-miterlimit="10" stroke-linecap="round" stroke-linejoin="round"/>
<path d="M49.1943 49.6619C51.4838 49.6922 53.7777 49.0166 55.6852 47.75" stroke="#020300" stroke-width="0.408449" stroke-miterlimit="10" stroke-linecap="round" stroke-linejoin="round"/>
<path d="M39.6121 55.3543C41.348 58.871 39.9041 63.1291 36.3874 64.865C32.8706 66.6009 28.6125 65.1571 26.8766 61.6403C25.1407 58.1236 26.5846 53.8655 30.1013 52.1296C33.6181 50.3937 37.8762 51.8375 39.6121 55.3543Z" fill="#9BD173"/>
<path d="M26.6182 56.1699C28.5158 56.5592 30.2056 57.858 31.0694 59.5919C31.9333 61.3258 31.9529 63.4571 31.1205 65.2064" fill="#9BD173"/>
<path d="M26.6182 56.1699C28.5158 56.5592 30.2056 57.858 31.0694 59.5919C31.9333 61.3258 31.9529 63.4571 31.1205 65.2064" stroke="black" stroke-width="0.408449" stroke-miterlimit="10"/>
<path d="M33.9951 51.6426C34.0327 53.6419 34.7495 56.006 36.3551 57.6398C37.3955 58.6985 38.729 59.4011 40.0777 59.6012" fill="#9BD173"/>
<path d="M33.9951 51.6426C34.0327 53.6419 34.7495 56.006 36.3551 57.6398C37.3955 58.6985 38.729 59.4011 40.0777 59.6012" stroke="black" stroke-width="0.408449" stroke-miterlimit="10"/>
<path d="M41.2252 61.3022C42.8956 60.5521 44.4378 59.4489 45.7175 57.9764C46.9972 56.504 47.8747 54.8225 48.3848 53.0645C46.7144 53.8146 45.1722 54.9178 43.8925 56.3902C42.6127 57.8627 41.7352 59.5436 41.2252 61.3022Z" fill="#E3D9FF"/>
<path d="M42.2911 62.2271C44.1222 62.2101 45.9771 61.8186 47.7407 60.9829C49.5038 60.1472 50.9818 58.9599 52.155 57.5538C50.3239 57.5708 48.4691 57.9623 46.7055 58.798C44.9424 59.6337 43.4644 60.8216 42.2911 62.2271Z" fill="#E3D9FF"/>
<path d="M40.159 60.3757C39.9206 58.5601 40.0498 56.6689 40.6316 54.8059C41.2134 52.9436 42.1831 51.3145 43.412 49.9568C43.6503 51.7724 43.5212 53.6637 42.9394 55.5266C42.3582 57.3889 41.3879 59.018 40.159 60.3757Z" fill="#E3D9FF"/>
<path d="M38.7982 64.0952C39.7003 64.8793 41.0675 64.7835 41.8515 63.8814L38.5844 61.0419C37.8004 61.944 37.8961 63.3112 38.7982 64.0952Z" fill="#878CF0"/>
<path d="M42.5675 63.056L39.3008 60.2168L38.7923 60.8018L42.0591 63.641L42.5675 63.056Z" fill="#FBD15B"/>
</g>
<defs>
<clipPath id="clip0_1971_11038">
<rect width="80" height="80" rx="40" fill="white"/>
</clipPath>
</defs>
</svg>
