<svg width="80" height="80" viewBox="0 0 80 80" fill="none" xmlns="http://www.w3.org/2000/svg">
<rect width="80" height="80" rx="40" fill="#DEF4FF"/>
<rect x="19.3779" y="6.63867" width="2.31509" height="53.0637" transform="rotate(-45.0746 19.3779 6.63867)" fill="#FFB531"/>
<ellipse cx="38.824" cy="25.0277" rx="16.9001" ry="17.4789" fill="#3086CD"/>
<rect x="37.666" y="47.1367" width="4.63018" height="6.25074" fill="#FA9F0C"/>
<path d="M31.9943 9.16797C26.6532 12.1567 24.4731 14.7549 22.3867 21.4379H26.2066L27.3642 26.0681H31.9943V22.364L34.1937 19.1229H38.9396L36.6245 14.4927H31.9943V9.16797Z" fill="#79AD54"/>
<path d="M39.9798 26.0684H31.877V30.8143L34.3078 34.0554V37.6438H38.8222L43.5682 31.8561H39.9798V26.0684Z" fill="#79AD54"/>
<path d="M24.7188 5.00781C19.5058 10.5809 16.3493 17.6498 15.9439 24.6594C15.5385 31.669 17.9173 38.0451 22.557 42.3851C27.1967 46.7251 33.7172 48.6734 40.6842 47.8014C47.6512 46.9295 54.4938 43.3087 59.7069 37.7356L57.5258 35.6954C52.9627 40.5737 46.9731 43.7431 40.8748 44.5063C34.7764 45.2696 29.0688 43.5642 25.0075 39.7653C20.9463 35.9664 18.8641 30.3852 19.2189 24.2495C19.5738 18.1138 22.3367 11.9262 26.8999 7.04796L24.7188 5.00781Z" fill="#FFB531"/>
<rect x="28.4062" y="51.5352" width="22.9194" height="8.56583" rx="4.28291" fill="#FFB531"/>
<path d="M11.7363 56.166H65.4464C64.3238 57.9903 63.9696 58.9886 63.9416 60.9119C64.0403 62.7163 64.4074 63.6959 65.4464 65.4264H11.7363C10.4355 63.6382 10.0399 62.6331 10 60.9119C10.0529 58.6207 10.4187 57.5715 11.7363 56.166Z" fill="#92563A"/>
<path d="M16.5976 65.4258H70.3077C69.1852 67.2501 68.8309 68.2483 68.8029 70.1717C68.9016 71.9761 69.2688 72.9556 70.3077 74.6861H16.5976C15.2968 72.8979 14.9012 71.8929 14.8613 70.1717C14.9142 67.8804 15.28 66.8312 16.5976 65.4258Z" fill="#92563A"/>
<path d="M39.7722 56.166H65.562C65.023 57.9903 64.8529 58.9886 64.8394 60.9119C64.8869 62.7163 65.0631 63.6959 65.562 65.4264H39.7722C39.1476 63.6382 38.9576 62.6331 38.9385 60.9119C38.9639 58.6207 39.1395 57.5715 39.7722 56.166Z" fill="#DFCDB3"/>
<path d="M44.6345 65.4258H70.4243C69.8853 67.2501 69.7152 68.2483 69.7017 70.1717C69.7492 71.9761 69.9254 72.9556 70.4243 74.6861H44.6345C44.0099 72.8979 43.8199 71.8929 43.8008 70.1717C43.8262 67.8804 44.0018 66.8312 44.6345 65.4258Z" fill="#DFCDB3"/>
<path d="M17.8713 65.632C17.2361 65.8406 16.9579 65.763 16.598 65.2847C15.8284 63.9715 15.5096 63.0917 15.4404 60.886C15.905 57.5467 16.4449 56.8396 16.8295 56.4883C17.1938 56.1773 17.4085 56.0736 17.987 56.2558C18.1815 56.3544 18.2844 56.4322 18.45 56.7189C18.6059 57.0296 18.5751 57.3121 18.45 57.8764C18.0041 58.798 17.8713 59.3331 17.7555 60.3072C17.7639 61.9967 17.9784 62.714 18.45 63.8956C18.5385 64.4274 18.5269 64.6704 18.45 65.0532C18.2731 65.3565 18.1569 65.5022 17.8713 65.632Z" fill="#ED8C0C"/>
<path d="M22.7336 74.8917C22.0984 75.1004 21.8202 75.0227 21.4603 74.5445C20.6907 73.2312 20.3719 72.3515 20.3027 70.1458C20.7673 66.8064 21.3072 66.0994 21.6918 65.7481C22.0561 65.4371 22.2708 65.3334 22.8493 65.5156C23.0438 65.6141 23.1467 65.692 23.3123 65.9786C23.4682 66.2894 23.4374 66.5719 23.3123 67.1362C22.8664 68.0578 22.7336 68.5929 22.6178 69.567C22.6262 71.2565 22.8407 71.9737 23.3123 73.1554C23.4008 73.6872 23.3892 73.9302 23.3123 74.3129C23.1354 74.6162 23.0192 74.762 22.7336 74.8917Z" fill="#ED8C0C"/>
<path d="M34.5402 65.632C33.905 65.8406 33.6268 65.763 33.2669 65.2847C32.4973 63.9715 32.1786 63.0917 32.1094 60.886C32.5739 57.5467 33.1138 56.8396 33.4984 56.4883C33.8628 56.1773 34.0774 56.0736 34.656 56.2558C34.8504 56.3544 34.9534 56.4322 35.119 56.7189C35.2749 57.0296 35.244 57.3121 35.119 57.8764C34.6731 58.798 34.5402 59.3331 34.4245 60.3072C34.4329 61.9967 34.6474 62.714 35.119 63.8956C35.2075 64.4274 35.1959 64.6704 35.119 65.0532C34.942 65.3565 34.8258 65.5022 34.5402 65.632Z" fill="#ED8C0C"/>
<path d="M39.4035 74.8917C38.7683 75.1004 38.4901 75.0227 38.1302 74.5445C37.3606 73.2312 37.0418 72.3515 36.9727 70.1458C37.4372 66.8064 37.9771 66.0994 38.3617 65.7481C38.726 65.4371 38.9407 65.3334 39.5193 65.5156C39.7137 65.6141 39.8166 65.692 39.9823 65.9786C40.1381 66.2894 40.1073 66.5719 39.9823 67.1362C39.5364 68.0578 39.4035 68.5929 39.2877 69.567C39.2961 71.2565 39.5107 71.9737 39.9823 73.1554C40.0708 73.6872 40.0592 73.9302 39.9823 74.3129C39.8053 74.6162 39.6891 74.762 39.4035 74.8917Z" fill="#ED8C0C"/>
<rect x="41.6016" y="59.8711" width="22.6879" height="1.85207" rx="0.926035" fill="#CEBDA5"/>
<rect x="46.4629" y="69.1309" width="22.6879" height="1.85207" rx="0.926035" fill="#CEBDA5"/>
<path d="M44.6113 15.7661V8.70508C47.3429 9.8502 48.6993 10.8322 50.9778 12.8722C53.002 15.2922 53.8408 16.9094 55.0292 20.049C55.8466 23.1181 55.9847 24.9304 55.3765 28.3833H51.5566L48.084 26.0682V21.2066L44.6113 15.7661Z" fill="#79AD54" stroke="#79AD54" stroke-width="0.198436"/>
</svg>
