<svg width="80" height="80" viewBox="0 0 80 80" fill="none" xmlns="http://www.w3.org/2000/svg">
<g clip-path="url(#clip0_1971_11779)">
<rect width="80" height="80" rx="40" fill="#43AA7B"/>
<path d="M57.6732 21.1396C56.0078 19.7446 53.3641 19.5521 51.6521 20.8898C50.2438 18.3938 46.9196 17.1774 44.2328 18.1746C41.546 19.1719 39.8206 22.2628 40.3819 25.0732C38.8791 24.827 37.272 25.3334 36.1819 26.3967C35.0918 27.4601 34.5456 29.0542 34.7544 30.5625C32.0649 29.9102 29.0353 31.001 27.3792 33.2183C25.7232 35.4354 25.5369 38.6503 26.9257 41.0439L55.0777 41.7521C57.414 39.2276 57.7593 35.0833 55.8731 32.2068C57.6945 31.0226 59.1371 29.1769 59.5742 27.0487C60.0116 24.9206 59.3387 22.5346 57.6732 21.1396Z" fill="#E7ECF1"/>
<path d="M71.8199 14.0437C71.3394 12.9083 70.2352 12.0865 69.0255 11.8493C68.8181 10.115 67.1387 8.68862 65.3938 8.76462C63.649 8.84062 62.0999 10.4078 62.0442 12.1534C59.2272 12.0125 58.6253 14.2976 59.0936 15.5457C59.5619 16.7939 61.1195 17.5069 62.3703 17.0453C61.9511 18.5509 63.0642 20.2955 64.6063 20.5496C66.1483 20.8037 67.7624 19.5085 67.8485 17.948C68.8912 18.6057 70.3773 18.3705 71.2354 17.4853C72.0933 16.6001 72.3003 15.179 71.8199 14.0437Z" fill="#E7ECF1"/>
<path d="M55.0973 12.5995C55.7682 11.9286 55.7682 10.8409 55.0973 10.17C54.4265 9.49914 53.3387 9.49914 52.6679 10.17C51.997 10.8409 51.997 11.9286 52.6679 12.5995C53.3387 13.2704 54.4265 13.2704 55.0973 12.5995Z" fill="#E7ECF1"/>
<path d="M28.9761 29.1541C29.0997 28.3943 28.584 27.6782 27.8243 27.5546C27.0645 27.431 26.3484 27.9466 26.2248 28.7064C26.1012 29.4661 26.6169 30.1822 27.3766 30.3059C28.1364 30.4295 28.8525 29.9138 28.9761 29.1541Z" fill="#E7ECF1"/>
<path d="M24.3947 13.2113C25.1645 13.2113 25.7885 12.5873 25.7885 11.8176C25.7885 11.0478 25.1645 10.4238 24.3947 10.4238C23.625 10.4238 23.001 11.0478 23.001 11.8176C23.001 12.5873 23.625 13.2113 24.3947 13.2113Z" fill="#E7ECF1"/>
<path d="M38.0991 19.3545C38.484 19.3545 38.7959 19.0426 38.7959 18.6577C38.7959 18.2729 38.484 17.9609 38.0991 17.9609C37.7143 17.9609 37.4023 18.2729 37.4023 18.6577C37.4023 19.0426 37.7143 19.3545 38.0991 19.3545Z" fill="#E7ECF1"/>
<path d="M27.0086 17.8482C25.7233 16.8922 23.6755 17.0426 22.6198 18.2344C23.1631 17.1941 21.5783 15.1802 20.2068 14.8262C19.6403 14.5766 18.571 14.3874 17.0983 14.9856C15.8211 15.5045 14.9084 16.7597 14.7596 18.0957C13.8881 17.4637 12.6763 17.3742 11.6479 17.7189C10.6196 18.0634 9.76537 18.7976 9.12985 19.6544C8.12249 21.0127 7.62873 22.8554 8.32505 24.3863C9.02137 25.9173 11.1611 26.808 12.5983 25.883C12.1825 27.7032 13.4249 29.7323 15.2711 30.2482C17.1174 30.764 19.2812 29.6864 19.9263 27.9303C20.9428 28.8923 22.7486 28.9091 23.7839 27.9663C24.8193 27.0234 24.9166 25.2734 23.9918 24.2278C25.6041 24.375 27.2918 23.5147 27.994 22.0986C28.6961 20.6826 28.2939 18.8042 27.0086 17.8482Z" fill="#E7ECF1"/>
<path d="M45.0791 12.6167C45.1401 12.3921 45.214 12.2126 45.2439 12.2169C45.2738 12.2214 45.2799 12.4129 45.2577 12.6433C45.2354 12.8735 45.1617 13.053 45.0929 13.043C45.0242 13.0327 45.0182 12.8412 45.0791 12.6167Z" fill="#7F8086"/>
<path d="M44.0672 11.7634C44.3136 11.699 44.5232 11.667 44.5339 11.6922C44.5445 11.7175 44.3634 11.8178 44.1309 11.9159C43.8986 12.0138 43.689 12.046 43.6643 11.9871C43.6398 11.9281 43.821 11.8278 44.0672 11.7634Z" fill="#7F8086"/>
<path d="M44.3845 10.552C44.5694 10.7123 44.7048 10.8598 44.6858 10.8809C44.6666 10.9019 44.4797 10.8105 44.2696 10.6777C44.0595 10.5451 43.9242 10.3976 43.9683 10.3489C44.0128 10.3005 44.1997 10.3918 44.3845 10.552Z" fill="#7F8086"/>
<path d="M45.7056 10.1902C45.6447 10.4148 45.5707 10.5943 45.5408 10.59C45.5109 10.5855 45.5048 10.394 45.5271 10.1638C45.5493 9.93352 45.6231 9.754 45.6919 9.76408C45.7605 9.77432 45.7664 9.96568 45.7056 10.1902Z" fill="#7F8086"/>
<path d="M46.7172 11.0403C46.4708 11.1047 46.2612 11.1367 46.2504 11.1115C46.2399 11.0862 46.421 10.9857 46.6535 10.8878C46.8858 10.7899 47.0954 10.7577 47.12 10.8166C47.1447 10.8755 46.9636 10.9758 46.7172 11.0403Z" fill="#7F8086"/>
<path d="M46.4017 12.2558C46.2167 12.0955 46.0814 11.9478 46.1004 11.9268C46.1196 11.9059 46.3065 11.9972 46.5166 12.13C46.7267 12.2627 46.862 12.4103 46.8179 12.4588C46.7734 12.5073 46.5865 12.4159 46.4017 12.2558Z" fill="#7F8086"/>
<path d="M70.8067 23.9273C70.8677 23.7026 70.9416 23.5231 70.9715 23.5274C71.0014 23.5319 71.0075 23.7234 70.9853 23.9538C70.963 24.1841 70.8893 24.3636 70.8205 24.3535C70.7517 24.3431 70.7457 24.1516 70.8067 23.9273Z" fill="#7F8086"/>
<path d="M69.7977 23.072C70.0441 23.0076 70.2537 22.9756 70.2644 23.0008C70.275 23.0261 70.0938 23.1264 69.8614 23.2245C69.629 23.3224 69.4194 23.3546 69.3948 23.2957C69.3703 23.2368 69.5514 23.1364 69.7977 23.072Z" fill="#7F8086"/>
<path d="M70.112 21.8606C70.297 22.0209 70.4323 22.1684 70.4133 22.1895C70.3941 22.2105 70.2072 22.1191 69.9971 21.9863C69.7871 21.8537 69.6517 21.706 69.6959 21.6575C69.7403 21.6091 69.9272 21.7004 70.112 21.8606Z" fill="#7F8086"/>
<path d="M71.4361 21.4988C71.3751 21.7234 71.3012 21.9029 71.2713 21.8986C71.2414 21.8941 71.2353 21.7026 71.2575 21.4724C71.2798 21.2421 71.3535 21.0626 71.4223 21.0727C71.4911 21.0829 71.497 21.2744 71.4361 21.4988Z" fill="#7F8086"/>
<path d="M72.4457 22.3489C72.1991 22.4133 71.9897 22.4453 71.979 22.4201C71.9684 22.3948 72.1495 22.2943 72.382 22.1964C72.6143 22.0985 72.8239 22.0663 72.8486 22.1252C72.873 22.1842 72.6919 22.2845 72.4457 22.3489Z" fill="#7F8086"/>
<path d="M72.1292 23.5643C71.9443 23.404 71.8089 23.2563 71.828 23.2354C71.8472 23.2146 72.034 23.3058 72.2441 23.4386C72.4542 23.5712 72.5896 23.7189 72.5454 23.7674C72.5009 23.8159 72.314 23.7245 72.1292 23.5643Z" fill="#7F8086"/>
<path d="M31.867 13.8032C32.2228 13.7107 32.5219 13.6575 32.5319 13.685C32.5417 13.7127 32.2777 13.8627 31.9449 14.0187C31.6123 14.1747 31.3134 14.2283 31.2801 14.1368C31.2473 14.0455 31.5115 13.8957 31.867 13.8032Z" fill="#EBEBEB"/>
<path d="M32.4724 12.1983C32.6697 12.5085 32.8126 12.7765 32.7899 12.7943C32.7668 12.8117 32.5428 12.6067 32.2913 12.3386C32.0401 12.0706 31.8969 11.8027 31.974 11.7427C32.0513 11.6831 32.2753 11.8883 32.4724 12.1983Z" fill="#EBEBEB"/>
<path d="M34.1897 12.2758C33.9563 12.5598 33.7459 12.7789 33.7217 12.7627C33.6977 12.7462 33.823 12.4696 34.0001 12.1474C34.1771 11.8254 34.3873 11.6062 34.4679 11.6606C34.5484 11.7154 34.423 11.992 34.1897 12.2758Z" fill="#EBEBEB"/>
<path d="M34.644 13.9317C34.3017 13.7975 34.0285 13.665 34.0363 13.6368C34.0446 13.6088 34.3465 13.6424 34.7075 13.7117C35.0683 13.7808 35.3417 13.913 35.3149 14.0064C35.2877 14.0999 34.9859 14.0659 34.644 13.9317Z" fill="#EBEBEB"/>
<path d="M33.2116 14.874C33.2336 14.5072 33.2751 14.2062 33.3039 14.2051C33.3327 14.2043 33.394 14.5019 33.4402 14.8665C33.4864 15.231 33.4453 15.532 33.3479 15.5353C33.2504 15.5384 33.1895 15.2408 33.2116 14.874Z" fill="#EBEBEB"/>
<path d="M76.9657 75.5748C76.9657 75.5978 60.4145 75.6164 40.0022 75.6164C19.5828 75.6164 3.03516 75.5978 3.03516 75.5748C3.03516 75.5518 19.5828 75.5332 40.0022 75.5332C60.4145 75.5332 76.9657 75.5519 76.9657 75.5748Z" fill="#263238"/>
<path d="M6.72841 31.3898C6.80377 31.1156 6.88361 30.8946 6.90601 30.8985C6.92841 30.9026 6.92697 31.1375 6.90297 31.4209C6.87913 31.7041 6.79945 31.9252 6.72537 31.9121C6.65145 31.8988 6.65305 31.6638 6.72841 31.3898Z" fill="#FF725E"/>
<path d="M5.88594 30.3614C6.1701 30.3489 6.40498 30.3568 6.40818 30.3788C6.41106 30.4009 6.18706 30.472 5.9101 30.5369C5.63346 30.6019 5.39858 30.5944 5.38802 30.5195C5.37794 30.4446 5.60194 30.3739 5.88594 30.3614Z" fill="#FF725E"/>
<path d="M6.60196 29.2443C6.70212 29.5103 6.76772 29.7361 6.74756 29.746C6.72724 29.7558 6.59028 29.5649 6.44276 29.3217C6.29524 29.0787 6.22948 28.8532 6.29716 28.8201C6.36484 28.7871 6.5018 28.9782 6.60196 29.2443Z" fill="#FF725E"/>
<path d="M7.88663 29.5755C7.66455 29.7531 7.47015 29.8851 7.45431 29.8689C7.43879 29.8525 7.57799 29.6632 7.76375 29.448C7.94935 29.2328 8.14375 29.1006 8.19591 29.1547C8.24791 29.2089 8.10855 29.3981 7.88663 29.5755Z" fill="#FF725E"/>
<path d="M7.96693 30.9016C7.72949 30.7451 7.54373 30.6011 7.55413 30.5813C7.56485 30.5616 7.78789 30.6355 8.05013 30.7453C8.31237 30.8551 8.49813 30.9989 8.46277 31.0656C8.42709 31.1322 8.20421 31.0581 7.96693 30.9016Z" fill="#FF725E"/>
<path d="M8.00865 44.4492C8.03953 44.3351 8.07713 44.244 8.09233 44.2461C8.10753 44.2484 8.11057 44.3456 8.09937 44.4626C8.08817 44.5794 8.05057 44.6706 8.01569 44.6655C7.98081 44.6604 7.97761 44.5631 8.00865 44.4492Z" fill="#FF725E"/>
<path d="M7.49565 44.0112C7.62077 43.9786 7.72717 43.9623 7.73261 43.9751C7.73789 43.9879 7.64605 44.0389 7.52797 44.0887C7.41005 44.1384 7.30365 44.1547 7.29117 44.1248C7.27869 44.0947 7.37053 44.0439 7.49565 44.0112Z" fill="#FF725E"/>
<path d="M7.657 43.4007C7.75092 43.4819 7.81956 43.557 7.80996 43.5677C7.8002 43.5783 7.70532 43.532 7.5986 43.4645C7.49204 43.3971 7.42324 43.3223 7.44564 43.2976C7.4682 43.273 7.56308 43.3194 7.657 43.4007Z" fill="#FF725E"/>
<path d="M8.32793 43.2125C8.29705 43.3265 8.25945 43.4176 8.24425 43.4155C8.22905 43.4133 8.22601 43.316 8.23721 43.1992C8.24841 43.0824 8.28601 42.9912 8.32089 42.9963C8.35577 43.0014 8.35881 43.0985 8.32793 43.2125Z" fill="#FF725E"/>
<path d="M8.83972 43.6462C8.7146 43.6788 8.6082 43.6951 8.60276 43.6823C8.59748 43.6695 8.68932 43.6185 8.8074 43.5687C8.92532 43.519 9.03172 43.5026 9.0442 43.5326C9.05668 43.5625 8.96468 43.6134 8.83972 43.6462Z" fill="#FF725E"/>
<path d="M8.6812 44.2623C8.58728 44.1809 8.51864 44.106 8.52824 44.0953C8.538 44.0847 8.63288 44.1309 8.7396 44.1985C8.84616 44.2658 8.91496 44.3407 8.89256 44.3653C8.86984 44.39 8.77512 44.3436 8.6812 44.2623Z" fill="#FF725E"/>
<path d="M32.5603 24.8242C32.5912 24.7101 32.6288 24.619 32.644 24.6211C32.6592 24.6234 32.6623 24.7207 32.6511 24.8376C32.6399 24.9544 32.6023 25.0456 32.5674 25.0405C32.5325 25.0354 32.5295 24.9381 32.5603 24.8242Z" fill="#FF725E"/>
<path d="M32.0464 24.3921C32.1716 24.3594 32.278 24.3431 32.2834 24.3559C32.2887 24.3687 32.1968 24.4198 32.0788 24.4695C31.9608 24.5193 31.8544 24.5356 31.842 24.5057C31.8295 24.4756 31.9213 24.4247 32.0464 24.3921Z" fill="#FF725E"/>
<path d="M32.2078 23.7776C32.3017 23.8589 32.3703 23.9339 32.3607 23.9447C32.351 23.9552 32.2561 23.909 32.1494 23.8415C32.0428 23.7741 31.974 23.6992 31.9964 23.6746C32.019 23.6499 32.1139 23.6963 32.2078 23.7776Z" fill="#FF725E"/>
<path d="M32.8787 23.5935C32.8478 23.7076 32.8102 23.7986 32.795 23.7965C32.7798 23.7943 32.7768 23.697 32.788 23.58C32.7992 23.4632 32.8368 23.372 32.8717 23.3772C32.9065 23.3824 32.9096 23.4796 32.8787 23.5935Z" fill="#FF725E"/>
<path d="M33.3905 24.027C33.2654 24.0597 33.159 24.076 33.1535 24.0632C33.1483 24.0504 33.2401 23.9993 33.3582 23.9496C33.4761 23.8998 33.5825 23.8835 33.595 23.9134C33.6075 23.9433 33.5155 23.9944 33.3905 24.027Z" fill="#FF725E"/>
<path d="M33.232 24.6432C33.1381 24.5619 33.0694 24.4868 33.079 24.4761C33.0888 24.4656 33.1837 24.5118 33.2904 24.5793C33.3969 24.6467 33.4657 24.7216 33.4433 24.7462C33.4206 24.7708 33.3259 24.7244 33.232 24.6432Z" fill="#FF725E"/>
<path d="M15.7312 11.6816C15.7621 11.5675 15.7997 11.4765 15.8149 11.4786C15.8301 11.4808 15.8332 11.5781 15.822 11.695C15.8108 11.8118 15.7732 11.903 15.7383 11.8979C15.7034 11.8928 15.7004 11.7955 15.7312 11.6816Z" fill="#FF725E"/>
<path d="M15.2173 11.2495C15.3425 11.2169 15.4489 11.2006 15.4543 11.2134C15.4596 11.2262 15.3677 11.2772 15.2497 11.327C15.1317 11.3767 15.0253 11.393 15.0129 11.3631C15.0004 11.333 15.0924 11.2822 15.2173 11.2495Z" fill="#FF725E"/>
<path d="M15.3785 10.635C15.4724 10.7163 15.5411 10.7914 15.5315 10.8021C15.5217 10.8126 15.4268 10.7664 15.3203 10.6989C15.2137 10.6315 15.1449 10.5566 15.1673 10.532C15.1899 10.5074 15.2848 10.5538 15.3785 10.635Z" fill="#FF725E"/>
<path d="M16.0496 10.4509C16.0187 10.565 15.9811 10.656 15.9659 10.6539C15.9507 10.6517 15.9477 10.5544 15.9589 10.4375C15.9701 10.3207 16.0077 10.2295 16.0426 10.2346C16.0776 10.2399 16.0806 10.337 16.0496 10.4509Z" fill="#FF725E"/>
<path d="M16.5614 10.8844C16.4363 10.9171 16.3299 10.9334 16.3244 10.9206C16.3192 10.9078 16.411 10.8568 16.5291 10.807C16.647 10.7572 16.7534 10.7409 16.7659 10.7708C16.7784 10.8008 16.6865 10.8518 16.5614 10.8844Z" fill="#FF725E"/>
<path d="M16.4029 11.5006C16.309 11.4193 16.2402 11.3443 16.2499 11.3335C16.2597 11.323 16.3546 11.3692 16.4613 11.4367C16.5679 11.5041 16.6367 11.579 16.6143 11.6036C16.5915 11.6283 16.4967 11.5819 16.4029 11.5006Z" fill="#FF725E"/>
<path d="M67.7322 14.7578C67.7631 14.6437 67.8007 14.5526 67.8159 14.5547C67.8311 14.557 67.8341 14.6542 67.8229 14.7712C67.8117 14.888 67.7741 14.9792 67.7393 14.9741C67.7044 14.9688 67.7013 14.8717 67.7322 14.7578Z" fill="#FF725E"/>
<path d="M67.2183 14.3198C67.3434 14.2872 67.4498 14.2709 67.4553 14.2837C67.4606 14.2965 67.3687 14.3475 67.2506 14.3973C67.1327 14.447 67.0263 14.4633 67.0138 14.4334C67.0014 14.4035 67.0932 14.3526 67.2183 14.3198Z" fill="#FF725E"/>
<path d="M67.3797 13.7054C67.4736 13.7866 67.5424 13.8617 67.5326 13.8724C67.5229 13.883 67.428 13.8367 67.3213 13.7692C67.2147 13.7018 67.1459 13.627 67.1683 13.6023C67.1909 13.5777 67.2857 13.6241 67.3797 13.7054Z" fill="#FF725E"/>
<path d="M68.0506 13.5212C68.0197 13.6353 67.9821 13.7263 67.9669 13.7243C67.9517 13.722 67.9487 13.6247 67.9599 13.5078C67.9711 13.391 68.0087 13.2998 68.0435 13.3049C68.0784 13.31 68.0815 13.4073 68.0506 13.5212Z" fill="#FF725E"/>
<path d="M68.5624 13.9548C68.4373 13.9874 68.3309 14.0037 68.3254 13.9909C68.3201 13.9781 68.412 13.9271 68.5301 13.8773C68.648 13.8276 68.7544 13.8112 68.7669 13.8412C68.7793 13.8712 68.6873 13.9221 68.5624 13.9548Z" fill="#FF725E"/>
<path d="M68.4039 14.5709C68.3099 14.4896 68.2413 14.4146 68.2509 14.4038C68.2607 14.3933 68.3555 14.4395 68.4623 14.507C68.5688 14.5744 68.6376 14.6493 68.6152 14.6739C68.5925 14.6986 68.4978 14.6522 68.4039 14.5709Z" fill="#FF725E"/>
<path d="M64.9609 27.9429C65.0219 27.7182 65.0958 27.5387 65.1257 27.543C65.1557 27.5475 65.1617 27.739 65.1395 27.9694C65.1173 28.1997 65.0435 28.3792 64.9747 28.3691C64.9061 28.3587 64.9 28.1674 64.9609 27.9429Z" fill="#FF725E"/>
<path d="M63.95 27.0896C64.1966 27.0251 64.406 26.9931 64.4168 27.0184C64.4272 27.0437 64.2462 27.144 64.0137 27.2421C63.7814 27.34 63.5718 27.3722 63.5472 27.3133C63.5225 27.2543 63.7036 27.1539 63.95 27.0896Z" fill="#FF725E"/>
<path d="M64.2644 25.8742C64.4493 26.0346 64.5847 26.1821 64.5656 26.2032C64.5464 26.2242 64.3596 26.1328 64.1495 26C63.9394 25.8674 63.804 25.7198 63.8482 25.6712C63.8927 25.6227 64.0794 25.7141 64.2644 25.8742Z" fill="#FF725E"/>
<path d="M65.5884 25.5163C65.5275 25.741 65.4535 25.9205 65.4236 25.9162C65.3937 25.9117 65.3876 25.7202 65.4099 25.4899C65.4321 25.2597 65.5059 25.0802 65.5747 25.0902C65.6433 25.1005 65.6494 25.2918 65.5884 25.5163Z" fill="#FF725E"/>
<path d="M66.598 26.3664C66.3516 26.4309 66.142 26.4629 66.1313 26.4376C66.1209 26.4124 66.3018 26.3119 66.5343 26.214C66.7666 26.116 66.9762 26.0839 67.0009 26.1428C67.0254 26.2016 66.8442 26.302 66.598 26.3664Z" fill="#FF725E"/>
<path d="M66.2835 27.5819C66.0986 27.4216 65.9632 27.2739 65.9823 27.253C66.0015 27.2322 66.1883 27.3234 66.3984 27.4562C66.6085 27.5888 66.7439 27.7365 66.6997 27.7851C66.6554 27.8334 66.4685 27.7421 66.2835 27.5819Z" fill="#FF725E"/>
<path d="M51.2608 17.7124C51.3217 17.4878 51.3956 17.3083 51.4256 17.3126C51.4555 17.3171 51.4616 17.5086 51.4393 17.739C51.4171 17.9692 51.3433 18.1487 51.2745 18.1387C51.2059 18.1283 51.1998 17.9369 51.2608 17.7124Z" fill="#FF725E"/>
<path d="M50.2518 16.8592C50.4983 16.7947 50.7078 16.7627 50.7185 16.788C50.7289 16.8132 50.5479 16.9137 50.3155 17.0116C50.0831 17.1096 49.8735 17.1417 49.8489 17.0828C49.8244 17.024 50.0055 16.9236 50.2518 16.8592Z" fill="#FF725E"/>
<path d="M50.5671 15.6477C50.752 15.8081 50.8874 15.9557 50.8684 15.9767C50.8492 15.9977 50.6623 15.9063 50.4522 15.7735C50.2421 15.6409 50.1068 15.4932 50.1509 15.4447C50.1954 15.3961 50.3821 15.4876 50.5671 15.6477Z" fill="#FF725E"/>
<path d="M51.8902 15.2859C51.8292 15.5105 51.7553 15.69 51.7254 15.6857C51.6955 15.6812 51.6894 15.4897 51.7116 15.2595C51.7339 15.0292 51.8076 14.8496 51.8764 14.8598C51.9451 14.87 51.9511 15.0614 51.8902 15.2859Z" fill="#FF725E"/>
<path d="M52.8998 16.1379C52.6534 16.2024 52.4438 16.2344 52.433 16.2091C52.4226 16.1838 52.6036 16.0834 52.8361 15.9854C53.0684 15.8875 53.278 15.8554 53.3026 15.9142C53.3273 15.9731 53.1462 16.0734 52.8998 16.1379Z" fill="#FF725E"/>
<path d="M52.5833 17.3514C52.3984 17.1911 52.263 17.0434 52.2821 17.0225C52.3013 17.0017 52.4881 17.0929 52.6982 17.2257C52.9083 17.3583 53.0437 17.506 52.9995 17.5546C52.955 17.6031 52.7683 17.5116 52.5833 17.3514Z" fill="#FF725E"/>
<path d="M42.2003 34.6134C42.3067 34.2265 42.4193 33.9147 42.4508 33.92C42.4823 33.9259 42.4804 34.2574 42.4467 34.6573C42.4129 35.0569 42.3006 35.3688 42.1961 35.3505C42.0916 35.3317 42.094 35.0001 42.2003 34.6134Z" fill="#FF725E"/>
<path d="M41.0126 33.1646C41.4136 33.147 41.7449 33.1581 41.7494 33.1893C41.7534 33.2205 41.4374 33.3208 41.0467 33.4125C40.6563 33.504 40.3249 33.4934 40.31 33.3878C40.2958 33.2822 40.612 33.1822 41.0126 33.1646Z" fill="#FF725E"/>
<path d="M42.0224 31.5841C42.1638 31.9597 42.2563 32.278 42.2278 32.2922C42.1992 32.3058 42.0058 32.0365 41.7976 31.6935C41.5896 31.3506 41.4968 31.0324 41.5923 30.9857C41.688 30.9393 41.8811 31.2089 42.0224 31.5841Z" fill="#FF725E"/>
<path d="M43.8354 32.0563C43.522 32.3068 43.2477 32.4931 43.2253 32.4704C43.2032 32.4472 43.3997 32.1801 43.662 31.8763C43.9239 31.5726 44.1981 31.3862 44.2719 31.4624C44.3453 31.539 44.1487 31.8059 43.8354 32.0563Z" fill="#FF725E"/>
<path d="M43.9482 33.9291C43.6132 33.7081 43.3513 33.5049 43.3658 33.4771C43.3809 33.4494 43.6956 33.5537 44.0658 33.7086C44.4357 33.8635 44.698 34.0664 44.648 34.1605C44.5976 34.2544 44.2831 34.1497 43.9482 33.9291Z" fill="#FF725E"/>
<path d="M56.8249 42.4531H26.6553V44.3939V45.3072V71.513C26.6553 73.7482 28.4673 75.5602 30.7025 75.5602H49.322C51.5572 75.5602 53.3692 73.7482 53.3692 71.513V45.4851L56.8249 42.4531Z" fill="white"/>
<path d="M56.8248 42.4535C56.741 42.5276 55.6032 43.5328 53.3796 45.4973L53.385 45.4855C53.3888 50.0018 53.3954 57.6767 53.4036 67.3841C53.404 68.5977 53.4047 69.8429 53.4052 71.1178C53.4048 71.4349 53.4101 71.7602 53.3613 72.0823L53.3245 72.3237C53.3068 72.4032 53.2847 72.482 53.2648 72.5613C53.2308 72.7218 53.1677 72.8738 53.1122 73.0285C52.8743 73.6429 52.4645 74.1916 51.958 74.6309C51.4458 75.0664 50.816 75.3695 50.1466 75.5154L49.8922 75.5545C49.8074 75.5681 49.7224 75.5821 49.636 75.5831C49.4639 75.5924 49.2912 75.6026 49.1204 75.5991C48.7775 75.5992 48.433 75.5992 48.0869 75.5994C46.7026 75.5997 45.2933 75.6 43.861 75.6005C40.9964 75.601 38.0399 75.6015 35.0093 75.602C34.2517 75.6021 33.4895 75.6021 32.7228 75.6021C32.3394 75.6021 31.9551 75.6021 31.5696 75.6023H30.9906H30.7005L30.4074 75.5876C30.0181 75.5573 29.6279 75.4823 29.262 75.3365L29.1234 75.2858C29.078 75.2669 29.0344 75.2437 28.9898 75.2229C28.9018 75.1789 28.8108 75.1402 28.725 75.0917C28.5559 74.99 28.3852 74.8904 28.2311 74.7656C27.9172 74.5264 27.6312 74.2449 27.4018 73.92C27.1695 73.5989 26.9732 73.2464 26.8477 72.8671C26.7794 72.7044 26.7506 72.5293 26.7026 72.3605C26.6847 72.2746 26.6748 72.1873 26.6605 72.1007C26.6479 72.014 26.6308 71.9276 26.6301 71.8397C26.6044 71.4882 26.6167 71.1442 26.6136 70.7983C26.6136 70.1072 26.6136 69.4194 26.6136 68.7346C26.6138 67.365 26.6138 66.0082 26.614 64.6658C26.6143 61.9812 26.6148 59.3546 26.6151 56.8004C26.6165 51.6919 26.618 46.872 26.6192 42.454V42.418H26.6552C44.7468 42.4391 56.518 42.4532 56.8248 42.4535C56.5183 42.4538 44.7468 42.4679 26.6552 42.4895L26.6912 42.4535C26.6925 46.8716 26.694 51.6912 26.6954 56.7999C26.6957 59.3541 26.6962 61.9807 26.6965 64.6653C26.6967 66.0076 26.6967 67.3645 26.6968 68.7341C26.6968 69.4189 26.6968 70.1069 26.6968 70.7978C26.6999 71.1426 26.6877 71.4916 26.713 71.8327C26.7135 71.9188 26.7304 72.0032 26.7428 72.0884C26.7568 72.1732 26.7664 72.2588 26.7839 72.3429C26.8311 72.5082 26.8589 72.6796 26.9261 72.8389C27.0488 73.2106 27.2412 73.5557 27.4688 73.8704C27.6935 74.1888 27.9736 74.4645 28.2812 74.6989C28.432 74.8213 28.5996 74.9186 28.765 75.0184C28.849 75.066 28.9383 75.1037 29.0245 75.1469C29.0682 75.1674 29.1109 75.19 29.1554 75.2085L29.2912 75.2581C29.6498 75.4012 30.0319 75.4744 30.4133 75.5042L30.7005 75.5188L30.9906 75.5189H31.5696C31.9551 75.5189 32.3396 75.5189 32.7228 75.5189C33.4893 75.5189 34.2517 75.5191 35.0093 75.5191C38.0399 75.5196 40.9964 75.5201 43.861 75.5205C45.2933 75.5208 46.7028 75.5212 48.0869 75.5215C48.433 75.5216 48.7775 75.5216 49.1204 75.5218C49.2925 75.5253 49.4615 75.5151 49.6301 75.5063C49.7149 75.5055 49.7983 75.4917 49.8815 75.4785L50.1312 75.4404C50.788 75.2973 51.4064 75.0007 51.9095 74.5733C52.4069 74.1423 52.81 73.604 53.0437 73.0008C53.0983 72.8488 53.1605 72.6999 53.194 72.5423C53.2135 72.4644 53.2352 72.3871 53.2528 72.309L53.2892 72.0719C53.3372 71.7562 53.3324 71.4368 53.333 71.1175C53.3335 69.8426 53.3341 68.5973 53.3346 67.3837C53.3428 57.6764 53.3493 50.0016 53.3532 45.4852V45.478L53.3586 45.4733C55.5957 43.5244 56.7405 42.5269 56.8248 42.4535Z" fill="#263238"/>
<path d="M54.7771 42.4512H28.3271V44.2721V45.1291V69.7181C28.3271 71.8153 29.9158 73.5155 31.8753 73.5155H48.1992C50.1588 73.5155 51.7473 71.8153 51.7473 69.7181V45.2961L54.7771 42.4512Z" fill="#E0E0E0"/>
<path d="M51.7467 52.1519C50.9766 51.7355 50.3292 51.7694 49.4588 51.9191C48.5884 52.0689 47.766 52.4009 46.943 52.7107C43.2063 54.1174 39.0126 55.1062 35.215 53.8587C34.3451 53.5729 33.5177 53.1755 32.6406 52.9108C31.7635 52.6462 30.8044 52.5199 29.9289 52.7894C29.0534 53.0588 28.3755 54.0278 28.3262 54.9076L30.0363 59.6535L42.3217 61.8116L47.4406 60.6999L51.7467 52.1519Z" fill="#E68957"/>
<g opacity="0.3">
<path d="M51.747 52.1519C50.9769 51.7355 50.3296 51.7694 49.4592 51.9191C48.5888 52.0689 47.7664 52.4009 46.9433 52.7107C43.2067 54.1174 39.0129 55.1062 35.2153 53.8587C34.3454 53.5729 33.518 53.1755 32.6409 52.9108C31.7638 52.6462 30.8048 52.5199 29.9292 52.7894C29.0537 53.0588 28.4339 53.7687 28.3848 54.6484L30.0366 59.6534L42.322 61.8115L47.4409 60.6998L51.747 52.1519Z" fill="white"/>
</g>
<path d="M51.7465 52.1523V69.8747C51.7465 71.972 50.1579 73.6722 48.1983 73.6722H31.8743C29.9147 73.6722 28.3262 71.972 28.3262 69.8747V54.8138C28.3262 54.8138 29.735 56.964 35.8667 56.7962C41.9982 56.6283 51.7465 52.1523 51.7465 52.1523Z" fill="#E68957"/>
<g opacity="0.3">
<path d="M51.747 42.457L48.8945 45.585V73.6002C50.4704 73.5983 51.7469 72.3202 51.7469 70.7442V45.5849L54.8286 42.5031L51.747 42.457Z" fill="white"/>
</g>
<path d="M46.5771 53.8814C46.5771 53.8584 48.0959 53.8398 49.9688 53.8398C51.8424 53.8398 53.3608 53.8586 53.3608 53.8814C53.3608 53.9043 51.8424 53.923 49.9688 53.923C48.0959 53.923 46.5771 53.9043 46.5771 53.8814Z" fill="#263238"/>
<path d="M46.7393 45.5631C46.7393 45.54 48.258 45.5215 50.1309 45.5215C52.0045 45.5215 53.5229 45.5402 53.5229 45.5631C53.5229 45.5861 52.0045 45.6047 50.1309 45.6047C48.258 45.6048 46.7393 45.5861 46.7393 45.5631Z" fill="#263238"/>
<path d="M43.8955 58.4205C43.8955 58.3975 46.015 58.3789 48.629 58.3789C51.2438 58.3789 53.3629 58.3976 53.3629 58.4205C53.3629 58.4434 51.2438 58.4621 48.629 58.4621C46.015 58.4621 43.8955 58.4434 43.8955 58.4205Z" fill="#263238"/>
<path d="M46.8975 62.9596C46.8975 62.9365 48.3445 62.918 50.129 62.918C51.9143 62.918 53.361 62.9365 53.361 62.9596C53.361 62.9826 51.9143 63.0012 50.129 63.0012C48.3445 63.0012 46.8975 62.9826 46.8975 62.9596Z" fill="#263238"/>
<path d="M43.8955 67.4967C43.8955 67.4736 46.015 67.4551 48.629 67.4551C51.2438 67.4551 53.3629 67.4738 53.3629 67.4967C53.3629 67.5197 51.2438 67.5383 48.629 67.5383C46.015 67.5383 43.8955 67.5197 43.8955 67.4967Z" fill="#263238"/>
<path d="M56.8249 42.4499C56.8249 42.4729 50.0708 42.5086 41.7409 42.5296C33.4081 42.5507 26.6553 42.5489 26.6553 42.5261C26.6553 42.503 33.4079 42.4673 41.7407 42.4464C50.0705 42.4254 56.8247 42.427 56.8249 42.4499Z" fill="#263238"/>
<g opacity="0.3">
<path d="M31.0212 42.5273C31.0212 42.5273 30.7228 68.8027 31.3196 69.9001C31.9164 70.9976 32.5878 71.9806 38.5558 72.4589C44.5238 72.9371 45.3442 73.5339 45.3442 73.5339L31.9207 73.666C29.9734 73.6852 28.3844 72.1118 28.3844 70.1645L28.3262 42.4512L31.0212 42.5273Z" fill="black"/>
</g>
<path d="M43.8955 49.3404C43.8955 49.3174 46.015 49.2988 48.629 49.2988C51.2438 49.2988 53.3629 49.3175 53.3629 49.3404C53.3629 49.3635 51.2438 49.382 48.629 49.382C46.015 49.382 43.8955 49.3633 43.8955 49.3404Z" fill="#263238"/>
<path d="M57.1431 42.4889H26.0639C25.6764 42.4889 25.3623 42.1748 25.3623 41.7873V41.6996C25.3623 41.3121 25.6764 40.998 26.0639 40.998H57.1431C57.5306 40.998 57.8447 41.3121 57.8447 41.6996V41.7873C57.8447 42.1748 57.5306 42.4889 57.1431 42.4889Z" fill="white"/>
<path d="M57.1433 42.4875C57.1429 42.4837 57.2026 42.4889 57.3127 42.4616C57.4201 42.4344 57.586 42.3614 57.7135 42.1795C57.7748 42.0891 57.8234 41.9713 57.8319 41.8361C57.8383 41.7009 57.8385 41.5472 57.7653 41.4029C57.6973 41.2592 57.5693 41.1273 57.3978 41.0601C57.2268 40.9872 57.0223 41.019 56.8121 41.0128C55.1215 41.016 52.6786 41.0205 49.6604 41.0261C43.6201 41.0291 35.2786 41.0334 26.0657 41.0382C25.7919 41.0333 25.5319 41.2193 25.4436 41.4752C25.421 41.5384 25.4068 41.6051 25.4055 41.6723C25.4031 41.7414 25.4023 41.8144 25.4114 41.8787C25.4293 42.0115 25.4901 42.1382 25.582 42.2355C25.6727 42.3342 25.7945 42.4021 25.9245 42.4309C26.0522 42.4565 26.1989 42.4421 26.3391 42.4459C26.6217 42.4459 26.9031 42.4459 27.1836 42.4461C28.3057 42.4462 29.4111 42.4465 30.4975 42.4467C32.6701 42.4475 34.7658 42.4483 36.7621 42.4491C40.7545 42.4525 44.3498 42.4555 47.3698 42.4581C50.3881 42.4637 52.8308 42.4681 54.5212 42.4713C55.3642 42.4747 56.0191 42.4774 56.4655 42.4792C56.6865 42.4809 56.8554 42.4824 56.9711 42.4833C57.0849 42.4848 57.1433 42.4875 57.1433 42.4875C57.1433 42.4875 57.0849 42.4904 56.9709 42.4918C56.8551 42.4928 56.6863 42.4941 56.4653 42.496C56.0189 42.4977 55.3641 42.5005 54.521 42.5038C52.8308 42.507 50.3881 42.5115 47.3697 42.5171C44.3497 42.5197 40.7545 42.5227 36.762 42.5261C34.7655 42.5269 32.6698 42.5277 30.4973 42.5285C29.4109 42.5286 28.3055 42.5289 27.1834 42.5291C26.9029 42.5291 26.6213 42.5291 26.3389 42.5293C26.1977 42.5248 26.0583 42.5413 25.9068 42.5123C25.7601 42.48 25.6229 42.4033 25.5209 42.2925C25.4175 42.1832 25.349 42.0403 25.3287 41.8905C25.3183 41.8134 25.3196 41.7429 25.322 41.6694C25.3236 41.5937 25.3394 41.5185 25.365 41.4473C25.4644 41.159 25.7575 40.9497 26.0655 40.9552C35.2785 40.96 43.6199 40.9643 49.6602 40.9673C52.6785 40.9729 55.1215 40.9774 56.8119 40.9806C56.9175 40.9809 57.0201 40.9813 57.1196 40.9816C57.2202 40.9808 57.3201 40.9976 57.4082 41.0339C57.5863 41.1053 57.7181 41.2432 57.7874 41.3926C57.862 41.5432 57.8604 41.7021 57.8524 41.8381C57.8423 41.9773 57.7909 42.0976 57.7271 42.1894C57.5941 42.3742 57.4237 42.4454 57.3145 42.4702C57.2026 42.4949 57.1433 42.4875 57.1433 42.4875Z" fill="#263238"/>
<g opacity="0.2">
<path d="M35.5263 67.0077C36.3822 67.0077 37.0761 66.3139 37.0761 65.458C37.0761 64.6021 36.3822 63.9082 35.5263 63.9082C34.6704 63.9082 33.9766 64.6021 33.9766 65.458C33.9766 66.3139 34.6704 67.0077 35.5263 67.0077Z" fill="black"/>
</g>
<g opacity="0.2">
<path d="M36.3017 61.7964C36.3017 62.2244 35.9548 62.5712 35.5268 62.5712C35.0988 62.5712 34.752 62.2244 34.752 61.7964C34.752 61.3684 35.0988 61.0215 35.5268 61.0215C35.9547 61.0215 36.3017 61.3684 36.3017 61.7964Z" fill="black"/>
</g>
<g opacity="0.2">
<path d="M47.0009 70.771C47.0009 71.199 46.6541 71.5459 46.2261 71.5459C45.7981 71.5459 45.4512 71.199 45.4512 70.771C45.4512 70.343 45.7981 69.9961 46.2261 69.9961C46.6541 69.9961 47.0009 70.343 47.0009 70.771Z" fill="black"/>
</g>
<g opacity="0.2">
<path d="M43.0698 65.8465C43.0698 66.0604 42.8964 66.2339 42.6823 66.2339C42.4682 66.2339 42.2949 66.0604 42.2949 65.8465C42.2949 65.6326 42.4684 65.459 42.6823 65.459C42.8962 65.459 43.0698 65.6324 43.0698 65.8465Z" fill="black"/>
</g>
<g opacity="0.2">
<path d="M44.8876 63.2143C44.8876 63.6423 44.4431 63.9892 43.895 63.9892C43.3468 63.9892 42.9023 63.6423 42.9023 63.2143C42.9023 62.7863 43.3468 62.4395 43.895 62.4395C44.4431 62.4395 44.8876 62.7863 44.8876 63.2143Z" fill="black"/>
</g>
<path d="M28.3775 64.7097C28.3545 64.7097 28.3359 61.2044 28.3359 56.8815C28.3359 52.5572 28.3547 49.0527 28.3775 49.0527C28.4004 49.0527 28.4191 52.5572 28.4191 56.8815C28.4191 61.2044 28.4004 64.7097 28.3775 64.7097Z" fill="#263238"/>
<path d="M46.127 73.7935C46.127 73.8166 43.09 73.8352 39.3446 73.8352C35.5978 73.8352 32.5615 73.8164 32.5615 73.7935C32.5615 73.7707 35.5978 73.752 39.3446 73.752C43.09 73.752 46.127 73.7705 46.127 73.7935Z" fill="#263238"/>
<path d="M11.8711 34.8242V43.3117L2.79481 71.0437C2.07017 73.2577 3.70313 75.5389 6.01257 75.5389H27.9687C30.2801 75.5389 31.9134 73.2541 31.185 71.0393L22.0473 43.2479V34.8242H11.8711Z" fill="white"/>
<path d="M11.8708 34.8259C12.0415 34.8256 15.6068 34.8175 22.0471 34.8027H22.0703V34.8259C22.0722 37.2341 22.0746 40.0747 22.0774 43.2496L22.0759 43.2402C23.7558 48.3413 25.743 54.3763 27.9423 61.0551C28.4918 62.7248 29.0545 64.4349 29.629 66.1807C29.9162 67.0536 30.2063 67.9354 30.4993 68.8256C30.6457 69.2707 30.7929 69.7179 30.9406 70.167C31.0826 70.6176 31.2564 71.0606 31.3466 71.5374C31.5247 72.4901 31.2505 73.5144 30.641 74.2813C30.0372 75.0509 29.0796 75.564 28.0775 75.5754C26.1063 75.5888 24.1108 75.5792 22.09 75.5822C16.5606 75.5818 11.2055 75.5813 6.12311 75.5808C5.96487 75.5847 5.80327 75.565 5.64391 75.5581C5.48471 75.5435 5.32871 75.5034 5.17159 75.477C5.02071 75.4251 4.86455 75.3879 4.71895 75.324C4.57607 75.2544 4.42487 75.201 4.29367 75.1107C3.74983 74.7874 3.29351 74.3208 3.00087 73.7685C2.70743 73.2173 2.56423 72.593 2.58983 71.9787C2.59079 71.9403 2.58999 71.9018 2.59239 71.8635L2.60775 71.7495L2.63863 71.5216C2.66103 71.3703 2.71143 71.2248 2.74647 71.0767C2.83559 70.7877 2.93255 70.504 3.02455 70.2192C3.76951 67.9456 4.48951 65.7483 5.18055 63.6391C7.94775 55.2039 10.2526 48.1779 11.8506 43.3067L11.8495 43.3133C11.8633 37.8563 11.8703 34.9795 11.8708 34.8259C11.8711 34.9795 11.8783 37.8563 11.8919 43.3135V43.3168L11.8908 43.32C10.2996 48.1935 8.00439 55.2226 5.24903 63.6616C4.55943 65.7712 3.84103 67.969 3.09751 70.2432C2.92119 70.8141 2.67879 71.3768 2.66743 71.9821C2.64279 72.5824 2.78295 73.1925 3.06999 73.7312C3.35607 74.2712 3.80263 74.7266 4.33367 75.0423C4.46167 75.1306 4.60951 75.1823 4.74887 75.2504C4.89095 75.3127 5.04359 75.3488 5.19063 75.3995C5.34423 75.4248 5.49639 75.4643 5.65191 75.4784C5.80871 75.4848 5.96295 75.5043 6.12263 75.5005C11.205 75.5 16.5601 75.4995 22.0895 75.4991C24.1092 75.4962 26.1084 75.5058 28.0743 75.4926C29.0526 75.4818 29.9858 74.9816 30.5759 74.2303C31.1711 73.4815 31.4394 72.4818 31.2655 71.5515C31.1788 71.0903 31.0049 70.6429 30.8628 70.1926C30.7151 69.7434 30.5682 69.2962 30.422 68.8511C30.1295 67.9608 29.8396 67.0789 29.5529 66.2058C28.9793 64.4597 28.4174 62.7495 27.8687 61.0792C25.6754 54.3984 23.6935 48.3616 22.0185 43.2589L22.017 43.2543V43.2495C22.0196 40.0744 22.022 37.2339 22.0239 34.8258L22.047 34.8488C15.6066 34.8344 12.0414 34.8263 11.8708 34.8259Z" fill="#263238"/>
<path d="M13.3395 34.8223L13.4118 43.5341L4.92188 70.2442C4.28268 72.1231 4.95804 73.7352 6.99548 73.7352H26.6891C28.7283 73.7352 29.3867 72.4245 28.7441 70.5448L20.5755 43.5341L20.6478 34.8223H13.3395Z" fill="#E0E0E0"/>
<path d="M17.2589 67.1292C16.8421 67.1292 16.5029 66.7901 16.5029 66.3732C16.5029 65.9564 16.8421 65.6172 17.2589 65.6172C17.6757 65.6172 18.0149 65.9564 18.0149 66.3732C18.0149 66.7901 17.6757 67.1292 17.2589 67.1292ZM17.2589 65.7772C16.9303 65.7772 16.6629 66.0445 16.6629 66.3732C16.6629 66.7018 16.9303 66.9692 17.2589 66.9692C17.5876 66.9692 17.8549 66.7018 17.8549 66.3732C17.8549 66.0444 17.5876 65.7772 17.2589 65.7772Z" fill="#AE7461"/>
<path d="M20.9551 68.0061C20.2966 68.0061 19.7607 67.4703 19.7607 66.8117C19.7607 66.1532 20.2966 65.6172 20.9551 65.6172C21.6137 65.6172 22.1495 66.1532 22.1495 66.8117C22.1495 67.4703 21.6137 68.0061 20.9551 68.0061ZM20.9551 65.7773C20.3847 65.7773 19.9207 66.2413 19.9207 66.8119C19.9207 67.3821 20.3847 67.8463 20.9551 67.8463C21.5255 67.8463 21.9895 67.3823 21.9895 66.8119C21.9895 66.2413 21.5255 65.7773 20.9551 65.7773Z" fill="#AE7461"/>
<path d="M12.1533 26.4549L13.2668 38.8605H20.68L22.6671 26.3889C22.6671 26.3889 19.6365 25.1854 12.1533 26.4549Z" fill="#AE7461"/>
<path d="M19.2355 25.8535C19.1126 26.245 19.2905 26.7918 19.6032 27.0575C19.9158 27.3233 20.3902 27.3804 20.7568 27.1962C21.1233 27.0121 21.363 26.4882 21.3363 26.0788L19.2355 25.8535Z" fill="#6F4439"/>
<path d="M15.5311 28.6171C15.5311 29.0152 15.2086 29.3378 14.8105 29.3378C14.4126 29.3378 14.0898 29.0152 14.0898 28.6171C14.0898 28.219 14.4126 27.8965 14.8105 27.8965C15.2086 27.8965 15.5311 28.2192 15.5311 28.6171Z" fill="#6F4439"/>
<path d="M18.9488 33.3267C19.6576 33.0313 19.9927 32.2173 19.6973 31.5085C19.4019 30.7997 18.5878 30.4646 17.879 30.76C17.1703 31.0554 16.8352 31.8695 17.1306 32.5783C17.426 33.287 18.24 33.6221 18.9488 33.3267Z" fill="#6F4439"/>
<path d="M18.4615 30.6578C18.4626 30.6759 18.2537 30.6466 17.9519 30.76C17.8023 30.8154 17.634 30.9109 17.4801 31.0543C17.3261 31.1967 17.1906 31.3916 17.1185 31.6216C17.0505 31.853 17.0545 32.0904 17.1031 32.2944C17.1513 32.4994 17.2378 32.6722 17.3314 32.8015C17.5191 33.0636 17.7089 33.1556 17.698 33.17C17.6957 33.174 17.6482 33.1548 17.5703 33.1047C17.4922 33.0551 17.3877 32.9676 17.2842 32.8367C17.1805 32.7063 17.0836 32.5277 17.0285 32.3125C16.973 32.0984 16.9655 31.8455 17.0388 31.5973C17.1161 31.3504 17.2631 31.1445 17.4284 30.9975C17.5938 30.8495 17.7737 30.7549 17.9324 30.7044C18.0913 30.6532 18.2268 30.6386 18.3193 30.6408C18.4117 30.6426 18.462 30.6532 18.4615 30.6578Z" fill="#263238"/>
<path d="M14.919 27.8872C14.9187 27.9027 14.7954 27.8857 14.6198 27.9544C14.4488 28.0179 14.2218 28.1917 14.1502 28.4657C14.0835 28.7411 14.2014 29.0017 14.3221 29.1385C14.4442 29.2821 14.561 29.3254 14.5539 29.3392C14.5534 29.3467 14.423 29.3225 14.2787 29.1782C14.1378 29.0416 13.9942 28.7587 14.0696 28.4453C14.1515 28.1337 14.4117 27.9523 14.6005 27.8985C14.7958 27.8398 14.9222 27.8803 14.919 27.8872Z" fill="#263238"/>
<path d="M20.3304 27.3329C20.3322 27.3415 20.2224 27.3731 20.0427 27.3489C19.8658 27.3265 19.6173 27.2326 19.427 27.0251C19.2374 26.8169 19.1666 26.5607 19.1602 26.3827C19.1523 26.2015 19.1936 26.095 19.2021 26.0977C19.2158 26.0999 19.1965 26.2078 19.2189 26.3774C19.2395 26.5451 19.3147 26.778 19.4886 26.9691C19.663 27.1593 19.8883 27.2553 20.0533 27.2911C20.2202 27.3284 20.3294 27.3188 20.3304 27.3329Z" fill="#263238"/>
<path d="M22.2868 36.3493H11.305C10.5298 36.3493 9.90137 35.7208 9.90137 34.9456V34.7045C9.90137 33.9293 10.5298 33.3008 11.305 33.3008H22.2868C23.062 33.3008 23.6905 33.9293 23.6905 34.7045V34.9456C23.6905 35.7208 23.062 36.3493 22.2868 36.3493Z" fill="white"/>
<path d="M22.2873 36.3498C22.2867 36.3426 22.398 36.3511 22.6001 36.3049C22.7974 36.2564 23.0995 36.1393 23.3523 35.8348C23.4771 35.6847 23.5814 35.4878 23.6348 35.2564C23.6616 35.1404 23.671 35.0177 23.6692 34.8873C23.6675 34.7562 23.6734 34.6212 23.6484 34.4855C23.6075 34.2126 23.4689 33.935 23.2449 33.7167C23.022 33.4978 22.7032 33.3502 22.3568 33.3345C19.5254 33.3367 15.6198 33.3398 11.3062 33.3431C10.7782 33.3378 10.2785 33.6676 10.0696 34.135C9.95595 34.3681 9.93563 34.6209 9.94299 34.8809C9.93435 35.1362 9.99323 35.3838 10.111 35.602C10.3475 36.0404 10.8276 36.3116 11.3043 36.3098C11.7937 36.3103 12.2729 36.3108 12.7404 36.3113C14.61 36.3146 16.2937 36.3177 17.7092 36.3202C19.1209 36.3258 20.2644 36.3303 21.059 36.3335C21.4516 36.3369 21.7579 36.3394 21.9697 36.3414C22.071 36.3431 22.1497 36.3446 22.2065 36.3455C22.26 36.347 22.2873 36.3498 22.2873 36.3498C22.2873 36.3498 22.26 36.3527 22.2067 36.3542C22.1499 36.3551 22.0712 36.3566 21.9699 36.3583C21.758 36.3601 21.4518 36.3628 21.0592 36.3662C20.2646 36.3694 19.1211 36.3738 17.7094 36.3794C16.294 36.382 14.6102 36.385 12.7406 36.3884C12.2729 36.3889 11.7937 36.3894 11.3043 36.3897C10.8 36.3926 10.2907 36.1058 10.0396 35.6415C9.91451 35.4121 9.85195 35.1438 9.86091 34.881C9.85275 34.6266 9.87419 34.3433 9.99451 34.1002C10.1068 33.854 10.2928 33.6404 10.5228 33.4913C10.7531 33.341 11.0286 33.2618 11.3064 33.2598C15.6212 33.266 19.5278 33.2716 22.36 33.2756C22.7211 33.2938 23.0523 33.45 23.282 33.6786C23.5132 33.9066 23.6544 34.1956 23.6947 34.4782C23.7193 34.6196 23.7121 34.7578 23.7128 34.8873C23.7136 35.018 23.7025 35.147 23.6739 35.2652C23.6166 35.5026 23.5072 35.7036 23.3776 35.8554C23.115 36.1638 22.8051 36.2774 22.6043 36.321C22.5017 36.3417 22.422 36.3503 22.3684 36.3498C22.3147 36.3513 22.2873 36.3498 22.2873 36.3498Z" fill="#263238"/>
<path d="M4.6898 70.885L7.93124 60.8095C7.93124 60.8095 11.8532 60.9827 16.4738 62.0483C21.8608 63.2906 25.3216 59.4727 25.3216 59.4727L29.0634 71.6346C29.3805 72.6651 28.6098 73.7085 27.5316 73.7085L6.8114 73.7357C5.38548 73.7357 4.27092 72.248 4.6898 70.885Z" fill="#FF725E"/>
<g opacity="0.1">
<path d="M5.45898 68.6033C5.60778 68.5028 14.1334 66.3057 14.4827 65.8018C14.8319 65.298 15.8844 43.7162 15.8844 43.7162L15.9295 36.9473L13.3731 37.0236L13.4129 43.5353L5.45898 68.6033Z" fill="black"/>
</g>
<g opacity="0.2">
<path d="M24.9843 72.3148C23.6069 72.0678 22.3051 71.471 20.9246 71.2431C18.7474 70.8838 16.5406 71.4606 14.3907 71.9638C12.2406 72.467 9.97216 72.8972 7.85648 72.259C6.62608 71.8879 5.42768 71.0572 5.04016 69.8066L4.69312 70.9655C4.28496 72.3286 5.27824 73.7081 6.66784 73.7081H27.5722C28.6229 73.7081 29.3739 72.6647 29.065 71.6342L28.9981 71.4113L28.8786 71.311C27.9446 72.379 26.3618 72.562 24.9843 72.3148Z" fill="black"/>
</g>
<g opacity="0.2">
<path d="M10.8413 70.8838C11.4041 70.8838 11.8603 70.4275 11.8603 69.8647C11.8603 69.3019 11.4041 68.8457 10.8413 68.8457C10.2785 68.8457 9.82227 69.3019 9.82227 69.8647C9.82227 70.4275 10.2785 70.8838 10.8413 70.8838Z" fill="black"/>
</g>
<g opacity="0.2">
<path d="M23.4566 68.3321C23.6308 67.5664 23.1512 66.8044 22.3854 66.6302C21.6197 66.4561 20.8577 66.9356 20.6835 67.7014C20.5094 68.4671 20.9889 69.2291 21.7547 69.4033C22.5204 69.5775 23.2824 69.0979 23.4566 68.3321Z" fill="black"/>
</g>
<g opacity="0.2">
<path d="M13.5661 68.1625C13.5661 68.3913 13.3805 68.5769 13.1517 68.5769C12.9229 68.5769 12.7373 68.3914 12.7373 68.1625C12.7373 67.9335 12.9229 67.748 13.1517 67.748C13.3805 67.7482 13.5661 67.9337 13.5661 68.1625Z" fill="black"/>
</g>
<g opacity="0.3">
<path d="M17.304 36.9316L17.1973 44.704L23.8622 70.81C23.9339 71.091 24.1918 71.282 24.4787 71.2668L27.1065 71.1284C27.5025 71.1076 27.7715 70.7137 27.6502 70.3326L19.4445 44.5548L19.3677 36.9316H17.304Z" fill="white"/>
</g>
<path d="M11.5911 48.9277C11.6132 48.9343 10.5549 52.5197 9.22788 56.9349C7.90036 61.3516 6.8066 64.9255 6.78452 64.9189C6.76244 64.9124 7.82052 61.3277 9.14804 56.9109C10.4752 52.4957 11.5692 48.9212 11.5911 48.9277Z" fill="#263238"/>
<path d="M13.2721 42.8132C13.249 42.8132 13.2305 41.7584 13.2305 40.4576C13.2305 39.1563 13.2492 38.1016 13.2721 38.1016C13.2951 38.1016 13.3137 39.1561 13.3137 40.4576C13.3137 41.7584 13.2949 42.8132 13.2721 42.8132Z" fill="#263238"/>
<path d="M19.0127 60.1099C19.0127 60.574 18.6364 60.9503 18.1724 60.9503C17.7082 60.9503 17.332 60.574 17.332 60.1099C17.332 59.6457 17.7084 59.2695 18.1724 59.2695C18.6365 59.2695 19.0127 59.6457 19.0127 60.1099Z" fill="#FF725E"/>
<path d="M17.6177 53.5666C17.6177 53.7986 17.4295 53.9868 17.1975 53.9868C16.9653 53.9868 16.7773 53.7986 16.7773 53.5666C16.7773 53.3345 16.9655 53.1465 17.1975 53.1465C17.4295 53.1465 17.6177 53.3346 17.6177 53.5666Z" fill="#FF725E"/>
<path d="M13.4088 56.4476C13.4685 56.2306 13.5317 56.0557 13.5495 56.0586C13.5672 56.062 13.5661 56.2479 13.5471 56.4721C13.5282 56.6962 13.4651 56.8711 13.4066 56.8609C13.3479 56.8505 13.3491 56.6645 13.4088 56.4476Z" fill="#FF725E"/>
<path d="M12.7399 55.6316C12.9647 55.6218 13.1506 55.6279 13.1532 55.6454C13.1554 55.6628 12.9781 55.7191 12.7591 55.7705C12.5402 55.8218 12.3543 55.8159 12.346 55.7567C12.338 55.6975 12.5152 55.6415 12.7399 55.6316Z" fill="#FF725E"/>
<path d="M13.3082 54.7487C13.3876 54.9593 13.4394 55.1378 13.4234 55.1458C13.4074 55.1535 13.2989 55.0025 13.1821 54.81C13.0655 54.6177 13.0135 54.4391 13.0669 54.4131C13.1205 54.3871 13.2289 54.5382 13.3082 54.7487Z" fill="#FF725E"/>
<path d="M14.3245 55.0126C14.1486 55.1531 13.9949 55.2576 13.9824 55.2448C13.9701 55.2318 14.0801 55.082 14.2273 54.9116C14.3742 54.7414 14.528 54.6368 14.5694 54.6795C14.6105 54.7225 14.5001 54.8723 14.3245 55.0126Z" fill="#FF725E"/>
<path d="M14.3894 56.0608C14.2016 55.9369 14.0545 55.8229 14.0628 55.8072C14.0713 55.7917 14.2478 55.8501 14.4553 55.9371C14.6628 56.024 14.8099 56.1377 14.7819 56.1905C14.7537 56.2433 14.5772 56.1846 14.3894 56.0608Z" fill="#FF725E"/>
<path d="M22.2772 59.3701C22.3111 59.2314 22.3522 59.1205 22.3688 59.1231C22.3855 59.1258 22.3888 59.2442 22.3765 59.3865C22.3642 59.5287 22.3231 59.6396 22.2848 59.6333C22.2468 59.6271 22.2434 59.5089 22.2772 59.3701Z" fill="#FF725E"/>
<path d="M21.7166 58.8462C21.8537 58.8063 21.9704 58.7867 21.9765 58.8022C21.9822 58.8179 21.8816 58.8798 21.7521 58.9404C21.6229 59.0009 21.5062 59.0207 21.4925 58.9844C21.4787 58.9479 21.5795 58.886 21.7166 58.8462Z" fill="#FF725E"/>
<path d="M21.8906 58.0944C21.9937 58.1934 22.0689 58.2846 22.0583 58.2976C22.0476 58.3106 21.9436 58.2541 21.8266 58.1722C21.7098 58.0902 21.6343 57.999 21.659 57.969C21.6838 57.939 21.7878 57.9955 21.8906 58.0944Z" fill="#FF725E"/>
<path d="M22.6273 57.8709C22.5934 58.0096 22.5522 58.1206 22.5356 58.1179C22.519 58.1152 22.5156 57.9968 22.5279 57.8546C22.5402 57.7123 22.5814 57.6014 22.6196 57.6077C22.6578 57.6141 22.6612 57.7323 22.6273 57.8709Z" fill="#FF725E"/>
<path d="M23.1888 58.3967C23.0517 58.4365 22.935 58.4562 22.9289 58.4407C22.9232 58.425 23.0238 58.3631 23.1533 58.3024C23.2825 58.2419 23.3992 58.2221 23.4129 58.2584C23.4265 58.2949 23.3257 58.3568 23.1888 58.3967Z" fill="#FF725E"/>
<path d="M23.0153 59.1465C22.9123 59.0474 22.8371 58.9562 22.8477 58.9433C22.8584 58.9303 22.9624 58.9868 23.0793 59.0687C23.1961 59.1506 23.2717 59.2418 23.247 59.2719C23.2224 59.3018 23.1184 59.2453 23.0153 59.1465Z" fill="#FF725E"/>
<path d="M25.0291 73.7096C25.0291 73.7326 21.8811 73.7512 17.9988 73.7512C14.1151 73.7512 10.9678 73.7325 10.9678 73.7096C10.9678 73.6865 14.1151 73.668 17.9988 73.668C21.8811 73.668 25.0291 73.6867 25.0291 73.7096Z" fill="#263238"/>
<path d="M69.0865 50.8334V31.8535H59.4135V50.8334C54.4754 52.6986 50.9766 57.3313 50.9766 62.7554C50.9766 69.826 56.9193 75.558 64.25 75.558C71.5807 75.558 77.5234 69.8262 77.5234 62.7554C77.5234 57.3314 74.0246 52.6986 69.0865 50.8334Z" fill="white"/>
<path d="M69.0857 50.8319C69.0857 50.8319 69.1845 50.8708 69.3735 50.9486C69.4681 50.9876 69.5853 51.0361 69.7249 51.0937C69.8647 51.1506 70.0269 51.2158 70.2031 51.3105C70.3812 51.4004 70.5802 51.501 70.7999 51.6119C71.0165 51.7286 71.2433 51.8745 71.4945 52.0225C71.9897 52.33 72.5377 52.7238 73.1151 53.2148C73.266 53.33 73.3993 53.473 73.5465 53.6084C73.6897 53.7479 73.8441 53.8838 73.9885 54.0366C74.2676 54.3511 74.5805 54.6642 74.8532 55.0374C74.9242 55.1282 74.9959 55.2201 75.0684 55.313L75.1772 55.4534L75.2769 55.6026C75.4103 55.8028 75.5466 56.007 75.6855 56.2151C75.9335 56.6497 76.201 57.0966 76.4145 57.5919C76.8618 58.5705 77.218 59.677 77.4045 60.8855C77.4393 61.1889 77.4842 61.4959 77.5121 61.8086C77.5247 62.1225 77.5375 62.4406 77.5506 62.763C77.5452 63.4082 77.4962 64.0698 77.393 64.7404C77.17 66.0769 76.7337 67.4516 76.0143 68.7486C75.3013 70.0462 74.3305 71.2732 73.1234 72.3178C71.9188 73.3634 70.4769 74.2238 68.8748 74.7953C67.2746 75.3692 65.5156 75.6505 63.7221 75.5818C61.9306 75.515 60.1001 75.0993 58.4015 74.2921C56.7061 73.4865 55.1327 72.3119 53.8821 70.8089C53.257 70.0586 52.7093 69.2322 52.2602 68.3458C51.8156 67.4574 51.4749 66.5082 51.2485 65.5252C51.0209 64.5425 50.9149 63.5231 50.9442 62.5007C50.9548 62.2452 50.9653 61.9892 50.9759 61.7329C51.0068 61.4782 51.0377 61.223 51.0687 60.9674L51.0919 60.7758C51.1013 60.7121 51.1165 60.6494 51.1287 60.586L51.2058 60.2066L51.2831 59.8268C51.3129 59.701 51.3529 59.5777 51.3873 59.453L51.4959 59.075C51.5311 58.9487 51.5666 58.8226 51.6164 58.7015C51.7081 58.4566 51.7996 58.2119 51.8911 57.9676C52.0005 57.731 52.1098 57.4946 52.2188 57.2586L52.301 57.082L52.3956 56.9118L52.586 56.5727L52.7762 56.2343L52.9908 55.9116L53.2052 55.5895L53.3127 55.429L53.4313 55.2767C53.5895 55.074 53.7476 54.8716 53.9052 54.6695C54.0772 54.4794 54.2489 54.2898 54.4202 54.1006C55.1276 53.3644 55.9061 52.7081 56.7425 52.1503C57.5869 51.6049 58.4789 51.1537 59.3981 50.7937L59.3717 50.8318C59.3737 43.987 59.3754 37.5836 59.377 31.8519V31.8164H59.4125C62.9121 31.8183 66.1449 31.8199 69.0855 31.8215H69.1159V31.8519C69.1095 37.7092 69.1042 42.4513 69.1007 45.7303C69.0973 47.3706 69.0946 48.6447 69.0929 49.51C69.0913 49.942 69.09 50.2718 69.0892 50.4946C69.0881 50.7169 69.0857 50.8319 69.0857 50.8319C69.0857 50.8319 69.0833 50.7202 69.082 50.4996C69.0812 50.2777 69.0799 49.9495 69.0783 49.5193C69.0765 48.6553 69.0738 47.3828 69.0705 45.7449C69.0669 42.4625 69.0617 37.7154 69.0553 31.8519L69.0857 31.8823C66.145 31.8839 62.9122 31.8857 59.4127 31.8874L59.4482 31.8519C59.4498 37.5836 59.4516 43.987 59.4535 50.8318V50.8596L59.4271 50.87C58.5135 51.2282 57.6271 51.6769 56.7879 52.2191C55.9567 52.7737 55.1833 53.4262 54.4804 54.1577C54.3101 54.3458 54.1396 54.5342 53.9687 54.723C53.8121 54.9238 53.6551 55.1249 53.4978 55.3263L53.3799 55.4775L53.2732 55.637L53.0602 55.957L52.8471 56.2778L52.6583 56.6142L52.469 56.951L52.3751 57.1201L52.2935 57.2956C52.1852 57.53 52.0767 57.7647 51.9679 57.9998C51.8772 58.2423 51.7861 58.4854 51.6951 58.7287C51.6457 58.8492 51.6105 58.9743 51.5756 59.0998L51.4677 59.4753C51.4335 59.5993 51.3938 59.7217 51.3642 59.8466L51.2876 60.2239L51.2109 60.6007C51.1989 60.6636 51.1837 60.7258 51.1743 60.7892L51.1513 60.9796C51.1205 61.2335 51.0898 61.487 51.0591 61.7399C51.0485 61.9946 51.0381 62.2489 51.0276 62.5026C50.9983 63.5182 51.1034 64.5308 51.3295 65.507C51.5541 66.4834 51.8924 67.4263 52.3338 68.309C52.7799 69.1897 53.3237 70.011 53.9447 70.7566C55.1869 72.2505 56.7505 73.4185 58.4354 74.2202C60.1236 75.0233 61.9433 75.4377 63.725 75.5052C65.5087 75.5745 67.2583 75.2958 68.8501 74.7263C70.4439 74.1591 71.8789 73.3047 73.0783 72.2657C74.2801 71.2276 75.2473 70.0079 75.9581 68.7178C76.6753 67.4284 77.1111 66.061 77.3349 64.7313C77.4385 64.0639 77.4882 63.4055 77.4946 62.7631C77.4821 62.4422 77.4698 62.1254 77.4578 61.8129C77.4306 61.5015 77.3863 61.1958 77.3524 60.8937C77.1687 59.6902 76.8161 58.5874 76.3724 57.6116C76.1609 57.1175 75.8951 56.6716 75.649 56.238C75.5111 56.0302 75.3757 55.8263 75.2431 55.6266L75.1442 55.4775L75.0361 55.3374C74.9641 55.2447 74.8927 55.1529 74.8221 55.0622C74.5514 54.6895 74.2401 54.3766 73.9628 54.062C73.8191 53.9094 73.6655 53.7734 73.5231 53.6338C73.3769 53.4985 73.2442 53.3551 73.0941 53.2398C72.5197 52.7481 71.9745 52.353 71.4817 52.0439C71.2316 51.8951 71.006 51.7482 70.7903 51.6306C70.5717 51.5185 70.3735 51.4169 70.1962 51.326C70.0215 51.2305 69.8581 51.1634 69.7183 51.1047C69.5793 51.0454 69.4623 50.9953 69.3679 50.955C69.1797 50.8742 69.0857 50.8319 69.0857 50.8319Z" fill="#263238"/>
<path d="M67.8274 52.0349L67.8122 34.2461L60.641 34.252L60.7784 52.0263C55.6893 53.4192 52.7354 57.864 52.7354 62.5693C52.7354 68.7029 57.8906 73.6752 64.2499 73.6752C70.6093 73.6752 75.7645 68.7029 75.7645 62.5693C75.7646 57.864 72.1112 53.653 67.8274 52.0349Z" fill="#E0E0E0"/>
<path d="M75.7642 62.5708C75.3887 61.9156 75.0096 61.731 74.2891 61.4823C73.0194 61.0439 71.6587 60.8627 70.3165 60.9531C68.5027 61.0753 66.74 61.6849 64.9221 61.702C62.2063 61.7276 59.6685 60.4406 56.9992 59.9475C55.897 59.7438 53.9531 59.8225 52.9631 60.3415C52.9631 60.3415 52.5474 61.7425 52.9631 63.5279L63.5968 65.8454L70.2387 63.9004H73.6757L75.7642 62.5708Z" fill="#6087D6"/>
<g opacity="0.3">
<path d="M75.7642 62.5689C75.3887 61.9137 75.0096 61.729 74.2891 61.4804C73.0194 61.042 71.6587 60.8607 70.3165 60.9511C68.5027 61.0733 66.74 61.6829 64.9221 61.7001C62.2063 61.7257 59.6685 60.4386 56.9992 59.9455C55.897 59.7418 53.9531 59.8205 52.9631 60.3396C52.9631 60.3396 52.5474 61.7405 52.9631 63.526L63.5968 65.8434L70.2387 63.8985H73.6757L75.7642 62.5689Z" fill="white"/>
</g>
<path d="M52.7354 62.5706C52.7354 68.7042 57.8906 73.6765 64.2499 73.6765C70.6093 73.6765 75.7645 68.7042 75.7645 62.5706C75.7645 62.5706 73.6805 61.7674 70.3534 62.1653C69.0333 62.3233 64.5562 63.6623 62.0398 63.9002C55.2299 64.5437 52.7354 62.5706 52.7354 62.5706Z" fill="#6087D6"/>
<path d="M69.2749 34.2536H59.224C58.4859 34.2536 57.8877 33.6554 57.8877 32.9173V32.6879C57.8877 31.9498 58.4859 31.3516 59.224 31.3516H69.2749C70.013 31.3516 70.6112 31.9498 70.6112 32.6879V32.9173C70.6112 33.6552 70.0128 34.2536 69.2749 34.2536Z" fill="white"/>
<path d="M69.274 34.2562C69.2736 34.2493 69.3766 34.2567 69.564 34.2151C69.747 34.1709 70.0267 34.0649 70.2664 33.7885C70.3849 33.6525 70.4902 33.4749 70.5441 33.2615C70.6027 33.0509 70.5931 32.8036 70.5792 32.5484C70.5494 32.2953 70.444 32.0295 70.2472 31.8157C70.0553 31.6001 69.774 31.4383 69.4553 31.3973C69.2979 31.3765 69.1286 31.3863 68.9572 31.3847C68.7859 31.3852 68.6107 31.3855 68.432 31.386C68.0744 31.3868 67.7025 31.3876 67.3174 31.3884C66.547 31.3897 65.7241 31.3909 64.8584 31.3922C63.126 31.3932 61.2222 31.3943 59.2236 31.3954C58.7356 31.3916 58.2729 31.6868 58.0654 32.1121C58.0096 32.2164 57.9771 32.3305 57.9518 32.4444C57.9302 32.5604 57.9265 32.6745 57.9276 32.7959C57.9217 33.0348 57.9488 33.265 58.0524 33.4722C58.2438 33.8908 58.6664 34.173 59.1051 34.2101C59.551 34.2225 60.0003 34.2143 60.4316 34.2175C62.163 34.2209 63.7225 34.2239 65.0337 34.2265C66.3408 34.2321 67.3998 34.2365 68.1363 34.2397C68.4995 34.2431 68.783 34.2458 68.9798 34.2476C69.0732 34.2493 69.1462 34.2508 69.1992 34.2517C69.2486 34.2533 69.274 34.2562 69.274 34.2562C69.274 34.2562 69.2488 34.2591 69.1993 34.2605C69.1464 34.2615 69.0734 34.2629 68.98 34.2647C68.7832 34.2665 68.4996 34.2692 68.1364 34.2725C67.4 34.2757 66.3411 34.2802 65.0339 34.2858C63.7228 34.2884 62.1633 34.2914 60.4318 34.2948C59.9972 34.2925 59.5584 34.3021 59.0982 34.2898C58.6324 34.2513 58.183 33.9521 57.979 33.5076C57.8686 33.2908 57.8392 33.0348 57.8456 32.7964C57.8441 32.6783 57.8478 32.5509 57.8708 32.4292C57.8972 32.3079 57.9323 32.1865 57.9915 32.0754C58.2116 31.6228 58.7046 31.3082 59.2238 31.3125C61.2222 31.3137 63.126 31.3148 64.8585 31.3157C65.7243 31.317 66.5472 31.3185 67.3176 31.3196C67.7025 31.3204 68.0745 31.3212 68.4321 31.322C68.6108 31.3225 68.786 31.3229 68.9574 31.3233C69.1286 31.326 69.296 31.3167 69.4635 31.3393C69.7964 31.3841 70.0888 31.5549 70.2865 31.7805C70.4896 32.0044 70.5969 32.2813 70.6254 32.5437C70.6376 32.806 70.6451 33.0511 70.5824 33.2721C70.5243 33.4913 70.4139 33.6725 70.2905 33.8101C70.0411 34.0898 69.7539 34.1922 69.5675 34.2316C69.4721 34.2495 69.3985 34.2577 69.3488 34.2569C69.2993 34.2578 69.274 34.2562 69.274 34.2562Z" fill="#263238"/>
<g opacity="0.2">
<path d="M63.877 70.2477C60.5677 69.5838 57.5042 67.5323 55.8683 64.58C54.2325 61.6277 54.1555 57.8008 55.9045 54.9141L55.7197 55.0179C53.7893 57.0472 52.7363 59.7622 52.7363 62.5705C52.7363 68.7041 57.8915 73.6765 64.2509 73.6765C67.6277 73.6765 70.6648 72.2744 72.771 70.0409C73.1074 69.6089 73.4126 69.1529 73.6814 68.6755C70.6955 70.2494 67.1862 70.9115 63.877 70.2477Z" fill="black"/>
</g>
<g opacity="0.3">
<path d="M64.2714 34.2527L63.7842 52.3603C63.7842 52.3603 70.2664 59.7453 67.8651 66.3946L72.7751 66.652C72.7751 66.652 74.0256 62.4365 72.04 58.2135C70.0544 53.9904 67.0586 52.0615 67.0586 52.0615L67.0858 34.2461L64.2714 34.2527Z" fill="white"/>
</g>
<path d="M55.4437 69.7477C55.4426 69.7487 55.4321 69.738 55.4128 69.7164C55.3907 69.6908 55.363 69.6586 55.3286 69.6188C55.2576 69.5306 55.1429 69.4082 55.016 69.2341C54.751 68.8949 54.3973 68.3784 54.0362 67.6973C53.8542 67.3575 53.6806 66.972 53.5114 66.5514C53.3526 66.1269 53.1934 65.6682 53.0737 65.1722C52.8245 64.1837 52.6939 63.0578 52.7536 61.881C52.8238 60.7042 53.0776 59.5994 53.4342 58.6442C53.6078 58.1644 53.8165 57.7258 54.0211 57.3215C54.2357 56.9221 54.4505 56.5581 54.6688 56.2402C55.1029 55.6031 55.5112 55.1287 55.8118 54.8208C55.957 54.6618 56.0846 54.5529 56.1648 54.473C56.2033 54.4372 56.2344 54.4084 56.2592 54.3853C56.2808 54.366 56.2923 54.3565 56.2933 54.3575C56.2942 54.3586 56.2846 54.37 56.2651 54.3914C56.2419 54.4159 56.2128 54.4468 56.1765 54.4848C56.1001 54.5684 55.9766 54.6808 55.8355 54.8429C55.5429 55.1567 55.1432 55.6349 54.7177 56.273C54.5038 56.5913 54.293 56.9549 54.0824 57.3533C53.8818 57.7567 53.6768 58.1933 53.5062 58.6708C53.1558 59.621 52.9066 60.7181 52.8368 61.8856C52.7778 63.0533 52.9048 64.1709 53.1483 65.154C53.2651 65.6471 53.4208 66.1037 53.5758 66.5266C53.7413 66.9458 53.9107 67.3305 54.0885 67.6703C54.4411 68.3513 54.7857 68.8706 55.0421 69.2148C55.1645 69.3912 55.275 69.5167 55.3416 69.6082C55.3734 69.6501 55.3989 69.684 55.4194 69.7109C55.4366 69.7343 55.4448 69.7468 55.4437 69.7477Z" fill="#263238"/>
<path d="M75.4992 60.3867C75.502 60.3861 75.5143 60.4328 75.5349 60.5224C75.5536 60.6123 75.5893 60.7437 75.6172 60.916C75.6826 61.259 75.7504 61.7618 75.7741 62.3869C75.7989 63.0115 75.7656 63.7597 75.6271 64.5758C75.4898 65.3917 75.2375 66.2731 74.8498 67.1467C74.4554 68.0178 73.9653 68.7928 73.4476 69.4382C72.9303 70.0848 72.394 70.6075 71.9112 71.0046C71.4288 71.4027 71.0084 71.6866 70.7088 71.8661C70.5616 71.96 70.4399 72.0208 70.3603 72.0667C70.2797 72.1109 70.2368 72.1328 70.2354 72.1302C70.2339 72.1277 70.2743 72.101 70.352 72.0522C70.4287 72.0018 70.5476 71.9366 70.6917 71.8387C70.9852 71.6514 71.3984 71.3613 71.8735 70.9597C72.8229 70.1648 73.9956 68.8507 74.774 67.1128C75.5528 65.3758 75.7536 63.6262 75.7152 62.3886C75.6991 61.7667 75.6405 61.2651 75.5851 60.9214C75.5623 60.7486 75.5319 60.6166 75.5184 60.5258C75.5031 60.4352 75.4964 60.3874 75.4992 60.3867Z" fill="#263238"/>
<path d="M60.8805 49.6776C60.8574 49.6776 60.8389 46.727 60.8389 43.0881C60.8389 39.448 60.8576 36.498 60.8805 36.498C60.9035 36.498 60.9221 39.448 60.9221 43.0881C60.9221 46.727 60.9035 49.6776 60.8805 49.6776Z" fill="#263238"/>
<g opacity="0.2">
<path d="M61.5912 66.6555C61.5912 67.1027 61.2286 67.4652 60.7814 67.4652C60.3342 67.4652 59.9717 67.1027 59.9717 66.6555C59.9717 66.2083 60.3342 65.8457 60.7814 65.8457C61.2288 65.8457 61.5912 66.2083 61.5912 66.6555Z" fill="black"/>
</g>
<g opacity="0.2">
<path d="M66.976 66.6555C66.976 67.1027 66.6134 67.4652 66.1662 67.4652C65.719 67.4652 65.3564 67.1027 65.3564 66.6555C65.3564 66.2083 65.719 65.8457 66.1662 65.8457C66.6134 65.8457 66.976 66.2083 66.976 66.6555Z" fill="black"/>
</g>
<g opacity="0.2">
<path d="M62.2163 68.8994C62.4399 68.8994 62.6211 68.7182 62.6211 68.4946C62.6211 68.2711 62.4399 68.0898 62.2163 68.0898C61.9928 68.0898 61.8115 68.2711 61.8115 68.4946C61.8115 68.7182 61.9928 68.8994 62.2163 68.8994Z" fill="black"/>
</g>
<g opacity="0.3">
<path d="M59.415 34.3069C59.772 34.6317 60.2339 34.9019 60.7072 34.9966C61.1805 35.0913 62.0198 35.2773 62.5016 35.304C63.6912 35.3699 64.5256 35.3472 65.7158 35.2921C66.9059 35.2371 68.1216 34.9593 69.0818 34.2539L59.415 34.3069Z" fill="black"/>
</g>
<path d="M25.552 61.5998C25.552 61.707 24.6822 65.8153 23.7894 70.0035C23.2771 72.4071 22.7572 74.837 22.3899 76.5519C22.1288 77.771 23.0582 78.9202 24.3049 78.9202H40.1819C41.4203 78.9202 42.3478 77.785 42.1011 76.5715L39.056 61.5996H25.552V61.5998Z" fill="white"/>
<path d="M25.5521 61.5997C25.5521 61.5997 25.6321 61.5973 25.7915 61.596C25.9529 61.5952 26.1897 61.5939 26.4987 61.5923C27.123 61.5904 28.0379 61.5875 29.2087 61.5838C31.5607 61.5797 34.9396 61.5736 39.0563 61.5664H39.0835L39.0889 61.5931C39.6396 64.2917 40.2614 67.3381 40.9331 70.6293C41.2684 72.275 41.6161 73.9821 41.9737 75.7374C42.0183 75.9568 42.0631 76.177 42.1081 76.3979C42.1587 76.6152 42.19 76.851 42.1769 77.081C42.1686 77.313 42.1065 77.5414 42.0156 77.7552C41.9241 77.9691 41.7948 78.169 41.6311 78.337C41.4691 78.5059 41.2793 78.6501 41.0679 78.7555C40.8551 78.8579 40.6251 78.923 40.3894 78.9501C40.1507 78.9701 39.9214 78.9589 39.687 78.9619C39.4535 78.9619 39.2195 78.9619 38.9849 78.9619C34.3655 78.9608 29.9654 78.9597 25.963 78.9586C25.4627 78.9582 24.9686 78.9579 24.4812 78.9578C23.9931 78.9816 23.4849 78.853 23.1039 78.5526C22.9124 78.4059 22.7486 78.2269 22.6196 78.027C22.4919 77.8261 22.4057 77.6027 22.3558 77.3744C22.3031 77.1459 22.3017 76.9094 22.3343 76.6824C22.3673 76.4536 22.4249 76.2397 22.4683 76.0205C22.842 74.2806 23.19 72.66 23.5078 71.1803C24.1417 68.2221 24.6548 65.8278 25.0099 64.1712C25.1854 63.3446 25.3217 62.7024 25.4147 62.2648C25.5012 61.8462 25.5411 61.6534 25.5521 61.5997C25.5521 61.5997 25.5478 61.6579 25.5267 61.7706C25.5049 61.8845 25.4731 62.0509 25.4313 62.2685C25.3419 62.7069 25.2107 63.3501 25.0417 64.1781C24.6927 65.8362 24.1886 68.2322 23.5655 71.1928C23.2508 72.6731 22.906 74.2946 22.5359 76.035C22.4932 76.2522 22.4348 76.473 22.4039 76.6923C22.3727 76.9115 22.3743 77.1395 22.4255 77.3597C22.474 77.5795 22.5572 77.7947 22.6807 77.9883C22.8054 78.1808 22.9636 78.353 23.1483 78.4942C23.5185 78.7832 23.9979 78.9059 24.4812 78.8827C24.9687 78.8824 25.4628 78.8822 25.963 78.8819C29.9654 78.881 34.3657 78.8798 38.9849 78.8786C39.2195 78.8786 39.4535 78.8786 39.687 78.8786C39.9193 78.8757 40.1564 78.8862 40.3809 78.8672C40.6067 78.8413 40.8271 78.7789 41.031 78.681C41.2335 78.5798 41.4153 78.4416 41.5708 78.2798C41.7279 78.1189 41.8518 77.9272 41.9395 77.7221C42.0267 77.5173 42.0863 77.2984 42.0942 77.0762C42.106 76.853 42.0783 76.6362 42.0271 76.4144C41.9823 76.1934 41.9375 75.9733 41.8929 75.7539C41.5364 73.9984 41.1897 72.2912 40.8555 70.6451C40.1881 67.353 39.5705 64.3058 39.0233 61.6066L39.0559 61.6333C34.9479 61.6259 31.5761 61.62 29.2292 61.6158C28.055 61.6122 27.1375 61.6093 26.5116 61.6074C26.1999 61.6058 25.9612 61.6045 25.7982 61.6037C25.6369 61.6022 25.5521 61.5997 25.5521 61.5997Z" fill="#263238"/>
<path d="M26.4231 62.0723C26.4231 62.2281 24.3365 72.9307 23.5749 76.4851C23.4381 77.1236 23.9248 77.7257 24.578 77.7257H39.9788C40.5823 77.7257 41.0343 77.1726 40.9139 76.5812L38.062 62.0723H26.4231Z" fill="#E0E0E0"/>
<g opacity="0.3">
<path d="M23.8662 70.262C23.8662 70.262 25.9465 71.5565 28.8718 70.874C31.7973 70.1914 35.9712 67.0937 40.5801 69.0975L40.2104 67.2797C40.2104 67.2797 38.8181 65.6082 36.2177 65.8357C33.6174 66.0633 31.2771 69.4437 29.0344 69.5087C26.7917 69.5737 24.5813 67.0383 24.5813 67.0383L23.8662 70.262Z" fill="white"/>
</g>
<path d="M40.1784 72.8328L40.9149 76.5798C41.0352 77.1712 40.5832 77.7243 39.9797 77.7243H24.5789C23.9258 77.7243 23.4391 77.1222 23.5759 76.4837C23.7724 75.5666 24.0572 74.1733 24.3716 72.6083C24.3716 72.6083 27.3972 73.2851 30.7837 73.2062C34.1703 73.1275 39.972 71.7832 39.972 71.7832L40.1784 72.8328Z" fill="#9B4E9D"/>
<path d="M39.1664 62.0212H25.3203C25.0134 62.0212 24.7646 61.7724 24.7646 61.4655V61.3701C24.7646 61.0633 25.0134 60.8145 25.3203 60.8145H39.1664C39.4733 60.8145 39.7221 61.0633 39.7221 61.3701V61.4655C39.7221 61.7724 39.4733 62.0212 39.1664 62.0212Z" fill="white"/>
<path d="M39.1655 62.022C39.162 62.0122 39.2849 62.0366 39.4623 61.9257C39.5468 61.8692 39.641 61.7721 39.6844 61.6276C39.7076 61.5556 39.709 61.4758 39.7068 61.3871C39.7081 61.3006 39.6892 61.2094 39.6445 61.1236C39.5578 60.9516 39.3527 60.8154 39.1127 60.8351C38.8709 60.8362 38.6087 60.8374 38.3269 60.8385C37.7625 60.8402 37.1207 60.8423 36.4114 60.8447C33.5697 60.8479 29.6497 60.8522 25.3201 60.8569C25.0658 60.8522 24.8332 61.0601 24.8092 61.31C24.8037 61.3681 24.8041 61.4422 24.8071 61.5023C24.8114 61.5638 24.8266 61.6243 24.8522 61.6801C24.9026 61.7921 24.9951 61.8842 25.1066 61.9342C25.2175 61.9895 25.3426 61.9807 25.4762 61.9809C25.6071 61.9809 25.7375 61.981 25.8673 61.981C26.1269 61.9812 26.3845 61.9814 26.6399 61.9814C27.6612 61.9822 28.6463 61.983 29.5849 61.9838C31.461 61.9871 33.1508 61.9902 34.5713 61.9927C35.9879 61.9983 37.1356 62.0028 37.933 62.006C38.3271 62.0094 38.6343 62.0121 38.8469 62.0138C38.9487 62.0156 39.0277 62.0171 39.0847 62.018C39.1381 62.0191 39.1655 62.022 39.1655 62.022C39.1655 62.022 39.1381 62.0249 39.0845 62.0263C39.0276 62.0273 38.9485 62.0287 38.8468 62.0305C38.6341 62.0323 38.3268 62.035 37.9329 62.0383C37.1356 62.0415 35.9879 62.046 34.5711 62.0516C33.1506 62.0542 31.4609 62.0572 29.5847 62.0606C28.6461 62.0614 27.661 62.0622 26.6397 62.063C26.3844 62.0631 26.1268 62.0631 25.8671 62.0633C25.7372 62.0633 25.6069 62.0634 25.4761 62.0634C25.4093 62.0625 25.3479 62.0657 25.2765 62.0614C25.2063 62.0562 25.1365 62.0388 25.0721 62.0095C24.9426 61.9516 24.8354 61.8449 24.7765 61.7147C24.7468 61.6497 24.729 61.5793 24.724 61.5079C24.7208 61.4351 24.7202 61.3751 24.7265 61.3002C24.7543 61.0095 25.0245 60.7681 25.3199 60.7735C29.6495 60.7783 33.5695 60.7827 36.4113 60.7857C37.1205 60.7879 37.7623 60.79 38.3268 60.7919C38.6085 60.7932 38.8708 60.7943 39.1125 60.7953C39.3628 60.7767 39.5853 60.9252 39.6732 61.1086C39.7194 61.1998 39.7381 61.2975 39.7353 61.387C39.7362 61.4737 39.7333 61.5607 39.7079 61.6348C39.6597 61.7852 39.5597 61.8838 39.4713 61.9396C39.3807 61.9956 39.2997 62.0135 39.2466 62.0196C39.1932 62.026 39.1655 62.022 39.1655 62.022Z" fill="#263238"/>
<path d="M24.3711 72.6104C24.3711 72.6104 25.681 72.285 29.0049 72.0951C32.3287 71.9051 39.9324 71.5859 39.9324 71.5859L39.9716 71.7853C39.9716 71.7853 34.1805 73.1707 30.2157 73.2146C26.2508 73.2586 24.3711 72.6104 24.3711 72.6104Z" fill="#9B4E9D"/>
<g opacity="0.3">
<path d="M24.3711 72.6104C24.3711 72.6104 25.681 72.285 29.0049 72.0951C32.3287 71.9051 39.9324 71.5859 39.9324 71.5859L39.9716 71.7853C39.9716 71.7853 34.1805 73.1707 30.2157 73.2146C26.2508 73.2586 24.3711 72.6104 24.3711 72.6104Z" fill="white"/>
</g>
<path d="M34.268 68.0846C34.268 68.1076 32.8627 68.1262 31.1298 68.1262C29.3962 68.1262 27.9912 68.1075 27.9912 68.0846C27.9912 68.0617 29.3962 68.043 31.1298 68.043C32.8627 68.043 34.268 68.0617 34.268 68.0846Z" fill="#263238"/>
<path d="M34.268 71.7857C34.268 71.8088 32.8627 71.8273 31.1298 71.8273C29.3962 71.8273 27.9912 71.8088 27.9912 71.7857C27.9912 71.7627 29.3962 71.7441 31.1298 71.7441C32.8627 71.7441 34.268 71.7629 34.268 71.7857Z" fill="#263238"/>
<path d="M34.268 75.776C34.268 75.799 32.8627 75.8176 31.1298 75.8176C29.3962 75.8176 27.9912 75.7989 27.9912 75.776C27.9912 75.7529 29.3962 75.7344 31.1298 75.7344C32.8627 75.7344 34.268 75.7531 34.268 75.776Z" fill="#263238"/>
<path d="M34.268 64.6549C34.268 64.6779 32.8627 64.6965 31.1298 64.6965C29.3962 64.6965 27.9912 64.6778 27.9912 64.6549C27.9912 64.632 29.3962 64.6133 31.1298 64.6133C32.8627 64.6133 34.268 64.6318 34.268 64.6549Z" fill="#263238"/>
<path d="M31.6183 66.3834C31.6183 66.4064 30.8064 66.425 29.8053 66.425C28.8039 66.425 27.9922 66.4063 27.9922 66.3834C27.9922 66.3605 28.8037 66.3418 29.8053 66.3418C30.8066 66.3418 31.6183 66.3605 31.6183 66.3834Z" fill="#263238"/>
<path d="M31.6183 69.901C31.6183 69.924 30.8064 69.9426 29.8053 69.9426C28.8039 69.9426 27.9922 69.9239 27.9922 69.901C27.9922 69.8779 28.8037 69.8594 29.8053 69.8594C30.8066 69.8594 31.6183 69.8781 31.6183 69.901Z" fill="#263238"/>
<path d="M31.6183 73.7174C31.6183 73.7404 30.8064 73.759 29.8053 73.759C28.8039 73.759 27.9922 73.7404 27.9922 73.7174C27.9922 73.6943 28.8037 73.6758 29.8053 73.6758C30.8066 73.6756 31.6183 73.6943 31.6183 73.7174Z" fill="#263238"/>
<g opacity="0.3">
<path d="M26.4919 62.0801L23.5735 76.5015C23.4447 77.1383 23.9314 77.7335 24.5812 77.7335H34.8356C34.8356 77.7335 26.0098 77.4583 25.2509 76.3374C24.4916 75.2151 26.4919 62.0801 26.4919 62.0801Z" fill="black"/>
</g>
<g opacity="0.3">
<path d="M34.2686 62.0195L35.9358 77.7245L39.7314 77.7922C39.9151 77.4394 37.4361 62.0195 37.4361 62.0195H34.2686Z" fill="white"/>
</g>
<path d="M37.9114 77.7994C37.9114 77.8225 35.2881 77.841 32.0527 77.841C28.8162 77.841 26.1934 77.8223 26.1934 77.7994C26.1934 77.7765 28.8162 77.7578 32.0527 77.7578C35.2881 77.7578 37.9114 77.7764 37.9114 77.7994Z" fill="#263238"/>
<g opacity="0.2">
<path d="M33.9827 74.8611C33.9827 75.0939 33.7939 75.2825 33.5611 75.2825C33.3283 75.2825 33.1396 75.0937 33.1396 74.8611C33.1396 74.6283 33.3283 74.4395 33.5611 74.4395C33.7939 74.4395 33.9827 74.6283 33.9827 74.8611Z" fill="black"/>
</g>
<g opacity="0.2">
<path d="M27.1541 75.4091C27.1541 75.6416 26.9656 75.8299 26.7333 75.8299C26.5008 75.8299 26.3125 75.6414 26.3125 75.4091C26.3125 75.1768 26.501 74.9883 26.7333 74.9883C26.9656 74.9883 27.1541 75.1766 27.1541 75.4091Z" fill="black"/>
</g>
<g opacity="0.2">
<path d="M35.81 76.911C36.2244 76.911 36.5604 76.575 36.5604 76.1606C36.5604 75.7461 36.2244 75.4102 35.81 75.4102C35.3955 75.4102 35.0596 75.7461 35.0596 76.1606C35.0596 76.575 35.3955 76.911 35.81 76.911Z" fill="black"/>
</g>
<g opacity="0.2">
<path d="M32.3389 74.8614C32.4786 74.8614 32.5919 74.7481 32.5919 74.6084C32.5919 74.4687 32.4786 74.3555 32.3389 74.3555C32.1992 74.3555 32.0859 74.4687 32.0859 74.6084C32.0859 74.7481 32.1992 74.8614 32.3389 74.8614Z" fill="black"/>
</g>
<g opacity="0.2">
<path d="M39.5957 73.8633C39.7354 73.8633 39.8487 73.7501 39.8487 73.6104C39.8487 73.4707 39.7354 73.3574 39.5957 73.3574C39.456 73.3574 39.3428 73.4707 39.3428 73.6104C39.3428 73.7501 39.456 73.8633 39.5957 73.8633Z" fill="black"/>
</g>
</g>
<defs>
<clipPath id="clip0_1971_11779">
<rect width="80" height="80" rx="40" fill="white"/>
</clipPath>
</defs>
</svg>
