<svg width="80" height="80" viewBox="0 0 80 80" fill="none" xmlns="http://www.w3.org/2000/svg">
<g clip-path="url(#clip0_1970_9577)">
<rect width="80" height="80" rx="40" fill="#FFCF43"/>
<rect x="6" y="7" width="59.5255" height="56.4599" rx="5.10949" fill="#3FB5C4"/>
<rect x="12.3867" y="13.6426" width="53.1387" height="56.4599" rx="5.10949" fill="#5AC6D4"/>
<rect x="18.5186" y="20.541" width="47.5182" height="56.4599" rx="5.10949" fill="#60D1E0"/>
<path d="M31.8025 42.7657C31.8025 41.7494 31.3853 40.7747 30.6427 40.056C29.9001 39.3373 28.8929 38.9336 27.8427 38.9336C26.7924 38.9336 25.7852 39.3373 25.0426 40.056C24.3 40.7747 23.8828 41.7494 23.8828 42.7657L26.2687 42.7657C26.2687 42.3617 26.4346 41.9743 26.7297 41.6887C27.0249 41.403 27.4252 41.2426 27.8427 41.2426C28.2601 41.2426 28.6604 41.403 28.9556 41.6887C29.2508 41.9743 29.4166 42.3617 29.4166 42.7657H31.8025Z" fill="#3B9DC7"/>
<path d="M31.8025 55.0294C31.8025 54.013 31.3853 53.0383 30.6427 52.3197C29.9001 51.601 28.8929 51.1973 27.8427 51.1973C26.7924 51.1973 25.7852 51.601 25.0426 52.3197C24.3 53.0383 23.8828 54.013 23.8828 55.0294L26.2687 55.0294C26.2687 54.6254 26.4346 54.238 26.7297 53.9523C27.0249 53.6667 27.4252 53.5062 27.8427 53.5062C28.2601 53.5062 28.6604 53.6667 28.9556 53.9523C29.2508 54.238 29.4166 54.6254 29.4166 55.0294H31.8025Z" fill="#3B9DC7"/>
<path d="M31.8025 68.0587C31.8025 67.0423 31.3853 66.0676 30.6427 65.349C29.9001 64.6303 28.8929 64.2266 27.8427 64.2266C26.7924 64.2266 25.7852 64.6303 25.0426 65.349C24.3 66.0676 23.8828 67.0423 23.8828 68.0587L26.2687 68.0587C26.2687 67.6547 26.4346 67.2673 26.7297 66.9816C27.0249 66.696 27.4252 66.5355 27.8427 66.5355C28.2601 66.5355 28.6604 66.696 28.9556 66.9816C29.2508 67.2673 29.4166 67.6547 29.4166 68.0587H31.8025Z" fill="#3B9DC7"/>
<path d="M31.8025 42.7655C31.8025 43.7819 31.3853 44.7566 30.6427 45.4753C29.9001 46.1939 28.8929 46.5977 27.8427 46.5977C26.7924 46.5977 25.7852 46.1939 25.0426 45.4753C24.3 44.7566 23.8828 43.7819 23.8828 42.7655L26.2687 42.7655C26.2687 43.1695 26.4346 43.5569 26.7297 43.8426C27.0249 44.1282 27.4252 44.2887 27.8427 44.2887C28.2601 44.2887 28.6604 44.1282 28.9556 43.8426C29.2508 43.5569 29.4166 43.1695 29.4166 42.7655H31.8025Z" fill="#3B9DC7"/>
<path d="M31.8025 55.0292C31.8025 56.0456 31.3853 57.0203 30.6427 57.7389C29.9001 58.4576 28.8929 58.8613 27.8427 58.8613C26.7924 58.8613 25.7852 58.4576 25.0426 57.7389C24.3 57.0203 23.8828 56.0456 23.8828 55.0292L26.2687 55.0292C26.2687 55.4332 26.4346 55.8206 26.7297 56.1062C27.0249 56.3919 27.4252 56.5524 27.8427 56.5524C28.2601 56.5524 28.6604 56.3919 28.9556 56.1062C29.2508 55.8206 29.4166 55.4332 29.4166 55.0292H31.8025Z" fill="#3B9DC7"/>
<path d="M31.8025 68.0585C31.8025 69.0748 31.3853 70.0496 30.6427 70.7682C29.9001 71.4869 28.8929 71.8906 27.8427 71.8906C26.7924 71.8906 25.7852 71.4869 25.0426 70.7682C24.3 70.0496 23.8828 69.0748 23.8828 68.0585L26.2687 68.0585C26.2687 68.4625 26.4346 68.8499 26.7297 69.1355C27.0249 69.4212 27.4252 69.5817 27.8427 69.5817C28.2601 69.5817 28.6604 69.4212 28.9556 69.1355C29.2508 68.8499 29.4166 68.4625 29.4166 68.0585H31.8025Z" fill="#3B9DC7"/>
<rect x="34.3574" y="25.9043" width="7.66423" height="2.55474" fill="#3B9DC7"/>
<rect x="34.3574" y="31.0137" width="7.66423" height="2.55474" fill="#3B9DC7"/>
<rect x="34.3574" y="38.6797" width="20.438" height="2.55474" fill="#3B9DC7"/>
<rect x="34.3574" y="43.7891" width="25.5474" height="2.55474" fill="#3B9DC7"/>
<rect x="34.3574" y="51.4531" width="25.5474" height="2.55474" fill="#3B9DC7"/>
<rect x="34.3574" y="69.3359" width="22.9927" height="2.55474" fill="#3B9DC7"/>
<path d="M66.5052 31.4109H62.2473L57.5104 34.5933C56.8078 35.0664 55.8605 34.561 55.8605 33.7009V31.4109C52.667 31.4109 50.5381 29.2607 50.5381 26.0353V19.5846C50.5381 16.3592 52.667 14.209 55.8605 14.209H66.5052C69.6987 14.209 71.8276 16.3592 71.8276 19.5846V26.0353C71.8276 29.2607 69.6987 31.4109 66.5052 31.4109Z" fill="#E87E2C"/>
<path d="M61.1825 24.6167C60.7461 24.6167 60.3842 24.2512 60.3842 23.8104V23.5847C60.3842 22.3375 61.289 21.7247 61.6296 21.4882C62.0235 21.2194 62.1512 21.0366 62.1512 20.7571C62.1512 20.2195 61.7148 19.7787 61.1825 19.7787C60.6503 19.7787 60.2139 20.2195 60.2139 20.7571C60.2139 21.1979 59.852 21.5634 59.4155 21.5634C58.9791 21.5634 58.6172 21.1979 58.6172 20.7571C58.6172 19.3272 59.7668 18.166 61.1825 18.166C62.5983 18.166 63.7479 19.3272 63.7479 20.7571C63.7479 21.9827 62.8538 22.5955 62.5238 22.8213C62.1087 23.1008 61.9809 23.2836 61.9809 23.5847V23.8104C61.9809 24.262 61.619 24.6167 61.1825 24.6167Z" fill="#FFF3A3"/>
<path d="M61.1831 27.2963C60.736 27.2963 60.3848 26.9307 60.3848 26.4899C60.3848 26.0491 60.7467 25.6836 61.1831 25.6836C61.6196 25.6836 61.9815 26.0491 61.9815 26.4899C61.9815 26.9307 61.6302 27.2963 61.1831 27.2963Z" fill="#FFF3A3"/>
<path d="M42.0215 57.8398H76.5105C78.627 57.8398 80.3427 59.5555 80.3427 61.672C80.3427 63.7884 78.627 65.5041 76.5105 65.5041H42.0215V57.8398Z" fill="#6E3D26"/>
<path d="M35.7627 61.672L42.0218 65.5041V57.8398L35.7627 61.672Z" fill="#FFB531"/>
<path d="M59.9053 71.8909V69.3362H72.8067C73.6031 69.2049 73.8413 68.9408 73.9564 68.1866V57.8398H76.5111L76.3834 68.1866C76.3049 70.7086 75.447 71.681 73.1899 71.8909H59.9053Z" fill="#FFB531"/>
<rect x="54.7959" y="57.8398" width="2.55474" height="7.66423" fill="#FFB531"/>
<path d="M29.7594 20.541L18.5186 31.7819H25.1609C28.3887 31.7521 29.5988 31.0991 29.7594 27.822V20.541Z" fill="#9FE4ED"/>
<path d="M29.7588 20.5404L18.5179 31.7812V25.1389C18.5477 21.9111 19.2007 20.701 22.4778 20.5404H29.7588Z" fill="#5AC6D4"/>
</g>
<defs>
<clipPath id="clip0_1970_9577">
<rect width="80" height="80" rx="40" fill="white"/>
</clipPath>
</defs>
</svg>
