<svg width="80" height="80" viewBox="0 0 80 80" fill="none" xmlns="http://www.w3.org/2000/svg">
<g clip-path="url(#clip0_1972_12555)">
<rect width="80" height="80" rx="40" fill="#FFCF43"/>
<path d="M26.6322 25.871C26.6322 25.871 12.0212 38.6912 12.3846 59.1433L23.0895 60.9274C23.0895 60.9274 31.4358 20.4132 26.6322 25.871Z" fill="#D4ECFF"/>
<path d="M52.6512 25.3337C52.6512 25.3337 66.6736 38.6919 66.3105 59.144L55.6053 60.9281C55.6053 60.9281 47.8476 19.8758 52.6512 25.3337Z" fill="#D4ECFF"/>
<path d="M57.1988 57.6318C56.7872 43.4954 52.4639 25.5163 52.4639 25.5163C51.6697 24.4296 46.2679 23.9773 42.1659 23.79V23.6582C42.1659 23.6582 41.2195 23.6635 39.8006 23.7032C38.382 23.6635 37.4356 23.6582 37.4356 23.6582V23.79C33.3336 23.9773 27.9317 24.4296 27.1376 25.5163C27.1376 25.5163 22.8143 43.4954 22.4027 57.6318C22.1208 67.3163 31.4999 69.6572 37.4356 70.1715V70.2586C37.4356 70.2586 38.3576 70.327 39.8006 70.2976C41.2439 70.327 42.1659 70.2586 42.1659 70.2586V70.1715C48.1019 69.6572 57.4811 67.3163 57.1988 57.6318Z" fill="white"/>
<path d="M29.9519 25.8398C29.9519 25.8398 27.7445 34.7607 29.5743 40.3421C29.5743 40.3421 33.8977 41.0969 36.8141 41.3027L36.1738 30.5061L29.9519 25.8398Z" fill="#FFCFFC"/>
<path d="M52.9961 25.6824C52.9961 25.6824 52.8048 26.1428 52.4188 26.8477C52.2877 27.0815 52.1389 27.3436 51.9689 27.6234C51.7918 27.9103 51.5935 28.2184 51.3739 28.5372C51.2145 28.7639 51.048 28.9941 50.8709 29.2279C50.6371 29.5325 50.3857 29.8407 50.1129 30.1488C49.7977 30.5066 49.4577 30.8572 49.0893 31.1972C48.9972 31.2823 48.9016 31.3708 48.8059 31.4523C48.6041 31.6294 48.3951 31.7994 48.179 31.9694C48.1471 31.9906 48.1153 32.0154 48.0834 32.0402C47.8248 32.235 47.5556 32.4228 47.2758 32.5963C47.2616 32.6034 47.251 32.614 47.2369 32.6211C47.0102 32.7628 46.7728 32.8974 46.532 33.0214C46.4009 33.0887 46.2663 33.156 46.1317 33.2162C45.7102 33.411 45.271 33.581 44.807 33.7121C44.6477 33.7581 44.4847 33.8006 44.3183 33.836C43.8436 33.9494 43.3477 34.0202 42.8342 34.0485C42.6783 34.0592 42.5225 34.0663 42.3631 34.0663C41.8778 34.0698 41.3784 34.0344 40.8613 33.9565C40.4823 33.8998 40.1068 33.8289 39.7385 33.7439C39.526 33.6979 39.317 33.6483 39.108 33.5916C38.6865 33.4818 38.2721 33.3579 37.8683 33.2197C37.546 33.1099 37.2308 32.993 36.9226 32.8691C35.9946 32.4936 35.1162 32.058 34.298 31.5904C33.9509 31.3921 33.6144 31.1866 33.2921 30.9776C32.2578 30.3153 31.3334 29.614 30.5399 28.941C28.3758 27.1204 27.1396 25.5159 27.1396 25.5159C27.2849 25.2184 27.4443 24.9421 27.6143 24.6765C27.7701 24.4285 27.9366 24.1948 28.1137 23.9716C28.3298 23.6918 28.56 23.4332 28.8008 23.1924C28.9921 22.994 29.194 22.8098 29.3959 22.6363C29.658 22.4096 29.9272 22.2042 30.1928 22.02C30.6356 21.7083 31.0748 21.4533 31.4786 21.2478C31.5778 21.1947 31.6734 21.1486 31.7655 21.1061C32.442 20.7803 32.9981 20.5961 33.2921 20.5111C33.4196 20.4721 33.4975 20.4509 33.5152 20.4473C33.5188 20.4473 33.5188 20.4473 33.5188 20.4473C34.0713 20.7626 34.6026 21.0318 35.1091 21.2549C35.4527 21.4072 35.7892 21.5418 36.1115 21.6551C36.7242 21.8748 37.3016 22.0271 37.8435 22.1262C37.8718 22.1298 37.9002 22.1369 37.925 22.1404C38.2048 22.19 38.474 22.2254 38.7361 22.2467C38.8813 22.2608 39.023 22.2679 39.1611 22.2714C39.6605 22.2927 40.1246 22.2644 40.5496 22.1971C40.84 22.1581 41.1092 22.0979 41.3642 22.0306C41.7326 21.9279 42.0656 21.8039 42.3631 21.6658C42.6216 21.5489 42.8554 21.4178 43.0609 21.2939C43.8259 20.8086 44.1978 20.334 44.1978 20.334C44.2368 20.3411 44.2793 20.3517 44.3183 20.3623C44.5095 20.4013 44.6972 20.4473 44.885 20.5005C45.3171 20.6173 45.7457 20.7626 46.1601 20.929C46.5391 21.0814 46.9145 21.2478 47.2758 21.432C48.2357 21.9066 49.1247 22.4698 49.9004 23.0294C51.7777 24.3718 52.9961 25.6824 52.9961 25.6824Z" fill="#EAB5E9"/>
<path opacity="0.46" d="M51.9689 27.6234C52.1389 27.3436 52.2877 27.0815 52.4187 26.8477L49.9004 23.1747V23.0294C49.1247 22.4698 48.2357 21.9066 47.2758 21.432V22.5548L46.1601 20.929C45.7457 20.7626 45.3171 20.6173 44.885 20.5005L45.3206 21.138V23.1605L44.3182 21.6976V20.3623C44.2793 20.3517 44.2368 20.3411 44.1978 20.334C44.1978 20.334 43.8259 20.8086 43.0608 21.2939L43.5071 21.9456V23.7237L42.3631 22.0554V21.6658C42.0655 21.8039 41.7326 21.9279 41.3642 22.0306L41.5555 22.3069V24.3293L40.5496 22.863V22.1971C40.1245 22.2644 39.6605 22.2927 39.1611 22.2714L39.7385 23.1144V24.8925L38.7361 23.4261V22.2467C38.474 22.2254 38.2048 22.19 37.925 22.1404V22.2431L37.8435 22.1262C37.3016 22.0271 36.7242 21.8748 36.1115 21.6551V22.8063L35.1091 21.3399V21.2549C34.6026 21.0318 34.0713 20.7626 33.5187 20.4473C33.5187 20.4473 33.5187 20.4473 33.5152 20.4473L34.298 21.5914V23.3695L33.2921 21.9031V20.5111C32.9981 20.5961 32.442 20.7803 31.7655 21.1061L32.4845 22.1546V23.9291L31.4786 22.4663V21.2478C31.0748 21.4533 30.6356 21.7083 30.1928 22.02L30.671 22.7142V24.4923L29.3959 22.6363C29.194 22.8098 28.9921 22.994 28.8008 23.1924L30.671 25.9232V27.7013L28.1137 23.9716C27.9366 24.1948 27.7701 24.4285 27.6143 24.6765L30.5399 28.941C31.3333 29.614 32.2578 30.3153 33.2921 30.9776V29.7521L34.298 31.2185V31.5904C35.1162 32.058 35.9946 32.4936 36.9226 32.8691V31.8348L37.8683 33.2197C38.2721 33.3579 38.6865 33.4818 39.108 33.5916L38.7361 33.0497V31.2752L39.7385 32.738V33.7439C40.1068 33.8289 40.4823 33.8998 40.8613 33.9565C41.3784 34.0344 41.8778 34.0698 42.3631 34.0663V33.3579L42.8341 34.0485C43.3477 34.0202 43.8436 33.9494 44.3182 33.836V33.0001L44.807 33.7121C45.271 33.581 45.7102 33.411 46.1317 33.2162V32.4369L46.532 33.0214L46.5957 33.117L47.2652 32.6601L47.2368 32.6211L46.1317 31.006V28.9835L47.2758 30.6518V32.5963C47.5556 32.4228 47.8248 32.235 48.0834 32.0402V31.8348L48.179 31.9694L48.2073 32.0119L48.8768 31.555L48.8059 31.4523L48.0834 30.4003V28.6258L49.0893 30.0886V31.1972C49.4577 30.8572 49.7977 30.5066 50.1129 30.1488L49.9004 29.8407V27.8147L50.8709 29.2279C51.048 28.9941 51.2145 28.7639 51.3739 28.5372L49.9004 26.3837V24.6056L51.9689 27.6234ZM32.4845 30.3472L31.4786 28.8808V27.1063L32.4845 28.5691V30.3472ZM32.4845 27.1381L31.4786 25.6753V23.8972L32.4845 25.3636V27.1381ZM34.298 29.784L33.2921 28.3212V26.5431L34.298 28.0095V29.784ZM34.298 26.5785L33.2921 25.1121V23.334L34.298 24.8004V26.5785ZM36.1115 32.4334L35.1091 30.967V29.1889L36.1115 30.6553V32.4334ZM36.1115 29.2244L35.1091 27.758V25.9799L36.1115 27.4463V29.2244ZM36.1115 26.0153L35.1091 24.549V22.7744L36.1115 24.2373V26.0153ZM37.925 31.8702L36.9226 30.4038V28.6293L37.925 30.0921V31.8702ZM37.925 28.6612L36.9226 27.1948V25.4203L37.925 26.8831V28.6612ZM37.925 25.4522L36.9226 23.9858V22.2112L37.925 23.6776V25.4522ZM39.7385 31.307L38.7361 29.8407V28.0661L39.7385 29.5325V31.307ZM39.7385 28.098L38.7361 26.6352V24.8571L39.7385 26.3235V28.098ZM41.5555 33.9529L40.5496 32.4901V30.712L41.5555 32.1784V33.9529ZM41.5555 30.7474L40.5496 29.281V27.503L41.5555 28.9693V30.7474ZM41.5555 27.5384L40.5496 26.072V24.2939L41.5555 25.7603V27.5384ZM43.5071 33.5952L42.3631 31.9269V30.1488L43.5071 31.8206V33.5952ZM43.5071 30.3861L42.3631 28.7179V26.9433L43.5071 28.6116V30.3861ZM43.5071 27.1806L42.3631 25.5088V23.4864L43.5071 25.1546V27.1806ZM45.3206 33.0355L44.3182 31.5691V29.7911L45.3206 31.2575V33.0355ZM45.3206 29.8265L44.3182 28.3601V26.3376L45.3206 27.8005V29.8265ZM45.3206 26.3695L44.3182 24.9031V23.1286L45.3206 24.595V26.3695ZM47.2758 29.2208L46.1317 27.5525V25.7745L47.2758 27.4427V29.2208ZM47.2758 26.0118L46.1317 24.3435V22.3175L47.2758 23.9893V26.0118ZM49.0893 28.6576L48.0834 27.1913V25.1688L49.0893 26.6352V28.6576ZM49.0893 25.2042L48.0834 23.7378V21.9598L49.0893 23.4261V25.2042Z" fill="#E891BB"/>
<path d="M45.7682 20.8204C45.7682 20.8204 45.7257 20.8877 45.6371 21.0081C45.5238 21.164 45.3254 21.4048 45.0421 21.6811C44.741 21.9822 44.3372 22.3222 43.8236 22.6516C43.7138 22.7224 43.6005 22.7933 43.4836 22.8606C43.2605 22.9881 43.0161 23.1156 42.7575 23.2325C42.7327 23.2431 42.7044 23.2537 42.6796 23.2644C42.4281 23.3777 42.1554 23.4804 41.8685 23.576C41.8401 23.5831 41.8153 23.5938 41.787 23.6008C41.5249 23.6823 41.2486 23.7567 40.9582 23.8204C40.9263 23.8275 40.898 23.8346 40.8661 23.8382C40.6075 23.8948 40.3383 23.9409 40.055 23.9727C39.9912 23.9834 39.9275 23.9905 39.8637 23.9975C39.6051 24.0259 39.3359 24.0436 39.0597 24.0542C39.0136 24.0577 38.9676 24.0578 38.9215 24.0578H38.9109C38.6417 24.0613 38.3725 24.0436 38.1033 24.0082C37.944 23.994 37.7846 23.9692 37.6252 23.9373C37.1683 23.8559 36.7184 23.7284 36.2863 23.576C35.9392 23.4556 35.6027 23.3175 35.2839 23.1723C34.1363 22.648 33.1906 22.0105 32.6593 21.6209C32.3618 21.4048 32.1953 21.2631 32.1953 21.2631C32.213 21.1002 32.2414 20.9408 32.2803 20.785C32.3582 20.4626 32.4787 20.1474 32.6203 19.8499C32.6345 19.8251 32.6487 19.8003 32.6593 19.7755C32.9568 19.1911 33.35 18.6669 33.7219 18.2454C33.9805 17.9443 34.232 17.6964 34.4338 17.5122C34.6924 17.2713 34.866 17.1367 34.866 17.1367C35.0041 17.2005 35.1422 17.2607 35.2839 17.3174C35.6169 17.452 35.9534 17.5582 36.2863 17.6468C36.8282 17.7849 37.3666 17.8664 37.8873 17.9053C37.9617 17.9089 38.0325 17.9124 38.1033 17.916C38.3796 17.9301 38.6488 17.9337 38.9109 17.923C38.9782 17.923 39.0455 17.923 39.1093 17.916C39.4316 17.9053 39.7433 17.877 40.0373 17.838H40.055C40.3419 17.7991 40.6146 17.753 40.8661 17.7034C41.0078 17.6751 41.1459 17.6468 41.2734 17.6149C41.9535 17.4555 42.4529 17.2819 42.6796 17.1934C42.7717 17.158 42.8213 17.1367 42.8213 17.1367C42.9877 17.1934 43.1436 17.2678 43.2923 17.3528C45.0456 18.3233 45.7682 20.8204 45.7682 20.8204Z" fill="#FFCFFC"/>
<path d="M45.4554 11.9208C45.0031 11.4997 44.4959 11.8184 44.2218 12.06C43.8559 8.91543 41.5901 6.49414 38.8482 6.49414C36.128 6.49414 33.8756 8.87683 33.4825 11.9849C33.1963 11.7611 32.7464 11.5425 32.3398 11.9208C31.5071 12.6961 31.7944 14.6772 32.7418 15.2513C33.2607 15.5659 33.6234 15.6215 33.8462 15.608C34.6694 18.1873 36.5987 20.3334 38.8479 20.3334C41.1002 20.3334 43.0316 18.1809 43.8527 15.5974C44.0599 15.6332 44.4523 15.6158 45.0534 15.2513C46.0009 14.6772 46.2881 12.6961 45.4554 11.9208Z" fill="url(#paint0_radial_1972_12555)"/>
<path d="M34.7232 13.4143C34.7232 13.4143 35.7762 9.85463 35.0342 8.36133L33.6032 9.1937C33.6032 9.1937 33.0882 10.8336 33.1304 11.7797C33.1304 11.7797 33.7123 12.1406 34.7232 13.4143Z" fill="#5F3E1B"/>
<path d="M43.3961 13.4143C43.3961 13.4143 42.3431 9.85463 43.0851 8.36133L44.5161 9.1937C44.5161 9.1937 45.0311 10.8336 44.9889 11.7797C44.9889 11.7797 44.4066 12.1406 43.3961 13.4143Z" fill="#5F3E1B"/>
<path d="M44.9195 10.8879C44.6906 5.62312 40.4364 5.05959 39.2222 5.00575V5.0015C39.2222 5.0015 39.1634 4.99902 39.0603 5.00044C38.9576 4.99902 38.8985 5.0015 38.8985 5.0015V5.00575C37.6843 5.05923 33.43 5.62312 33.2012 10.8879C33.2012 10.8879 35.014 8.82365 39.0603 8.71279C43.1067 8.8233 44.9195 10.8879 44.9195 10.8879Z" fill="white"/>
<path d="M29.5742 40.3398C29.5742 40.3398 29.6312 41.7124 30.3864 41.9638C31.1412 42.2153 31.2556 41.3004 31.2556 41.3004C31.2556 41.3004 31.37 42.1696 32.1248 42.3071C32.8796 42.4441 32.971 41.4379 32.971 41.4379C32.971 41.4379 33.1998 42.4215 33.9089 42.4902C34.618 42.5589 34.7094 41.6897 34.7094 41.6897C34.7094 41.6897 35.2127 42.696 35.9675 42.719C36.7223 42.742 36.8452 41.8317 36.8137 41.3008L29.5742 40.3398Z" fill="#EAB5E9"/>
<path d="M66.221 58.0457C54.8382 57.9589 41.063 65.3963 39.8014 66.0913C38.5397 65.3967 24.7646 57.9589 13.3818 58.0457C3.43941 58.1215 0.892372 65.1824 2.40196 71.6331C3.91156 78.0837 12.4208 80.0049 17.7735 80.2794C22.3607 80.5146 35.9955 80.3467 39.801 80.2939C43.6069 80.3467 57.2417 80.5146 61.829 80.2794C67.1816 80.0049 75.6909 78.0834 77.2005 71.6331C78.7104 65.1824 76.1634 58.1215 66.221 58.0457Z" fill="#0A3575"/>
<path d="M26.5215 25.8403C26.5215 25.8403 30.0968 32.8216 39.2383 34.668C49.8869 36.8187 53.8344 26.5813 53.8344 26.5813L52.9967 25.6852C52.9967 25.6852 48.3603 33.6426 42.9357 33.7953C33.197 34.0694 27.3028 25.207 27.3028 25.207L26.5215 25.8403Z" fill="#D882BB"/>
<path d="M4.87305 44.5904C4.87305 44.5904 7.97122 41.4395 9.54953 40.3418C9.54953 40.3418 14.3723 40.9337 20.1631 43.1552C28.1233 46.2087 38.6692 53.8601 38.6692 53.8601V57.7945C38.6692 57.7945 5.01012 46.7177 4.87305 44.5904Z" fill="#FFF0BE"/>
<path d="M73.7121 44.8139C73.7121 44.8139 70.5108 41.4398 68.9322 40.3418C68.9322 40.3418 64.1094 40.9337 58.3186 43.1552C50.3584 46.2087 39.8125 53.8601 39.8125 53.8601V57.7946C39.8125 57.7946 73.5747 46.9412 73.7121 44.8139Z" fill="#FFF0BE"/>
<path d="M36.8271 56.4598C36.8271 56.4598 37.4459 53.7335 39.2644 53.7679C41.0828 53.8023 41.5975 56.8902 41.5975 56.8902C41.5975 56.8902 40.4308 57.4392 38.9555 57.4392C37.4803 57.4392 36.8271 56.4598 36.8271 56.4598Z" fill="#D1BD9B"/>
<path d="M2.23047 45.3851L3.16838 44.127C3.16838 44.127 9.96191 44.127 22.0397 49.2051C34.1172 54.2832 38.0973 57.3024 38.0973 57.3024L37.6397 58.4691C37.6397 58.4691 14.1251 46.2316 2.23047 45.3851Z" fill="#F2B15C"/>
<path d="M75.6793 45.3851L74.7414 44.127C74.7414 44.127 67.9479 44.127 55.8701 49.2051C43.7923 54.2832 39.8125 57.3028 39.8125 57.3028L40.2701 58.4695C40.2701 58.4695 63.7846 46.2316 75.6793 45.3851Z" fill="#F2B15C"/>
<path d="M2.23047 45.3862L9.20711 65.2638L37.6397 74.4801V58.47C37.6397 58.47 13.0271 45.0204 2.23047 45.3862Z" fill="url(#paint1_linear_1972_12555)"/>
<path d="M75.6807 45.3862L69.0472 66.7965L40.2715 75.1226V58.4703C40.2715 58.4703 64.884 45.0204 75.6807 45.3862Z" fill="url(#paint2_linear_1972_12555)"/>
<path d="M40.2703 58.4688H37.6396V75.121H40.2703V58.4688Z" fill="#F2B15C"/>
<path d="M37.6396 58.4706L37.8401 57.1211H40.0698L40.2699 58.4706H37.6396Z" fill="#DD9E52"/>
<path d="M12.0216 65.6749L7.62988 52.362C7.62988 52.362 9.65412 51.95 9.92863 49.9258C9.92863 49.9258 25.1287 55.1066 32.128 58.8123C32.128 58.8123 32.6083 61.2828 34.4611 62.1063L34.7859 72.1252L12.0216 65.6749Z" fill="#BFFFD2"/>
<path d="M65.9492 66.2237L70.3409 52.9108C70.3409 52.9108 68.3167 52.4992 68.0422 50.4746C68.0422 50.4746 52.8421 55.6558 45.8428 59.3614C45.8428 59.3614 45.3625 61.832 43.5097 62.6551L43.1846 72.674L65.9492 66.2237Z" fill="#BFFFD2"/>
<path d="M27.6157 67.0835C26.574 69.1839 23.3097 69.6869 20.3248 68.2063C17.34 66.7261 15.7649 63.8231 16.8066 61.7227C17.8483 59.6224 21.1126 59.1197 24.0974 60.5999C27.0822 62.0801 28.6574 64.9831 27.6157 67.0835Z" fill="url(#paint3_radial_1972_12555)"/>
<path d="M50.8437 67.5835C51.8854 69.6839 55.1497 70.1869 58.1345 68.7063C61.1194 67.2261 62.6945 64.3231 61.6528 62.2227C60.6111 60.1224 57.3468 59.6197 54.362 61.0999C51.3771 62.5801 49.802 65.4831 50.8437 67.5835Z" fill="url(#paint4_radial_1972_12555)"/>
<path d="M73.7125 66.2472L73.3466 62.9531L39.8016 72.6022L6.25651 62.9531L5.89062 66.2472L33.9357 73.7168C29.8238 74.5513 18.4533 77.353 10.9231 83.9974H14.7661C14.7661 83.9974 30.2063 75.168 38.9557 75.1223L38.6479 74.9721L39.2125 75.1223C47.9619 75.168 63.4021 83.9974 63.4021 83.9974H67.2448C60.1594 77.7455 49.6738 74.8956 45.0341 73.8858L73.7125 66.2472Z" fill="#A85B35"/>
<path d="M39.8516 53.8445C39.8516 53.8445 42.8488 57.6772 42.8948 62.9842L44.1391 60.8799L45.4567 62.3392C45.4567 62.3392 45.0707 54.9067 41.7412 52.6094L39.8516 53.8445Z" fill="#A37E4E"/>
</g>
<defs>
<radialGradient id="paint0_radial_1972_12555" cx="0" cy="0" r="1" gradientUnits="userSpaceOnUse" gradientTransform="translate(38.8977 13.414) scale(12.6854 12.6854)">
<stop offset="0.1821" stop-color="#FFB4A9"/>
<stop offset="1" stop-color="#FF6A83"/>
</radialGradient>
<linearGradient id="paint1_linear_1972_12555" x1="2.23061" y1="59.9298" x2="37.6399" y2="59.9298" gradientUnits="userSpaceOnUse">
<stop stop-color="#B3FF93"/>
<stop offset="0.6686" stop-color="#38A39B"/>
<stop offset="1" stop-color="#00799E"/>
</linearGradient>
<linearGradient id="paint2_linear_1972_12555" x1="40.2713" y1="60.2509" x2="75.6806" y2="60.2509" gradientUnits="userSpaceOnUse">
<stop stop-color="#B3FF93"/>
<stop offset="0.6686" stop-color="#38A39B"/>
<stop offset="1" stop-color="#00799E"/>
</linearGradient>
<radialGradient id="paint3_radial_1972_12555" cx="0" cy="0" r="1" gradientUnits="userSpaceOnUse" gradientTransform="translate(9.53243 66.8707) scale(114.775 114.775)">
<stop stop-color="#B3FF93"/>
<stop offset="0.6686" stop-color="#38A39B"/>
<stop offset="1" stop-color="#00799E"/>
</radialGradient>
<radialGradient id="paint4_radial_1972_12555" cx="0" cy="0" r="1" gradientUnits="userSpaceOnUse" gradientTransform="translate(9.53292 66.8698) scale(114.775 114.775)">
<stop stop-color="#B3FF93"/>
<stop offset="0.6686" stop-color="#38A39B"/>
<stop offset="1" stop-color="#00799E"/>
</radialGradient>
<clipPath id="clip0_1972_12555">
<rect width="80" height="80" rx="40" fill="white"/>
</clipPath>
</defs>
</svg>
